<?xml version="1.0" encoding="UTF-8" standalone="no"?>
<!-- Uploaded to: SVG Repo, www.svgrepo.com, Generator: SVG Repo Mixer Tools -->

<svg
   width="800px"
   height="800px"
   viewBox="0 0 24 24"
   fill="none"
   version="1.1"
   id="svg1"
   sodipodi:docname="create_poi.svg"
   inkscape:version="1.3 (0e150ed6c4, 2023-07-21)"
   xmlns:inkscape="http://www.inkscape.org/namespaces/inkscape"
   xmlns:sodipodi="http://sodipodi.sourceforge.net/DTD/sodipodi-0.dtd"
   xmlns="http://www.w3.org/2000/svg"
   xmlns:svg="http://www.w3.org/2000/svg">
  <defs
     id="defs1" />
  <sodipodi:namedview
     id="namedview1"
     pagecolor="#ffffff"
     bordercolor="#666666"
     borderopacity="1.0"
     inkscape:showpageshadow="2"
     inkscape:pageopacity="0.0"
     inkscape:pagecheckerboard="0"
     inkscape:deskcolor="#d1d1d1"
     inkscape:zoom="0.4053125"
     inkscape:cx="-257.82575"
     inkscape:cy="1047.34"
     inkscape:window-width="1903"
     inkscape:window-height="1266"
     inkscape:window-x="300"
     inkscape:window-y="168"
     inkscape:window-maximized="0"
     inkscape:current-layer="svg1" />
  <path
     d="M 17.861657,6.7444833 H 15.981683 M 16.565697,2.4004871 14.571704,4.3944988 M 12.221736,2.9845384 V 1.1045658 M 9.8718096,4.3945272 7.8777985,2.4005155 M 8.4617937,6.7444833 H 6.5818209 M 9.8718096,9.0944486 7.8777985,11.088536 m 4.3439375,1.295866 v -1.879973 m 10.33985,6.579902 -7.519887,-7.5198885"
     stroke="#000000"
     stroke-width="1.40998"
     stroke-linecap="round"
     stroke-linejoin="round"
     id="path1" />
  <path
     d="m 5.4623947,12.58281 c -1.9341014,0 -3.5209529,1.581828 -3.5209529,3.511499 0,0.747877 0.2393129,1.444445 0.6431904,2.01525 l -0.012114,-0.01882 2.2850937,3.95014 0.00965,0.0126 c 0.090014,0.117588 0.1779582,0.21026 0.281168,0.278509 0.1033088,0.06835 0.2314343,0.109321 0.3569997,0.09681 0.2514264,-0.02521 0.4054532,-0.202677 0.5515031,-0.400726 l 0.00768,-0.01031 2.5195813,-4.288035 0.00155,-0.003 C 8.644827,17.619966 8.68836,17.511345 8.7253912,17.405575 A 3.4704313,3.4704313 0 0 0 8.9829145,16.09428 c 0,-1.929671 -1.586556,-3.511499 -3.5205592,-3.511499 z m 0,0.492414 c 1.6658343,0 3.0281444,1.35906 3.0281444,3.019085 0,0.399543 -0.079375,0.780671 -0.2227663,1.130876 l -0.00266,0.0061 -0.00211,0.0062 c -0.031907,0.09179 -0.066774,0.176284 -0.1080355,0.250934 l -2.498193,4.2513 c -0.1154218,0.153634 -0.1996244,0.199034 -0.2003138,0.199132 -2.955e-4,0 -0.00157,0.0053 -0.036143,-0.01753 -0.033287,-0.02197 -0.090111,-0.07623 -0.1563905,-0.161314 l -2.2708911,-3.925709 -0.00639,-0.0091 c -0.3479458,-0.491791 -0.5527898,-1.087908 -0.5527898,-1.7309 0,-1.659926 1.3627049,-3.019085 3.0285395,-3.019085 z m 0,1.037712 c -1.0994606,0 -1.9865928,0.883981 -1.9865928,1.981472 0,1.097293 0.8872306,1.981273 1.9865928,1.981273 1.0993621,0 1.9861995,-0.883881 1.9861995,-1.981372 0,-1.097295 -0.8867389,-1.981373 -1.9861995,-1.981373 z m 0,0.492413 c 0.8390725,0 1.4937854,0.653432 1.4937854,1.489059 0,0.835428 -0.6547129,1.48886 -1.4937854,1.48886 -0.8390725,0 -1.4941793,-0.653432 -1.4941793,-1.488959 0,-0.835429 0.6552053,-1.48896 1.4941793,-1.48896 z"
     fill="#000000"
     id="path1-0"
     style="stroke-width:0.0984824" />
</svg>
