/* XPM */
static char * 011501_No thoroughfare_Zakaz_day_xpm[] = {
"24 24 16 1",
" 	c None",
"+	c #FFFFFF",
"@	c #FF7575",
"#	c #FF5B5B",
"$	c #FF3333",
"&	c #FF0909",
")	c #CE0000",
">	c #920000",
"'	c #700000",
"=	c #182029",
";	c #000000",
"%	c #E2E2E2",
"*	c #C3C3C3",
"!	c #B3B3B3",
",	c #999900",
"-	c #F7F712",
"                        ",
"                        ",
"                        ",
"    ++++++++++++++++    ",
"   ++@@##########$$%%   ",
"   +@@@#########$$$&%   ",
"   +@@@@#########$&&*   ",
"   +@-==--==--==--=>*   ",
"   +@=;--==--==--==>*   ",
"   +#;,,==,,==,,=;,'*   ",
"   +##>''======''''>*   ",
"   +##=))))))))$&;>)*   ",
"   +@#=;>$$$$$$#=;')*   ",
"   +@)=;>$$$$$$#=;=>!   ",
"   +@=;;>$$$$$$$=;;>!   ",
"   +#;;;>$$$$$$$;;;'!   ",
"   +$)>')$$$$$$&)>''!   ",
"   +$&&&&&&$&&$&&)&)!   ",
"   +$$$&&&&&&&&&&&)&!   ",
"   +%&&&&&&&&&&&)&)*!   ",
"    %%********!!!!!!    ",
"                        ",
"                        ",
"                        "};
