/* XPM */
static char * 4_City_Miasto_day_xpm[] = {
"16 16 9 1",
" 	c None",
".	c #A5A7FF",
"+	c #C2C2FF",
"@	c #D8D8FF",
"#	c #FDFD00",
"$	c #EBEAFF",
"%	c #8B8CFF",
"&	c #FEFFFC",
"*	c #000100",
".++@@++++###.###",
"++@@@@@+++...###",
".+$$$@@@++##.%##",
"%%%&$$@@+##...%%",
"%%***$@@+++..#%#",
"%*&&&*@@@++.##.#",
"*&&&&&*@+++.#.%#",
"*&*&*&*@+++.***%",
"*&&&&&*@+++*&&&*",
"*&*&*&*+++.*&*&*",
"*&&&&&******&&&*",
"*&*&*&*&&&&*&*&*",
"*&&&&&*&&*&*&&&*",
"*&*&*&*&&*&*&*&*",
"*&&&&&*&&&&*&&&*",
"****************"};
