/* XPM */
static char * 4_City_Miasto_night_xpm[] = {
"16 16 4 1",
" 	c None",
".	c #000000",
"+	c #FFFC00",
"@	c #FFFFFF",
"............++..",
"..+.....+....++.",
".....+........++",
"..............++",
"..@@@...+....++.",
".@...@......++..",
"@.....@.........",
"@.+.+.@..+..@@@.",
"@.....@....@...@",
"@.+.+.@....@.+.@",
"@.....@@@@@@...@",
"@.+.+.@....@.+.@",
"@.....@..+.@...@",
"@.+.+.@..+.@.+.@",
"@.....@....@...@",
"@@@@@@@@@@@@@@@@"};
