/* XPM */
static char * 1300_Mooring place_Miejsce cumowania_day_xpm[] = {
"24 24 16 1",
" 	c None",
".	c #000066",
"+	c #1A4D9C",
"@	c #2774C3",
"#	c #2D81D9",
"$	c #308CEA",
"%	c #3399FF",
"&	c #419CF9",
"*	c #4FA6FE",
"=	c #59ACFF",
"-	c #6EB6FF",
";	c #C2C2C2",
">	c #CCCCCC",
",	c #EBEBEB",
"'	c #FFFFFF",
"<	c #333333",
"                        ",
"                        ",
"                        ",
"    ''''''''''''''',    ",
"   ''---========*%%,,   ",
"   '---========*%%##>   ",
"   '--=*===*&**&%$##>   ",
"   '-=*&..++++&%$$##;   ",
"   '=*&%..++++$%$##@;   ",
"   '=*&%%.+++$$%$###;   ",
"   '=*&%%.+++$%%$###;   ",
"   '=*&<<<+++%%%$##@;   ",
"   '=*&<<<<<<%%%$###;   ",
"   '=*&$..<<<<<<###@;   ",
"   '=*&%..+++<<<<<<@;   ",
"   '=&&*..++++#@<<<<;   ",
"   '*&&%..++++#@@@@<;   ",
"   '............@@@@;   ",
"   '............#@@@;   ",
"   ,,...........@@@;;   ",
"    ,>>;;;;;;;;;;;;;    ",
"                        ",
"                        ",
"                        "};
