/* XPM */
static char * 1531_Rest01_Zak01_day_xpm[] = {
"24 24 21 1",
" 	c None",
".	c #221111",
"+	c #DD0000",
"@	c #FFFFFF",
"#	c #EE3333",
"$	c #EE5555",
"%	c #DD0000",
"&	c #EE7777",
"*	c #DD2222",
"=	c #EE3333",
"-	c #000000",
";	c #EE7777",
">	c #FFDDDD",
",	c #EE9999",
"'	c #999999",
")	c #665555",
"!	c #333333",
"~	c #EE4444",
"{	c #BBBBBB",
"]	c #CCCCCC",
"^	c #AA6666",
"                        ",
"                        ",
"                 @      ",
"     *+*=      ;',+=    ",
"   *++++++   =~'-@>~+   ",
"  =++++++++  ~)-!@@@;*  ",
"  +++++++++=;)--'@@{@+  ",
"  >@@@@@@@@,)---,---);= ",
"  >@@@@@@@@)---->+,'@;= ",
"  ;,,,,,,>)----!@>+>@~  ",
"  *+++++;!-----'@@>+,+  ",
"   ++++;!------]@@@,+   ",
"    ++~!--.----;;;~+    ",
"   +~;^^;+!-.-!,;,;~+   ",
"  *;@@@@>)-).-',)){@;*  ",
"  +@{@@>+--**-]+^'-]@+  ",
" =;)---+!-'++!>-+>!'@;= ",
" =;@',+'-!@++{>->+)'@;= ",
"  ~@>+>!-'>++>'-]>+^@~  ",
"  +,+>{-!'~==~>!@@)+,+  ",
"   +,@!-';+  +;@@@@;+   ",
"    +,>'+*    *+;;~+    ",
"     >@=        ==      ",
"                        "};
