/* XPM */
static char * 1532_Rest02_Zak02_day_xpm[] = {
"24 24 24 1",
" 	c None",
".	c #110000",
"+	c #DD0000",
"@	c #000000",
"#	c #EE4444",
"$	c #DD3333",
"%	c #FFCCCC",
"&	c #EE3333",
"*	c #EE5555",
"=	c #DD2222",
"-	c #FFFFFF",
";	c #EE7777",
">	c #FFEEEE",
",	c #FFBBBB",
"'	c #DD3333",
")	c #EE9999",
"!	c #CCCCCC",
"~	c #DD2222",
"{	c #AA9999",
"]	c #443333",
"^	c #222222",
"/	c #555555",
"(	c #660000",
"_	c #AA5555",
"                        ",
"                        ",
"                        ",
"     =++=      =++~#    ",
"   =++++++   #+)>>,''   ",
"  =++++++++  ++,----;=  ",
"  +~~~~~~~~==),+,--!-,% ",
"  ,--------'+>!];{{/{)# ",
"  >--------;;>{/@@@]-;# ",
"  ;)))),,!{/^@@@@@^>-'  ",
"  ++++(]@@@@@@@@@]>+)+  ",
"   +++++((@@@@@@]>-)+   ",
"    +++++_]@@@@^,;'+    ",
"   ~';;;/@@]@@^!;);''   ",
"  =;->{@@]'.@^)){/{-;=  ",
"  ~>{^@^_,;@^!,+_{@!>+  ",
" #;]@@/+(!!@{>!(+,/{-;# ",
" >>@/{+)@{{;+>!@,+]{-;# ",
" >>>,+,-^{,~~,{@!,+_-'  ",
"  +)+,--^{'##'>/--]+)+  ",
"   +)---{''  ';>-->;+   ",
"    +';;+=    =+;;'+    ",
"      ##        ##      ",
"                        "};
