/* XPM */
static char * 1533_Rest03_Zak03_day_xpm[] = {
"24 24 22 1",
" 	c None",
".	c #FFFFFF",
"+	c #DD0000",
"@	c #FFFFFF",
"#	c #DD3333",
"$	c #DD0000",
"%	c #DDDDDD",
"&	c #DD3333",
"*	c #EE3333",
"=	c #EE4444",
"-	c #000000",
";	c #FFDDDD",
">	c #EE9999",
",	c #DD2222",
"'	c #664444",
")	c #221111",
"!	c #EE6666",
"~	c #FFBBBB",
"{	c #999999",
"]	c #CCCCCC",
"^	c #777777",
"/	c #AA6666",
"                        ",
"                        ",
"                        ",
"     +++*      &++,*    ",
"   +++++++   *+>;@~&,   ",
"  *++++++++  ++~@@@@!&  ",
"  +,,,,,,,,*&>~+~@@]@+  ",
"  ;@@@@@@@@&+;])+)--^!* ",
"  ;@@@@@{{;>,@{->+>{@!* ",
"  !>>>>>>)-)^]]^@~+~@&  ",
"  ++++++++)----)^;;,>+  ",
". ''''''''')-------'];  ",
"@{-------------------'];",
"   ///////'-------)^;.  ",
"  &!@@@@~+)---)^]]]@!&  ",
"  ,@]@@;+)-'{;;+/^-]@+  ",
" *!^--)+)];&+;;)+~'{@!* ",
" *!@{>+>-{@++@;)~+'^@!* ",
"  &@~+~@){~,,;{-;~+/@&  ",
"  +>+~@@){&**&;'@@'+>+  ",
"   +>@@@{&,  ,!@@@@>+   ",
"    +&!!+&    &+!!&+    ",
"      **        **      ",
"                        "};
