/* XPM */
static char * 1534_Rest04_Zak04_day_xpm[] = {
"24 24 22 1",
" 	c None",
".	c #FFBBBB",
"+	c #DD0000",
"@	c #FFFFFF",
"#	c #EE5555",
"$	c #DD1111",
"%	c #553333",
"&	c #EE4444",
"*	c #EE4444",
"=	c #DD1111",
"-	c #000000",
";	c #999999",
">	c #221111",
",	c #DD2222",
"'	c #EE6666",
")	c #EE9999",
"!	c #FFBBBB",
"~	c #FFDDDD",
"{	c #554444",
"]	c #EE4444",
"^	c #CCBBBB",
"/	c #BB6666",
"                        ",
"                        ",
"                        ",
"     =+==      =++,*    ",
"   =++++++   *+)~@!],   ",
"  *++++++++  ++!@@@@'=  ",
" ~@/,,,,,,,==)!+!@@^@+  ",
" *~--;@@@@~{'~^>+>--;'* ",
"  ~;>->;@@@>;@;>)+);@'* ",
"  '));--{))>-;^>@!+!@]  ",
"  =+++,{--{%--;{@@!+)+  ",
"   +++++/>->---;@@@)+   ",
"    +++++=%---->;)]+    ",
"   ,]'/{>--------;)],   ",
"  ='@@@^;{->------;@'=  ",
"  ,@^@@!,~!^;{>----;@+  ",
" *';-->+>^~+,~~;;>--^'* ",
" *'@;)+)>;@++@~>!'^^;~* ",
"  ]@!+!@>;!,,!;-~!+/@'. ",
"  +)+!@@>;]**]~{@@{+)+  ",
"   +)@@@;',  ,'@@@@)+   ",
"    +]''+=    =+'']+    ",
"      **        **      ",
"                        "};
