/* XPM */
static char * 1535_Rest05_Zak05_day_xpm[] = {
"24 24 23 1",
" 	c None",
".	c #FFFFFF",
"+	c #FFFFFF",
"@	c #000000",
"#	c #EE4444",
"$	c #DD3333",
"%	c #DD0000",
"&	c #DD3333",
"*	c #EE4444",
"=	c #DD2222",
"-	c #DD0000",
";	c #FFFFFF",
">	c #EE9999",
",	c #998888",
"'	c #FFBBBB",
")	c #DD2222",
"!	c #EE6666",
"~	c #FFEEEE",
"{	c #BBBBBB",
"]	c #EE4444",
"^	c #664444",
"/	c #333333",
"(	c #AA1111",
"                        ",
"      +                 ",
"     ~;                 ",
"     $,/%      $--)#    ",
"   %--^@^-   #->~;'])   ",
"  %---(@@--  --';;;;!$  ",
"  -))))^@^)%$>'-';;{;-  ",
"  ';;;;;/@~$-,~@-@@@,!# ",
"  ~;;;;;{@^!-@~@>->,;!# ",
"  !>>>>>>^@,(@{@;'-';]  ",
"  -------(@//@,/;;'->-  ",
"   ---(@@(^@@@/{;;;>-   ",
"    --){@@@@@@@>!!]-    ",
"   )]>>>{@@@@@@{>>>])   ",
"  $!;;;;'>@@@@@,,^{;!$  ",
"  );{;;'-'~@@@@/,,@{;-  ",
" #!,@@@-@{~>@@@@>'^,;!# ",
" #!;,>->@,;->@@@{-^,;!# ",
"  ];'-';@,'))~@@,'-,;]  ",
"  ->-';;@,]##]~@/;^->-  ",
"   ->;;;,!)  )!~/;;>-   ",
"    -]!!-$    $)'~]-    ",
"      ##        #'      ",
"                        "};
