/* XPM */
static char * 1536_Rest06_Zak06_day_xpm[] = {
"24 24 19 1",
" 	c None",
".	c #FFEEEE",
"+	c #DD0000",
"@	c #000000",
"#	c #EE4444",
"$	c #DD2222",
"%	c #DD3333",
"&	c #FFEEEE",
"*	c #EE3333",
"=	c #EE6666",
"-	c #FFFFFF",
";	c #EE9999",
">	c #BBBBBB",
",	c #444444",
"'	c #EE6666",
")	c #FFBBBB",
"!	c #EE4444",
"~	c #777777",
"{	c #330000",
"           -&           ",
"           -&           ",
"           @,           ",
"     $++#  @,  $+++#    ",
"   $++++++ @,#+;&&)!$   ",
"  $++++++++@,++)----'$  ",
"  ++++++++!@,;)+)-->&+  ",
"  )--------@,&>{+{@@~'# ",
"  )----&&--@,&>@;+;>-'# ",
"  ';;;;;,;;@,)~@-)+)-!  ",
"  +++++'@{+@,$@~--)+;+  ",
"   +++++~@{@,@@>---;+   ",
"    ++++>@@@@@@;''!+    ",
"   +!;;;)@@@@@,;;;;!$   ",
"  $'----),@@@@>;~,>-'$  ",
"  +&>--)+>@@@@&+~>@>&+  ",
" #'~@@{+{&@@@,&{+),>-'# ",
" #'->;+;@>@@@~&@)+,>-'# ",
"  !-)+)-@>~@@>>@&)+~-!  ",
"  +;+)--@>>@@;&,--,+;+  ",
"   +;--->';@,!'&--&;+   ",
"    +!''+$ ,> $+''!+    ",
"      ##   >&   ##      ",
"           &            "};
