/* XPM */
static char * 1537_Rest07_Zak07_day_xpm[] = {
"24 24 19 1",
" 	c None",
".	c #000000",
"+	c #DD0000",
"@	c #FFFFFF",
"#	c #EE5555",
"$	c #DD0000",
"%	c #FFEEEE",
"&	c #DD2222",
"*	c #EE4444",
"=	c #DD3333",
"-	c #EE9999",
";	c #EE7777",
">	c #FFDDDD",
",	c #DDCCCC",
"'	c #DD4444",
")	c #999999",
"!	c #555555",
"~	c #996666",
"{	c #333333",
"                        ",
"                 %      ",
"                %@%     ",
"     &++&      &{,'*    ",
"   &++++++   *+~.~>'+   ",
"  &++++++++  ++..@@@;&  ",
"  +++++++++&&-!.)@@,@+  ",
"  >@@@@@@@)'+,.{+...~;* ",
"  >@@@@@@>{;+{.{-+-)@;* ",
"  ;------).&~.!.@>+>@'  ",
"  +++++++!.&..).@@>+-+  ",
"   +++++;..{.~~!!,@-+   ",
"    ++++-.......,;'+    ",
"   +';;-)......,-;;'+   ",
"  &;@@@@!.....,-!!,@;&  ",
"  +@,@@>.....,>+~).,@+  ",
" *;~...-....,>,.+>!)@;* ",
" *;@)-+)...-+@,.>+!)@;* ",
"  '@>+>{..>++>).,>+~@'  ",
"  +-+>@..,'**'>!@@!+-+  ",
"   +-@>{,'+  +;@@@@;+   ",
"    +',,+&    &+;;'+    ",
"     %,*        **      ",
"                        "};
