/* XPM */
static char * 1538_Rest08_Zak08_day_xpm[] = {
"24 24 20 1",
" 	c None",
".	c #FFFFFF",
"+	c #000000",
"@	c #DD0000",
"#	c #EE4444",
"$	c #EE4444",
"%	c #FFAAAA",
"&	c #DD3333",
"*	c #EE2222",
"=	c #DD1111",
"-	c #FFFFFF",
";	c #EE6666",
">	c #999999",
",	c #DD3333",
"'	c #FFBBBB",
")	c #EE9999",
"!	c #EEDDDD",
"~	c #774444",
"{	c #BBBBBB",
"]	c #333333",
"                        ",
"                        ",
"                        ",
"     =@==      =@@@$    ",
"   =@@@@@@   $@)!-';,   ",
"  =@@@@@@@@  @@'----;;  ",
"  @@,@,@,@,=;;'@'-->{-! ",
"  '--------;~{{+@+]++!% ",
"  !-------->+->+>]++>;$ ",
"  ;))))))'>++'>]++~'-,  ",
"  =@@@@@,>++~~++~!'@)@  ",
"   @@@@,>+++++]>---)@   ",
"    @@,>+++++~=@;;,@    ",
"   ,;)>++++++++]~;;;,   ",
"  =;->++++++++]>>~{-;=  ",
"  @-{+++++]>{''@~>+{-@  ",
" $;{+++>{!!@@!!+@'~>-;$ ",
" $!>{!;)+>-@@-!+'@~>-;$ ",
" %;-'@'-+>'@@'>+!'@~-,  ",
"  @)@'--+>;$$;!~--~@)@  ",
"   @)--->;,  ,;----)@   ",
"    @;;;@=    =@;;,@    ",
"      $$        $$      ",
"                        "};
