/* XPM */
static char * 1539_Rest09_Zak09_day_xpm[] = {
"24 24 22 1",
" 	c None",
".	c #FFFFFF",
"+	c #FFFFFF",
"@	c #FFDDDD",
"#	c #EE5555",
"$	c #DD1111",
"%	c #DD0000",
"&	c #DD3333",
"*	c #EE5555",
"=	c #EE4444",
"-	c #DD0000",
";	c #FFFFFF",
">	c #000000",
",	c #665555",
"'	c #EE9999",
")	c #221111",
"!	c #FFBBBB",
"~	c #DDCCCC",
"{	c #EE6666",
"]	c #999999",
"^	c #FFEEEE",
"/	c #772222",
"                        ",
"                        ",
"                        ",
"     %--%      &--&=    ",
"   %------   =-'^^!&&   ",
"  %--------  --!;;;;{&  ",
"  -&&&&&&&&%&'!-!;;~^-  ",
"  !;;;;;;;;&-^~)-)>>,{= ",
"  !;;;;;;;;''],>'-'];{= ",
"  {''''!!~,)>>,);!-!;&  ",
"  --&'],))>>>/]);;!-'-  ",
"  ~,)>>>>>>)),,,,,,,,,..",
".~,>>>>>>>>>>>>>>>>>>>~;",
"   '~,)>>>>>)=&{'''&&   ",
"  &{;;;~],))>>-',,~;{&  ",
"  &^~;;!-!!~,))-,]>~^-  ",
" ={,>>)-)~^-&^~)-!,];{= ",
" ={;]'-')]^--^~)!-,];{= ",
"  &;!-!;)]!&&!]>~!-,;&  ",
"  -'-!;;)]&==&~,;;,-'-  ",
"   -';;;]&&  &{^;;^'-   ",
"    -&{{-&    &-{{&-    ",
"      ==        ==      ",
"                        "};
