/* XPM */
static char * 153a_Rest10_Zak10_day_xpm[] = {
"24 24 21 1",
" 	c None",
".	c #662222",
"+	c #DD0000",
"@	c #FFFFFF",
"#	c #EE4444",
"$	c #DD2222",
"%	c #FFDDDD",
"&	c #DD3333",
"*	c #EE3333",
"=	c #EE2222",
"-	c #000000",
";	c #111111",
">	c #BBBBBB",
",	c #EE9999",
"'	c #DD2222",
")	c #EE6666",
"!	c #FFBBBB",
"~	c #665555",
"{	c #EEDDDD",
"]	c #DD4444",
"^	c #AA5555",
"                        ",
"                        ",
"                        ",
"     $+$*      $++'*    ",
"   $++++++   *+,{@!]'   ",
"  *++++++++  ++!@@@@)$  ",
" %,)]''''''*$,!+!@@>@+  ",
"  {~~>@@@@@]+{>;+;--~)* ",
"  {{;--;~>@,'@>;,+,>@)* ",
"  ),{-----;;~>{~@!+!@]  ",
"  $++>;--------;~{!+,+  ",
"   +++>;----;;;~@@@,+   ",
"    +++>;----~$+))]+    ",
"   '],,,>;-;;-;~,,,]'   ",
"  $)@@@@!>;-.^;-;~>@)$  ",
"  '@>@@!+!>-;,!~;-;>@+  ",
" *)~--;+;>{>;{{;'~--~)* ",
" *)@>,+,;>@]^{{;!+^;;@% ",
"  ]@!+!@;>!''!>-{!+^{@% ",
"  +,+!@@;>]**]{~@@~+,'  ",
"   +,@@@>]'  ')@@@@,+   ",
"    +]))+$    $+))]+    ",
"      **        **      ",
"                        "};
