/* XPM */
static char * 153b_Rest11_Zak11_day_xpm[] = {
"24 24 22 1",
" 	c None",
".	c #CC0000",
"+	c #DD2222",
"@	c #111111",
"#	c #EE4444",
"$	c #EE3333",
"%	c #EE5555",
"&	c #FF6666",
"*	c #EE9999",
"=	c #DD4444",
"-	c #000000",
";	c #DD0000",
">	c #FFFFFF",
",	c #DDCCCC",
"'	c #FFBBBB",
")	c #DD2222",
"!	c #EE6666",
"~	c #665555",
"{	c #AAAAAA",
"]	c #999999",
"^	c #AA6666",
"/	c #333333",
"                        ",
"                        ",
"      >                 ",
"     +,,#      +;;)#    ",
"   +;;*-,;   #;*>>'=)   ",
"  +;;;!--,)  ;;'>>>>!+  ",
"  ;)))=/--,#+*';'>>,>;  ",
"  '>>>>{---,)>,-;---~!# ",
"  '>>>>>----{>]-,;,{>!# ",
"  !****'-----{{->';'>=  ",
"  ;;;;;)~-----{~>>';*;  ",
"   ;;;;;{------{>>>*;   ",
"    ;;;;,----@--]*=;    ",
"   )=****--@-~;^~^*=)   ",
"  +!>>>>'~- /-),~~,>!+  ",
"  )>,>>';{-+^-/;^]-,>;  ",
" #!~---;-,/;;~-~;'~]>!# ",
" #!>{,;,-{{;;,--';~]>!# ",
"  =>';'>-]'))'~-]';^>=  ",
"  ;*;'>>-]=##=,-->~;*;  ",
"   ;*>>>]=)  )!{-~>*;   ",
"    ;=!!;+    +)~,!;    ",
"      ##        *>>     ",
"                        "};
