/* XPM */
static char * 153c_Rest12_Zak12_day_xpm[] = {
"24 24 22 1",
" 	c None",
".	c #FFFFFF",
"+	c #EEEEEE",
"@	c #FFAAAA",
"#	c #DD0000",
"$	c #DD3333",
"%	c #DD0000",
"&	c #EE5555",
"*	c #EE4444",
"=	c #EE3333",
"-	c #FFFFFF",
";	c #000000",
">	c #DD0000",
",	c #221111",
"'	c #EE9999",
")	c #CC0000",
"!	c #EE3333",
"~	c #999999",
"{	c #FFEEEE",
"]	c #FFBBBB",
"^	c #EE6666",
"/	c #665555",
"                        ",
"           ++           ",
"           ~~           ",
"     %)>%  //  $>>!*    ",
"   %)>))))@;;'>'{{]!!   ",
"  %)>)>)>)';;'>]----^$  ",
"  >!>!>!>!~;;~]>]--~{>  ",
"  ]-------,;;,{,),;;~^* ",
"  ]------{;;;;{;'>'~-^* ",
"  ^''''''~;;;;~,-]>]-!  ",
"  >)>)>)!/;;;;//--]>'>  ",
"   )))>)^,;;;;;{---'>   ",
"    )))>';;;;;,'^^!>    ",
"   !!'''~;,,,,;~'''!!   ",
"  $^----,,>,,>,,~/~-^$  ",
"  !{~--],]',,'],~~;{{>  ",
" *^~;;,),{{,,{{,>]/~-^* ",
" *^-~'>';~{,,{{,]>/~-^* ",
"  !-]>]-,~],,]~;{])/-!  ",
"  >'>]--,~!,,!{/--/)'>  ",
"   >'---~^!,,!^{--{'>   ",
"    >!^^>$ ,, $>^^!>    ",
"      **   ~~   **      ",
"           {-           "};
