/* XPM */
static char * 1602_AIS_AIS_day_xpm[] = {
"24 24 2 1",
" 	c None",
".	c #ec008c",
"                        ",
"                        ",
"                        ",
"                        ",
"                        ",
"          ....          ",
"        ..    ..        ",
"       .        .       ",
"      .          .      ",
"      .          .      ",
"     .            .     ",
"     .            .     ",
"     .            .     ",
"     .            .     ",
"      .          .      ",
"      .          .      ",
"       .        .       ",
"        ..    ..        ",
"          ....          ",
"                        ",
"                        ",
"                        ",
"                        ",
"                        "};
