/* XPM */
static char * 1605_Map_Mapa_day_xpm[] = {
"24 24 14 1",
" 	c None"
".	c #000000",
"+	c #FFFFFF",
"@	c #999999",
"$	c #8E99A2",
"&	c #666666",
"*	c #003399",
"=	c #0047AD",
"-	c #0066CC",
";	c #006AD0",
">	c #007FE5",
",	c #0099FF",
"'	c #FF0000",
")	c #0069CF",
"                        "5
"                        ",
"                        ",
"      ++++++++++++      ",
"      +@@@@@@$$@@+      ",
"      +&*=---;>,@+      ",
"      +&*=---;>,@+      ",
"      +&*'''''',@+      ",
"      +&*'''''',@+      ",
"      +&*=---)>,@+      ",
"      +&*=---)>,@+      ",
"      +&*=---)>,@+      ",
"      +&*=---)>,@+      ",
"      +&*=---)>,@+      ",
"      +&*=---)>,@+      ",
"      +&*=---->,@+      ",
"      +&&&&&&&&&&+      ",
"      +++++&@+++++      ",
"         ++&@++         ",
"         +&&@@+         ",
"         ++++++         ",
"                        ",
"                        ",
"                        "};
