/* XPM */
static char * 1606_Beacon_Stawa_day_xpm[] = {
"24 24 4 1",
" 	c None",
".	c #FFFFFF",
"+	c #444444",
"@	c #000000",
"                        ",
"                        ",
"                        ",
"                        ",
"         ......         ",
"         .++++.         ",
"         .++++.         ",
"         .++++.         ",
"         .++++.         ",
"         .++++.         ",
"         .++++.         ",
"         .++++.         ",
"         .++++.         ",
"         .++++.         ",
"         .++++.         ",
"         .++++.         ",
"         .++++.         ",
"         .++++.         ",
"        ..++++..        ",
"        .@@@@@@.        ",
"                        ",
"                        ",
"                        ",
"                        "};
