/* XPM */
static char * 1607_Safe water buoy_Bezpieczna woda_day_xpm[] = {
"24 24 4 1",
" 	c None",
".	c #FFFFFF",
"+	c #FF0000",
"@	c #000000",
"                        ",
"                        ",
"                        ",
"                        ",
"               ++       ",
"             ++..+      ",
"             ++..+      ",
"            +++..+      ",
"            ++...+      ",
"           +++...+      ",
"           +++...+      ",
"          +++....+      ",
"          +++....+      ",
"         ++++....+      ",
"       +++++......+     ",
"     +++++++.......+    ",
"   @@@@@@@@@@@@@@@@@@   ",
"                        ",
"                        ",
"                        ",
"                        ",
"                        ",
"                        ",
"                        "};
