/* XPM */
static char * 1608_Left buoy_Lewa_day_xpm[] = {
"24 24 3 1",
" 	c None",
".	c #FF0000",
"+	c #000000",
"                        ",
"                        ",
"                        ",
"                        ",
"                        ",
"                        ",
"        ......          ",
"        ...........     ",
"        ...........     ",
"       ............     ",
"       ...........      ",
"       ...........      ",
"      ............      ",
"      ...........       ",
"      ...........       ",
"   ++++++++++++++++++   ",
"                        ",
"                        ",
"                        ",
"                        ",
"                        ",
"                        ",
"                        ",
"                        "};
