/* XPM */
static char * 160d_Multicolored buoy_Wielokolorowa_day_xpm[] = {
"24 24 4 1",
" 	c None",
".	c #FF0000",
"+	c #000000",
"@	c #00FF00",
"                        ",
"                        ",
"                        ",
"                        ",
"            @@          ",
"            @@@@        ",
"            @@@@        ",
"           ..@@         ",
"           ....         ",
"           ....         ",
"          @@..          ",
"          @@@@          ",
"          @@@@          ",
"         ..@@           ",
"         ....           ",
"         ....           ",
"        @@..            ",
"     ++++++++++         ",
"                        ",
"                        ",
"                        ",
"                        ",
"                        ",
"                        "};
