/* XPM */
static char * 1709_Flyover_Wiadukt_day_xpm[] = {
"14 12 3 1",
" 	c None",
".	c #00FF00",
"+	c #000000",
"              ",
"     ++       ",
"    +..+      ",
"    +..+      ",
"    +..+      ",
"    +..+      ",
"    +..+      ",
"    +..+      ",
"   ++..++     ",
"   +....+     ",
"   ++++++     ",
"              "};
