/* XPM */
static char * 170b_Note-for-editors_Notatka-dla-edytorów_day_xpm[] = {
"14 12 4 1",
" 	c None",
".	c #FFFF00",
"?	c #FF0000",
"+	c #000000",
"           ?  ",
"     ++   ? ? ",
"    +..+    ? ",
"    +..+   ?  ",
"    +..+      ",
"    +..+   ?  ",
"    +..+      ",
"    +..+      ",
"   ++..++     ",
"   +....+     ",
"   ++++++     ",
"              "};
