/* XPM */
static char * 1711_Check-and-tell_Sprawdz-i-donieœ_day_xpm[] = {
"12 13 3 1",
" 	c None",
".	c #FFFF00",
"+	c #000000",
"      +     ",
"      +     ",
"  +       + ",
"   + +++ +  ",
"    +...+   ",
"   +.....+  ",
"++ +.....+ +",
"   +.....+  ",
"    +...+   ",
"   + +++ +  ",
"  +       + ",
"      +     ",
"      +     "};
