/* XPM */
static char * 1712_Repairs_Remont_day_xpm[] = {
"24 24 15 1",
" 	c None",
".	c #000100",
"+	c #1F201E",
"@	c #323331",
"#	c #515350",
"$	c #747673",
"%	c #C8A200",
"&	c #E1B700",
"*	c #C2BDBB",
"=	c #FFCC06",
"-	c #FDD31E",
";	c #D7D1D0",
">	c #FFDC4C",
",	c #EFEAE8",
"'	c #FFF9F8",
"                        ",
"                        ",
"                        ",
"    ''''''''''''''',    ",
"   ''>>>$@@--$@@-=#,;   ",
"   '>>>$+.--$+.-=$..;   ",
"   '>>$..--@..--@..%;   ",
"   '-$..==@..==@..&%*   ",
"   '#..==@..==@..&&.*   ",
"   '..-=@..==@..=&+.*   ",
"   '.--@..==@..==@..*   ",
"   '--@..==@..==@..%*   ",
"   '-#..==@..==@..&%*   ",
"   '#..==@..==@..&&.*   ",
"   '..-=@..==@..=&+.*   ",
"   '.--@..==@..==@..*   ",
"   '--@..==@..==@..%*   ",
"   '=@..&&@..&&+..%%*   ",
"   '+..&&...&&...%%%*   ",
"   ,,.&%...%%...%%%**   ",
"    ;;;*************    ",
"                        ",
"                        ",
"                        "};
