/* XPM */
static char * 1714_Weight Restiction_Ograniczenie Masy_day_xpm[] = {
"24 24 11 1",
" 	c None",
".	c #000200",
"+	c #252624",
"@	c #D40401",
"#	c #DA1E1E",
"$	c #50514F",
"%	c #E55658",
"&	c #949693",
"*	c #F2ADAB",
"=	c #F5B8BA",
"-	c #FCFCF9",
"                        ",
"                        ",
"                        ",
"         ##@@##         ",
"       #@@@@@@@@#       ",
"      @@%------%@@      ",
"     @@*--------*@@     ",
"    @@*----------*@#    ",
"    @%-----&$-----%@    ",
"   @@------.$------@#   ",
"   @@-----+..$-----@#   ",
"   @@-----&.+&-----@@   ",
"   @@------.$------@@   ",
"   @@------.$------@#   ",
"   @@------.$------@#   ",
"    @%-----..$----%@    ",
"    @@*----&+$---=@@    ",
"     @@*--------=@@     ",
"      @@%------%@@      ",
"       @@@@@@@@@@       ",
"         @@@@@@         ",
"                        ",
"                        ",
"                        "};
