/* XPM */
static char * 1715_Width Restiction_Ograniczenie Szerokosci_day_xpm[] = {
"24 24 11 1",
" 	c None",
".	c #050703",
"+	c #20211F",
"@	c #D40907",
"#	c #3D3E3C",
"$	c #636562",
"%	c #E97171",
"&	c #9D9B99",
"*	c #F3B5B5",
"=	c #EAD7D6",
"-	c #FDFDFA",
"                        ",
"                        ",
"                        ",
"         @@@@@@         ",
"       @@@@@@@@@@       ",
"      @@@=----=%@@      ",
"     @@%--------*@@     ",
"    @@%----------*@@    ",
"    @@------------%@    ",
"   @@=-----=-==---=@@   ",
"   @@&--&...#..&--=@@   ",
"   @@.$-&.-$+-+$-&.@@   ",
"   @@.#-&.-$#-+$-$.@@   ",
"   @@&--&.-$#-+$--&@@   ",
"   @@=--&.-$#-+$---@@   ",
"    @%------------%@    ",
"    @@*----------=@@    ",
"     @@*--------*@@     ",
"      @@%=----=%@@@     ",
"       @@@@@@@@@@       ",
"         @@@@@@         ",
"                        ",
"                        ",
"                        "};
