/* XPM */
static char * 1716_Height Restiction_Ograniczenie Wysokosci_day_xpm[] = {
"24 24 11 1",
" 	c None",
".	c #050703",
"+	c #20211F",
"@	c #D40906",
"#	c #3B3C3A",
"$	c #636562",
"%	c #E97271",
"&	c #A3A19F",
"*	c #F1ACAB",
"=	c #F4C7C8",
"-	c #FCFCF9",
"                        ",
"                        ",
"                        ",
"         @@@@@@         ",
"       @@@@@@@@@@       ",
"      @@@=&..&=%@@      ",
"     @@%---$$---*@@     ",
"    @@%----------*@@    ",
"    @@------------%@    ",
"   @@=-------------@@   ",
"   @@---&...#..&---@@   ",
"   @@---&.-$+-+$---@@   ",
"   @@---&.-$#-+$---@@   ",
"   @@---&.-$#-+$---@@   ",
"   @@=--&.-$#-+$---@@   ",
"    @%------------%@    ",
"    @@*----------=@@    ",
"     @@*---&$---=@@     ",
"      @@%-&..&-%@@@     ",
"       @@@@@@@@@@       ",
"         @@@@@@         ",
"                        ",
"                        ",
"                        "};
