/* XPM */
static char * 1805_Signal Station_Stacja sygna³owa_day_xpm[] = {
"24 24 5 1",
" 	c None",
".	c #FFFFFF",
"+	c #888888",
"@	c #000000",
"#	c #FF0000",
"                        ",
"                        ",
"                        ",
"                        ",
"     @@@@@@@@@@@@@@+    ",
"     @............@+    ",
"     @..###...###.@+    ",
"     @.#.....#....@+    ",
"     @..##....##..@+    ",
"     @....#.....#.@+    ",
"     @.###...###..@+    ",
"     @............@+    ",
"     @@@@@@@@@@@@@@+    ",
"           @@+          ",
"           @@+          ",
"           @@+          ",
"           @@+          ",
"           @@+          ",
"           @@++++       ",
"        @@@@@@@@+       ",
"                        ",
"                        ",
"                        ",
"                        "};
