/* XPM */
static char * 1806_Beacon Red_Stawa czerwona_day_xpm[] = {
"24 24 4 1",
" 	c None",
".	c #FF0000",
"+	c #000000",
"#	c #888888",
"                        ",
"                        ",
"                        ",
"                        ",
"          #####         ",
"          ....#         ",
"          ....#         ",
"          ....#         ",
"          ....#         ",
"          ....#         ",
"          ....#         ",
"          ....#         ",
"          ....#         ",
"          ....#         ",
"          ....#         ",
"          ....#         ",
"          ....#         ",
"          ....#         ",
"          ....#         ",
"        ++++++++        ",
"                        ",
"                        ",
"                        ",
"                        "};
