/* XPM */
static char * 1808_Right buoy-B_Prawa-B_day_xpm[] = {
"24 24 3 1",
" 	c None",
".	c #FF0000",
"+	c #000000",
"                        ",
"                        ",
"                        ",
"                        ",
"            ...         ",
"           .....        ",
"          ......        ",
"         ........       ",
"        .........       ",
"        .........       ",
"       ...........      ",
"       ...........      ",
"       ...........      ",
"      ............      ",
"      ............      ",
"   ++++++++++++++++++   ",
"                        ",
"                        ",
"                        ",
"                        ",
"                        ",
"                        ",
"                        ",
"                        "};
