/* XPM */
static char * 180a_Isolated Danger_Niebezp. odosobnione_day_xpm[] = {
"24 24 4 1",
" 	c None",
".	c #FF0000",
"+	c #000000",
"#	c #000000",
"                        ",
"                        ",
"                        ",
"                        ",
"          ++++#         ",
"          ++++#         ",
"          ++++#         ",
"          ++++#         ",
"          ....#         ",
"          ....#         ",
"          ....#         ",
"          ....#         ",
"          ++++#         ",
"          ++++#         ",
"          ++++#         ",
"          ++++#         ",
"          ....#         ",
"          ....#         ",
"          ....#         ",
"        ++++++++        ",
"                        ",
"                        ",
"                        ",
"                        "};
