/* XPM */
static char * 180b_Mooring buoy_Boja cumownicza_day_xpm[] = {
"24 24 3 1",
" 	c None",
".	c #401000",
"+	c #000000",
"                        ",
"                        ",
"                        ",
"                        ",
"                        ",
"                        ",
"                        ",
"            ..          ",
"       .....  .         ",
"       ...........      ",
"       ...........      ",
"      ............      ",
"      ...........       ",
"      ...........       ",
"    ++++++++++++++++    ",
"                        ",
"                        ",
"                        ",
"                        ",
"                        ",
"                        ",
"                        ",
"                        ",
"                        "};
