/* XPM */
static char * 1907_Beacon South_Stawa po³udniowa_day_xpm[] = {
"24 24 4 1",
" 	c None",
".	c #FFFF00",
"+	c #000000",
"#	c #888888",
"                        ",
"                        ",
"                        ",
"                        ",
"          #####         ",
"          ....#         ",
"          ....#         ",
"          ....#         ",
"          ....#         ",
"          ....#         ",
"          ....#         ",
"          ....#         ",
"          ++++#         ",
"          ++++#         ",
"          ++++#         ",
"          ++++#         ",
"          ++++#         ",
"          ++++#         ",
"          ++++#         ",
"        ++++++++        ",
"                        ",
"                        ",
"                        ",
"                        "};
