/* XPM */
static char * 1908_Beacon RGR_Stawa c-z-c_day_xpm[] = {
"24 24 5 1",
" 	c None",
".	c #FF0000",
"+	c #00FF00",
"@	c #000000",
"#	c #000000",
"                        ",
"                        ",
"                        ",
"                        ",
"          ....#         ",
"          ....#         ",
"          ....#         ",
"          ....#         ",
"          ....#         ",
"          ++++#         ",
"          ++++#         ",
"          ++++#         ",
"          ++++#         ",
"          ++++#         ",
"          ....#         ",
"          ....#         ",
"          ....#         ",
"          ....#         ",
"          ....#         ",
"        @@@@@@@@        ",
"                        ",
"                        ",
"                        ",
"                        "};
