/* XPM */
static char * 190a_Safe Water_Bezp. woda_day_xpm[] = {
"24 24 5 1",
" 	c None",
"+	c #FF0000",
".	c #FFFFFF",
"@	c #000000",
"#	c #888888",
"                        ",
"                        ",
"                        ",
"                        ",
"         ++++#          ",
"         ++++#          ",
"         ++++#          ",
"         ++++#          ",
"         ....#          ",
"         ....#          ",
"         ....#          ",
"         ....#          ",
"         ++++#          ",
"         ++++#          ",
"         ++++#          ",
"         ++++#          ",
"         ....#          ",
"         ....#          ",
"         ....#          ",
"       @@@@@@@@@        ",
"                        ",
"                        ",
"                        ",
"                        "};
