/* XPM */
static char * 190c_Cardinal South_Kardynalna po³udniowa_day_xpm[] = {
"24 24 3 1",
" 	c None",
".	c #FFFF00",
"+	c #000000",
"                        ",
"                        ",
"                        ",
"                        ",
"            ..          ",
"            ....        ",
"            ....        ",
"           ....         ",
"           ....         ",
"           ....         ",
"          ++..          ",
"          ++++          ",
"          ++++          ",
"         ++++           ",
"         ++++           ",
"         ++++           ",
"        ++++            ",
"     ++++++++++         ",
"                        ",
"                        ",
"                        ",
"                        ",
"                        ",
"                        "};
