/* XPM */
static char * 1a07_Beacon East_Stawa wschodnia_day_xpm[] = {
"24 24 4 1",
" 	c None",
".	c #FFFF00",
"+	c #000000",
"#	c #888888",
"                        ",
"                        ",
"                        ",
"                        ",
"          ++++#         ",
"          ++++#         ",
"          ++++#         ",
"          ++++#         ",
"          ++++#         ",
"          ....#         ",
"          ....#         ",
"          ....#         ",
"          ....#         ",
"          ....#         ",
"          ++++#         ",
"          ++++#         ",
"          ++++#         ",
"          ++++#         ",
"          ++++#         ",
"        ++++++++        ",
"                        ",
"                        ",
"                        ",
"                        "};
