/* XPM */
static char * 1a0d_Preferred-to-Port-B_Glowny-w-lewo-B_day_xpm[] = {
"24 24 4 1",
" 	c None",
".	c #00FF00",
"+	c #000000",
"@	c #FF0000",
"                        ",
"                        ",
"                        ",
"                        ",
"             @@         ",
"             @@@@       ",
"            @@@@@       ",
"            ..@@@       ",
"           ......       ",
"           ......       ",
"          .......       ",
"          @@@....       ",
"         @@@@@@@@       ",
"       @@@@@@@@@@@      ",
"     @@@@@@@@@@@@@@     ",
"   ++++++++++++++++++   ",
"                        ",
"                        ",
"                        ",
"                        ",
"                        ",
"                        ",
"                        ",
"                        "};
