/* XPM */
static char * 1b07_Beacon West_Stawa zachodnia_day_xpm[] = {
"24 24 4 1",
" 	c None",
".	c #FFFF00",
"+	c #000000",
"#	c #888888",
"                        ",
"                        ",
"                        ",
"                        ",
"          ....#         ",
"          ....#         ",
"          ....#         ",
"          ....#         ",
"          ....#         ",
"          ++++#         ",
"          ++++#         ",
"          ++++#         ",
"          ++++#         ",
"          ++++#         ",
"          ....#         ",
"          ....#         ",
"          ....#         ",
"          ....#         ",
"          ....#         ",
"        ++++++++        ",
"                        ",
"                        ",
"                        ",
"                        "};
