/* XPM */
static char * 1b0a_Beacon WB_Stawa b-cz_day_xpm[] = {
"24 24 5 1",
" 	c None",
"+	c #000000",
".	c #FFFFFF",
"@	c #000000",
"#	c #888888",
"                        ",
"                        ",
"                        ",
"                        ",
"          #####         ",
"          ....#         ",
"          ....#         ",
"          ....#         ",
"          ....#         ",
"          ....#         ",
"          ....#         ",
"          ....#         ",
"          ++++#         ",
"          ++++#         ",
"          ++++#         ",
"          ++++#         ",
"          ++++#         ",
"          ++++#         ",
"          ++++#         ",
"        @@@@@@@@        ",
"                        ",
"                        ",
"                        ",
"                        "};
