/* XPM */
static char * 1b0b_Beacon Black_Stawa czarna_day_xpm[] = {
"24 24 4 1",
" 	c None",
".	c #FFFFFF",
"+	c #000000",
"@	c #000000",
"                        ",
"                        ",
"                        ",
"                        ",
"          .....         ",
"          ++++.         ",
"          ++++.         ",
"          ++++.         ",
"          ++++.         ",
"          ++++.         ",
"          ++++.         ",
"          ++++.         ",
"          ++++.         ",
"          ++++.         ",
"          ++++.         ",
"          ++++.         ",
"          ++++.         ",
"          ++++.         ",
"          ++++..        ",
"        @@@@@@@@        ",
"                        ",
"                        ",
"                        ",
"                        "};
