/* XPM */
static char * 1b0c_Cardinal West_Kardynalna zachodnia_day_xpm[] = {
"24 24 3 1",
" 	c None",
".	c #FFFF00",
"+	c #000000",
"                        ",
"                        ",
"                        ",
"                        ",
"            ..          ",
"            ....        ",
"            ....        ",
"           ....         ",
"           ++..         ",
"           ++++         ",
"          ++++          ",
"          ++++          ",
"          ++++          ",
"         ..++           ",
"         ....           ",
"         ....           ",
"        ....            ",
"     ++++++++++         ",
"                        ",
"                        ",
"                        ",
"                        ",
"                        ",
"                        "};
