/* XPM */
static char * 1c01_Wreck visible_Wrak widoczny_day_xpm[] = {
"24 24 3 1",
" 	c None",
".	c #FFFFFF",
"+	c #000000",
"                        ",
"                        ",
"                        ",
"                        ",
"                        ",
"        .               ",
"       .+.      ..      ",
"       .+.    ..++.     ",
"        .+. ..++++.     ",
"        .+..++++++.     ",
"        ..+++++++.      ",
"      ..+++++++++.      ",
"     .+++++..+++++.     ",
"      .....++.....      ",
"           ..           ",
"                        ",
"                        ",
"                        ",
"                        ",
"                        ",
"                        ",
"                        ",
"                        ",
"                        "};
