/* XPM */
static char * 1c03_Wreck non-dangerous_Wrak bezpieczny_xpm[] = {
"24 24 3 1",
" 	c None",
".	c #FFFFFF",
"+	c #000000",
"                        ",
"                        ",
"                        ",
"                        ",
"                        ",
"                        ",
"                        ",
"                        ",
"                        ",
"           .            ",
"         ..+..          ",
"       ..+.+.+..        ",
"      .+++++++++.       ",
"       ..+.+.+..        ",
"         ..+..          ",
"           .            ",
"                        ",
"                        ",
"                        ",
"                        ",
"                        ",
"                        ",
"                        ",
"                        "};
