/* XPM */
static char * 1c04_Wreck cleared by wire_Wrak sprawdzony tra³owaniem_xpm[] = {
"24 24 3 1",
" 	c None",
".	c #FFFFFF",
"+	c #000000",
"                        ",
"                        ",
"                        ",
"                        ",
"                        ",
"                        ",
"                        ",
"         +++++          ",
"       ++  .  ++        ",
"      +  ..+..  +       ",
"     + ..+.+.+.. +      ",
"     +.+++++++++.+      ",
"     + ..+.+.+.. +      ",
"      +  ..+..  +       ",
"       ++  .  ++        ",
"         +++++          ",
"      +         +       ",
"      +++++++++++       ",
"                        ",
"                        ",
"                        ",
"                        ",
"                        ",
"                        "};
