/* XPM */
static char * 1c05_Visible rock_G³az widoczny_xpm[] = {
"24 24 3 1",
" 	c None",
".	c #FFFF88",
"+	c #000000",
"                        ",
"                        ",
"                        ",
"                        ",
"                        ",
"                        ",
"                        ",
"                        ",
"                        ",
"          ++++          ",
"         +....+         ",
"         +....+         ",
"         +....+         ",
"         +....+         ",
"          ++++          ",
"                        ",
"                        ",
"                        ",
"                        ",
"                        ",
"                        ",
"                        ",
"                        ",
"                        "};
