/* XPM */
static char * 1c08_Obstruction cleared by wire_Przeszkoda sprawdzona tra³owaniem_xpm[] = {
"24 24 3 1",
" 	c None",
".	c #FFFFFF",
"+	c #000000",
"                        ",
"                        ",
"                        ",
"                        ",
"                        ",
"                        ",
"          +  +          ",
"                        ",
"       +       +        ",
"                        ",
"      +         +       ",
"                        ",
"      +         +       ",
"                        ",
"       +       +        ",
"                        ",
"         +  +           ",
"      +         +       ",
"      +++++++++++       ",
"                        ",
"                        ",
"                        ",
"                        ",
"                        "};
