/* XPM */
static char * 1c0a_Underwater rock_G³az podwodny_xpm[] = {
"24 24 3 1",
" 	c None",
".	c #FFFFFF",
"+	c #000000",
"                        ",
"                        ",
"                        ",
"                        ",
"                        ",
"                        ",
"                        ",
"           + +          ",
"         + ..           ",
"          .++. +        ",
"       + ..++..         ",
"        .++++++.+       ",
"       +.++++++.        ",
"         ..++.. +       ",
"        + .++.          ",
"           .. +         ",
"          + +           ",
"                        ",
"                        ",
"                        ",
"                        ",
"                        ",
"                        ",
"                        "};
