/* XPM */
static char * 1c0d_Foul cleared by wire_Nieczysto sprawdzone tra³owaniem_xpm[] = {
"24 24 3 1",
" 	c None",
".	c #FFFFFF",
"+	c #000000",
"                        ",
"                        ",
"                        ",
"                        ",
"                        ",
"                        ",
"          +    +        ",
"          +    +        ",
"          +    +        ",
"       ++++++++++++     ",
"         +    +         ",
"         +    +         ",
"         +    +         ",
"         +    +         ",
"     ++++++++++++       ",
"        +    +          ",
"        +    +          ",
"        +    +          ",
"     +          +       ",
"     ++++++++++++       ",
"                        ",
"                        ",
"                        ",
"                        "};
