/* XPM */
static char * 2100_HW exit_Zjazd_day_xpm[] = {
"24 24 17 1",
" 	c None",
".	c #FAFCF9",
"+	c #6B67D5",
"@	c #2D2D35",
"#	c #5857C3",
"$	c #FF0000",
"%	c #262383",
"&	c #C9CBC8",
"*	c #808588",
"=	c #AAACA9",
"-	c #FFFF00",
";	c #101131",
">	c #000857",
",	c #080C1A",
"'	c #5D5B5E",
")	c #272A89",
"!	c #393A9D",
"                        ",
"                        ",
"                        ",
"    ................    ",
"   ..++++++++++++++..   ",
"   .++++@@@@++##==+%&   ",
"   .++++.*=.####..=%=   ",
"   .+++;.**.>###..=%=   ",
"   .+++,.*'.;;#.#==%=   ",
"   .+++'.''.@..===)%=   ",
"   .++...''...>!)))%=   ",
"   .++>&.@'..=!!)))%=   ",
"   .++>..@@..*!+++++=   ",
"   .++,..@@..')+...++   ",
"   .++'..;@..&)+.++.+   ",
"   .+#&..;;..&)+.+%.+   ",
"   .+>...,;...>+...++   ",
"   .+@...,,...>+.+++=   ",
"   .++''',,'''@+.+%%=   ",
"   ..%%%%%%%%%%+++%=.   ",
"    .&=============.    ",
"                        ",
"                        ",
"                        "};
