/* XPM */
static char * 2a00_Restaurant_Jedzenie_day_xpm[] = {
"24 24 16 1",
" 	c None",
".	c #00FF00",
"+	c #FFF9F6",
"@	c #F1EAE6",
"#	c #FDB897",
"$	c #FFAC83",
"%	c #FAA478",
"&	c #F09567",
"*	c #D7D1CE",
"=	c #1C191A",
"-	c #E5895C",
">	c #574640",
",	c #B86F4A",
"'	c #D88257",
")	c #CA7A51",
"!	c #C2BDBA",
"                        ",
"                        ",
"                        ",
"    ++++++++++++++++    ",
"   ++##$$$$$$$$$%%&++   ",
"   +###%%$$$$$$$=&--+   ",
"   +$#>>>=%%%$$=&,-'+   ",
"   +$>>>===&%%>&==')+   ",
"   +#>>>===)->>>=,=,+   ",
"   +$>=====,'>>=,=,,+   ",
"   +$%=====)'====,,,+   ",
"   +$$&>========,,))+   ",
"   +$$%-')>==,,,))')+   ",
"   +$$%%&>====)---')+   ",
"   +$$$%>==>===-&--)+   ",
"   +$$%>==>))===--')+   ",
"   +%%>==,,'--===)')+   ",
"   +%-==>,)'--'==>))+   ",
"   +&&),,))-''')>,,,+   ",
"   ++-)),)))))))),,++   ",
"    ++++++++++++++++    ",
"                        ",
"                        ",
"                        "};
