/* XPM */
static char * 2a02_Asian Sushi_Azjatyckie i Sushi_day_xpm[] = {
"24 24 4 1",
" 	c None",
".	c #FFFFFF",
"+	c #000000",
"@	c #FF0000",
"                        ",
"                        ",
"     .......    ...     ",
"     .+.+.+.   ..+.     ",
"     .+.+.+.  ..++.     ",
"     .+.+.+.  .+++.     ",
"     .+.+.+.  .+++.     ",
"   ...+++++....+++...   ",
"   ....+++.....+++...   ",
"   .....+.......++...   ",
"   .....+..@@@..++...   ",
"   ....+++@@@@@.++...   ",
"   ....+++@@@@@@++...   ",
"   ....+++@@@@@@++...   ",
"   ....+++@@@@@@++...   ",
"   ....+++@@@@@.++...   ",
"   ....+++.@@@..++...   ",
"   ....+++......++...   ",
"   ..................   ",
"   ..................   ",
"                        ",
"                        ",
"                        ",
"                        "};
