/* XPM */
static char * 2a04_Chinese_Chiñskie_day_xpm[] = {
"24 24 5 1",
" 	c None",
".	c #FFFFFF",
"+	c #000000",
"@	c #FF0000",
"#	c #FFD000",
"                        ",
"                        ",
"                        ",
"     .......    ...     ",
"     .+.+.+.   ..+.     ",
"     .+.+.+.  ..++.     ",
"     .+.+.+.  .+++.     ",
"     .+.+.+.  .+++.     ",
"   ...+++++....+++...   ",
"   .@@@+++@@@@@+++@@.   ",
"   .@@@@+@@@@@@@++@@.   ",
"   .@@@@+@@@#@@@++@@.   ",
"   .@@@+++@@#@@@++@@.   ",
"   .@@@+++#####@++@@.   ",
"   .@@@+++@###@@++@@.   ",
"   .@@@+++@###@@++@@.   ",
"   .@@@+++@#@#@@++@@.   ",
"   .@@@+++#@@@#@++@@.   ",
"   .@@@+++@@@@@@++@@.   ",
"   .@@@@@@@@@@@@@@@@.   ",
"   ..................   ",
"                        ",
"                        ",
"                        "};
