/* XPM */
static char * 2a05_Bakery_Piekarnia_day_xpm[] = {
"24 24 24 1",
" 	c None",
".	c #BF4813",
"+	c #872100",
"@	c #C24A13",
"#	c #8F2B0D",
"$	c #85240B",
"%	c #7E0000",
"&	c #D69986",
"*	c #B84412",
"=	c #BC4613",
"-	c #A73A10",
";	c #87260C",
">	c #830E00",
",	c #BD3F00",
"'	c #9A5347",
")	c #BA3000",
"!	c #BB3600",
"~	c #B54212",
"{	c #922D0D",
"]	c #89270C",
"^	c #BC3A00",
"/	c #AC3D11",
"(	c #851B00",
"_	c #AF3F11",
"                        ",
"                        ",
"                        ",
"                        ",
"                        ",
"      ....+   @..#      ",
"     .......$......%    ",
"    .......&........    ",
"   *...  ....@=  ...@   ",
"   ...   ....-    ...   ",
"   ...   ....;    ...   ",
"   ...   ....>    .,.   ",
"   ...& '......  +..+   ",
"    .).....;..&.@...    ",
"    ...!..   .....~{    ",
"     .!..$    ]..^.     ",
"     ...........~..     ",
"      %/.........       ",
"         (...._         ",
"                        ",
"                        ",
"                        ",
"                        ",
"                        "};
