/* XPM */
static char * 2a06_International_Kuchnia-miêdzynarodowa_day_xpm[] = {
"24 24 17 1",
" 	c None",
".	c #FF00FF",
"+	c #D9D3CF",
"@	c #F4EDE9",
"#	c #FFFAF7",
"$	c #B7B2AF",
"%	c #DB8559",
"&	c #FF9966",
"*	c #FFA477",
"=	c #FFB089",
"-	c #C4764F",
";	c #000000",
">	c #A6A19F",
",	c #B86F4A",
"'	c #A66442",
")	c #221E1F",
"!	c #50392F",
"                        ",
"                        ",
"                        ",
"    +@##############    ",
"   $+%&**********==##   ",
"   $-%%%&*******;===#   ",
"   >,')))!**&**;=%==#   ",
"   >')))))!&&&;&))==#   ",
"   >'))))))&&;!))=;=#   ",
"   >'!)))))%%)))*;==#   ",
"   >',)))))&%))))*==#   ",
"   >',%!!)))))))&*==#   ",
"   >',%&&&!))%&&**==#   ",
"   >',%%&!))))&&&*==#   ",
"   >',-&!))')))&**==#   ",
"   >',%)))'&&)))&*==#   ",
"   >',))),&&&&)))**=#   ",
"   >'')),%%%%%%))%**#   ",
"   >''',%%%-%%%%,&&*#   ",
"   >>'',-,---,---%&##   ",
"    >>>>$$$$$$$$$++@    ",
"                        ",
"                        ",
"                        "};
