/* XPM */
static char * 2a07_Fastfood_Fastfood_day_xpm[] = {
"24 24 12 1",
" 	c None",
".	c #FFFFFF",
"+	c #F1A246",
"@	c #FEC671",
"#	c #FFF9BE",
"$	c #BF3F1D",
"%	c #E53F1D",
"&	c #84AA25",
"*	c #82C10F",
"=	c #8C6A34",
"-	c #FFF3A4",
";	c #9B6A34",
"                        ",
"                        ",
"                        ",
"                        ",
"         .....          ",
"      ....++@.....      ",
"    ...+++++#++@@...    ",
"   ..++++#+++++#@@@..   ",
"   .++#+++++#+++@@@@.   ",
"   ..++++++++++@@@@..   ",
"    .$$$$$%%$$$$%%%.    ",
"   ..$$$$%%$$$$%%%..    ",
"   .&&&*&&*&*&&*&**..   ",
"   ..&****&*&&**&&**.   ",
"    .==---###==;;##..   ",
"   ..==;--#===;;;;#..   ",
"   .++++=#++++@@@@#@.   ",
"   ..+++=++++++@@@@..   ",
"    ...+++++++@@@...    ",
"      ............      ",
"                        ",
"                        ",
"                        ",
"                        "};
