/* XPM */
static char * 2a08_Italian_W³oskie_day_xpm[] = {
"24 24 16 1",
" 	c None",
"+	c #FFF9F6",
"@	c #EBE9E7",
"#	c #FFFFFF",
"$	c #6FB34D",
"%	c #56A92C",
"&	c #F10A0A",
"*	c #D4D3D2",
"=	c #1C1A1A",
"-	c #4C4B49",
";	c #CC0000",
">	c #C2BDBA",
",	c #B60101",
"'	c #B3B0AE",
")	c #349005",
"!	c #246B01",
"                        ",
"                        ",
"                        ",
"    +++++++++++++++@    ",
"   +#$$$%######&&&&@*   ",
"   +$$$%%######&-&&&*   ",
"   #$$--=-@+###-&;;;>   ",
"   +$----==++#-;-=;;>   ",
"   +%---===>@=--=,=,>   ",
"   +%-====='*=-=,=,,'   ",
"   +%%=====>*====,,,>   ",
"   +%%%====-====,,;;>   ",
"   +%%%))*-=='>,;;;;>   ",
"   +%%%))-====*;&;;;>   ",
"   +%%%)--=-===&&&;;>   ",
"   +%%%-==-**===;&;;>   ",
"   +%%-=='>*@*===;;;>   ",
"   +))==!'>@@@*==,,,>   ",
"   +))!!!>**@**,,,,,'   ",
"   @@)!!!>*****,,,,'>   ",
"    ***>>>>>>>>>>'''    ",
"                        ",
"                        ",
"                        "};
