/* XPM */
static char * 2a0a_Pizza_Pizza_day_xpm[] = {
"24 24 9 1",
" 	c None",
".	c #FEFFFC",
"+	c #DEC00A",
"@	c #F40000",
"#	c #663403",
"$	c #F4000A",
"%	c #FB0002",
"&	c #F11609",
"*	c #F2180A",
"                        ",
"                        ",
"                        ",
"                        ",
"                        ",
"        ......          ",
"      ...++++...        ",
"     ..++@@@@++..       ",
"    ..+@@@@#@@$+..      ",
"   ..+@@#@@@@#$$+..     ",
"   .+@@@%@@@@@$$#+.     ",
"   .+@#@%@#@@#$$&+.     ",
"   .+@@@#@@..........   ",
"   ..+@@@@@@.@$$*#&+.   ",
"    ..+@@#@@@ $#&*+..   ",
"     ..++@@#@+.&&+..    ",
"      ...++++...+..     ",
"        ...... ...      ",
"                        ",
"                        ",
"                        ",
"                        ",
"                        ",
"                        "};
