/* XPM */
static char * 2a0b_Seafood_Owoce morza_day_xpm[] = {
"24 24 4 1",
" 	c None",
".	c #FF0000",
"-	c #FFFFFF",
"=	c #c0c0c0",
"                        ",
"                        ",
"                        ",
"          -----         ",
"         -.....=        ",
"        -.=..==.=       ",
"        -.=-.===        ",
"         =.=---- --     ",
"        --=.=-..=-.=    ",
"       -..=.....==-.=   ",
"      ---=.....==--.=   ",
"      -..=.....=-...=   ",
"       -........==..=   ",
"      ---.....==.==.=   ",
"    --=..=..==.==..=    ",
"   -...=..=..=.= ==     ",
"   --...=.==.=          ",
"    --...====           ",
"    -.=..=              ",
"    -= =.=              ",
"        =               ",
"                        ",
"                        ",
"                        "};
