/* XPM */
static char * 2a0d_Bagel_Cukiernia_day_xpm[] = {
"24 24 5 1",
" 	c None",
".	c #FFFFFF",
"+	c #663300",
"@	c #8C5050",
"#	c #F1A246",
"                        ",
"                        ",
"                        ",
"       ....             ",
"      ..++...           ",
"     ..+++@+...         ",
"    ..++@++++@...       ",
"   ..+@++@+@++++...     ",
"   .+++@++++++@+++...   ",
"   .##++++@++@+++@++.   ",
"   .####@++++++@+++#.   ",
"   ...####+@++++@+##.   ",
"   .....####+++@+##..   ",
"   .##....####++##...   ",
"   .####....#####..#.   ",
"   ...####....##..##.   ",
"     ...####.....##..   ",
"       ...####..##..    ",
"         ...#####..     ",
"           ...##..      ",
"             ....       ",
"                        ",
"                        ",
"                        "};
