/* XPM */
static char * 2a0e_Cafe_Kawiarnia_day_xpm[] = {
"24 24 15 1",
" 	c None",
".	c #190509",
"+	c #551113",
"@	c #652727",
"#	c #7F4444",
"$	c #846465",
"%	c #9A706E",
"&	c #B48886",
"*	c #A6A1A0",
"=	c #CC9998",
"-	c #B8ACAC",
";	c #D6A8A6",
">	c #D9B4B5",
",	c #D9D3D2",
"'	c #FCF6F5",
"                        ",
"                        ",
"                        ",
"    ''''''''''''',,>    ",
"   '';;=========&&&-*   ",
"   '>>;;===-==-==&%$*   ",
"   '>>;;==-==-==&&%$*   ",
"   '>>;==&=&&=&&%&%$*   ",
"   '>>;=%#&#%#$+@+%$*   ",
"   '>>;;#&%&%$++&+$$*   ",
"   '>>;=+%$##++.=+$$*   ",
"   '>>;=###+++..+$%$*   ",
"   '>>;;+@+++...=%%$*   ",
"   '>>;=@+......&&%$*   ",
"   '>>;;=......=&&%$*   ",
"   '>@+@@######@@+@$*   ",
"   '>>++++++++++++%$*   ",
"   '>;;&&&&&&&&&&%%$*   ",
"   ';;===&&&&&&&&%$$*   ",
"   '';=&&&&&&&&&&%%**   ",
"    ''',,,,,,,,,,>--    ",
"                        ",
"                        ",
"                        "};
