/* XPM */
static char * 2a10_German_Niemieckie_day_xpm[] = {
"24 24 6 1",
" 	c None",
".	c #FFFFFF",
"+	c #666666",
"@	c #000000",
"#	c #FF0000",
"$	c #FFD000",
"                        ",
"                        ",
"                        ",
"     .......    ...     ",
"     .+.+.+.   ..+.     ",
"     .+.+.+.  ..++.     ",
"     .+.+.+.  .+++.     ",
"   ...+.+.+....+++...   ",
"   .@@+++++@@@@+++@@.   ",
"   .@@@+++@@@@@+++@@.   ",
"   .@@@@+@@@@@@@++@@.   ",
"   .@@@@+@@@@@@@++@@.   ",
"   .###+++######++##.   ",
"   .###+++######++##.   ",
"   .###+++######++##.   ",
"   .###+++######++##.   ",
"   .$$$+++$$$$$$++$$.   ",
"   .$$$+++$$$$$$++$$.   ",
"   .$$$+++$$$$$$++$$.   ",
"   .$$$$$$$$$$$$$$$$.   ",
"   ..................   ",
"                        ",
"                        ",
"                        "};
