/* XPM */
static char * 2a12_Special food products_Mleczny_day_xpm[] = {
"24 24 13 1",
" 	c None",
".	c #000000",
"+	c #090909",
"@	c #151515",
"#	c #FFFFFF",
"$	c #161616",
"%	c #181818",
"&	c #010101",
"*	c #696969",
"=	c #191919",
"-	c #171717",
";	c #0B0B0B",
">	c #070707",
"                        ",
"                        ",
"                        ",
"         ......         ",
"       +@.####.$%       ",
"      .##########&      ",
"     .###***.*####.     ",
"    +###.***#**.###.    ",
"    =##..***#**..##.    ",
"   $.##.#***#**#..##.   ",
"   .##.##***#**##.##.   ",
"   .##.##***#**##.##.   ",
"   .##.###*##**##.##.   ",
"   .##.###*##**##.##.   ",
"   -.##.##*##**#..##.   ",
"    ;##..#*##**..##.    ",
"    >###..*##**.###.    ",
"     .####*..**###.     ",
"      .###*##**##.      ",
"       ...*##**..       ",
"         .*..**         ",
"                        ",
"                        ",
"                        "};
