/* XPM */
static char * 2a13_Greek_Greckie_day_xpm[] = {
"24 24 5 1",
" 	c None",
".	c #FFFFFF",
"+	c #000000",
"@	c #0000BB",
"#	c #FF0000",
"                        ",
"                        ",
"                        ",
"     .......    ...     ",
"     .+.+.+.   ..+.     ",
"     .+.+.+.  ..++.     ",
"     .+.+.+.  .+++.     ",
"     .+.+.+.  .+++.     ",
"   ...+++++....+++...   ",
"   .@@@+++@@@@@+++@@.   ",
"   .@@@.+@@.....++...   ",
"   .....+..@@@@@++@@.   ",
"   .@@@.+@@.....++...   ",
"   .@@@+++@@@@@@++@@.   ",
"   ....+++......++...   ",
"   .@@@+++@@@@@@++@@.   ",
"   ....+++......++...   ",
"   .@@@+++@@@@@@++@@.   ",
"   ....+++......++...   ",
"      .....    ....     ",
"                        ",
"                        ",
"                        ",
"                        "};
