/* XPM */
static char * 2b03_Camping_Camping_day_xpm[] = {
"24 24 15 1",
" 	c None",
".	c #BAC3BF",
"+	c #DADBDA",
"@	c #014F27",
"#	c #438E68",
"$	c #0E6C3D",
"%	c #7C9287",
"&	c #014A25",
"*	c #277C51",
"=	c #2D8157",
"-	c #006633",
";	c #01552A",
">	c #004221",
",	c #A6A6A6",
"'	c #FFFFFF",
"                        ",
"                        ",
"                        ",
"    ''''''''''''''''    ",
"   ++$$*=========##''   ",
"   .;-$*********=###'   ",
"   ,@;-$*$*.%*$**=##'   ",
"   ,&@;--$$''$$$$*=='   ",
"   ,>&;---%''#---*=='   ",
"   ,>&;---.'''--$$*='   ",
"   ,>&;--%+++'#-$**='   ",
"   ,>&;--+'%%''-$$*='   ",
"   ,>&;-%''-$%'%$**='   ",
"   ,>&;-.'.--%+'$$*='   ",
"   ,>&;+''----+',**='   ",
"   ,>..%%+'''.,,''.*'   ",
"   ,>>&;---------$$*'   ",
"   ,>>&@;;;;;;;;;-$$'   ",
"   ,>>>>&&&&&&&@@;--'   ",
"   ,,>>>>>>>>>>>>@;''   ",
"    ,,,,,,,,,,,,,,.+    ",
"                        ",
"                        ",
"                        "};
