/* XPM */
static char * 2b04_Resort_Oœrodek wypoczynkowy_day_xpm[] = {
"24 24 18 1",
" 	c None",
".	c #014222",
"+	c #024A24",
"@	c #085628",
"#	c #0A5C32",
"$	c #006635",
"%	c #006B39",
"&	c #216342",
"*	c #236D42",
"=	c #1A7548",
"-	c #2D704C",
";	c #297E51",
">	c #28825A",
",	c #417E5F",
"'	c #3F8C64",
")	c #4A936F",
"!	c #A5A7A4",
"~	c #FEFFFC",
"                        ",
"                        ",
"                        ",
"    ~~~~~~~~~~~~~~~~    ",
"   !~$=;>>>>>>>>>''~~   ",
"   !%@%=;;;;;;;;>'''~   ",
"   !+@$%===''===;>''~   ",
"   !+@@$%;)~~);%=;>>~   ",
"   !.+#;'~~''~~'>;;>~   ",
"   !.&,~~';%%;'~~)'>~   ",
"   !&~~';%$$$$%;'~~'~   ",
"   !.&-;%$$$$$$%;''>~   ",
"   !.+-~;$$$$$$;~';>~   ",
"   !.+-~;$$$$$$;~';>~   ",
"   !.+-~);;;;;;)~';>~   ",
"   !.+-~~~~~~~~~~';>~   ",
"   !..&~);;;;;;)~;=;~   ",
"   !..+&#@@@@@@#*%%=~   ",
"   !....++++++++@@$$~   ",
"   !!............+@~~   ",
"    !!!!!!!!!!!!!!!!    ",
"                        ",
"                        ",
"                        "};
