/* XPM */
static char * 2c00_Attraction_Atrakcja_day_xpm[] = {
"24 24 13 1",
" 	c None",
".	c #020303",
"+	c #D8D8D8",
"@	c #228FFF",
"#	c #908F8F",
"$	c #A5A5A5",
"%	c #464646",
"&	c #222222",
"*	c #333333",
"=	c #292929",
"-	c #218EFF",
";	c #1E94FE",
">	c #218DFF",
"                        ",
"                        ",
"                        ",
"                        ",
"                        ",
"                ....    ",
"    .............++.    ",
"   .@@@@@@@@@@@@.....   ",
"   .@@@@....@@@@@@@@.   ",
"   .@@@..##..@@@@@@@.   ",
"   .@@.#$$$$#.@@@@@@.   ",
"   .@..$%..&$..@@@@@.   ",
"   .@.#$....$#.@@@@@.   ",
"   .@.#$....$#.@@@@@.   ",
"   .@..$*..=$..@@-@@.   ",
"   .@@.#$$$$#.@@@@@@.   ",
"   .@@@..##..@;@>@@@.   ",
"   .@@@@....@@@@@@@@.   ",
"    ................    ",
"                        ",
"                        ",
"                        ",
"                        ",
"                        "};
