/* XPM */
static char * 2c01_Theme park_Plac zabaw_day_xpm[] = {
"24 24 15 1",
" 	c None",
".	c #000100",
"+	c #323331",
"@	c #595B58",
"#	c #A57646",
"$	c #868180",
"%	c #D37F29",
"&	c #E98D34",
"*	c #FF9934",
"=	c #FCA448",
"-	c #FEAC55",
";	c #C2BDBB",
">	c #FFB66F",
",	c #E1DBDA",
"'	c #FFF9F8",
"                        ",
"                        ",
"                        ",
"    ''''''''''''''''    ",
"   ''>>>--------=**,,   ",
"   '>>>>--$@@@=-=*&&,   ",
"   '>>>-$@-.+=$$**&&;   ",
"   '>>$$@==@=*=+@@&%;   ",
"   '--+++@*$**$.++&%;   ",
"   '--$***$%@@**&@&%;   ",
"   '-@@@***@.***@++%;   ",
"   '-.@#*$@+..@*++&%;   ",
"   '--&#$*.*@.*$&#&%;   ",
"   '--@$&..*@..#.@+%;   ",
"   '--.$..**$*.@+.&%;   ",
"   '--=*.+#.##..*&&%;   ",
"   '===@.&&.+&*+.&%%;   ",
"   '**@+.&&&&&&+..%%;   ",
"   '*%...&&&&&&...%%;   ",
"   ',&&%%%%%%%%%%%%;;   ",
"    ,,;;;;;;;;;;;;;;    ",
"                        ",
"                        ",
"                        "};
