/* XPM */
static char * 2c02_Museum_Muzeum_day_xpm[] = {
"24 24 15 1",
" 	c None",
".	c #000100",
"+	c #182718",
"@	c #575956",
"#	c #78776F",
"$	c #8F8E86",
"%	c #9F9E96",
"&	c #A5A7A4",
"*	c #B5B4AC",
"=	c #C7C6BD",
"-	c #D4D6D3",
";	c #E3E3D9",
">	c #EBEAE1",
",	c #F6F8F4",
"'	c #FEFFFC",
"                        ",
"                        ",
"                        ",
"    '''',,,,,,,,>;-=    ",
"   ''>;;;;;-=;;;-=*=&   ",
"   '>>;;;=*$@#*;-=&%&   ",
"   '>>>=&$#++++@&=&$&   ",
"   '>=%#+........+#%&   ",
"   '>*$+#@@@@+@#+@#$&   ",
"   '>>#.;@.*$.$*.@$%&   ",
"   '>>$+;$.;*.&;.@&$&   ",
"   '>>&+;$.;*.&;+@&$&   ",
"   '>>%+;$.;*.&;+@&$&   ",
"   '>>&+;$.;=.&;+#%$&   ",
"   '>>%+;$.;*+&;+@&$&   ",
"   '>>$+=#+&%+#*+@%$&   ",
"   '>-&#%$#$%##&#@$$&   ",
"   '-@+++.+.+.++...$&   ",
"   '-&&%%%%%%%$%$$#$&   ",
"   '';;-=========*%&&   ",
"    ''>;--------==**    ",
"                        ",
"                        ",
"                        "};
