/* XPM */
static char * 2c03_Library_Biblioteka_day_xpm[] = {
"24 24 15 1",
" 	c None",
".	c #449FFC",
"+	c #0F0E57",
"@	c #EBEAF0",
"#	c #2366AC",
"$	c #2F86DF",
"%	c #9996AC",
"&	c #736A9F",
"*	c #BEBDC7",
"=	c #2875C5",
"-	c #D7D5E2",
";	c #2B4A89",
">	c #59ACFF",
",	c #A6A6A6",
"'	c #FFFFFF",
"                        ",
"                        ",
"                        ",
"    ''''''''''''''''    ",
"   ''>>>>>>>>>>>>..@-   ",
"   '>>>>>>>>>>.#..$$*   ",
"   '>>>>>...;&'+=$$=*   ",
"   '>>>.;=#%'@'@+===,   ",
"   '>>$*'@;@--@'+;=#,   ",
"   '>>+'@-,&---'*+##,   ",
"   '>+';'-@+---@'+;#,   ",
"   '>+-&@@-&%--@'%+#,   ",
"   '>.+';'-@;@@%+++;%   ",
"   '>.+-&''&+&++++;;%   ",
"   '>>.+';+&+;+;;#;#,   ",
"   '>>.+-;;++;;##=##,   ",
"   '>..=+++;;#=$$==#,   ",
"   '...$;;;#===$==##,   ",
"   '.$$=####=====###,   ",
"   '@$==###=#=#=###,,   ",
"    -**,,,,,,,,,,,,,    ",
"                        ",
"                        ",
"                        "};
