/* XPM */
static char * 2c05_School_Szko³a_day_xpm[] = {
"24 24 7 1",
" 	c None",
".	c #FFFFFF",
"+	c #0E100C",
"@	c #F8E100",
"#	c #F9D700",
"$	c #FCCD00",
"%	c #FFC000",
"                        ",
"                        ",
"                        ",
"                        ",
"   ..................   ",
"   .++++++++++++++++.   ",
"   .++++++++++++++++.   ",
"   ..+@@####$$$%%%+..   ",
"    .+@+@+##$$+$+%+.    ",
"    .+@+@+##$$+%+%+.    ",
"    .+@@@####$$$%%+.    ",
"    .+@+@+##$$+$+%+.    ",
"    .+@+@+@##$+$+%+.    ",
"    .+@@@###$$$$%%+.    ",
"    .+@+@+@++$+%+%+.    ",
"    .+@+@+#++$+$+%+.    ",
"    .+@@@##++$$$%%+.    ",
"    .++++++++++++++.    ",
"    ................    ",
"                        ",
"                        ",
"                        ",
"                        ",
"                        "};
