/* XPM */
static char * 2c08_Sport Arena_Boisko_day_xpm[] = {
"24 24 17 1",
" 	c None",
".	c #00FF00",
"+	c #DAD7D5",
"@	c #FFFAF7",
"#	c #B8B4B1",
"$	c #8CEA5E",
"%	c #A2FF74",
"&	c #B0FF89",
"*	c #A6A19F",
"=	c #7ACB51",
"-	c #64A642",
";	c #273321",
">	c #6FBA4A",
",	c #495A40",
"'	c #000000",
")	c #EEEBEA",
"!	c #FFFFFF",
"                        ",
"                        ",
"                        ",
"    +@@@@@@@@@@@@@@@    ",
"   #+$%%%%%%%%%%%&&@@   ",
"   *==$%%%-;;-%%&&&&@   ",
"   *>=$%,'')!#';%&&&@   ",
"   *-==''',!!!@;'&&&@   ",
"   *->;!'!!'**'!+,&&@   ",
"   *->;*!!!*'';!!'&&@   ",
"   *-,+'!!!''''!!#-&@   ",
"   *-;)',*';''''),,&@   ",
"   *-,'''*!!*;!!*',&@   ",
"   *--'''!!!##!!!'-&@   ",
"   *->'''!!!,!!!;'&&@   ",
"   *->;*!'**';@');&&@   ",
"   *->=')!,''',!'%%&@   ",
"   *-->=;;,;;';;$%%&@   ",
"   *-->===-;,-==$$%%@   ",
"   **-->==>==>===$$@@   ",
"    *****########++)    ",
"                        ",
"                        ",
"                        "};
