/* XPM */
static char * 2c09_Fair_Targi_day_xpm[] = {
"24 24 9 1",
" 	c None",
".	c #000200",
"+	c #3F403E",
"@	c #3D5D76",
"#	c #506C8D",
"$	c #5D8EB9",
"%	c #919292",
"&	c #CAC9CB",
"*	c #F7F9F6",
"                        ",
"                        ",
"                        ",
"    &&&&&&&&&&&&&&&&    ",
"   &&$$$$$$$$$$$$$$%%   ",
"   &$$$$&&$$$$&&$$##%   ",
"   &$$$****$$%**&$#@%   ",
"   &$&*****&&*****&@%   ",
"   &$&****&..&****&@%   ",
"   &$$***+....+***@@%   ",
"   &$$$%........%@@@%   ",
"   &$$&**%....%***@@%   ",
"   &$&*****++*****&@%   ",
"   &$$&****++*****@@%   ",
"   &$$$&**+%%+**&@@@%   ",
"   &$$$#+.%**%.+@@@@%   ",
"   &$$$#********@@@@%   ",
"   &$$$##&****&@@@@@%   ",
"   &$###@@@&&@@@@@@@%   ",
"   &%#@@@@@@@@@@@@@%%   ",
"    %%%%%%%%%%%%%%%%    ",
"                        ",
"                        ",
"                        "};
