/* XPM */
static char * stupa_xpm[] = {
"24 24 17 1",
" 	c None",
".	c #FFF9F6",
"+	c #F9F5F2",
"@	c #FEFDFD",
"#	c #924E4D",
"$	c #853334",
"%	c #762324",
"&	c #67090B",
"*	c #EAEAEA",
"=	c #560102",
"-	c #CCCBCB",
";	c #C2C1C1",
">	c #B9B8B8",
",	c #666666",
"'	c #A6A19F",
")	c #A4A09D",
"!	c #9B9D96",
"                        ",
"                        ",
"                        ",
"    ..............+.    ",
"   .@##$$$$#$$$$%&&**   ",
"   .####$$$#.$%$%&==-   ",
"   .###$%$##.%%%&&==-   ",
"   .$#$%&%#...%=&===-   ",
"   .$$$&&&&...%=&===;   ",
"   .$$%&&%.....=====;   ",
"   .$$%&&$.....=&===;   ",
"   .$$%%%$$...$$====;   ",
"   .$$#$$$$...$%&&==;   ",
"   .$##$$$.....&&&==-   ",
"   .$##$$.......&&==;   ",
"   .$##$=&.....&=&==;   ",
"   .%$#&&&.....&&===;   ",
"   .&&#&#.......====>   ",
"   .&==&.........===>   ",
"   .*==...........=,>   ",
"    *;;;;'''''''')!'    ",
"                        ",
"                        ",
"                        "};
