/* XPM */
static char * 2c0b_Church_Kosció³_night_xpm[] = {
"24 24 12 1",
" 	c None",
".	c #FFFFFF",
"+	c #000100",
"@	c #FF0000",
"#	c #FEFFFC",
"$	c #FFFDFF",
"%	c #CBCDCA",
"&	c #CFCFD3",
"*	c #9C9E9B",
"=	c #686A67",
"-	c #D3CECD",
";	c #6C6A6E",
"                        ",
"                        ",
"                        ",
"          ...           ",
"         ..+..          ",
"         .+++.          ",
"         ..+..          ",
"         ..@..          ",
"        ..@@@..         ",
"        .@@@@@.         ",
"        .+#$%+.         ",
"        .+##&+.         ",
"        .+$@%+.         ",
"      ...@@@@@...       ",
"      .@@@@@@@@@.       ",
"      .+#$#$&*=+.       ",
"      .+#+$#&+=+.       ",
"      .+#+#+-+;+.       ",
"      .+###+&*;+.       ",
"      .+++++++++.       ",
"      ...........       ",
"                        ",
"                        ",
"                        "};
