/* XPM */
static char * 2c0d_Attraction_Mural_day_xpm[] = {
"24 24 6 1",
" 	c None",
".	c #FFF600",
"+	c #60FF00",
"@	c #00FFA2",
"#	c #00CCFF",
"$	c #0054FF",
"                        ",
"                        ",
"                        ",
"       ...    ...       ",
"       ..+    +..       ",
"       .++@  @++.       ",
"        +@#  #@+        ",
"   ...   #$  $#   ...   ",
"   ..++   $  $   ++..   ",
"   .++@#        #@++.   ",
"     @#$$      $$#@     ",
"                        ",
"                        ",
"     @#$$      $$#@     ",
"   .++@#        #@++.   ",
"   ..++   $  $   ++..   ",
"   ...   #$  $#   ...   ",
"        +@#  #@+        ",
"       .++@  @++.       ",
"       ..+    +..       ",
"       ...    ...       ",
"                        ",
"                        ",
"                        "};
