/* XPM */
static char * 2d00_Esc Room_Pokoj ucieczki_day_xpm[] = {
"24 24 8 1",
" 	c None",
".	c #FFFAF7",
"+	c #F4EDE9",
"@	c #000000",
"#	c #D9D3CF",
"$	c #B7B2AF",
"%	c #FFFFFF",
"&	c #A6A19F",
"                        ",
"                        ",
"                        ",
"    ................    ",
"   +.@@@@@@@@@@@@@@..   ",
"   #@@@@@@@@@@@@@@@@.   ",
"   #@@@@@@@@@@@@@@@@.   ",
"   $@%%%%@@@@@@@@@@@.   ",
"   $@%@@@@@@@@@@@@@@.   ",
"   $@%@@@@%%%%@%%%%@.   ",
"   $@%@@@@%@@@@%@@%@.   ",
"   $@%%%%@%@@@@%@@@@.   ",
"   &@%@@@@%%%%@%@@@@.   ",
"   &@%@@@@@@@%@%@@@@.   ",
"   &@%@@@@@@@%@%@@%@.   ",
"   &@%%%%@%%%%@%%%%@.   ",
"   &@@@@@@@@@@@@@@@@.   ",
"   &@@@@@@@@@@@@@@@@.   ",
"   &@@@@@@@@@@@@@@@@.   ",
"   &&@@@@@@@@@@@@@@..   ",
"    &&&&&&&&$$$$$##+    ",
"                        ",
"                        ",
"                        "};
