/* XPM */
static char * 2d01_Live Theatre_Teatr_day_xpm[] = {
"24 24 38 1",
" 	c None",
".	c #000000",
"+	c #004000",
"@	c #404040",
"#	c #BFFF80",
"$	c #BFFF40",
"%	c #80FFBF",
"&	c #80BF40",
"*	c #40BF80",
"=	c #40FF80",
"-	c #FFFF40",
";	c #408040",
">	c #000040",
",	c #FFFF00",
"'	c #80FF80",
")	c #400000",
"!	c #404000",
"~	c #808040",
"{	c #004040",
"]	c #FFBF00",
"^	c #80BF80",
"/	c #FF8000",
"(	c #008080",
"_	c #408080",
":	c #BFBF00",
"<	c #804000",
"[	c #BFFFFF",
"}	c #004080",
"|	c #40BFBF",
"1	c #808000",
"2	c #808080",
"3	c #00BF80",
"4	c #40FFFF",
"5	c #00FFFF",
"6	c #BF8000",
"7	c #FFFF80",
"8	c #8080BF",
"9	c #BFBFBF",
"                        ",
"                        ",
"                        ",
"   .++++++++.@          ",
"   .#$$$##%%%@          ",
"   .$&@$&@*%=@          ",
"   .-;>,&>*'=@          ",
"   .-;>,&>*'*@          ",
"   .$$$$##@))!)))))).   ",
"   .'~'$''{]]]]]]]]].   ",
"   .^>^''*>/,,,,]]]].   ",
"   .%(>''_./,:.:].<].   ",
"   .%_>>>>./,:.:].<].   ",
"   @*[_}}|@/,:!]]!1].   ",
"    234455{/]]6<<~7].   ",
"     _+{{{.]]:....~].   ",
"          @/].1]]:.6.   ",
"          @]/!]]]]16.   ",
"          8<]1]]]]6<2   ",
"           9!]]]]]62    ",
"            9.))).2     ",
"                        ",
"                        ",
"                        "};
