/* XPM */
static char * 2d03_Cinema_Kino_day_xpm[] = {
"24 24 15 1",
" 	c None",
".	c #000100",
"+	c #282721",
"@	c #444643",
"#	c #685A22",
"$	c #997B0E",
"%	c #AD8B00",
"&	c #C8A200",
"*	c #A6A1A0",
"=	c #B9B4B3",
"-	c #E6BA00",
";	c #FFCF0B",
">	c #FFD734",
",	c #E1DBDA",
"'	c #FFF9F8",
"                        ",
"                        ",
"                        ",
"    ,'''''''''''''''    ",
"   =,-;;;;;;;;;;;>>''   ",
"   *&&;;&+@$>;;;;>>>'   ",
"   *%&--..@@%;;;;>>>'   ",
"   *%&-&...+@;#@#>>>'   ",
"   *%%&-....%$.+@@>>'   ",
"   *%%---..#;...+@->'   ",
"   *$&&--;;;;+....>>'   ",
"   *$+#;++@@@;...&>>'   ",
"   *$.++.++++#;;;>>>'   ",
"   *$.......+@@@;;>>'   ",
"   *$.%-......+@;;>>'   ",
"   *%%&;&;.....+&;>>'   ",
"   *%%&-;-.+;..;;;;>'   ",
"   *%%&&-#.---.%-;;;'   ",
"   *%$%&&..&&&..-;;;'   ",
"   **%%%&&&&&&&&&--''   ",
"    *****=*=======,,    ",
"                        ",
"                        ",
"                        "};
