/* XPM */
static char * 2d07_Bowling_Krêgle_day_xpm[] = {
"24 24 17 1",
" 	c None",
".	c #00FF00",
"+	c #FFF9F6",
"@	c #D5CCD7",
"#	c #EDE8E7",
"$	c #9234ED",
"%	c #A14DF5",
"&	c #AC59FF",
"*	c #7126BB",
"=	c #CC99FF",
"-	c #FFFFFF",
";	c #A7A1A1",
">	c #491979",
",	c #B597D2",
"'	c #30124C",
")	c #4D474E",
"!	c #242022",
"                        ",
"                        ",
"                        ",
"    ++++++++++++++++    ",
"   @#$%%&&&&&&&&&&&++   ",
"   @*&=%&&&&&&&&&&=&-   ",
"   ;*--%%%%%%%%=&&&&+   ",
"   ;>@,=$%$%$$@-=&&&-   ",
"   ;>'%--#$$*-,&$&&&+   ",
"   ;*>>-,--*+--$%%&&+   ",
"   ;**>)---,---$%%&&+   ",
"   ;***>----;@)))%&&+   ",
"   ;***>'---)!!)))%&+   ",
"   ;*$**>'#@!!;))))&+   ",
"   ;**$$*>>'!!!!;))&+   ",
"   ;*$$$$$*>!!)!!!!&+   ",
"   ;***$$$*'!!!!!!!&+   ",
"   ;***$$$*>'!!!!!$%+   ",
"   ;********'''!'*$$+   ",
"   ;;********>>>**$##   ",
"    ;;;;;;;;;;;;;;@@    ",
"                        ",
"                        ",
"                        "};
