/* XPM */
static char * 2d09_Dive_Nury_day_xpm[] = {
"24 24 27 1",
" 	c None",
".	c #D9D9D9",
"+	c #FFFFFF",
"@	c #B6B6B6",
"#	c #CAE1F8",
"$	c #CBE4FF",
"%	c #FF0000",
"&	c #CFE6FE",
"*	c #D2E8FE",
"=	c #D7EAFF",
"-	c #C8DBEF",
";	c #C9DEF4",
">	c #A6A6A6",
",	c #C7D7E9",
"'	c #C2CDDC",
")	c #C5D3E2",
"!	c #062761",
"~	c #1B5490",
"{	c #0F3B79",
"]	c #2775C3",
"^	c #2F8AE6",
"/	c #2265AA",
"(	c #4EA6FE",
"_	c #62B0FF",
":	c #2B80D7",
"<	c #43A0FE",
"[	c #3399FF",
"                        ",
"                        ",
"                        ",
"    .+++++++++++++++    ",
"   @.#$%&*&**&***==++   ",
"   @-;%%%&&*&&&**===+   ",
"   >-%%+++&&&&&&*===+   ",
"   >,-+++$$$$$$$&*==+   ",
"   >,-;+$$$$$$$$&*==+   ",
"   >,,;##'$$$;);$*==+   ",
"   >,,)!!!!$;!!!$*==+   ",
"   >)!!',)!!,!!!;*==+   ",
"   >)),,'!!!!)!'$*==+   ",
"   >~~{!!!!!!{]^/(__+   ",
"   >~{!!!!!!!!/!!!/_+   ",
"   >~~~~/~///:]/]^__+   ",
"   >~~/]:::::^^:^<(_+   ",
"   >//]:^^^^^^^^^<<(+   ",
"   >///]::::::::^^<<+   ",
"   >>//]]]]]]]]]:^[++   ",
"    >>>>@@@@@@@@@..+    ",
"                        ",
"                        ",
"                        "};
