/* XPM */
static char * 2d0a_Sports_Sport_day_xpm[] = {
"24 24 15 1",
" 	c None",
".	c #11103A",
"+	c #1C1864",
"@	c #212693",
"#	c #3537BC",
"$	c #69544C",
"%	c #6766CC",
"&	c #B28834",
"*	c #AA906A",
"=	c #8B8FE4",
"-	c #A7A7E5",
";	c #ACAEAB",
">	c #E9BA56",
",	c #DBDDDA",
"'	c #FEFFFC",
"                        ",
"                        ",
"                        ",
"    ''''''''''''''''    ",
"   ,,----------==%%''   ",
"   ,-----=======%%##'   ",
"   ;==-========%%##@'   ",
"   ;===>%%%>>%%#>@@@'   ",
"   ;=%>>>#%>>>##>>++'   ",
"   ;%%>@+@#>>.@#@>*.'   ",
"   ;%*>>>>$>>>>>>>>.'   ",
"   ;%&&>>>>>>>>>>>>.'   ",
"   ;%%@$&&>>>>>>$$..'   ",
"   ;%%##+&&>>>>.....'   ",
"   ;%%%##@&>>>..+++.'   ",
"   ;#####@$&>>.+@++.'   ",
"   ;###@@@&&&>.+++..'   ",
"   ;##@@+++.........'   ",
"   ;@++++...........'   ",
"   ;;++............,'   ",
"    ;;;;;;;;;;;;;;,,    ",
"                        ",
"                        ",
"                        "};
