/* XPM */
static char * 2e00_Hiper_Sklepy_day_xpm[] = {
"24 24 17 1",
" 	c None",
".	c #E2DBD8",
"+	c #FFFAF7",
"@	c #B9B4B1",
"#	c #E3B602",
"$	c #FFCC00",
"%	c #FFD21D",
"&	c #FED639",
"*	c #A6A19F",
"=	c #BE9800",
"-	c #D2A801",
";	c #F4C400",
">	c #000000",
",	c #A68500",
"'	c #624F02",
")	c #1E1800",
"!	c #FFFFFF",
"                        ",
"                        ",
"                        ",
"    .+++++++++++++++    ",
"   @.#$$%%%%%%%%%&&++   ",
"   *=-;$%%%%%%%%>>,&+   ",
"   *=-#$%$%##''>>&&&+   ",
"   *,,'))>>>>>>!>&&&+   ",
"   *,=>'>!>!>!>!>%&&+   ",
"   *,=>!>!>!>!>!>%&&+   ",
"   *,=)>>>>>>>>>>%&&+   ",
"   *,=)!>!,!>!>!>%&&+   ",
"   *,='>>>>>>>>>>%&&+   ",
"   *,=-=#-----;'>%&&+   ",
"   *,=-;$$$$$$$>-%&&+   ",
"   *,=,>>>>>>>>>%%&&+   ",
"   *,,>>=;;;;;>>-%%&+   ",
"   *,,>>>####->>';%%+   ",
"   *,,'>------')#;$%+   ",
"   **,,=======-=-#;++   ",
"    ****@@@@@@@@@@..    ",
"                        ",
"                        ",
"                        "};
