/* XPM */
static char * 2e05_Pharmacy_Apteka_day_xpm[] = {
"24 24 10 1",
" 	c None",
".	c #FFFFFF",
"+	c #00B403",
"@	c #FEFFFC",
"#	c #00C400",
"$	c #00CE00",
"%	c #00D800",
"&	c #00DF00",
"*	c #00EC00",
"=	c #0AF700",
"                        ",
"                        ",
"                        ",
"       ..........       ",
"       .++++++++.       ",
"       .+@@@@@@+.       ",
"       .#@####@#.       ",
"   .....$@$$$$@$.....   ",
"   .++#$%@%%%%@%%$#+.   ",
"   .+@@@@@&&&&@@@@@#.   ",
"   .+@#$%&*****&%$@+.   ",
"   .+@#$%&*===*&%$@#.   ",
"   .+@#$%&*===*&%$@+.   ",
"   .+@#$%&*===*&%$@#.   ",
"   .+@@@@@*===@@@@@+.   ",
"   .++#$%@&***@&%$##.   ",
"   .....%@&&&&@&.....   ",
"       .%@%%%%@%.       ",
"       .$@@@@@@$.       ",
"       .########.       ",
"       ..........       ",
"                        ",
"                        ",
"                        "};
