/* XPM */
static char * 2e06_Shop 24h_Sklep 24h_day_xpm[] = {
"24 24 15 1",
" 	c None",
".	c #1F006B",
"+	c #36009A",
"@	c #5C2EAC",
"#	c #726242",
"$	c #B8B821",
"%	c #BCB6B5",
"&	c #CFCB22",
"*	c #C8C3C2",
"=	c #DCDD2B",
"-	c #F0ED27",
";	c #FCF837",
">	c #FFFE52",
",	c #FDFF73",
"'	c #FCF6F5",
"                        ",
"                        ",
"                        ",
"    ''''''''''''''''    ",
"   '',,>>>>>>>>>>;;''   ",
"   ',,,@@@@->>>>@#-=*   ",
"   ',,@+&=+.->>@+#&=*   ",
"   '>,+.&=+.&;@@+#&&*   ",
"   '>>;=&@+&=@+=.#$&*   ",
"   '>>>-@.&&@+=&@#$&%   ",
"   '>>>@+&&-+..++..$%   ",
"   '>>@@&&-;-=&&+#$$%   ",
"   '>@+..++.----.#$$%   ",
"   '>>=&&====;;;-&$&*   ",
"   '>@+=@=+=-@;;@+$&%   ",
"   '>@==@-+=@-+-@&.$*   ",
"   ';@+=@++&+=+=+$.$%   ",
"   ';-+&+$.$+&.&+.$$%   ",
"   ';+.$.$.$$.$$.$$$%   ",
"   ''=$$$$$$&$$&$$$%%   ",
"    '**%%%%%%%%%%%%%    ",
"                        ",
"                        ",
"                        "};
