/* XPM */
static char * 2e07_Clothes_Ubrania_day_xpm[] = {
"24 24 16 1",
" 	c None",
".	c #E2DBD8",
"+	c #FFFAF7",
"@	c #B9B4B1",
"#	c #E3B602",
"$	c #FFCC00",
"%	c #FFD21D",
"&	c #FED639",
"*	c #A6A19F",
"=	c #BE9800",
"-	c #D2A801",
";	c #F4C400",
">	c #000000",
",	c #FFFFFF",
"'	c #A68500",
")	c #191402",
"                        ",
"                        ",
"                        ",
"    .+++++++++++++++    ",
"   @.#$$%%%%%%%%%&&++   ",
"   *=-;>>>-%%=>>>;;&+   ",
"   *=->,,,>==>,,,>&&+   ",
"   *'>,,,,,)),,,,,>&+   ",
"   *>,,,,,,,,,,,,,,>+   ",
"   *'>,>>,,,,,,>>,>&+   ",
"   *'=>$>,,,,,,>%>&&+   ",
"   *'=$$>,,,,,,>%%&&+   ",
"   *'=$$>,,,,,,>%%&&+   ",
"   *'=$$>,,,,,,>%%&&+   ",
"   *'=$$>,,,,,,>%%&&+   ",
"   *'=$$>,,,,,,>%%&&+   ",
"   *''$$>,,,,,,>%%%&+   ",
"   *''$$>>>>>>>>%;%%+   ",
"   *''=$$$$$$$$$$;$%+   ",
"   **''=======-=-#;++   ",
"    ****@@@@@@@@@@..    ",
"                        ",
"                        ",
"                        "};
