/* XPM */
static char * 2e08_House and garden_Budowlany_day_xpm[] = {
"24 24 16 1",
" 	c None",
"+	c #FFFFFF",
".	c #E2DBD8",
"@	c #B9B4B1",
"*	c #A6A19F",
"%	c #FFD21D",
"$	c #FFCC00",
"&	c #FED639",
";	c #F4C400",
"#	c #E3B602",
"-	c #D2A801",
"=	c #BE9800",
",	c #A68500",
"'	c #624F02",
")	c #1E1800",
">	c #000000",
"                        ",
"                        ",
"                        ",
"    .+++++++++++++++    ",
"   @.#$$%%%%%%%%%&&++   ",
"   *=-;$%%%%%%%%>>,&+   ",
"   *=-#$%$%##''>>&&&+   ",
"   *,,'))>>>>>>+>&&&+   ",
"   *,=>,>+>+>+>+>%&&+   ",
"   *,=>+>+>+>+>+>%&&+   ",
"   *,=)>>>>>>>>>>%&&+   ",
"   *,=========='>%&&+   ",
"   *,=--------->>%&&+   ",
"   *,=-=#-----;'>%&&+   ",
"   *,=-;$$$$$$$>'%&&+   ",
"   *,=,>>>>>>>>>%%&&+   ",
"   *,,>>=;;;;;>>-%%&+   ",
"   *,,>>>####->>';%%+   ",
"   *,,'>------')#;$%+   ",
"   **,,=======-=-#;++   ",
"    ****@@@@@@@@@@..    ",
"                        ",
"                        ",
"                        "};
