/* XPM */
static char * 2e09_Furniture_Meble_day_xpm[] = {
"24 24 4 1",
" 	c None",
".	c #FFFFFF",
"+	c #000000",
"@	c #E0BF07",
"                        ",
"                        ",
"                        ",
"                        ",
"                        ",
"          ...........   ",
"         ..+++++++++.   ",
"        ..+@@@@@@@++.   ",
"       ..+@@@@@@@+@+.   ",
"      ..+@@@@@@@+@@+.   ",
"     ..+@@@@@@@+.@@+.   ",
"    ..+@@@@@@@+..@@+.   ",
"   ..+@@@@@@@+...@@..   ",
"   .++++++++++. ....    ",
"   .@@+....@@+.         ",
"   .@@+.  .@@+.         ",
"   .@@+.  .@@+.         ",
"   .@@+.  .@@+.         ",
"   .@@..  .@@..         ",
"   ....   ....          ",
"                        ",
"                        ",
"                        ",
"                        "};
