/* XPM */
static char * 2e0b_Computer_Komputery_night_xpm[] = {
"24 24 5 1",
" 	c None",
".	c #000000",
"+	c #FFFFFF",
"@	c #C5C5C5",
"#	c #0000FF",
"                        ",
"                        ",
"                        ",
"                        ",
"                        ",
"        ......          ",
"      ...++++...        ",
"     ..++@@@@++..       ",
"    ..+@@#@@@@#+..      ",
"   ..+@@#@@@@#@@+..     ",
"   .+@@#@@++@@@@@+.     ",
"   .+@@@@++++@@@@+.     ",
"   .+@@@@@++@#@@@+.     ",
"   ..+@@@@@@#@@@+..     ",
"    ..+@@@@#@@@+..      ",
"     ..++@@@@++..       ",
"      ...++++...        ",
"        ......          ",
"                        ",
"                        ",
"                        ",
"                        ",
"                        ",
"                        "};
