/* XPM */
static char * 2f01_Petrol Station_Stacja Benzynowa_day_xpm[] = {
"24 24 17 1",
" 	c None",
".	c #00FF00",
"+	c #FFF9F6",
"@	c #F1EAE6",
"#	c #FFFF99",
"$	c #FEFE5B",
"%	c #E8E731",
"&	c #D7D1CE",
"*	c #978ECB",
"=	c #4F4F8E",
"-	c #04045B",
";	c #CAB4FB",
">	c #DED0FF",
",	c #9D9D1F",
"'	c #C8C728",
")	c #C2BDBA",
"!	c #BBB6B3",
"                        ",
"                        ",
"                        ",
"    +++++++++++++++@    ",
"   ++#########$$$$%@&   ",
"   +$##**====--%$%%%&   ",
"   +$##*;@>>>;-%%%%%&   ",
"   +$$#=>++++;--,'%')   ",
"   +$$#=;>>>>;---'%')   ",
"   +$$#==--------,%')   ",
"   +$$#==------'-,'')   ",
"   +$$#==------'-,'')   ",
"   +$$#==-------'-'')   ",
"   +$$$-------=-'-,')   ",
"   +$$$$=-----'-'-,')   ",
"   +$$$#==----'-'-,')   ",
"   +$$$#=-----''--,')   ",
"   +$$#$------,'',,'!   ",
"   +%$----------,'''!   ",
"   @@%'',,,,,,,,,''!!   ",
"    &&))!!!!!!!)!!!!    ",
"                        ",
"                        ",
"                        "};
