/* XPM */
static char * 2f02_Auto Rental_Wypo¿yczalnia samochodów_day_xpm[] = {
"24 24 15 1",
" 	c None",
".	c #000100",
"+	c #191400",
"@	c #6F5800",
"#	c #8F7200",
"$	c #B29000",
"%	c #CCA500",
"&	c #DAB100",
"*	c #E5BA07",
"=	c #C2BDBB",
"-	c #F8C400",
";	c #FFCC06",
">	c #FDD424",
",	c #EBE5E4",
"'	c #FFF9F8",
"                        ",
"                        ",
"                        ",
"    ''''''''''''''',    ",
"   ''>>>>>>>>>>>>;-,,   ",
"   '>>>>>>>>>>>>-;-&=   ",
"   '>...-...*+-....%=   ",
"   '>.-.-.&**.@.;.&%=   ",
"   '>..+-..**.+.-.&%=   ",
"   '>..;*.%**.#.-.&%=   ",
"   '>.-.-...*.;.-.&%=   ",
"   '>>>;;;;;;;;;-*&%=   ",
"   '>>-@......#;;*&%=   ",
"   '>>#.##.###.%*&&%=   ",
"   '>>.+@@.#@@+.@@&%=   ",
"   '>>............&%=   ",
"   '->++.++++++.++%%=   ",
"   ';;$.*.$$$$.&+$%%=   ",
"   '--*@.@&&&&@.@%%$=   ",
"   ,,*&%%%%%%%%%%$$==   ",
"    ,,==============    ",
"                        ",
"                        ",
"                        "};
