/* XPM */
static char * 2f03_Service_Serwis samochodowy_day_xpm[] = {
"24 24 17 1",
" 	c None",
".	c #00FF00",
"+	c #EEEEF3",
"@	c #FFFFFF",
"#	c #B7B7B7",
"$	c #D4D4D4",
"%	c #3333FF",
"&	c #3D3DFF",
"*	c #4A4AFE",
"=	c #5A5AFF",
"-	c #6A6AEF",
";	c #2222AB",
">	c #2A2AD0",
",	c #A6A6A6",
"'	c #C7C7F4",
")	c #19197D",
"!	c #A8A8ED",
"                        ",
"                        ",
"                        ",
"    ++@@@@@@@@@@@@@@    ",
"   #$%%&********==-@@   ",
"   #;>%&*********=--@   ",
"   ,;>>>@'-&&&&**=--@   ",
"   ,;>>;;@@@&&%&&==-@   ",
"   ,;;@>))@@-%%%&*=-@   ",
"   ,))!@;)@@!%%%&*=-@   ",
"   ,))-@@@@@'%%%&===@   ",
"   ,;))@@@@+@@%%&*=-@   ",
"   ,;))),-+@)@@%&*==@   ",
"   ,;;;))))@@)@@&*=-@   ",
"   ,;;>%>;))@@)@@===@   ",
"   ,;;>%%%>))@@)@'=-@   ",
"   ,;;>>%%>>))@@;@==@   ",
"   ,;;>>>%>>;))'+***@   ",
"   ,;;;>>>>>>;));>&*@   ",
"   ,,;;;>>>>;>;;>>%@@   ",
"    ,,,,#########$$+    ",
"                        ",
"                        ",
"                        "};
