/* XPM */
static char * 2f05_Post Office_Poczta_day_xpm[] = {
"24 24 16 1",
" 	c None",
".	c #E0E0E0",
"@	c #FDB300",
"+	c #0046FF",
"$	c #2764D5",
"%	c #3E47C6",
"&	c #686E98",
"*	c #D8A325",
"=	c #C2973F",
"-	c #917E6D",
";	c #60609F",
">	c #9D8662",
",	c #0031FC",
"'	c #001AFF",
")	c #AC8B52",
"!	c #495EB8",
"                        ",
"                        ",
"                        ",
"                        ",
"     ..............     ",
"    .++++++++++++++-    ",
"    .+++++++$+++$''-    ",
"    .++$%+&*@*&+'''-    ",
"    .&=@=&@-$-@&**'-    ",
"    .;@@=*>+++-***'-    ",
"    .+@@@@&,++$@@>'-    ",
"    .,;@@@>,,+&@@&'-    ",
"    .',=@@@>->@@=+'-    ",
"    .'',&@@@@@@)+''-    ",
"    .'',%;)**)&!'''-    ",
"    .'')@>@;;@>@)''-    ",
"    .'%-!-;',&-;>;'-    ",
"    .''',,''','''''-    ",
"    .'''',,''''''''-    ",
"     --------------     ",
"                        ",
"                        ",
"                        ",
"                        "};
