/* XPM */
static char * 2f06_Bank ATM_Bank ATM_day_xpm[] = {
"24 24 17 1",
" 	c None",
".	c #00FF00",
"+	c #E2DBD8",
"@	c #FFFAF7",
"#	c #B9B4B1",
"$	c #459C1A",
"%	c #69B444",
"&	c #216400",
"*	c #8EED5F",
"=	c #99FF66",
"-	c #A5FF77",
";	c #ADFF85",
">	c #A6A19F",
",	c #7FD355",
"'	c #182810",
")	c #000000",
"!	c #335522",
"                        ",
"                        ",
"                        ",
"    +@@@@@@@@@@@@@@@    ",
"   ##$$$$$$$$$$$$%%@@   ",
"   #&$*=--------;;%%@   ",
"   >&,*==-')))))!;;%@   ",
"   >&%,=*))))))));;%@   ",
"   >&%,*)))!===!,-;%@   ",
"   >&%,!))!=====--;%@   ",
"   >&%))))'))))==;-%@   ",
"   >&%')))!!!!$==-;%@   ",
"   >&%,))'===*===;-%@   ",
"   >&%)))))))))=--;%@   ",
"   >&%%)))$=%*==---%@   ",
"   >&%,,))'*===!,-;%@   ",
"   >&%,*!)))'''),--%@   ",
"   >&%%,*$))))))*=-$@   ",
"   >&&%%,,,,,,,,,*$$@   ",
"   >>&&&&&&&&&&&$&$@@   ",
"    >>>##########+++    ",
"                        ",
"                        ",
"                        "};
