/* XPM */
static char * 2f08_Bus Station_Przystanek_day_xpm[] = {
"24 24 15 1",
" 	c None",
".	c #FFD11A",
"+	c #DAD4D0",
"@	c #D5AB02",
"#	c #5FABBE",
"$	c #A88701",
"%	c #7F7627",
"&	c #093058",
"*	c #546754",
"=	c #B59100",
"-	c #FFD52F",
";	c #FFF9F6",
">	c #A6A19F",
",	c #FFCC00",
"'	c #99FFFF",
"                        ",
"                        ",
"                        ",
"    ;;;;;;;;;;;;;;;;    ",
"   ;;-----------..,++   ",
"   ;-----------..,,@+   ",
"   ;----.........,@@>   ",
"   ;----,.,.,.,.,@@=>   ",
"   ;->**%**%**%**%*=>   ",
"   ;-&''&''&''&#'&#$>   ",
"   ;-&''&''&''&''&#=>   ",
"   ;-*##&##&##&###&=>   ",
"   ;-&*&&&*&&&&&&&&=>   ",
"   ;-&&&&&&&&&&&&&&$>   ",
"   ;-*%&@&%%%%%&=&%=>   ",
"   ;---=&$,,,,,=&$=$>   ",
"   ;-..,,,,,,,,,@@=$>   ",
"   ;.,,@@@@@@@@@@==$>   ",
"   ;,,@@@@@@=@@@==$$>   ",
"   ;+@@===$====$=$$>>   ",
"    ++>>>>>>>>>>>>>>    ",
"                        ",
"                        ",
"                        "};
