/* XPM */
static char * 2f09_Marina boat repair_Port serwis ³odzi_day_xpm[] = {
"24 24 15 1",
" 	c None",
".	c #000268",
"+	c #1C4D9A",
"@	c #2A75C2",
"#	c #1982DB",
"$	c #178DEC",
"%	c #798188",
"&	c #7E8893",
"*	c #3C99FF",
"=	c #4DABFF",
"-	c #6EB6FF",
";	c #C2C4C2",
">	c #A4CEF7",
",	c #E4EDF7",
"'	c #FAFCF9",
"                        ",
"                        ",
"                        ",
"    ''''''''''''''''    ",
"   ''---=========**''   ",
"   '---,,,=======**#;   ",
"   '--%%,,$..*==**$#;   ",
"   '-,=%,,.$#.#**$$#;   ",
"   '%,,,,,.+..@$*$#@;   ",
"   '%,,,,>,..@@$*$##;   ",
"   '%%%%;,%.,@#**$##;   ",
"   '===&%,,..,$**$#@;   ",
"   '===*%%,.%,,**$##;   ",
"   '==..$%%..%,#..@@;   ",
"   '=#..@$%.,,$*..+@;   ",
"   '==*..#*.%@$..+@@;   ",
"   '=**#+......#@@@@;   ",
"   '***$#@+..+@@@@@@;   ",
"   '**$###@@@@@@#@@@;   ",
"   ''$###@#@@@@@@@@;;   ",
"    ';;;;;;;;;;;;;;;    ",
"                        ",
"                        ",
"                        "};
