/* XPM */
static char * 2f0d_Autoclub_Autoklub_day_xpm[] = {
"24 24 7 1",
" 	c None",
".	c #FFFFFF",
"+	c #C0C0C0",
"@	c #808080",
"#	c #000000",
"$	c #000080",
"%	c #800080",
"                        ",
"                        ",
"                        ",
"                        ",
"               @@+...   ",
"   #@+     ++..+##+..   ",
"   ###@...##@...#@@@@   ",
"   $###...##$@##..###   ",
"   ..+@@@@@.@###..@##   ",
"   ...+###..+##@##@..   ",
"   ++ +###+@@..+##%...  ",
"   @###...###...##@@@+  ",
"   @###...###+@#...###  ",
"   .@##...#++###...###  ",
"   ...+###..+###+@#+++  ",
"   ...+###..+@+.###@..  ",
"   +#@+@$@@##...###@..  ",
"    ###...###+..+       ",
"    +##...$@+           ",
"                        ",
"                        ",
"                        ",
"                        ",
"                        "};
