/* XPM */
static char * 2f0e_Car wash_Myjnia_day_xpm[] = {
"24 24 15 1",
" 	c None",
".	c #FFFFFF",
"+	c #00108F",
"@	c #000C89",
"#	c #000A89",
"$	c #000888",
"%	c #2200FE",
"&	c #000100",
"*	c #F8E700",
"=	c #F7DA00",
"-	c #FCCC00",
";	c #FFC000",
">	c #010300",
",	c #090300",
"'	c #010400",
"                        ",
"                        ",
"                        ",
"          ....          ",
"       ....+@....       ",
"      ..#$%++###..      ",
"      .##$+%+####.      ",
"    ................    ",
"   ..%.#.%.#..#.%.#..   ",
"   .#..%.#..%.%.#..%.   ",
"   .%.#..........%.#.   ",
"   .#.%..&&&&&&..#.%.   ",
"   .%...&...&..&...#.   ",
"   ....&....&...&....   ",
"   ..&&&&&&&&&&&&&&..   ",
"   .&******==-;;;;;&.   ",
"   .&*******=--;;;;&.   ",
"   .&*&&&***=-;&&&;&.   ",
"   ..&&>&&&&&&&&&>&..   ",
"    ..&,>......&>'..    ",
"     .....    .....     ",
"                        ",
"                        ",
"                        "};
