/* XPM */
static char * 2f0f_Garmin_Garmin_day_xpm[] = {
"24 24 12 1",
" 	c None",
".	c #FFFFFF",
"+	c #E5EEF7",
"@	c #76A6D2",
"#	c #D1DFF1",
"$	c #4686C4",
"%	c #69A1D3",
"&	c #86B2DB",
"*	c #4F8CC8",
"=	c #5A8EC5",
"-	c #5695CB",
";	c #ABCBE8",
"                        ",
"                        ",
"                        ",
"                        ",
"          ....          ",
"         ..++..         ",
"         .+@@+.         ",
"        ..#$$#..        ",
"        .+%$$%+.        ",
"       ..#$$$$#..       ",
"       .+&$$$$&+.       ",
"      ..#*****=#..      ",
"      .+&*=---=;;.      ",
"     ..#=*------#..     ",
"     .+&$*--%--*&+.     ",
"    ..#$$*-----**#..    ",
"    .+%$$*=---*$$%+.    ",
"    .+@$*=----=**@+.    ",
"    ..++++++++++++..    ",
"     ..............     ",
"                        ",
"                        ",
"                        ",
"                        "};
