/* XPM */
static char * 2f11_Factory_Fabryka_day_xpm[] = {
"24 24 6 1",
" 	c None",
".	c #FFFFFF",
"+	c #B0B0B0",
"@	c #BF3F1D",
"#	c #606060",
"$	c #000000",
"                        ",
"                        ",
"                        ",
"     ................   ",
"   ...++..++..++..++.   ",
"   .@@..++..++++++++.   ",
"   .@@.......+..+.++.   ",
"   .@@.     .........   ",
"   .@@.                 ",
"   .@@.                 ",
"   .@@.                 ",
"   .@@. ...  ...  ...   ",
"   .@@...#....#....#.   ",
"   .@@.###..###..###.   ",
"   .@###############.   ",
"   .@@@@@@@@@@@@@@@@.   ",
"   .@@$@@$@@$@@$@@$@.   ",
"   .@@$@@$@@$@@$@@$@.   ",
"   .@@@@@@@@@@@@@@@@.   ",
"   .@@@@@@@@@@@@@@@@.   ",
"   ..................   ",
"                        ",
"                        ",
"                        "};
