/* XPM */
static char * 2f12_WiFi_WiFi_day_xpm[] = {
"24 24 3 1",
" 	c None",
".	c #FFFFFF",
"+	c #000000",
"                        ",
"                        ",
"                        ",
"     ...        ...     ",
"    ..+...    ...+..    ",
"    .+..+......+..+.    ",
"    .+.+...++...+.+.    ",
"    .+.+..++++..+.+.    ",
"    .+.+...++...+.+.    ",
"    .+..+..++..+..+.    ",
"    ..+....++....+..    ",
"     ..+..+..+..+..     ",
"      ....++++....      ",
"    ................    ",
"   ..+++++++++.......   ",
"   .+.+++.+.+.+++.+..   ",
"   .+.+.+.+++.+......   ",
"   .+.+.+.+.+.+++.+..   ",
"   .++.+.++.+.+...+..   ",
"   ..+++++++.........   ",
"    ................    ",
"                        ",
"                        ",
"                        "};
