/* XPM */
static char * 2f15_Building_Budynek_day_xpm[] = {
"24 24 9 1",
" 	c None",
".	c #FFFFFF",
"+	c #E9041A",
"@	c #FA0005",
"#	c #000200",
"$	c #FFA400",
"%	c #2418DA",
"&	c #F9E500",
"*	c #8C5050",
"                        ",
"                        ",
"                        ",
"                        ",
"                        ",
"     ..............     ",
"    ..++++++++++++..    ",
"   ..++++++++++@@@@..   ",
"   .+++++@+@@@@@+@@@.   ",
"   ..#$$$$$$$$$$$$#..   ",
"    .#$%%$$%%$$%%$#.    ",
"    .#&%%$&%%$$%%$#.    ",
"    .#$%%$$%%&&%%$#.    ",
"    .#&&&&&&&&&&&&#.    ",
"    .#&%%&****&%%&#.    ",
"    .#&%%&****&%%&#.    ",
"    .#&%%&****&%%&#.    ",
"    .#&&&&****&&&&#.    ",
"    .##############.    ",
"    ................    ",
"                        ",
"                        ",
"                        ",
"                        "};
