<?xml version="1.0" encoding="UTF-8" standalone="no"?>
<!-- Created with Inkscape (http://www.inkscape.org/) -->

<svg
   width="210mm"
   height="297mm"
   viewBox="0 0 210 297"
   version="1.1"
   id="svg1"
   inkscape:version="1.3 (0e150ed6c4, 2023-07-21)"
   sodipodi:docname="2f16.svg"
   xmlns:inkscape="http://www.inkscape.org/namespaces/inkscape"
   xmlns:sodipodi="http://sodipodi.sourceforge.net/DTD/sodipodi-0.dtd"
   xmlns="http://www.w3.org/2000/svg"
   xmlns:svg="http://www.w3.org/2000/svg">
  <sodipodi:namedview
     id="namedview1"
     pagecolor="#ffffff"
     bordercolor="#666666"
     borderopacity="1.0"
     inkscape:showpageshadow="2"
     inkscape:pageopacity="0.0"
     inkscape:pagecheckerboard="0"
     inkscape:deskcolor="#d1d1d1"
     inkscape:document-units="mm"
     inkscape:zoom="0.5697005"
     inkscape:cx="-48.270977"
     inkscape:cy="562.5763"
     inkscape:window-width="1903"
     inkscape:window-height="1266"
     inkscape:window-x="3102"
     inkscape:window-y="154"
     inkscape:window-maximized="0"
     inkscape:current-layer="layer1" />
  <defs
     id="defs1" />
  <g
     inkscape:label="Warstwa 1"
     inkscape:groupmode="layer"
     id="layer1">
    <rect
       style="fill:none;stroke:#000000;stroke-width:0.522789;stroke-linecap:square;stroke-dasharray:none"
       id="rect4"
       width="159.47722"
       height="159.47722"
       x="24.416059"
       y="30.235018" />
    <path
       d="m 62.506453,74.018588 c -3.020907,0 -5.470694,2.457303 -5.470694,5.470695 V 129.8076 c 0,3.01339 2.75038,5.77128 5.771279,5.77128 h 7.875385 c 0.916793,5.45565 5.651042,9.61879 11.362201,9.61879 5.711159,0 10.445409,-4.16314 11.362199,-9.61879 h 17.794767 c 3.01339,0 5.47069,-2.45731 5.47069,-5.47069 V 79.609512 c 0,-3.081018 -2.42724,-5.590924 -5.41057,-5.590924 z M 120.5198,87.484904 v 48.093976 c 0.9243,5.44814 5.83139,9.61879 11.54255,9.61879 5.71116,0 10.44541,-4.17065 11.3622,-9.61879 h 4.02787 c 3.02091,0 5.77128,-2.75038 5.77128,-5.77128 v -18.51618 c 0,-3.87006 -2.78795,-7.82278 -3.12611,-8.29621 l -7.99563,-10.700912 c -1.83358,-2.209309 -4.7117,-4.809394 -8.11585,-4.809394 z m 9.61879,9.618794 h 10.76102 l 6.13199,8.175972 c 0.65377,0.92431 2.34458,3.75735 2.34458,6.01175 v 1.20235 h -19.23759 c -1.92376,0 -3.84751,-1.92376 -3.84751,-3.84752 v -7.69503 c 0,-2.126662 1.92375,-3.847522 3.84751,-3.847522 z M 82.044624,125.96008 c 4.245796,0 7.695038,3.44924 7.695038,7.69504 0,4.24579 -3.449242,7.69503 -7.695038,7.69503 -4.245791,0 -7.695035,-3.44924 -7.695035,-7.69503 0,-4.2458 3.449244,-7.69504 7.695035,-7.69504 z m 50.017726,0 c 4.2458,0 7.69503,3.44924 7.69503,7.69504 0,4.24579 -3.44923,7.69503 -7.69503,7.69503 -4.2458,0 -7.69503,-3.44924 -7.69503,-7.69503 0,-4.2458 3.44923,-7.69504 7.69503,-7.69504 z"
       id="path1"
       style="stroke-width:1.92376" />
  </g>
</svg>
