/* XPM */
static char * 3001_Police_Policja_day_xpm[] = {
"24 24 52 1",
" 	c None",
".	c #FFFFFF",
"+	c #5F7192",
"@	c #3E4A5F",
"#	c #697A99",
"$	c #72819E",
"%	c #8A98B0",
"&	c #8A97AF",
"*	c #707F9D",
"=	c #8B98AF",
"-	c #A0ABBE",
";	c #ABB5C6",
">	c #ABB4C5",
",	c #9EA9BD",
"'	c #8996AE",
")	c #6F7F9D",
"!	c #BAC2D0",
"~	c #CCD1DD",
"{	c #CBD1DB",
"]	c #B8C0CF",
"^	c #9DA8BC",
"/	c #8B97B0",
"(	c #CCD2DC",
"_	c #E9ECF1",
":	c #E8EAEF",
"<	c #C9CFDB",
"[	c #A8B2C4",
"}	c #8795AD",
"|	c #677897",
"1	c #697A98",
"2	c #8A97B0",
"3	c #ABB4C6",
"4	c #CBD1DC",
"5	c #E5E8EE",
"6	c #C9CED9",
"7	c #A8B1C4",
"8	c #8794AE",
"9	c #667797",
"0	c #CAD0DB",
"a	c #C9CFDA",
"b	c #B5BFCD",
"c	c #9BA6BB",
"d	c #6F809D",
"e	c #A9B2C4",
"f	c #9CA7BB",
"g	c #8694AD",
"h	c #6D7E9C",
"i	c #6E7F9D",
"j	c #8795AE",
"k	c #8794AD",
"l	c #6D7D9B",
"m	c #667897",
"                        ",
"                        ",
"                        ",
"          ....          ",
"          .++.          ",
"     ......++......     ",
"     .++..@++@..++.     ",
"     .+++@@##@@+++.     ",
"     ..++$@%&@*++..     ",
"     ..@$=-;>,')@..     ",
"   ...@@@-!~{]^@@@...   ",
"   .+++#/;(_:<[}|+++.   ",
"   .+++1234:56789+++.   ",
"   ...@@@,]0abc@@@...   ",
"     ..@d'^e[fgh@..     ",
"     ..++i@jk@l++..     ",
"     .+++@@m9@@+++.     ",
"     .++..@++@..++.     ",
"     ......++......     ",
"          .++.          ",
"          ....          ",
"                        ",
"                        ",
"                        "};
