/* XPM */
static char * 3002_Hospital_Szpital_night_xpm[] = {
"24 24 10 1",
" 	c None",
".	c #FFFFFF",
"+	c #1B20D8",
"@	c #171CC1",
"#	c #161BB4",
"$	c #1C17A6",
"%	c #181698",
"&	c #12158A",
"*	c #14127A",
"=	c #FEFFFC",
"                        ",
"                        ",
"                        ",
"    ................    ",
"   ..+++@@##$$%%%&*..   ",
"   .+==============*.   ",
"   .+=====##$$=====*.   ",
"   .+=====@#$$=====*.   ",
"   .@=====##$$=====*.   ",
"   .@=====@#$$=====*.   ",
"   .#=@###@#$$$%%&=*.   ",
"   .#=######$$%%&&=*.   ",
"   .$=$#$$##$$%%&&=*.   ",
"   .$=$$$$$$$$%%&*=*.   ",
"   .%=====%%$%=====*.   ",
"   .%=====&%%%=====*.   ",
"   .%=====&&&&=====*.   ",
"   .*=====&&&&=====*.   ",
"   .&==============*.   ",
"   ..**************..   ",
"    ................    ",
"                        ",
"                        ",
"                        "};
