/* XPM */
static char * 3003_City hall_Ratusz_day_xpm[] = {
"24 24 26 1",
" 	c None",
".	c #FEFFFC",
"+	c #FF0000",
"@	c #E2C312",
"#	c #E1C210",
"$	c #DEC00A",
"%	c #E4C517",
"&	c #E3C415",
"*	c #663403",
"=	c #E7C92A",
"-	c #E9CB38",
";	c #E8D24E",
">	c #E9D458",
",	c #EAD450",
"'	c #E7D14D",
")	c #E5CF43",
"!	c #E8CA2C",
"~	c #E6C829",
"{	c #E5CE38",
"]	c #ECD862",
"^	c #E9D34F",
"/	c #E9D246",
"(	c #E6CF3A",
"_	c #E3CB2B",
":	c #E5C727",
"<	c #E4CD37",
"                        ",
"                        ",
"                        ",
"          ....          ",
"         ..++..         ",
"        ..++++..        ",
"        .++++++.        ",
"     ....@#$$$$....     ",
"    ..+++%&**$$+++..    ",
"   ..++++=%**$$++++..   ",
"   .+++++-=%@$$+++++.   ",
"   .;>>,')!~&#$$$$$$.   ",
"   .>**>**{**#**$**$.   ",
"   .>**]**{**#**$**$.   ",
"   .>]]>,)-~&#$$$$$$.   ",
"   .;,>^/(_:&$$$$$$$.   ",
"   .)**)**~**$**$**$.   ",
"   .<**-**%**$**$**$.   ",
"   .~==~~%@**$$$$$$$.   ",
"   .&%%%&##**$$$$$$$.   ",
"   ..................   ",
"                        ",
"                        ",
"                        "};
