/* XPM */
static char * 3004_Court_S¹d_day_xpm[] = {
"24 24 4 1",
" 	c None",
".	c #FFFFFF",
"+	c #000000",
"@	c #999999",
"                        ",
"                        ",
"                        ",
"          ....          ",
"         ..++..         ",
"        ..++++..        ",
"      ...@+@@++...      ",
"    ...@@@@@@++@@...    ",
"    .@@@@@@@++@@@@@.    ",
"    ..@..@.++.@..@..    ",
"     .@..@++++@..@.     ",
"     .@..++..++..@.     ",
"     .@..++..++..@.     ",
"     .@..@++++@..@.     ",
"     .@..@.++.@..@.     ",
"     .@..@++..@..@.     ",
"    ..@..++...@..@..    ",
"   ..@@@@++@@+@@@@@..   ",
"   .@@@@@@++++@@@@@@.   ",
"   ........++........   ",
"          ....          ",
"                        ",
"                        ",
"                        "};
