/* XPM */
static char * 3005_Community center_Osrodek kultury_day_xpm[] = {
"24 24 11 1",
" 	c None",
".	c #CAC9CB",
"+	c #5D8EB9",
"@	c #919292",
"#	c #B52A2F",
"$	c #506C8D",
"%	c #3D5D76",
"&	c #F29931",
"*	c #F8EE53",
"=	c #0918B8",
"-	c #53F86E",
"                        ",
"                        ",
"                        ",
"    ................    ",
"   ..++++++++++++++@@   ",
"   .+++++++##+++++$$@   ",
"   .++++++####++++$%@   ",
"   .+++++####&#+++$%@   ",
"   .++++####&&&#+$$%@   ",
"   .+++####&&&&&#$%%@   ",
"   .++####&&***&&#%%@   ",
"   .++###&&**#**&&#%@   ",
"   .++##&&&**#**&&&%@   ",
"   .++##&&&&***&&&&%@   ",
"   .++##&&&&&&&&&&&%@   ",
"   .++===++---++***%@   ",
"   .++===++---+$***%@   ",
"   .++===++---$$***%@   ",
"   .++$$$$$%%%%%%%%%@   ",
"   .@$$$%%%%%%%%%%%@@   ",
"    @@@@@@@@@@@@@@@@    ",
"                        ",
"                        ",
"                        "};
