/* XPM */
static char * 3006_Border crossing_Przejscie graniczne_day_xpm[] = {
"24 24 3 1",
" 	c None",
".	c #FF0000",
"+	c #FFFFFF",
"                        ",
"                        ",
"                        ",
"         ......         ",
"       ..........       ",
"      ...++++++...      ",
"     ...++++++++...     ",
"    ...++++++++++...    ",
"    ..++++++++++++..    ",
"   ..++++++++++++++..   ",
"   ..++...+.++...++..   ",
"   ..++.+++..+.+.++..   ",
"   ..++.+++.++.+.++..   ",
"   ..++...+..+...++..   ",
"   ..++++++++++++++..   ",
"    ..++++++++++++..    ",
"    ...++++++++++...    ",
"     ...++++++++...     ",
"      ...++++++...      ",
"       ..........       ",
"         ......         ",
"                        ",
"                        ",
"                        "};
