/* XPM */
static char * 3007_Goverment office_Urz¹d_day_xpm[] = {
"24 24 14 1",
" 	c None",
"@	c #FF0000",
".	c #FEFFFC",
"$	c #ECD96B",
"%	c #EBD762",
"&	c #EAD559",
"*	c #E6D04C",
"=	c #E3CD41",
"-	c #E1CA34",
";	c #E4C632",
">	c #E2C424",
",	c #663403",
"#	c #323331",
"+	c #000100",
"                        ",
"                        ",
"                        ",
"          ....          ",
"          .+@..         ",
"          .+@@..        ",
"          .+@@@.        ",
"          .+.@@.        ",
"          .+..@.        ",
"   ........+.........   ",
"   .################.   ",
"   .$$$$%%&&**==--;>.   ",
"   .$,,$,,&,,*,,-,,>.   ",
"   .$,,$,,&,,*,,-,,>.   ",
"   .$$$$%%&&**===;;>.   ",
"   .%%%%%%&&**==-;;>.   ",
"   .%,,%,,&,,*,,-,,>.   ",
"   .&,,&,,&,,=,,-,,>.   ",
"   .&&&&&**,,==--;>>.   ",
"   .*******,,=--;;>>.   ",
"   ..................   ",
"                        ",
"                        ",
"                        "};
