/* XPM */
static char * 3008_Fire Department_Stra¿ Po¿arna_day_xpm[] = {
"24 24 9 1",
" 	c None",
".	c #FFFFFF",
"+	c #F9B0B3",
"@	c #EF262B",
"#	c #F5B410",
"$	c #606060",
"%	c #FDD817",
"&	c #6DFFD7",
"*	c #000000",
"                        ",
"                        ",
"                        ",
"        ...   ....      ",
"        .+.. ..@+..     ",
"        .++...@+.@...   ",
"        ..@+.@@+@+.@.   ",
"      ....@@+@@#@@@+.   ",
"     ..$$$@@#@#@+@+..   ",
"    ..$$$$$@#@#@@#@.    ",
"   ..$$$+$$@##%@#@@..   ",
"   .$$$$++@@@%#@#@@@.   ",
"   ..&&&@+@@@%#@#@@@.   ",
"    .&&&@@+#@#%#@#@..   ",
"    .&&*@@@##@%%#+@@.   ",
"    .&&**@+@%%%%#+@@.   ",
"    .&&**@+@#%%%+@@..   ",
"    .&&&&&@+@%%%+@@.    ",
"    .&&&&&@+@#%+@@&.    ",
"    .&&&&&&@+@#+@&&.    ",
"    ................    ",
"                        ",
"                        ",
"                        "};
