/* XPM */
static char * 4200_Wreck_Wrak_day_xpm[] = {
"24 24 3 1",
" 	c None",
".	c #FFFFFF",
"+	c #000000",
"                        ",
"                        ",
"                        ",
"          ...           ",
"          .+.           ",
"          .+.           ",
"           .+.          ",
"           .+.          ",
"            .+.  ...    ",
"            .+....++.   ",
"           ..+.+++++.   ",
"        ....+++++++..   ",
"     ....++++++++++.    ",
"   ...++++++++++++...   ",
"   .++++++++++++++++.   ",
"   ..................   ",
"                        ",
"                        ",
"                        ",
"                        ",
"                        ",
"                        ",
"                        ",
"                        "};
