/* XPM */
static char * 4700_Boat ramp_Pochylnia_day_xpm[] = {
"24 24 15 1",
" 	c None",
".	c #58ABFF",
"+	c #266DB5",
"@	c #5C6464",
"#	c #DBF4F4",
"$	c #3391F2",
"%	c #898989",
"&	c #B3B3B3",
"*	c #CCCCCC",
"=	c #264259",
"-	c #A6A6A6",
";	c #FFFFCC",
">	c #FFFFFF",
",	c #000000",
"'	c #003333",
"                        ",
"                        ",
"                        ",
"    >>>>>>>>>>>>>>>>    ",
"   >>.............$#*   ",
"   >...%.........$$$*   ",
"   >...%@$.;;;;;;;++&   ",
"   >...%@'.$;;;;;=,,&   ",
"   >...%%=,$+;;;',,+-   ",
"   >...@@#@,$+;=,,++-   ",
"   >'.$='@=',$+,,$;+->  ",
"   >''.+,,'#@,$,$;;=%>  ",
"   >'''$+,,===,$$;;=%   ",
"   >''''$+,,'#@,$+;=%   ",
"   >'''''$+,,@=,,++=%   ",
"   >''''''$+,,,,,,++-   ",
"   >'''''''$+,,,,,'+-   ",
"   >''''''''$+,,,,,,-#  ",
"   >'''''''''++,,,,,-   ",
"   >#'''''''''+=,',--   ",
"    **&&------------    ",
"                        ",
"                        ",
"                        "};
