/* XPM */
static char * 4b00_Hospital_Przychodnia_day_xpm[] = {
"24 24 7 1",
" 	c None",
".	c #FFFFFF",
"+	c #A6CAF0",
"@	c #BA0000",
"#	c #454545",
"$	c #D90000",
"%	c #2C2C2C",
"                        ",
"                        ",
"          ...           ",
"         ..+. ....      ",
"        ..+.. .@@.      ",
"        .#.....@@...    ",
"        .#. .@@@@@@.    ",
"       ..#...@@@@@@.    ",
"       .###....@@...    ",
"       .##$.  .@@.      ",
"       .###.  ....      ",
"       .##$.            ",
"       .###.            ",
"       .#%$.            ",
"       .#%#.            ",
"       .#%$.            ",
"       .#%#.            ",
"      ..#%#..           ",
"      .%%%%%.           ",
"      .......           ",
"                        ",
"                        ",
"                        ",
"                        "};
