/* XPM */
static char * 4d00_Parking_Parking_xpm[] = {
"24 24 10 1",
" 	c None",
".	c #FFFFFF",
"+	c #0A0E5B",
"@	c #100F67",
"#	c #13147B",
"$	c #1A1999",
"%	c #1C1EB2",
"&	c #FEFFFC",
"*	c #1122C3",
"=	c #1B1DAA",
"                        ",
"                        ",
"                        ",
"    ................    ",
"   ..++@@###$$$$%%%..   ",
"   .++&&&&&&&&&&&&**.   ",
"   .+&+@@@##$$$$=%&*.   ",
"   .@&@@&&&&&&&==%&*.   ",
"   .@&@@&&&&&&&&=%&*.   ",
"   .#&##&&##$$&&=%&*.   ",
"   .#&##&&###$&&=%&*.   ",
"   .#&##&&$#$$&&=%&*.   ",
"   .$&$#&&&&&&&&=%&*.   ",
"   .$&$$&&&&&&&$=%&*.   ",
"   .$&$$&&$$$$$$%%&*.   ",
"   .$&$=&&===$===%&*.   ",
"   .=&=%&&==%====%&*.   ",
"   .%&%%%%%%%%%=%%&*.   ",
"   .%%&&&&&&&&&&&&%*.   ",
"   ..**************..   ",
"    ................    ",
"                        ",
"                        ",
"                        "};
