/* XPM */
static char * 2c00_Scenic_Widok_day_xpm[] = {
"24 24 3 1",
" 	c None",
".	c #0918B8",
"+	c #000000",
"                        ",
"                        ",
"                        ",
"           .            ",
"          ...           ",
"    ...  .....  ...     ",
"    ....  ...  ....     ",
"    ....  ...  ....     ",
"     ....  .  ....      ",
"       ..  .  ..        ",
"    .             .     ",
"   ....         ....    ",
"  .......  +  .......   ",
"   ....         ....    ",
"    .             .     ",
"       ..  .  ..        ",
"     ....  .  ....      ",
"    ....  ...  ....     ",
"    ....  ...  ....     ",
"    ...  .....  ...     ",
"          ...           ",
"           .            ",
"           .            ",
"                        "};
