/* XPM */
static char * 5600_Danger_Uwaga_day_xpm[] = {
"24 24 10 1",
" 	c None",
".	c #FFFFFF",
"+	c #6F716E",
"@	c #020300",
"#	c #63441B",
"$	c #AC6D1E",
"%	c #FC9E28",
"&	c #38250E",
"*	c #F5AD52",
"=	c #A27843",
"                        ",
"                        ",
"                        ",
"   ..................   ",
"   .+@@@@@@@@@@@@@@+.   ",
"   .@#$$$$$$$$$$$$#@.   ",
"   .@$%%%%%%%%%%%%$@.   ",
"   .@$%%&&&##%%%%%$@.   ",
"   .@$*&@@@##&%$%%$@.   ",
"   .@$*&@@@####@$%$@.   ",
"   .@=*&@@@@@&#@&$$@.   ",
"   .@=*&@@@@@&#@@@$@.   ",
"   .@=*&@@@@@&#@@@#@.   ",
"   .@=*&@##&@&#@@@#@.   ",
"   .@=*&&#&#@&#@&#$@.   ",
"   .@=*&&#&#@@&@#%$@.   ",
"   .@=*#@#=@@#**%%$@.   ",
"   .@=**=====***%%$@.   ",
"   .@#=========$$$#@.   ",
"   .+@@@@@@@@@@@@@@+.   ",
"   ..................   ",
"                        ",
"                        ",
"                        "};
