/* XPM */
static char * 5700_Dangerous Place_Niebezpieczne Miejsce_day_xpm[] = {
"24 24 10 1",
" 	c None",
".	c #FFFFFF",
"+	c #020400",
"@	c #424000",
"#	c #8E8700",
"$	c #E7D800",
"%	c #312D00",
"&	c #F9E800",
"*	c #635D00",
"=	c #D1C600",
"                        ",
"                        ",
"                        ",
"    ................    ",
"   ..++++++++++++++..   ",
"   .+@############@+.   ",
"   .+#$$$%%%%%%$&&#+.   ",
"   .+#&*+@****@@=&#+.   ",
"   .+#=++*&$&&$+%$#+.   ",
"   .+#@*$@*$&=@**@#+.   ",
"   .+#%*$$@*$@*&*%#+.   ",
"   .+#%*&&=%%*$&@%#+.   ",
"   .+#%@&&=%%*&&*%#+.   ",
"   .+#%*&$@*=@*$*%#+.   ",
"   .+#=+#@*&&$%%%=*+.   ",
"   .+#$@+%&&&&#+#&#+.   ",
"   .+#&=#%****+@$&#+.   ",
"   .+#&&$=%%%%@$&&#+.   ",
"   .+@############@+.   ",
"   ..++++++++++++++..   ",
"    ................    ",
"                        ",
"                        ",
"                        "};
