/* XPM */
static char * 5808_Reporting Point_Punkt Meldowania_day_xpm[] = {
"24 24 2 1",
" 	c None",
".	c #ec008c",
"                        ",
"                        ",
"                        ",
"                        ",
"                        ",
"     ..                 ",
"     . ...              ",
"      .   ....          ",
"      .  .    .         ",
"      . .      .        ",
"       .        .       ",
"       .        .       ",
"       .        .       ",
"       .        .       ",
"        .      .        ",
"         .    .         ",
"          ....          ",
"                        ",
"                        ",
"                        ",
"                        ",
"                        ",
"                        ",
"                        "};
