/* XPM */
static char * 2f04_Airport_Lotnisko_day_xpm[] = {
"24 24 16 1",
" 	c None",
"+	c #FFFFFF",
"@	c #F3F3F3",
"#	c #FF6666",
"$	c #FF5959",
"%	c #FD4A4A",
"&	c #F63535",
"*	c #EAE6E6",
"=	c #D12B2B",
"-	c #D8D0D0",
";	c #C2C2C2",
">	c #FF9999",
",	c #999999",
"'	c #921F1F",
")	c #666666",
"!	c #5A1919",
"                        ",
"                        ",
"                        ",
"    +++++++++++++++@    ",
"   ++###$$$$$$$$%&&**   ",
"   +####$##$$$$$%&&=-   ",
"   +###$$-+%%$%$&&&=-   ",
"   +##$$%$+@=&%&&&==;   ",
"   +$#$%&&++-=&&&&==;   ",
"   +$#*%&%>+@,=&&&==;   ",
"   +$#++&#$++->%$#==;   ",
"   +$#>++++++**+++;';   ",
"   +$#>@,;*+*;,,,,)!;   ",
"   +$#+,!'%+-)!!!!!';   ",
"   +$$;''&>+,!!'====;   ",
"   +$$==&$+*)!'&&&==;   ",
"   +%%%&&%+)!'&&&===;   ",
"   +&&&&&>;!!=&=&===;   ",
"   +&&&===''=======';   ",
"   @*==============;;   ",
"    *--;;;;;;;;;;;;;    ",
"                        ",
"                        ",
"                        "};
