/* XPM */
static char * 2f04_Airport_Lotnisko_day_xpm[] = {
"24 24 16 1",
" 	c None",
"+	c #FFFFFF",
"@	c #F3F3F3",
"#	c #6666FF",
"$	c #5959FF",
"%	c #4A4AFD",
"&	c #3535F6",
"*	c #E6E6EA",
"=	c #2B2BD1",
"-	c #D0D0D8",
";	c #C2C2C2",
">	c #9999FF",
",	c #999999",
"'	c #1F1F92",
")	c #666666",
"!	c #19195A",
"                        ",
"                        ",
"                        ",
"    +++++++++++++++@    ",
"   ++###$$$$$$$$%&&**   ",
"   +####$##$$$$$%&&=-   ",
"   +##+$$%%%%$%$+!&=-   ",
"   +##!+'%%%%%%+!&==;   ",
"   +$#$'+=-+-'+!&&==;   ",
"   +$#%%'*+++*=&&&==;   ",
"   +$#%%&@+++@&&&&==;   ",
"   +$#%%%++++*%%=&==;   ",
"   +$#%%%,+++,=%=%==;   ",
"   +$#%%%+'+,+!=%=!';   ",
"   +$$%%+'%+'!+'====;   ",
"   +$$%+'$=+'!'+'&==;   ",
"   +%%+'&%%+!'&'+'==;   ",
"   +&&!&&+++++!=&!==;   ",
"   +&&&==!'+'!=====';   ",
"   @*======'=======;;   ",
"    *--;;;;;;;;;;;;;    ",
"                        ",
"                        ",
"                        "};
