/* XPM */
static char * 2f04_Airport_Lotnisko_day_xpm[] = {
"24 24 16 1",
" 	c None",
"+	c #F8F8F8",
"#	c #66668F",
"$	c #59598F",
"%	c #4A4A8D",
"&	c #353586",
"=	c #2B2B71",
"'	c #1F1F42",
"*	c #C6C6C6",
">	c #A9A9A9",
"@	c #C3C3C3",
"-	c #D0D0D8",
";	c #C2C2C2",
",	c #494949",
")	c #363636",
"!	c #191919",
"                        ",
"                        ",
"                        ",
"    +++++++++++++++>    ",
"   ++###$$$$$$$$%&&**   ",
"   +####$##$$$$$%&&=-   ",
"   +###$$-+%%$%$&&&=-   ",
"   +##$$%$+@=&%&&&==;   ",
"   +$#$%&&++-=&&&&==;   ",
"   +$#*%&%>+@,=&&&==;   ",
"   +$#++&#$++->%$#==;   ",
"   +$#>++++++**+++;';   ",
"   +$#>@,;*+*;,,,,)!;   ",
"   +$#+,!'%+-)!!!!!';   ",
"   +$$;''&>+,!!'====;   ",
"   +$$==&$+*)!'&&&==;   ",
"   +%%%&&%+)!'&&&===;   ",
"   +&&&&&>;!!=&=&===;   ",
"   +&&&===''=======';   ",
"   >*==============;;   ",
"    *--;;;;;;;;;;;;;    ",
"                        ",
"                        ",
"                        "};
