/* XPM */
static char * 5a01_Mile marker_Slupek graniczny[] = {
"24 24 4 1",
" 	c None",
"+	c #000000",
"@	c #FF0000",
"-	c #FFFFFF",
"                        ",
"                        ",
"                        ",
"                        ",
"                        ",
"                        ",
"                        ",
"                        ",
"                        ",
"                        ",
"                        ",
"                        ",
"                        ",
"        +++++++++       ",
"       +----+----+      ",
"       +@@@@+@@@@+      ",
"       +----+----+      ",
"       +---------+      ",
"       +---------+      ",
"       +---------+      ",
"       +++++++++++      ",
"                        ",
"                        ",
"                        "};
