/* XPM */
static char * 5e00_Wheelchair_Wozek_day_xpm[] = {
"24 24 4 1 ",
"  c #274775",
". c #234B88",
"X c #D3E7F7",
"o c #7188AA",
"XXXXXXXXXXXXXXXXXXXXXXXX",
"Xo o     o   o        oX",
"X    .. oX       ..    X",
"X   ....XXX ..  ...... X",
"X  ....oXXX .........  X",
"X ......XXo .........  X",
"X  .... XX  .......... X",
"X  .....Xo ..........  X",
"X ..... XX      .....  X",
"X  ...  XXXXoX ... ... X",
"X  . .XXXXXXXX........ X",
"X  . XXoXX      .....  X",
"X  .oXX XXXXXXXX ..... X",
"X . XX  ooXoXoXXo....  X",
"X   XX .       XX .... X",
"X  .Xo .....   XX. ..  X",
"X   XX .......ooXX  .. X",
"X . XX. . . . XoXXoX.. X",
"X   oXX      oXo XXXo  X",
"X .. XXXo   oXXo oo .  X",
"X  .  oXXXXXXX.  ..... X",
"X      ooXXXo   ..  .  X",
"Xo                     X",
"XXXXXXXXXXXXXXXXXXXXXXXX"};
