/* XPM */
static char * 5f00_Trafo_Trafo_day_xpm[] = {
"24 24 3 1",
" 	c None",
".	c #FFFFFF",
"+	c #000000",
"                        ",
"                        ",
"             ...        ",
"             .+.        ",
"            ..+..       ",
"            .+++.       ",
"            .+++.       ",
"            ..+..       ",
"           ...+.        ",
"           .+.+.        ",
"           .+++.        ",
"           .+.+.        ",
"          ..+...        ",
"         ..+++..        ",
"        ..+++++..       ",
"        .+++++++.       ",
"        .+++++++.       ",
"        .+++++++.       ",
"        ..+++++..       ",
"         ..+++..        ",
"          .....         ",
"                        ",
"                        ",
"                        "};
