/* XPM */
static char * 6101_Ruins_Ruiny_day_xpm[] = {
"24 24 19 1",
" 	c None",
".	c #FDFEFD",
"+	c #252525",
"@	c #424242",
"#	c #232323",
"$	c #434343",
"%	c #5B5B5B",
"&	c #EF3E05",
"*	c #676767",
"=	c #686868",
"-	c #A55F1F",
";	c #7B7B7B",
">	c #FF5E2B",
",	c #8C8C8C",
"'	c #FF8A64",
")	c #B6B6B5",
"!	c #BFBFBD",
"~	c #DEDEDC",
"{	c #FFFFFF",
"                        ",
"                        ",
"                        ",
"    {{{{{{{{{{{{{{{{    ",
"   {{,,,;;;;;;;;=%%~~   ",
"   {,,,,;;;;;;;;=%%%~   ",
"   {,,,;;=;=;=;==%%@!   ",
"   {,;;.;==...==%.@@!   ",
"   {;;...=.=.=.%...%!   ",
"   {;;;.==.....%%.@@!   ",
"   {;;;=.=.=.%.%.@%@!   ",
"   {;;==...=%%...%@@!   ",
"   {;;===..%.%..@@@@!   ",
"   {;;===.......@@@@!   ",
"   {;;==.........@@#!   ",
"   {;===.........@##!   ",
"   {===...%...@...##!   ",
"   {=%%%%%@@@@@@####!   ",
"   {%%%%%@@@@@#####@)   ",
"   {~%@@@@########@))   ",
"    ~~!!!!!!!!!!!)))    ",
"                        ",
"                        ",
"                        "};
