/* XPM */
static char * 6400_Monument_Pomnik_day_xpm[] = {
"24 24 4 1",
" 	c None",
".	c #FFFFFF",
"+	c #606060",
"@	c #808080",
"                        ",
"                        ",
"                        ",
"      ... .....         ",
"      .+...+++.         ",
"      ..+..+++.         ",
"       ..+..+...        ",
"        ..+++++..       ",
"         ..+++.+.       ",
"          .+++.+.       ",
"          .++++..       ",
"          .+++..        ",
"          .+.+.         ",
"          .+.+.         ",
"          .+.+.         ",
"        ...+.+...       ",
"        .@@@@@@@.       ",
"        .@@@@@@@.       ",
"        .@@@@@@@.       ",
"        .@@@@@@@.       ",
"        .........       ",
"                        ",
"                        ",
"                        "};
