/* XPM */
static char * 6401_Bridge_Most_day_xpm[] = {
"24 24 3 1",
" 	c None",
".	c #FFFFFF",
"+	c #000000",
"                        ",
"                        ",
"                        ",
"                        ",
"                        ",
"                        ",
"                        ",
"   ..................   ",
"   .++++++++++++++++.   ",
"   .+..+..++++..+..+.   ",
"   .+..+++....+++..+.   ",
"   .+..+...  ...+..+.   ",
"   .+.+..      ..+.+.   ",
"   .++..        ..++.   ",
"   .++.          .++.   ",
"   ....          ....   ",
"                        ",
"                        ",
"                        ",
"                        ",
"                        ",
"                        ",
"                        ",
"                        "};
