/* XPM */
static char * 6402_House_Dom_day_xpm[] = {
"24 24 7 1",
"       c None",
".      c #FFFFFF",
"+      c #BF3F1D",
"@      c #456009",
"#      c #FEC671",
"$      c #000000",
"%      c #663300",
"                        ",
"                        ",
"                        ",
"                        ",
"         ....           ",
"         .++.           ",
"       ...++.....       ",
"      ..@@@@@@@@..      ",
"     ..@@@@@@@@@@..     ",
"     .@@@@@@@@@@@@.     ",
"     ..##########..     ",
"      .##$$##%%##.      ",
"      .##$$##%%##.      ",
"      .######%%##.      ",
"      .######%%##.      ",
"      ............      ",
"                        ",
"                        ",
"                        ",
"                        ",
"                        ",
"                        ",
"                        ",
"                        "};
