/* XPM */
static char * 6403_Cemetery_Cmentarz_day_xpm[] = {
"24 24 17 1",
" 	c None",
".	c #00FF00",
"+	c #FFFFFF",
"@	c #EEEBE4",
"#	c #ECE7DF",
"$	c #EBE7DE",
"%	c #EAE6DD",
"&	c #D5D1C9",
"*	c #E7E2D7",
"=	c #C2C2C2",
"-	c #777777",
";	c #E8E4D9",
">	c #BBBAB9",
",	c #CCC8C1",
"'	c #BBB7AE",
")	c #333333",
"!	c #C7C3B9",
"                        ",
"                        ",
"                        ",
"    ++++++++++++++++    ",
"   ++@@########$%%&@*   ",
"   +@@@##$$$$$$$%*&&&   ",
"   +@@@#%%$=-%%%**&=&   ",
"   +#@#%;;;>-@;;*&,',   ",
"   +##%;*'''-)-**&!'=   ",
"   +#$%;*-)))))**&!'=   ",
"   +#$%;***-)****&!'=   ",
"   +#$%;***-)****,!'=   ",
"   +#$%;***-)****&!'=   ",
"   +#$%;***')****&!'=   ",
"   +#$%;***'-****&!'=   ",
"   +$$%=>>>'--''-,!'=   ",
"   +%%@----)-)-)),>'=   ",
"   +;**))))))))))'''>   ",
"   +*&&,'!!!!!!'''''>   ",
"   +#,!''''''''''''''   ",
"    %&&,========>''>    ",
"                        ",
"                        ",
"                        "};
