/* XPM */
static char * 64_Chorten_Czorten_day_xpm[] = {
"24 24 20 1",
" 	c None",
".	c #FFF9F6",
"+	c #F9F5F2",
"@	c #FEFDFD",
"#	c #924E4D",
"$	c #853334",
"%	c #000F02",
"&	c #762324",
"*	c #67090B",
"=	c #EAEAEA",
"-	c #560102",
";	c #CCCBCB",
">	c #721C1D",
",	c #C2C1C1",
"'	c #5E0506",
")	c #B9B8B8",
"!	c #666666",
"~	c #A6A19F",
"{	c #A4A09D",
"]	c #9B9D96",
"                        ",
"                        ",
"                        ",
"    ..............+.    ",
"   .@##$$$$%%$$$&**==   ",
"   .####$$$#$$&$&*--;   ",
"   .###$&$#%%$&&**--;   ",
"   .$#$&*&#%%$&-*---;   ",
"   .$$$**>%%%%--*---,   ",
"   .$$&***%%%%--'---,   ",
"   .$$&%%%%%%%%%%---,   ",
"   .$$&&%%%%%%%%----,   ",
"   .$$#$&%%%%%%--*--,   ",
"   .$##$$%%%%%%-**--;   ",
"   .$##$$%%%%%%-**--,   ",
"   .$##$-%%%%%%--*--,   ",
"   .&$#**%%%%%%-----,   ",
"   .**#*%%%%%%%%----)   ",
"   .*--%%%%%%%%%%---)   ",
"   .=--%%%%%%%%%%--!)   ",
"    =,,,,~~~~~~~~{]~    ",
"                        ",
"                        ",
"                        "};
