/* XPM */
static char * 6405_Forester_Lesniczowka_day_xpm[] = {
"24 24 7 1",
" 	c None",
".	c #FFFFFF",
"+	c #BF3F1D",
"@	c #456009",
"#	c #80FFFF",
"$	c #000000",
"%	c #663300",
"                        ",
"                        ",
"                        ",
"                        ",
"            ....        ",
"            .++.        ",
"      .......++...      ",
"     ..@@@@@@@@@@..     ",
"    ..@@@@@@@@@@@@..    ",
"   ..@@@@@@@@@@@@@@..   ",
"   .@@@@@@@@@@@@@@@@.   ",
"   ..##############..   ",
"    .##############.    ",
"    .##$$##%%##$$##.    ",
"    .##$$##%%##$$##.    ",
"    .##$$##%%##$$##.    ",
"    .######%%######.    ",
"    .######%%######.    ",
"    ................    ",
"                        ",
"                        ",
"                        ",
"                        ",
"                        "};
