/* XPM */
static char * 6406_Ferry_Prom_day_xpm[] = {
"24 24 3 1",
" 	c None",
".	c #FFFFFF",
"+	c #0000FF",
"                        ",
"                        ",
"                        ",
"   ..................   ",
"   .++++++++++++++++.   ",
"   .++++++++++++++++.   ",
"   .++++++++++++++++.   ",
"   .++++++....++++++.   ",
"   .++++++....++++++.   ",
"   .++++++....++++++.   ",
"   .+..............+.   ",
"   .++............++.   ",
"   .+++..........+++.   ",
"   .++++++++++++++++.   ",
"   .++++++++++++++++.   ",
"   ..................   ",
"   ..................   ",
"   .++++++++++++++++.   ",
"   .++++++++++++++++.   ",
"   .++++++++++++++++.   ",
"   ..................   ",
"                        ",
"                        ",
"                        "};
