/* XPM */
static char * 6409_Weir_Jaz_day_xpm[] = {
"24 24 3 1",
" 	c None",
".	c #FFFFFF",
"+	c #0000FF",
"                        ",
"                        ",
"                        ",
"   ..................   ",
"   .++++++++++++++++.   ",
"   .++++++++++++++++.   ",
"   .++..++++++++..++.   ",
"   .++..++++++++..++.   ",
"   .++..++++++++..++.   ",
"   .++............++.   ",
"   .++............++.   ",
"   .++..++.++.++..++.   ",
"   .++..++.++.++..++.   ",
"   .++..++.++.++..++.   ",
"   .++..++.++.++..++.   ",
"   .++..++.++.++..++.   ",
"   .++............++.   ",
"   .++............++.   ",
"   .++++++++++++++++.   ",
"   .++++++++++++++++.   ",
"   ..................   ",
"                        ",
"                        ",
"                        "};
