/* XPM */
static char * 640c_Mine_Kopalnia_day_xpm[] = {
"24 24 3 1",
" 	c None",
".	c #FFFFFF",
"+	c #000000",
"                        ",
"                        ",
"                        ",
"                        ",
"                        ",
"                        ",
"     ..... .....        ",
"     .+++...+++..       ",
"     .++++....++..      ",
"     .+++++...+++.      ",
"     ..+++...+..+.      ",
"      ..+.+.+...+.      ",
"       ....+.. ...      ",
"        ..+.+..         ",
"       ..+...+..        ",
"      ..+.. ..+..       ",
"      .+..   ..+.       ",
"      ...     ...       ",
"                        ",
"                        ",
"                        ",
"                        ",
"                        ",
"                        "};
