/* XPM */
static char * 640d_Oilrig_Platforma_day_xpm[] = {
"24 24 3 1",
" 	c None",
".	c #FFFFFF",
"+	c #000000",
"                        ",
"                        ",
"                        ",
"         ......         ",
"         .++++.         ",
"         .+..+.         ",
"        ..++++..        ",
"        .++..++.        ",
"        .+.++.+.        ",
"        .+.++.+.        ",
"       ..++..++..       ",
"       .++++++++.       ",
"       .++....++.       ",
"       .+.+..+.+.       ",
"      ..+..++..+..      ",
"      .+...++...+.      ",
"      .+..+..+..+.      ",
"      .+.+....+.+.      ",
"   ....++.....+++....   ",
"   .++++++++++++++++.   ",
"   ..................   ",
"                        ",
"                        ",
"                        "};
