/* XPM */
static char * 6411_Tower_Wieza_day_xpm[] = {
"24 24 9 1",
" 	c None",
".	c #FFFFFF",
"+	c #606060",
"@	c #808080",
"#	c #BF3F1D",
"$	c #D3441F",
"%	c #E14821",
"&	c #F24E24",
"*	c #000000",
"                        ",
"                        ",
"                        ",
"          ...           ",
"         ..+..          ",
"       ...++@...        ",
"       .++++++@.        ",
"       .#$$$$%&.        ",
"       .#$*$*%&.        ",
"       .#$$$$%&.        ",
"       ..#$$%&..        ",
"        .#*$%&.         ",
"        .#$$%&.         ",
"        .#$$%&.         ",
"       ..#$$*&..        ",
"       .#$$$$%&.        ",
"       .#$$$$%&.        ",
"       .#*$*$*&.        ",
"       .#$$*$%&.        ",
"       .#$$*$%&.        ",
"       .........        ",
"                        ",
"                        ",
"                        "};
