/* XPM */
static char * 6412_Trailhead_Szlak pieszy_day_xpm[] = {
"24 24 15 1",
" 	c None",
".	c #014222",
"+	c #004B24",
"@	c #065527",
"#	c #006635",
"$	c #1C7347",
"%	c #277C4F",
"&	c #278159",
"*	c #428968",
"=	c #71A289",
"-	c #A5A7A4",
";	c #BCBEBB",
">	c #D4D6D3",
",	c #EBEEEA",
"'	c #FEFFFC",
"                        ",
"                        ",
"                        ",
"    ''''''''''''''''    ",
"   >,#$%&&&&&&&&&**''   ",
"   ;@##$%%%%%%%%&***'   ",
"   -+@#-'=$$$$&$%&**'   ",
"   -++@#,='#$>'$$%&&'   ",
"   -.+@#;'';#$>;'$&&'   ",
"   -.+@#;,''##>''=&&'   ",
"   -.+@,--'=#>;-'=%&'   ",
"   -.+-=#='*;;#-'$%&'   ",
"   -.+@'$>'$==*>'$%&'   ",
"   -.+@=>>>'#>>>'$%&'   ",
"   -.+@@;&$'##;#>-%&'   ",
"   -.+@#>>#>=$'#='%&'   ",
"   -..+@*>%$>*;'#>$%'   ",
"   -..+++@@@@@@@@##$'   ",
"   -....+++++++++@##'   ",
"   --............+@,'   ",
"    --------------;>    ",
"                        ",
"                        ",
"                        "};
