/* XPM */
static char * 6413_Tunnel_Tunel_n_xpm[] = {
"24 24 3 1",
" 	c None",
".	c #000000",
"+	c #C0C0C0",
"                        ",
"                        ",
"                        ",
"                        ",
"                        ",
"         ......         ",
"        ........        ",
"       ..........       ",
"      ....++++....      ",
"     ...++++++++...     ",
"     ...++++++++...     ",
"    ...++++++++++...    ",
"    ...++++++++++...    ",
"    ...++++++++++...    ",
"    ..++++++++++++..    ",
"    ..+++++..+++++..    ",
"    ..++++....++++..    ",
"    ..++++....++++..    ",
"    ..++++....++++..    ",
"                        ",
"                        ",
"                        ",
"                        ",
"                        "};
