/* XPM */
static char * 6413_Tunnel_Tunel_day1_xpm[] = {
"24 24 4 1",
" 	c None",
".	c #FFFFFF",
"+	c #000000",
"@	c #C0C0C0",
"                        ",
"                        ",
"                        ",
"                        ",
"                        ",
"         ......         ",
"        .++++++.        ",
"       .++++++++.       ",
"      .++++++++++.      ",
"     .+++@@@@@@+++.     ",
"     .+++@@@@@@+++.     ",
"    ..++@@@@@@@@+++.    ",
"    .+++@@@@@@@@+++.    ",
"    .+++@@@@@@@@+++.    ",
"    .++@@@@@@@@@@++.    ",
"    .++@@@@..@@@@++.    ",
"    .++@@@....@@@++.    ",
"    .++@@@....@@@++.    ",
"    .++@@@....@@@++.    ",
"                        ",
"                        ",
"                        ",
"                        ",
"                        "};
