/* XPM */
static char * 6414_Oligocene_Oligocen_day_xpm[] = {
"24 24 10 1",
" 	c None",
".	c #FFFFFF",
"+	c #393EDF",
"@	c #2A2FD2",
"#	c #514FED",
"$	c #5E60FE",
"%	c #00C932",
"&	c #7CC971",
"*	c #52C85A",
"=	c #68C865",
"                        ",
"                        ",
"                        ",
"      ....   ....       ",
"     ..+@.. ..#$..      ",
"    ..@..+...@..#..     ",
"    .+....#.#....#.     ",
"    .... ..@.. ....     ",
"    ..+.. .#. ..#..     ",
"   ..#.#...+...$.$..    ",
"   .@...@..#..+...@.    ",
"   .$. .@..#..@. .@.    ",
"   ... ..#.@.#.. ...    ",
"        .$.#.$.         ",
"        .+.@.+.         ",
"        ...#...         ",
"       ..%%&*%..        ",
"     ...%%%&*%%...      ",
"    ..%%%%%&=%%%%..     ",
"    .%%%%%%==%%%%%.     ",
"    ...............     ",
"                        ",
"                        ",
"                        "};
