/* XPM */
static char * 6502_Sand bar_Brod_day_xpm[] = {
"24 24 24 1",
" 	c None",
".	c #FFFFFF",
"+	c #A6A6A6",
"@	c #006633",
"#	c #177345",
"$	c #277C51",
"%	c #2D8157",
"&	c #34855C",
"*	c #418D66",
"=	c #0B6B3A",
"-	c #01582C",
";	c #1B7547",
">	c #014A25",
",	c #01552A",
"'	c #FFF9F6",
")	c #A9D5A8",
"!	c #004221",
"~	c #FBF7F2",
"{	c #0054FF",
"]	c #8C6D19",
"^	c #9B781B",
"/	c #BC9220",
"(	c #C99C23",
"_	c #AA841F",
"                        ",
"                        ",
"                        ",
"    ................    ",
"   +.@#$%%%%%%%%&**..   ",
"   +=-=;$$$$$$$$%***.   ",
"   +>,@=;;'''';;$%**.   ",
"   +>,-@''))))''#$%&.   ",
"   +!>,'))))))))';$%.   ",
"   +!>,'))))))))';$%.   ",
"   +!>'))))))))))'$%.   ",
"   +!>~{{{{))))))'$%.   ",
"   +]^{{{{{{{)))){/(.   ",
"   +]^{{{{{{{{{{{{/(.   ",
"   +]^_{{{{{{{{{{_/(.   ",
"   +]^_{{{{{{{{{{_/(.   ",
"   +]^__{{{{{{{{__/(.   ",
"   +]^^___{{{{____/(.   ",
"   +]]^^^^^^^^^^^^_(.   ",
"   ++]]]]]]]]]]]]]]..   ",
"    ++++++++++++++++    ",
"                        ",
"                        ",
"                        "};
