/* XPM */
static char * 6508_Waterfall_Wodospad_day_xpm[] = {
"24 24 13 1",
" 	c None",
".	c #FFFFFF",
"+	c #A6A6A6",
"@	c #B2D1F3",
"#	c #C0D9F6",
"$	c #7FA6BF",
"%	c #93BFDB",
"&	c #A8CCF4",
"*	c #026DA4",
"=	c #037AB8",
"-	c #000300",
";	c #000F02",
">	c #001C03",
"                        ",
"                        ",
"                        ",
"    ................    ",
"   +.@@@@@@@@@@@@##..   ",
"   +$%%%%%%&&&&&@@##.   ",
"   +*=====%%&&&&&@@#.   ",
"   +*======%%&&&&&@@.   ",
"   +-;>>>===%&&&&&&@.   ",
"   +-;>>>>==%%&&&&&@.   ",
"   +-;>>>>===%&&&&&@.   ",
"   +-;>>>>>==%&&&&&@.   ",
"   +-;>>>>>==%%&&&&@.   ",
"   +-;>>>>>===%&&&&@.   ",
"   +-;>>>>>>==%&&&&@.   ",
"   +-;>>>>>>==%%&&&@.   ",
"   +-;;>>>>>===%%%&@.   ",
"   +--;;>>>>===%%==@.   ",
"   +---;;;;;;=======.   ",
"   ++--------****--*.   ",
"    ++++++++++++++++    ",
"                        ",
"                        ",
"                        "};
