/* XPM */
static char * 650f_WC_ToiToi_day_xpm[] = {
"24 24 5 1",
" 	c None",
"=	c #909090",
"%	c #404040",
"*	c #303030",
",	c #505050",
"                        ",
"                        ",
"                        ",
"                        ",
"                        ",
"       **      **       ",
"      %**%    %**%      ",
"      %**%    %**%      ",
"       **      **       ",
"       %%    %%%%%%     ",
"     ,%**%, *,****,*    ",
"     *%**%* * **** *    ",
"    ,  **  ,* **** *    ",
"    * **** ** **** *    ",
"     ,****,   ****      ",
"     %****%   *  *      ",
"    %%****%%  *  *      ",
"      *  *    *  *      ",
"      *  *    *  *      ",
"      *  *    *  *      ",
"                        ",
"                        ",
"                        ",
"                        "};
