/* XPM */
static char * 6511_Spring_Zrodlo_day_xpm[] = {
"24 24 2 1",
" 	c None",
".	c #3995FF",
"                        ",
"                        ",
"                        ",
"                        ",
"                        ",
"                        ",
"                        ",
"                        ",
"                        ",
"                        ",
"          ...           ",
"         .....          ",
"         .....          ",
"          ...           ",
"           .            ",
"            .           ",
"            .           ",
"           .            ",
"          .             ",
"                        ",
"                        ",
"                        ",
"                        ",
"                        "};
