/* XPM */
static char * 6604_Beach_Plaza_day_xpm[] = {
"24 24 18 1",
" 	c None",
".	c #E1DBDA",
"+	c #FFF9F8",
"@	c #B9B4B3",
"#	c #87AFDC",
"$	c #A8CCF4",
"%	c #5D851E",
"&	c #6993C3",
"*	c #886E0B",
"=	c #1B5490",
"-	c #0F3B79",
";	c #997B0E",
">	c #AD8B00",
",	c #C8A200",
"'	c #A6A1A0",
")	c #2265AA",
"!	c #FFCF0B",
"~	c #4EA6FE",
"                        ",
"                        ",
"                        ",
"    .+++++++++++++++    ",
"   @.#$$$$$$$$$$$$$++   ",
"   .##%%%%$$%%%%$$$$+   ",
"   .&%%$$%%%%$$%%$$$+   ",
"   .&#$%%%**%%%$%$$$+   ",
"   .&#%%$**$$$%%$$$$+   ",
"   .&%%$$**$$$$%$$$$+   ",
"   .&%$$**$$$$$$$$$$+   ",
"   @&#$$**$$$$$$$$$$+   ",
"   @====**--$$$$$$$$+   ",
"   @;>,**===--------+   ",
"   ';>,**)))))======+   ",
"   ';>,**!!!~~~)))))+   ",
"   ';>,**!!!!!!~~~~~+   ",
"   ';>>,,,,,,,,,,,,!+   ",
"   ';;>>>>>>>>>>>>,!+   ",
"   '';;;;;;;;;;;;>,++   ",
"    '''''''@@@@@@@..    ",
"                        ",
"                        ",
"                        "};
