/* XPM */
static char * 6605_Lock_Sluza_day_xpm[] = {
"24 24 3 1",
" 	c None",
".	c #FFFFFF",
"+	c #0000FF",
"                        ",
"                        ",
"                        ",
"   ..................   ",
"   .++++++++++++++++.   ",
"   .++++++++++++++++.   ",
"   .+++++++..+++++++.   ",
"   .++++++....++++++.   ",
"   .+++++..++..+++++.   ",
"   .++++..++++..++++.   ",
"   .+++..++++++..+++.   ",
"   .++..+++..+++..++.   ",
"   .++.+++....+++.++.   ",
"   .+++++..++..+++++.   ",
"   .++++..++++..++++.   ",
"   .+++..++++++..+++.   ",
"   .++..++++++++..++.   ",
"   .++.++++++++++.++.   ",
"   .++++++++++++++++.   ",
"   .++++++++++++++++.   ",
"   ..................   ",
"                        ",
"                        ",
"                        "};
