/* XPM */
static char * 660a_Forest_Las_day_xpm[] = {
"24 24 15 1",
" 	c None",
".	c #E3DDDA",
"+	c #B2D9B2",
"@	c #99CC99",
"#	c #6A8E6B",
"$	c #2B6252",
"%	c #86B487",
"&	c #6A998C",
"*	c #4B7D6B",
"=	c #7AA379",
"-	c #083C33",
";	c #C0BBB7",
">	c #A9D5A8",
",	c #FFF9F6",
"'	c #A6A19F",
"                        ",
"                        ",
"                        ",
"    ,,,,,,,,,,,,,,,,    ",
"   ,,++++>>>>>>>>>@..   ",
"   ,++++>>>&@>>>>@@%;   ",
"   ,+++>>>&*$%>>@@%=;   ",
"   ,++>>@@%$$=@@@%%#'   ",
"   ,>>>>@@%*$=@@@%=#'   ",
"   ,>>>@@@&*-=%@@%=#'   ",
"   ,>>>@@&&$$-%@@%=#'   ",
"   ,>>>@@@*$-#=@@%=#'   ",
"   ,>>>>@&*$-$=%@%=#'   ",
"   ,>>>@*&*$---%@%=#'   ",
"   ,>>>@@&$--$#=%%=#'   ",
"   ,>>>@%*----#%@%=#'   ",
"   ,>>@$----$---==##'   ",
"   ,>@@%###-$#*#####'   ",
"   ,@@%=###-########'   ",
"   ,.%=#####*#####*''   ",
"    .;;'''''''''''''    ",
"                        ",
"                        ",
"                        "};
