/* XPM */
static char * 660f_Windmill_Wiatrak_day_xpm[] = {
"24 24 2 1",
" 	c None",
".	c #000000",
"                        ",
"                        ",
"                        ",
"                        ",
"               .        ",
"              .         ",
"              .         ",
"             .          ",
"             .          ",
"       ......           ",
"            ..          ",
"            ..          ",
"            . .         ",
"            . .         ",
"            .  .        ",
"            .           ",
"            .           ",
"            .           ",
"            .           ",
"          .....         ",
"                        ",
"                        ",
"                        ",
"                        "};
