/* XPM */
static char * 6616_Summit_Szczyt_day_xpm[] = {
"24 24 25 1",
" 	c None",
".	c #FFFFFF",
"+	c #A6A6A6",
"@	c #006633",
"#	c #177345",
"$	c #277C51",
"%	c #2D8157",
"&	c #34855C",
"*	c #418D66",
"=	c #0B6B3A",
"-	c #01582C",
";	c #1B7547",
">	c #014A25",
",	c #01552A",
"'	c #004221",
")	c #E6F0EB",
"!	c #98C1AC",
"~	c #32845B",
"{	c #D7E7DF",
"]	c #CDE1D7",
"^	c #BFD8CB",
"/	c #003319",
"(	c #7FB298",
"_	c #95BFAA",
":	c #82B49B",
"                        ",
"                        ",
"                        ",
"    ................    ",
"   +.@#$%%%%%%%%&**..   ",
"   +=-=;$$$$$$$$%***.   ",
"   +>,@=;;;;;;;;$%**.   ",
"   +>,-@========#$%&.   ",
"   +'>,@@@)!@@@@=;$%.   ",
"   +'>,@@~{]@^.@=;$%.   ",
"   +'>,@@]~]!!]@=;$%.   ",
"   +'>,@~]/(^/.@=;$%.   ",
"   +'>,@((////]~=;$%.   ",
"   +'>,@./////((=;$%.   ",
"   +'>,_://///((=;$%.   ",
"   +'>,.........=;$%.   ",
"   +'',-@@@@@@@@@=;$.   ",
"   +'''>,,,,,,,,-@=#.   ",
"   +''''>>>>>>>>,-@@.   ",
"   ++''''''''''''>-..   ",
"    ++++++++++++++++    ",
"                        ",
"                        ",
"                        "};
