/* XPM */
static char * 6617_Valley_Dolina_day_xpm[] = {
"24 24 2 1",
" 	c None",
".	c #000000",
"                        ",
"                        ",
"                        ",
"                        ",
"     ..          ..     ",
"      ..        ..      ",
"      ...      ...      ",
"       ...    ...       ",
"       ...    ...       ",
"        ...  ...        ",
"        ...  ...        ",
"        ...  ...        ",
"        ...  ...        ",
"        ...  ...        ",
"        ...  ...        ",
"       ...    ...       ",
"       ...    ...       ",
"      ...      ...      ",
"      ..        ..      ",
"     ..          ..     ",
"                        ",
"                        ",
"                        ",
"                        "};
