/* XPM */
static char * 6703_Trail blue_Szlak niebieski_day_xpm[] = {
"24 24 13 1",
" 	c None",
".	c #000000",
"+	c #353535",
"@	c #A0A0A0",
"#	c #FFFFFF",
"$	c #F2F2F2",
"%	c #040404",
"&	c #B0B0B0",
"*	c #F8F9FF",
"=	c #A1B6FF",
"-	c #3965FF",
";	c #4D75FF",
">	c #5177FF",
"                        ",
"                        ",
"                        ",
"                        ",
"          ....          ",
"        ........        ",
"      ...+@#$@+...      ",
"      .%&######&%.      ",
"     ..&#*=-;=*#&..     ",
"     .+#*>---->*#+.     ",
"    ..@#=------=#@..    ",
"    ..$#;------;#$..    ",
"    ..$#;------;#$..    ",
"    ..@#=------=#@..    ",
"     .+#*>---->*#+.     ",
"     ..&#*=-;=*#&..     ",
"      .%&######&%.      ",
"      ...+@#$@+...      ",
"        ........        ",
"          ....          ",
"                        ",
"                        ",
"                        ",
"                        "};
