/* XPM */
static char * 6705_Trail black_Szlak czarny_day_xpm[] = {
"24 24 12 1",
" 	c None",
".	c #000000",
"+	c #353535",
"@	c #A0A0A0",
"#	c #FFFFFF",
"$	c #F2F2F2",
"%	c #040404",
"&	c #B0B0B0",
"*	c #F6F6F6",
"=	c #878787",
"-	c #1B1B1B",
";	c #1F1F1F",
"                        ",
"                        ",
"                        ",
"                        ",
"          ....          ",
"        ........        ",
"      ...+@#$@+...      ",
"      .%&######&%.      ",
"     ..&#*=.-=*#&..     ",
"     .+#*;....;*#+.     ",
"    ..@#=......=#@..    ",
"    ..$#-......-#$..    ",
"    ..$#-......-#$..    ",
"    ..@#=......=#@..    ",
"     .+#*;....;*#+.     ",
"     ..&#*=.-=*#&..     ",
"      .%&######&%.      ",
"      ...+@#$@+...      ",
"        ........        ",
"          ....          ",
"                        ",
"                        ",
"                        ",
"                        "};
