/* XPM */
static char * 6709_Bike blue_Rowerowy niebieski_day_xpm[] = {
"24 24 21 1",
" 	c None",
".	c #FFFFFF",
"+	c #A6A6A6",
"@	c #4C62AF",
"#	c #5066B3",
"$	c #5268B5",
"%	c #546AB6",
"&	c #556BB8",
"*	c #576DBA",
"=	c #4E64B1",
"-	c #495FAC",
";	c #475DAA",
">	c #000000",
",	c #465BA8",
"'	c #8896C9",
")	c #E5E8F3",
"!	c #A4BCEB",
"~	c #3965FF",
"{	c #3E6DEA",
"]	c #8694C7",
"^	c #E4E7F2",
"                        ",
"                        ",
"                        ",
"    ................    ",
"   +.@#$%%%%%%%%&**..   ",
"   +=-=#...$$$...***.   ",
"   +;-@=.>.....>.%**.   ",
"   +;-...>>>>>>>..%&.   ",
"   +,..>>.>....>>..%.   ",
"   +,.>..>>..>>..>.%.   ",
"   +,.>..>.>>.>..>.%.   ",
"   +,..>>......>>..%.   ",
"   +,;....'.)'....$%.   ",
"   +,;-@@'!~{!'@=#$%.   ",
"   +,;-@@){~~{)@=#$%.   ",
"   +,;-@@){~~{)@=#$%.   ",
"   +,,--@'!~{!'@@=#$.   ",
"   +,,,;--].^]---@=#.   ",
"   +,,,,;;;;;;;;--@@.   ",
"   ++,,,,,,,,,,,,;-..   ",
"    ++++++++++++++++    ",
"                        ",
"                        ",
"                        "};
