/* XPM */
static char * 670b_Bike black_Rowerowy czarny_day_xpm[] = {
"24 24 22 1",
" 	c None",
".	c #FFFFFF",
"+	c #A6A6A6",
"@	c #4B4B4B",
"#	c #5A5A5A",
"$	c #656565",
"%	c #6B6B6B",
"&	c #707070",
"*	c #787878",
"=	c #525252",
"-	c #414141",
";	c #5D5D5D",
">	c #363636",
",	c #3F3F3F",
"'	c #000000",
")	c #313131",
"!	c #878787",
"~	c #E4E4E4",
"{	c #949A93",
"]	c #1B1B1B",
"^	c #7F7F7F",
"/	c #E3E3E3",
"                        ",
"                        ",
"                        ",
"    ................    ",
"   +.@#$%%%%%%%%&**..   ",
"   +=-=;...$$$...***.   ",
"   +>,@=.'.....'.%**.   ",
"   +>,...'''''''..%&.   ",
"   +)..''.'....''..%.   ",
"   +).'..''..''..'.%.   ",
"   +).'..'.''.'..'.%.   ",
"   +)..''......''..%.   ",
"   +)>....!.~!....$%.   ",
"   +)>,@@!{']{!@=;$%.   ",
"   +)>,@@~]'']~@=;$%.   ",
"   +)>,@@~]'']~@=;$%.   ",
"   +)),-@!{']{!@@=;$.   ",
"   +)))>,,^./^,,-@=#.   ",
"   +))))>>>>>>>>,-@@.   ",
"   ++))))))))))))>-..   ",
"    ++++++++++++++++    ",
"                        ",
"                        ",
"                        "};
