/* XPM */
static char *f201_Trafic Light_Sygnalizacja Swietlna_day_xpm[] = {
"24 24 5 1",
"!	c #FF0000",
"#	c #FFFF00",
"%	c #33CC33",
"?	c #444444",
"  	c none",
"                        ",
"                        ",
"                        ",
"                        ",
"         ??????         ",
"         ??!!??         ",
"         ?!!!!?         ",
"         ?!!!!?         ",
"         ??!!??         ",
"         ??????         ",
"         ??##??         ",
"         ?####?         ",
"         ?####?         ",
"         ??##??         ",
"         ??????         ",
"         ??%%??         ",
"         ?%%%%?         ",
"         ?%%%%?         ",
"         ??%%??         ",
"         ??????         ",
"                        ",
"                        ",
"                        ",
"                        "};
