/* XPM */
static char * question_mark_xpm[] = {
"24 24 3 1",
" 	c None",
".	c white",
"X	c #EF3E05",
"                        ",
"                        ",
"                        ",
"    .................   ",
"   ..................   ",
"   .......XXX........   ",
"   ......XXXXXX......   ",
"   .....XXX..XXX......  ",
"   .....XX....XX......  ",
"   ...........XX.....   ",
"   ...........XX.....   ",
"   ..........XX......   ",
"   .........XXX......   ",
"   ........XXX.......   ",
"   .......XXX........   ",
"   .......XX.........   ",
"   .......XX.........   ",
"   ..................   ",
"   .......XX.........   ",
"   .......XX..........  ",
"    ..................  ",
"    .                   ",
"         ...   ...      ",
"         ...... ..      "};
