<?xml version="1.0" encoding="UTF-8" standalone="no"?>
<!-- Created with Inkscape (http://www.inkscape.org/) -->

<svg
   width="16"
   height="16"
   viewBox="0 0 4.2333333 4.2333333"
   version="1.1"
   id="svg1"
   inkscape:version="1.3 (0e150ed6c4, 2023-07-21)"
   sodipodi:docname="2200_hw_exit_facilities_restroom.svg"
   xml:space="preserve"
   xmlns:inkscape="http://www.inkscape.org/namespaces/inkscape"
   xmlns:sodipodi="http://sodipodi.sourceforge.net/DTD/sodipodi-0.dtd"
   xmlns="http://www.w3.org/2000/svg"
   xmlns:svg="http://www.w3.org/2000/svg"
   xmlns:rdf="http://www.w3.org/1999/02/22-rdf-syntax-ns#"
   xmlns:cc="http://creativecommons.org/ns#"
   xmlns:dc="http://purl.org/dc/elements/1.1/"><metadata
     id="metadata8"><rdf:RDF><cc:Work
         rdf:about=""><dc:format>image/svg+xml</dc:format><dc:type
           rdf:resource="http://purl.org/dc/dcmitype/StillImage" /></cc:Work></rdf:RDF></metadata><sodipodi:namedview
     id="namedview1"
     pagecolor="#ffffff"
     bordercolor="#666666"
     borderopacity="1.0"
     inkscape:showpageshadow="2"
     inkscape:pageopacity="0.0"
     inkscape:pagecheckerboard="0"
     inkscape:deskcolor="#d1d1d1"
     inkscape:document-units="mm"
     inkscape:zoom="36.460833"
     inkscape:cx="9.5719153"
     inkscape:cy="16.606862"
     inkscape:window-width="2880"
     inkscape:window-height="1514"
     inkscape:window-x="2871"
     inkscape:window-y="-11"
     inkscape:window-maximized="1"
     inkscape:current-layer="layer1"
     showgrid="false"
     units="px" /><defs
     id="defs1" /><g
     inkscape:label="Warstwa 1"
     inkscape:groupmode="layer"
     id="layer1"
     transform="translate(0,-292.76667)"><g
       id="g1"
       transform="matrix(0.01247694,0,0,0.01247694,1.3258123,294.0603)"><path
         d="M 116,4 H 12 C 7.58,4 4,7.58 4,12 v 104 c 0,4.42 3.58,8 8,8 h 104 c 4.42,0 8,-3.58 8,-8 V 12 c 0,-4.42 -3.58,-8 -8,-8 z"
         fill="#194fa5"
         id="path1-3" /><path
         d="M 109.7,4 H 11.5 A 7.555,7.555 0 0 0 4,11.5 v 97.9 c -0.01,4.14 3.34,7.49 7.48,7.5 h 98.12 c 4.14,0.01 7.49,-3.34 7.5,-7.48 V 11.5 C 117.19,7.45 113.97,4.09 109.92,4 Z"
         fill="#2262dd"
         id="path2" /><path
         d="m 39.7,12.9 c 0,-2.3 -1.6,-3 -10.8,-2.7 -7.7,0.3 -11.5,1.2 -13.8,4 -1.9,2.3 -2.3,5.6 -2.6,8.4 -0.2,2.2 -2.2,14.9 3.5,11.2 0.68,-0.45 1.23,-1.07 1.6,-1.8 1.2,-2.1 1.9,-3.5 3.3,-5.6 5.3,-8.6 18.8,-10.5 18.8,-13.5 z"
         opacity="0.65"
         fill="#68abe6"
         id="path3" /><circle
         cx="86.349998"
         cy="25.469999"
         r="9.3500004"
         fill="#ffffff"
         id="circle3" /><path
         d="M 107.71,68.08 99.04,42.83 C 97.91,39.34 92.64,36.7 86.3,36.7 c -6.32,0 -11.58,2.63 -12.74,6.1 L 65,68.09 c -0.59,1.75 0.3,3.66 1.98,4.27 1.68,0.61 3.52,-0.31 4.1,-2.06 l 5.15,-16.47 c 0.09,-0.28 0.5,-0.22 0.5,0.08 v 5.35 H 76.7 l -5.94,24.43 c -0.26,1.06 0.51,2.09 1.56,2.09 h 3.59 c 0.45,0 0.8,0.37 0.8,0.84 v 14.9 c 0,2.19 1.54,4.14 3.64,4.35 2.4,0.23 4.42,-1.72 4.42,-4.17 V 87.44 c 0,-0.93 0.72,-1.67 1.61,-1.67 0.89,0 1.62,0.75 1.62,1.67 v 14.06 c 0,2.19 1.54,4.14 3.64,4.35 2.4,0.23 4.42,-1.72 4.42,-4.17 V 86.61 c 0,-0.46 0.36,-0.84 0.8,-0.84 h 3.54 c 1.05,0 1.82,-1.03 1.56,-2.09 L 96.04,59.34 v -5.42 c 0,-0.3 0.4,-0.36 0.5,-0.08 l 5.07,16.45 c 0.59,1.75 2.42,2.66 4.1,2.06 1.7,-0.61 2.58,-2.52 2,-4.27 z"
         fill="#ffffff"
         id="path4" /><circle
         cx="34.029999"
         cy="25.469999"
         r="9.3500004"
         fill="#ffffff"
         id="circle4" /><path
         d="m 53.4,72.35 c 1.68,-0.61 2.56,-2.52 1.98,-4.27 L 46.71,42.83 c -1.13,-3.49 -6.4,-6.13 -12.74,-6.13 -6.32,0 -11.58,2.63 -12.74,6.1 l -8.56,25.29 c -0.59,1.75 0.3,3.66 1.98,4.27 1.68,0.61 3.52,-0.31 4.1,-2.06 L 23.9,53.83 c 0.09,-0.28 0.5,-0.22 0.5,0.08 v 47.79 c 0,2.31 1.8,4.19 4.03,4.19 2.23,0 4.03,-1.88 4.03,-4.19 V 71.78 c 0,-0.93 0.72,-1.67 1.61,-1.67 0.89,0 1.61,0.75 1.61,1.67 v 29.91 c 0,2.31 1.8,4.19 4.03,4.19 2.23,0 4.03,-1.88 4.03,-4.19 V 53.93 c 0,-0.3 0.4,-0.36 0.5,-0.08 l 5.07,16.45 c 0.58,1.74 2.42,2.66 4.09,2.05 z"
         fill="#ffffff"
         id="path5" /><path
         d="m 60.01,105.88 c -1.29,0 -2.34,-1.05 -2.34,-2.34 V 18.46 c 0,-1.29 1.05,-2.34 2.34,-2.34 1.29,0 2.34,1.05 2.34,2.34 v 85.08 c 0,1.29 -1.05,2.34 -2.34,2.34 z"
         fill="#fafafa"
         id="path6" /><path
         d="m 39.7,12.9 c 0,-2.3 -1.6,-3 -10.8,-2.7 -7.7,0.3 -11.5,1.2 -13.8,4 -1.9,2.3 -2.3,5.6 -2.6,8.4 -0.2,2.2 -2.2,14.9 3.5,11.2 0.68,-0.45 1.23,-1.07 1.6,-1.8 1.2,-2.1 1.9,-3.5 3.3,-5.6 5.3,-8.6 18.8,-10.5 18.8,-13.5 z"
         opacity="0.3"
         fill="#68abe6"
         id="path7" /></g></g></svg>
