<?xml version="1.0" encoding="UTF-8" standalone="no"?>
<!-- Created with Inkscape (http://www.inkscape.org/) -->

<svg
   width="16"
   height="16"
   viewBox="0 0 4.2333333 4.2333333"
   version="1.1"
   id="svg1"
   inkscape:version="1.3 (0e150ed6c4, 2023-07-21)"
   sodipodi:docname="2400_hw_exit_weight_station.svg"
   xml:space="preserve"
   xmlns:inkscape="http://www.inkscape.org/namespaces/inkscape"
   xmlns:sodipodi="http://sodipodi.sourceforge.net/DTD/sodipodi-0.dtd"
   xmlns="http://www.w3.org/2000/svg"
   xmlns:svg="http://www.w3.org/2000/svg"
   xmlns:rdf="http://www.w3.org/1999/02/22-rdf-syntax-ns#"
   xmlns:cc="http://creativecommons.org/ns#"
   xmlns:dc="http://purl.org/dc/elements/1.1/"><metadata
     id="metadata8"><rdf:RDF><cc:Work
         rdf:about=""><dc:format>image/svg+xml</dc:format><dc:type
           rdf:resource="http://purl.org/dc/dcmitype/StillImage" /></cc:Work></rdf:RDF></metadata><sodipodi:namedview
     id="namedview1"
     pagecolor="#ffffff"
     bordercolor="#666666"
     borderopacity="1.0"
     inkscape:showpageshadow="2"
     inkscape:pageopacity="0.0"
     inkscape:pagecheckerboard="0"
     inkscape:deskcolor="#d1d1d1"
     inkscape:document-units="mm"
     inkscape:zoom="18.230416"
     inkscape:cx="23.532102"
     inkscape:cy="19.994059"
     inkscape:window-width="2078"
     inkscape:window-height="1158"
     inkscape:window-x="3484"
     inkscape:window-y="170"
     inkscape:window-maximized="0"
     inkscape:current-layer="layer1"
     showgrid="false"
     units="px" /><defs
     id="defs1" /><g
     inkscape:label="Warstwa 1"
     inkscape:groupmode="layer"
     id="layer1"
     transform="translate(0,-292.76667)"><g
       id="g1"
       transform="matrix(0.00305273,0,0,0.00305273,1.3369959,294.18445)"
       inkscape:export-filename="..\icons_png\2400_hw_exit_weight_station.png"
       inkscape:export-xdpi="300"
       inkscape:export-ydpi="300">&#10;	<path
   class="st0"
   d="M 500.608,274.494 441.086,105.731 C 478.678,95.391 482.298,72.442 485.2,64.001 489.228,52.264 471.976,46.633 466.246,55.329 460.517,64.025 443.93,83.604 399.159,76.709 363.091,71.136 302.814,62.02 263.233,63.697 V 28.386 c 0,-8.779 -7.122,-15.914 -15.917,-15.914 -8.796,0 -15.921,7.135 -15.921,15.914 v 45.413 l -1.241,-4.324 c -33.453,9.6 -96.497,63.668 -130.796,93.266 -34.288,29.607 -58.745,21.807 -68.218,17.475 -9.469,-4.34 -21.103,9.576 -11.458,17.392 6.353,5.145 19.673,20.286 50.578,14.22 L 11.392,378.726 H 0 c 11.495,38.031 46.802,65.731 88.594,65.731 41.788,0 77.094,-27.7 88.598,-65.731 H 165.8 L 102.124,198.185 c 32.516,-19.908 82.269,-58.769 129.272,-76.244 v 19.357 h -8.508 v 267.75 H 209.684 V 432.9 c -8.717,0 -17.565,0 -24.872,0 -23.352,0 -22.666,32.977 -22.666,32.977 -19.233,0 -28.85,15.107 -28.85,33.65 h 228.038 c 0,-18.543 -9.613,-33.65 -28.851,-33.65 0,0 0.69,-32.977 -22.661,-32.977 -7.307,0 -16.16,0 -24.872,0 v -23.853 h -13.21 v -267.75 h -8.507 V 112.62 c 45.112,-9.864 102.505,-5.072 141.638,-4.447 l -58.666,166.322 h -11.392 c 11.499,38.039 46.806,65.756 88.594,65.756 41.792,0 77.094,-27.716 88.593,-65.756 H 500.608 Z M 141.244,378.726 H 35.944 L 88.594,229.46 Z m 229.517,-104.232 52.646,-149.266 52.65,149.266 z"
   id="path1" />&#10;</g></g><style
     type="text/css"
     id="style1">&#10;	.st0{fill:#000000;}&#10;</style></svg>
