<?xml version="1.0" encoding="UTF-8" standalone="no"?>
<!-- Created with Inkscape (http://www.inkscape.org/) -->

<svg
   width="16"
   height="16"
   viewBox="0 0 4.2333333 4.2333333"
   version="1.1"
   id="svg1"
   inkscape:version="1.3 (0e150ed6c4, 2023-07-21)"
   sodipodi:docname="2500_toll_booth.svg"
   xml:space="preserve"
   inkscape:export-filename="..\icons_png\6607_cliff.png"
   inkscape:export-xdpi="300"
   inkscape:export-ydpi="300"
   xmlns:inkscape="http://www.inkscape.org/namespaces/inkscape"
   xmlns:sodipodi="http://sodipodi.sourceforge.net/DTD/sodipodi-0.dtd"
   xmlns="http://www.w3.org/2000/svg"
   xmlns:svg="http://www.w3.org/2000/svg"
   xmlns:rdf="http://www.w3.org/1999/02/22-rdf-syntax-ns#"
   xmlns:cc="http://creativecommons.org/ns#"
   xmlns:dc="http://purl.org/dc/elements/1.1/"><metadata
     id="metadata8"><rdf:RDF><cc:Work
         rdf:about=""><dc:format>image/svg+xml</dc:format><dc:type
           rdf:resource="http://purl.org/dc/dcmitype/StillImage" /></cc:Work></rdf:RDF></metadata><sodipodi:namedview
     id="namedview1"
     pagecolor="#ffffff"
     bordercolor="#666666"
     borderopacity="1.0"
     inkscape:showpageshadow="2"
     inkscape:pageopacity="0.0"
     inkscape:pagecheckerboard="0"
     inkscape:deskcolor="#d1d1d1"
     inkscape:document-units="mm"
     inkscape:zoom="25.781702"
     inkscape:cx="19.859046"
     inkscape:cy="18.831185"
     inkscape:window-width="2880"
     inkscape:window-height="1514"
     inkscape:window-x="2871"
     inkscape:window-y="-11"
     inkscape:window-maximized="1"
     inkscape:current-layer="layer1"
     showgrid="false"
     units="px" /><defs
     id="defs1" /><g
     inkscape:label="Warstwa 1"
     inkscape:groupmode="layer"
     id="layer1"
     transform="translate(0,-292.76667)"><g
       id="g5"
       transform="matrix(0.02725541,0,0,0.02725541,1.3013071,294.18865)">&#10;	<g
   id="g4">&#10;		<path
   style="fill:#030104"
   d="M 30.239,32.063 C 30.135,32 30.028,31.939 29.917,31.885 v -5.637 c 0,-2.514 -2.043,-4.556 -4.555,-4.556 H 10.176 c -2.515,0 -4.558,2.042 -4.558,4.556 v 5.637 C 5.508,31.94 5.399,32 5.296,32.063 L 5.011,29.362 H 0 v 2.581 l 5.038,0.288 c -0.941,0.668 -1.546,1.685 -1.546,2.826 v 5.163 c 0,1.284 0.763,2.412 1.914,3.061 v 3.47 c 0,1.174 1.365,2.125 3.048,2.125 1.683,0 3.046,-0.952 3.046,-2.126 v -2.886 h 12.014 v 2.886 c 0,1.174 1.362,2.125 3.046,2.125 1.683,0 3.048,-0.951 3.048,-2.125 v -3.22 c 1.435,-0.577 2.437,-1.84 2.437,-3.31 v -5.163 c 0,-1.142 -0.604,-2.158 -1.546,-2.826 l 5.039,-0.288 V 29.362 H 30.525 Z M 7.441,26.248 c 0,-1.508 1.226,-2.733 2.734,-2.733 h 15.187 c 1.507,0 2.732,1.227 2.732,2.733 v 5.174 C 28.017,31.418 27.941,31.411 27.865,31.411 H 7.67 c -0.076,0 -0.152,0.007 -0.229,0.011 z m 15.338,11.846 v 1.214 H 13.364 V 38.094 Z M 6.53,39.824 v -3.993 h 5.499 v 3.993 z m 6.227,2.977 c -0.421,0 -0.76,-0.341 -0.76,-0.76 0,-0.419 0.339,-0.759 0.76,-0.759 0.42,0 0.759,0.34 0.759,0.759 0,0.419 -0.339,0.76 -0.759,0.76 z m 10.781,0 c -0.419,0 -0.759,-0.341 -0.759,-0.76 0,-0.419 0.34,-0.759 0.759,-0.759 0.421,0 0.763,0.34 0.763,0.759 0,0.419 -0.342,0.76 -0.763,0.76 z m 6.227,-2.977 h -5.498 v -3.993 h 5.498 z"
   id="path1" />&#10;		<circle
   style="fill:#030104"
   cx="44.751999"
   cy="16.099001"
   r="3.0880001"
   id="circle1" />&#10;		<path
   style="fill:#030104"
   d="m 47.997,37.915 c -0.393,-0.095 -0.671,-0.209 -0.823,-0.34 -0.155,-0.133 -0.229,-0.3 -0.229,-0.521 0,-0.251 0.08,-0.441 0.247,-0.58 0.171,-0.139 0.413,-0.211 0.719,-0.211 0.293,0 0.521,0.069 0.675,0.206 0.152,0.137 0.249,0.353 0.287,0.641 l 0.008,0.068 h 0.791 l -0.003,-0.081 c -0.021,-0.462 -0.196,-0.832 -0.513,-1.099 -0.236,-0.2 -0.538,-0.327 -0.898,-0.376 v -0.635 h -0.812 v 0.655 c -0.301,0.056 -0.57,0.177 -0.796,0.363 -0.329,0.271 -0.498,0.629 -0.498,1.058 0,0.376 0.131,0.692 0.392,0.938 0.258,0.244 0.646,0.426 1.155,0.549 0.455,0.107 0.784,0.24 0.973,0.392 0.181,0.146 0.268,0.338 0.268,0.583 0,0.301 -0.094,0.531 -0.284,0.699 -0.191,0.165 -0.463,0.25 -0.811,0.25 -0.35,0 -0.618,-0.085 -0.805,-0.25 -0.188,-0.167 -0.282,-0.403 -0.287,-0.715 l -10e-4,-0.076 h -0.785 l -0.017,0.206 c 0.005,0.378 0.181,0.718 0.521,1.01 0.283,0.239 0.609,0.395 0.976,0.458 v 0.752 h 0.812 v -0.753 c 0.367,-0.06 0.683,-0.199 0.936,-0.419 0.357,-0.302 0.541,-0.699 0.541,-1.175 0,-0.398 -0.148,-0.731 -0.439,-0.996 -0.29,-0.264 -0.726,-0.465 -1.3,-0.601 z"
   id="path2" />&#10;		<path
   style="fill:#030104"
   d="m 38.816,7.81 v 7.919 h 1.22 V 9.028 h 15.432 v 19.646 h -6.799 v -5.043 c 0,-1.539 -1.246,-2.788 -2.785,-2.788 -0.042,0 -0.08,0.006 -0.122,0.007 -0.228,10e-4 -0.459,0.042 -0.692,0.116 -0.01,0.003 -0.02,0.006 -0.027,0.008 -0.046,0.016 -0.092,0.023 -0.138,0.043 l -10.163,4.102 c -1.014,0.41 -1.563,1.415 -1.229,2.245 0.334,0.831 1.428,1.172 2.441,0.762 l 7.145,-2.882 v 3.431 h -3.062 v -0.763 h -1.22 V 47.967 H 56.686 V 7.811 Z m 9.024,36.946 c -3.491,0 -6.332,-2.842 -6.332,-6.333 0,-3.493 2.841,-6.333 6.332,-6.333 3.495,0 6.336,2.84 6.336,6.333 0,3.491 -2.84,6.333 -6.336,6.333 z"
   id="path3" />&#10;		<path
   style="fill:#030104"
   d="m 47.84,32.595 c -3.213,0 -5.824,2.614 -5.824,5.827 0,3.214 2.611,5.826 5.824,5.826 3.214,0 5.827,-2.612 5.827,-5.826 10e-4,-3.213 -2.613,-5.827 -5.827,-5.827 z m 0,10.924 c -2.813,0 -5.095,-2.283 -5.095,-5.097 0,-2.815 2.28,-5.097 5.095,-5.097 2.815,0 5.098,2.281 5.098,5.097 0,2.814 -2.282,5.097 -5.098,5.097 z"
   id="path4" />&#10;	</g>&#10;</g></g><style
     type="text/css"
     id="style1">&#10;	.st0{fill-rule:evenodd;clip-rule:evenodd;}&#10;</style><style
     type="text/css"
     id="style1-9">&#10;<![CDATA[
	.st0{fill:#D1D1D1;}
	.st1{fill:#454545;}
]]>&#10;</style></svg>
