<?xml version="1.0" encoding="UTF-8" standalone="no"?>
<svg
   xmlns:dc="http://purl.org/dc/elements/1.1/"
   xmlns:cc="http://creativecommons.org/ns#"
   xmlns:rdf="http://www.w3.org/1999/02/22-rdf-syntax-ns#"
   xmlns:svg="http://www.w3.org/2000/svg"
   xmlns="http://www.w3.org/2000/svg"
   width="210mm"
   height="297mm"
   viewBox="0 0 210 297"
   version="1.1"
   id="svg1226">
  <defs
     id="defs1220" />
  <metadata
     id="metadata1223">
    <rdf:RDF>
      <cc:Work
         rdf:about="">
        <dc:format>image/svg+xml</dc:format>
        <dc:type
           rdf:resource="http://purl.org/dc/dcmitype/StillImage" />
        <dc:title></dc:title>
      </cc:Work>
    </rdf:RDF>
  </metadata>
  <g
     id="layer1">
    <g
       id="g1179"
       transform="translate(52.763172,-38.875911)">
      <g
         id="g1171"
         transform="translate(-9.085603,-33.122527)"
         style="stroke:none">
        <rect
           style="fill:#e88c5f;fill-opacity:1;stroke:none;stroke-width:0.165;stroke-miterlimit:4;stroke-dasharray:none;stroke-opacity:1"
           id="rect1167"
           width="4.5357141"
           height="4.4648438"
           x="14.339472"
           y="79.658485"
           ry="0.70870537" />
        <path
           style="fill:#000000;fill-opacity:1;stroke:none;stroke-width:0.165;stroke-linecap:butt;stroke-linejoin:miter;stroke-miterlimit:4;stroke-dasharray:none;stroke-opacity:1"
           d="m 15.851724,80.386134 -0.616167,-0.05259 -0.485229,0.398596 -0.04856,0.476231 0.424843,0.553152 0.660706,0.0138 0.341788,0.320904 -1.215908,1.101636 -0.02879,0.215047 0.218846,0.01301 1.241609,-1.158788 1.484779,1.337359 0.221569,-0.235429 -1.438485,-1.330304 0.309337,-0.275425 0.573509,0.134763 0.985558,-1.020363 -0.157405,-0.159785 -0.727272,0.747053 -0.20412,-0.198537 0.736355,-0.72915 -0.156573,-0.153882 -0.720034,0.729033 -0.190346,-0.205415 0.691871,-0.712762 -0.145668,-0.159959 -0.848933,0.878916 -0.04636,0.603712 -0.324453,0.272003 -0.299241,-0.296627 0.149605,-0.615545 z"
           id="path1165" />
      </g>
      <rect
         style="fill:none;fill-opacity:1;stroke:none;stroke-width:0.165;stroke-miterlimit:4;stroke-dasharray:none;stroke-opacity:1"
         id="rect1173"
         width="6.3499999"
         height="6.3499999"
         x="4.3467259"
         y="45.59338" />
    </g>
  </g>
</svg>
