<?xml version="1.0" encoding="UTF-8" standalone="no"?>
<!-- Created with Inkscape (http://www.inkscape.org/) -->

<svg
   width="16"
   height="16"
   viewBox="0 0 4.2333333 4.2333333"
   version="1.1"
   id="svg1"
   inkscape:version="1.3 (0e150ed6c4, 2023-07-21)"
   sodipodi:docname="2c07_zoo_aquarium.svg"
   xml:space="preserve"
   inkscape:export-filename="..\icons_png\6513_swamp.png"
   inkscape:export-xdpi="300"
   inkscape:export-ydpi="300"
   xmlns:inkscape="http://www.inkscape.org/namespaces/inkscape"
   xmlns:sodipodi="http://sodipodi.sourceforge.net/DTD/sodipodi-0.dtd"
   xmlns="http://www.w3.org/2000/svg"
   xmlns:svg="http://www.w3.org/2000/svg"
   xmlns:rdf="http://www.w3.org/1999/02/22-rdf-syntax-ns#"
   xmlns:cc="http://creativecommons.org/ns#"
   xmlns:dc="http://purl.org/dc/elements/1.1/"><metadata
     id="metadata8"><rdf:RDF><cc:Work
         rdf:about=""><dc:format>image/svg+xml</dc:format><dc:type
           rdf:resource="http://purl.org/dc/dcmitype/StillImage" /></cc:Work></rdf:RDF></metadata><sodipodi:namedview
     id="namedview1"
     pagecolor="#ffffff"
     bordercolor="#666666"
     borderopacity="1.0"
     inkscape:showpageshadow="2"
     inkscape:pageopacity="0.0"
     inkscape:pagecheckerboard="0"
     inkscape:deskcolor="#d1d1d1"
     inkscape:document-units="mm"
     inkscape:zoom="36.460833"
     inkscape:cx="0.21941353"
     inkscape:cy="14.63214"
     inkscape:window-width="2880"
     inkscape:window-height="1514"
     inkscape:window-x="2871"
     inkscape:window-y="-11"
     inkscape:window-maximized="1"
     inkscape:current-layer="layer1"
     showgrid="false"
     units="px" /><defs
     id="defs1" /><g
     inkscape:label="Warstwa 1"
     inkscape:groupmode="layer"
     id="layer1"
     transform="translate(0,-292.76667)"><g
       fill="none"
       fill-rule="evenodd"
       id="g4"
       transform="matrix(0.02736207,0,0,0.02736207,1.1741308,294.09368)"><rect
         width="58"
         height="58"
         x="4"
         y="3"
         fill="#ececec"
         rx="3"
         id="rect1" /><path
         fill="#bd7575"
         d="M 22,30.333333 C 22,33.462947 24.462434,36 27.5,36 c 2.218602,0 2.999547,-1.529215 5,-1.529215 2.000453,0 2.781398,1.529215 5,1.529215 C 40.537566,36 43,33.462947 43,30.333333 43,27.73751 41.305922,25.54935 38.994714,24.878435 38.998223,24.808165 39,24.737568 39,24.666667 39,21.537053 36.52866,19 32.5,19 28.47134,19 26,21.537053 26,24.666667 c 0,0.0709 0.0018,0.141498 0.0053,0.211768 C 23.694078,25.54935 22,27.73751 22,30.333333 Z"
         id="path1" /><path
         fill="#bd7575"
         d="m 28,15.992273 c 3.70207,-0.15017 4,-1.910576 4,-4.26739 C 32,9.3680677 30.245794,7 28.036655,7 26.663579,7 26.007463,7.6578459 25.276418,8.916188 24.545373,10.17453 24,10.832931 24,11.724883 c 0,2.356814 0.29793,4.417561 4,4.26739 z"
         transform="rotate(-22,28,11.5)"
         id="path2" /><path
         fill="#bd7575"
         d="m 39,15.992273 c 3.70207,-0.15017 4,-1.910576 4,-4.26739 C 43,9.3680677 41.245794,7 39.036655,7 37.663579,7 37.007463,7.6578459 36.276418,8.916188 35.545373,10.17453 35,10.832931 35,11.724883 c 0,2.356814 0.29793,4.417561 4,4.26739 z"
         transform="matrix(-0.92718385,-0.37460659,-0.37460659,0.92718385,79.468294,15.447071)"
         id="path3" /><ellipse
         cx="22"
         cy="19.5"
         fill="#bd7575"
         rx="3"
         ry="4.5"
         transform="rotate(-45,22,19.5)"
         id="ellipse3" /><ellipse
         cx="44"
         cy="20.5"
         fill="#bd7575"
         rx="3"
         ry="4.5"
         transform="rotate(48,44,20.5)"
         id="ellipse4" /><text
         fill="#ff78c7"
         font-family="MarkerFelt-Thin, 'Marker Felt'"
         font-size="20px"
         font-weight="300"
         id="text4"><tspan
           x="16"
           y="56"
           id="tspan4">ZOO</tspan></text></g></g><style
     type="text/css"
     id="style1">&#10;	.st0{fill-rule:evenodd;clip-rule:evenodd;}&#10;</style></svg>
