<?xml version="1.0" encoding="UTF-8" standalone="no"?>
<!-- Uploaded to: SVG Repo, www.svgrepo.com, Generator: SVG Repo Mixer Tools -->

<svg
   xmlns:dc="http://purl.org/dc/elements/1.1/"
   xmlns:cc="http://creativecommons.org/ns#"
   xmlns:rdf="http://www.w3.org/1999/02/22-rdf-syntax-ns#"
   xmlns:svg="http://www.w3.org/2000/svg"
   xmlns="http://www.w3.org/2000/svg"
   xmlns:sodipodi="http://sodipodi.sourceforge.net/DTD/sodipodi-0.dtd"
   xmlns:inkscape="http://www.inkscape.org/namespaces/inkscape"
   width="16"
   height="16"
   viewBox="0 0 20.48 20.48"
   class="icon"
   version="1.1"
   id="svg6"
   sodipodi:docname="2c0a_winiarnia.svg"
   inkscape:version="0.92.5 (2060ec1f9f, 2020-04-08)">
  <metadata
     id="metadata12">
    <rdf:RDF>
      <cc:Work
         rdf:about="">
        <dc:format>image/svg+xml</dc:format>
        <dc:type
           rdf:resource="http://purl.org/dc/dcmitype/StillImage" />
        <dc:title></dc:title>
      </cc:Work>
    </rdf:RDF>
  </metadata>
  <defs
     id="defs10" />
  <sodipodi:namedview
     pagecolor="#ffffff"
     bordercolor="#666666"
     borderopacity="1"
     objecttolerance="10"
     gridtolerance="10"
     guidetolerance="10"
     inkscape:pageopacity="0"
     inkscape:pageshadow="2"
     inkscape:window-width="1920"
     inkscape:window-height="1055"
     id="namedview8"
     showgrid="false"
     inkscape:zoom="9.44"
     inkscape:cx="39.855272"
     inkscape:cy="4.8112978"
     inkscape:window-x="1366"
     inkscape:window-y="0"
     inkscape:window-maximized="1"
     inkscape:current-layer="svg6" />
  <path
     d="m 7.0403881,5.7099804 v 2.401267 c 0,1.765152 1.404412,3.1943476 3.1392739,3.1943476 1.73486,0 3.139272,-1.4291956 3.139272,-3.1943476 v -2.401267 z"
     id="path2"
     inkscape:connector-curvature="0"
     style="fill:#f07067;stroke-width:0.02753748"
     inkscape:export-filename="/home/piotr/projects/pwMapedit/icons/icons_png/2c0a_winiarnia.png"
     inkscape:export-xdpi="300"
     inkscape:export-ydpi="300" />
  <path
     d="m 13.767796,8.1112474 v -4.436287 c 0,-0.247838 -0.201024,-0.448862 -0.448862,-0.448862 H 7.0403881 c -0.247838,0 -0.448859,0.201024 -0.448859,0.448862 v 4.436287 c 0,1.853274 1.371364,3.3843576 3.139271,3.6101656 v 4.48861 h -2.01299 c -0.25059,0 -0.454368,0.201024 -0.454368,0.448862 0,0.247835 0.203778,0.448859 0.454368,0.448859 h 2.3186569 c 0.04406,0.01377 0.09087,0.02478 0.140441,0.02478 0.04957,0 0.09638,-0.01101 0.140441,-0.02478 h 2.318657 c 0.250589,0 0.454368,-0.201024 0.454368,-0.448859 0,-0.247838 -0.203779,-0.448862 -0.454368,-0.448862 H 10.62577 v -4.48861 c 1.770658,-0.223054 3.142026,-1.7541376 3.142026,-3.6101656 z m -0.894967,0 c 0,1.514563 -1.206142,2.7454886 -2.690412,2.7454886 -1.4842699,0 -2.6904129,-1.2309256 -2.6904129,-2.7454886 v -2.191982 h 5.3835769 v 2.191982 z m 0,-3.987428 v 1.346584 H 7.4892501 v -1.346584 z"
     id="path4"
     inkscape:connector-curvature="0"
     style="fill:#211f1e;stroke-width:0.02753748"
     inkscape:export-filename="/home/piotr/projects/pwMapedit/icons/icons_png/2c0a_winiarnia.png"
     inkscape:export-xdpi="300"
     inkscape:export-ydpi="300" />
</svg>
