<?xml version="1.0" encoding="UTF-8" standalone="no"?>
<!-- Uploaded to: SVG Repo, www.svgrepo.com, Generator: SVG Repo Mixer Tools -->

<svg
   width="16"
   height="16"
   viewBox="0 0 20.48 20.48"
   class="icon"
   version="1.1"
   id="svg6"
   sodipodi:docname="2c0a_winiarnia.svg"
   inkscape:version="1.3 (0e150ed6c4, 2023-07-21)"
   xmlns:inkscape="http://www.inkscape.org/namespaces/inkscape"
   xmlns:sodipodi="http://sodipodi.sourceforge.net/DTD/sodipodi-0.dtd"
   xmlns="http://www.w3.org/2000/svg"
   xmlns:svg="http://www.w3.org/2000/svg"
   xmlns:rdf="http://www.w3.org/1999/02/22-rdf-syntax-ns#"
   xmlns:cc="http://creativecommons.org/ns#"
   xmlns:dc="http://purl.org/dc/elements/1.1/">
  <metadata
     id="metadata12">
    <rdf:RDF>
      <cc:Work
         rdf:about="">
        <dc:format>image/svg+xml</dc:format>
        <dc:type
           rdf:resource="http://purl.org/dc/dcmitype/StillImage" />
        <dc:title />
      </cc:Work>
    </rdf:RDF>
  </metadata>
  <defs
     id="defs10" />
  <sodipodi:namedview
     pagecolor="#ffffff"
     bordercolor="#666666"
     borderopacity="1"
     objecttolerance="10"
     gridtolerance="10"
     guidetolerance="10"
     inkscape:pageopacity="0"
     inkscape:pageshadow="2"
     inkscape:window-width="2880"
     inkscape:window-height="1514"
     id="namedview8"
     showgrid="false"
     inkscape:zoom="75.52"
     inkscape:cx="9.7590043"
     inkscape:cy="10.07018"
     inkscape:window-x="2871"
     inkscape:window-y="-11"
     inkscape:window-maximized="1"
     inkscape:current-layer="svg6"
     inkscape:showpageshadow="2"
     inkscape:pagecheckerboard="0"
     inkscape:deskcolor="#d1d1d1" />
  <g
     id="g1"
     transform="matrix(0.55076818,0,0,0.55076818,4.3001076,6.2391256)"
     inkscape:export-filename="..\icons_png\2c0a_winiarnia.png"
     inkscape:export-xdpi="300"
     inkscape:export-ydpi="300">
    <path
       d="m 7.0403881,5.7099804 v 2.401267 c 0,1.765152 1.404412,3.1943476 3.1392739,3.1943476 1.73486,0 3.139272,-1.4291956 3.139272,-3.1943476 v -2.401267 z"
       id="path2"
       inkscape:connector-curvature="0"
       style="fill:#f07067;stroke-width:0.0275375"
       inkscape:export-filename="/home/piotr/projects/pwMapedit/icons/icons_png/2c0a_winiarnia.png"
       inkscape:export-xdpi="300"
       inkscape:export-ydpi="300" />
    <path
       d="M 13.767831,8.1112699 V 3.6749625 c 0,-0.2478387 -0.201027,-0.4488641 -0.448872,-0.4488641 H 7.0403899 c -0.2478386,0 -0.4488608,0.2010274 -0.4488608,0.4488641 v 4.4363074 c 0,1.8532831 1.3713703,3.3843771 3.1392857,3.6101811 v 4.488631 H 7.7178159 c -0.2505916,0 -0.4543702,0.201025 -0.4543702,0.448869 0,0.247836 0.2037759,0.448852 0.4543702,0.448852 h 2.3186671 c 0.04406,0.01344 0.09088,0.02472 0.140436,0.02472 0.04956,0 0.09637,-0.01113 0.140447,-0.02472 h 2.318654 c 0.250604,0 0.454382,-0.201015 0.454382,-0.448852 0,-0.247846 -0.203776,-0.448869 -0.454382,-0.448869 h -2.010231 v -4.488631 c 1.770662,-0.223056 3.142042,-1.7541438 3.142042,-3.6101811 z m -0.894969,0 c 0,1.5145706 -1.206157,2.7455011 -2.690427,2.7455011 -1.484279,0 -2.6904273,-1.2309305 -2.6904273,-2.7455011 V 5.9192775 h 5.3836033 v 2.1919924 z m 0,-3.9874456 V 5.4704135 H 7.489255 V 4.1238243 Z"
       id="path4"
       inkscape:connector-curvature="0"
       style="fill:#211f1e;stroke-width:0.0275371"
       inkscape:export-filename="/home/piotr/projects/pwMapedit/icons/icons_png/2c0a_winiarnia.png"
       inkscape:export-xdpi="300"
       inkscape:export-ydpi="300" />
  </g>
</svg>
