<?xml version="1.0" encoding="UTF-8" standalone="no"?>
<!-- Created with Inkscape (http://www.inkscape.org/) -->

<svg
   width="16"
   height="16"
   viewBox="0 0 4.2333333 4.2333333"
   version="1.1"
   id="svg1"
   inkscape:version="1.3 (0e150ed6c4, 2023-07-21)"
   sodipodi:docname="2c0b_church.svg"
   xml:space="preserve"
   inkscape:export-filename="..\icons_png\6513_swamp.png"
   inkscape:export-xdpi="300"
   inkscape:export-ydpi="300"
   xmlns:inkscape="http://www.inkscape.org/namespaces/inkscape"
   xmlns:sodipodi="http://sodipodi.sourceforge.net/DTD/sodipodi-0.dtd"
   xmlns="http://www.w3.org/2000/svg"
   xmlns:svg="http://www.w3.org/2000/svg"
   xmlns:rdf="http://www.w3.org/1999/02/22-rdf-syntax-ns#"
   xmlns:cc="http://creativecommons.org/ns#"
   xmlns:dc="http://purl.org/dc/elements/1.1/"><metadata
     id="metadata8"><rdf:RDF><cc:Work
         rdf:about=""><dc:format>image/svg+xml</dc:format><dc:type
           rdf:resource="http://purl.org/dc/dcmitype/StillImage" /></cc:Work></rdf:RDF></metadata><sodipodi:namedview
     id="namedview1"
     pagecolor="#ffffff"
     bordercolor="#666666"
     borderopacity="1.0"
     inkscape:showpageshadow="2"
     inkscape:pageopacity="0.0"
     inkscape:pagecheckerboard="0"
     inkscape:deskcolor="#d1d1d1"
     inkscape:document-units="mm"
     inkscape:zoom="36.460833"
     inkscape:cx="16.154321"
     inkscape:cy="13.781912"
     inkscape:window-width="2858"
     inkscape:window-height="1492"
     inkscape:window-x="3067"
     inkscape:window-y="61"
     inkscape:window-maximized="0"
     inkscape:current-layer="layer1"
     showgrid="false"
     units="px" /><defs
     id="defs1" /><g
     inkscape:label="Warstwa 1"
     inkscape:groupmode="layer"
     id="layer1"
     transform="translate(0,-292.76667)"><g
       id="g1"
       transform="matrix(0.0128173,0,0,0.0128173,1.3332742,294.00976)"><path
         fill="#614f46"
         d="m 71.8,8.78 h -5.83 l 0.02,-7.16 h -4.4 l 0.01,7.16 h -5.96 v 4.06 h 5.97 l 0.04,13.19 4.28,-1.78 0.03,-11.41 h 5.84 z"
         id="path1-7" /><path
         d="m 49.69,59.86 c 0,0 -33.63,30.89 -33.55,31.37 0.08,0.48 3.62,3.06 3.62,3.06 L 53,83.73 Z"
         fill="#896159"
         id="path2-6" /><path
         d="m 78,58.32 c 0,0 34.27,32.47 34.1,33.1 -0.12,0.47 -3.76,1.97 -3.76,1.97 0,0 -35.64,-17.34 -35.55,-18.16 C 72.88,74.41 78,58.32 78,58.32 Z"
         fill="#896159"
         id="path3-1" /><path
         d="m 49.75,66.45 -30.06,27.78 -0.01,28.2 c 0,0.94 0.5,1.33 1.35,1.42 0.85,0.09 86.87,0.29 87.34,0.11 0.07,-0.03 0.19,-1.46 0.17,-2.5 -0.09,-6.45 -0.07,-28.13 -0.07,-28.13 L 77.52,64.63 Z"
         fill="#c0b8b3"
         id="path4" /><path
         d="m 45.4,44.39 c -0.22,-1.2 2.22,-2.08 3.08,-3.22 C 49.34,40.03 59,26.21 60.14,24.7 c 1.15,-1.5 2.22,-3.36 3.51,-3.36 1.29,0 3.25,3 4.29,4.37 1.57,2.08 10.46,14.38 11.02,15.03 0.86,1 3.08,2.22 3.08,3.08 0,0.79 -4.65,4.51 -4.65,4.51 L 49.26,47.18 c 0,0 -3.58,-1.22 -3.86,-2.79 z"
         fill="#896159"
         id="path5" /><path
         d="m 48.61,45.07 c 0,0 29.72,-0.61 29.86,-0.25 0.14,0.36 0.13,4.82 0.13,4.82 L 60.5,51.76 48.55,49.68 Z"
         fill="#bdb8b1"
         id="path6" /><path
         fill="#5f4d4e"
         d="M 48.77,121.38 48.55,49.68 78.6,49.6 79.63,121.38 Z"
         id="path7" /><path
         fill="#efebea"
         d="m 106.08,95.87 -23.87,-21.7 0.54,47.12 23.42,0.09 z"
         id="path8" /><path
         fill="#efebea"
         d="m 45.07,75.99 -23.15,20.88 -0.9,16.43 1.09,8.08 h 23.33 z"
         id="path9" /><path
         fill="#efebea"
         d="m 50.98,49.57 0.45,71.81 25.83,0.01 -0.68,-71.79 z"
         id="path10" /><path
         fill="#5f4d4e"
         d="m 106.08,95.87 2.44,2.36 0.03,23.22 -2.38,-0.07 z"
         id="path11" /><path
         fill="#5f4d4e"
         d="m 21.92,96.87 -2.24,2.2 v 22.38 l 2.43,-0.07 z"
         id="path12" /><path
         d="m 54.44,121.38 c 0,0 -0.21,-18.88 -0.16,-24.07 0.06,-5.18 3.19,-10.16 9.74,-10.14 6.99,0.02 9.86,4.88 9.86,10.32 0,5.02 0.18,23.9 0.18,23.9 z"
         fill="#d27856"
         id="path13" /><path
         fill="#ac5832"
         d="m 69.55,100.05 h -3.76 v -6.78 h -3.3 v 6.78 h -3.82 v 3.41 h 3.82 v 13.73 h 3.3 v -13.73 h 3.76 z"
         id="path14" /><path
         d="m 72.35,120 -16.32,-0.13 v -0.74 c 0,-0.86 -0.04,-21.17 0,-22.08 0.08,-1.83 0.89,-7.8 7.91,-8.01 2.49,-0.06 4.47,0.6 5.92,2.01 2.26,2.2 2.38,5.41 2.38,6.04 0,1.31 0.11,22.16 0.11,22.16 z m -14.82,-1.61 13.31,0.1 c -0.02,-3.76 -0.11,-20.25 -0.11,-21.41 0,-0.32 -0.05,-3.15 -1.92,-4.96 -1.14,-1.11 -2.78,-1.64 -4.83,-1.58 -5.57,0.16 -6.37,4.65 -6.45,6.58 -0.03,0.68 -0.01,13.8 0,21.27 z"
         fill="#ac5832"
         id="path15" /><path
         d="m 70.4,104.6 c -0.87,0.03 -0.87,0.86 -0.87,2.34 0,1.48 -0.03,2.36 0.93,2.38 0.99,0.03 0.89,-1.04 0.85,-2.47 -0.02,-1.13 0.17,-2.29 -0.91,-2.25 z"
         fill="#f5bf0a"
         id="path16" /><path
         fill="#e4bbab"
         d="m 29.83,96.41 0.01,10.53 2.91,8.33 h 2.15 l 2.91,-9.04 0.09,-9.82 z"
         id="path17" /><path
         d="m 29.84,106.68 c 0,0 1.61,0.86 2.22,3.18 0.61,2.32 0.69,5.42 0.69,5.42 0,0 -1.66,0.03 -2.15,0 -0.69,-0.04 -0.67,-0.72 -0.72,-1.25 -0.05,-0.53 -0.04,-7.35 -0.04,-7.35 z"
         fill="#6da5b0"
         id="path18" /><path
         d="m 37.81,106.23 c 0,0 -1.51,0.55 -2.28,3.4 -0.67,2.47 -0.63,5.64 -0.63,5.64 h 2.33 c 0.49,0 0.67,-0.72 0.67,-1.16 0,-0.45 -0.09,-7.88 -0.09,-7.88 z"
         fill="#6da5b0"
         id="path19" /><path
         d="m 37.85,101.07 c 0,0 -1.75,1.55 -4.06,1.55 -2.56,0 -3.96,-1.75 -3.96,-1.75 v 3.56 c 0,0 1.17,0.24 2.46,1.34 0.87,0.75 1.44,2.26 1.44,2.26 0,0 0.35,-1.36 1.5,-2.46 1.32,-1.26 2.58,-1.47 2.58,-1.47 z"
         fill="#fccb7e"
         id="path20" /><path
         d="m 29.8,96.23 c -0.05,1.5 0.85,4.19 4.15,4.2 2.94,0.01 3.94,-2.26 3.94,-4.11 0,-1.85 -1.03,-4.14 -4.13,-4.18 -2.43,-0.02 -3.89,1.96 -3.96,4.09 z"
         fill="#9f7cdc"
         id="path21" /><path
         d="m 33.86,94.57 c -0.97,0.02 -1.66,0.58 -1.75,1.61 -0.09,1.03 0.76,1.87 1.8,1.87 1.04,0 1.8,-0.87 1.73,-1.89 -0.05,-0.9 -0.78,-1.62 -1.78,-1.59 z"
         fill="#d05e53"
         id="path22" /><path
         fill="#e4bbab"
         d="m 90.18,96.5 0.06,10.22 2.94,8.3 h 2.12 l 2.97,-9.12 -0.03,-9.72 z"
         id="path23" /><path
         d="m 95.19,115.02 c 0,0 0.08,-3.89 0.61,-5.32 0.73,-1.97 2.48,-3.8 2.48,-3.8 v 7.83 c 0,0.49 -0.05,1.25 -0.48,1.27 -0.6,0.04 -2.61,0.02 -2.61,0.02 z"
         fill="#6da5b0"
         id="path24" /><path
         d="m 90.24,106.72 c 0,0 1.48,0.6 2.28,2.73 0.81,2.17 0.67,5.56 0.67,5.56 0,0 -1.85,-0.04 -2.22,-0.05 -0.77,-0.04 -0.78,-0.61 -0.75,-1.58 0.01,-0.87 0.02,-6.66 0.02,-6.66 z"
         fill="#6da5b0"
         id="path25" /><path
         d="m 90.21,100.67 0.03,3.28 c 0,0 1.52,0.69 2.31,1.45 0.85,0.81 1.62,2.31 1.62,2.31 0,0 0.86,-1.81 1.66,-2.52 1.25,-1.12 2.43,-1.52 2.43,-1.52 l -0.01,-2.93 c 0,0 -1.63,1.8 -4.15,1.73 -2.52,-0.07 -3.89,-1.8 -3.89,-1.8 z"
         fill="#fccb7e"
         id="path26" /><path
         d="m 94.21,91.99 c -1.81,-0.04 -3.94,1.3 -4.02,4.22 -0.08,2.76 2.25,4.06 4.14,3.98 1.89,-0.08 3.82,-1.18 3.92,-4.02 0.09,-3.07 -2.31,-4.14 -4.04,-4.18 z"
         fill="#9f7cdc"
         id="path27" /><path
         d="m 94.24,94.36 c -0.95,0 -1.74,0.71 -1.7,1.85 0.04,1.14 0.8,1.73 1.75,1.73 1.02,0 1.75,-0.55 1.76,-1.92 0.02,-1.03 -0.65,-1.66 -1.81,-1.66 z"
         fill="#d05e53"
         id="path28" /><path
         d="M 63.66,55.32 C 56.36,55.28 52.74,61.07 53.05,66.61 53.39,72.66 57.5,76.98 63.9,76.9 70.65,76.81 74.41,71.97 74.36,65.79 74.32,59.65 69.94,55.35 63.66,55.32 Z"
         fill="#63697f"
         id="path29" /><path
         d="m 63.43,56.79 c -5.1,0.13 -8.99,4.15 -9.04,9.56 -0.04,5.28 4.15,9.04 9.21,9.08 4.84,0.04 9.12,-3.24 9.34,-9.08 0.23,-6.21 -4.46,-9.69 -9.51,-9.56 z"
         fill="#6da5b0"
         id="path30" /><path
         d="m 63.85,61.51 c -2.83,-0.1 -4.71,1.9 -4.69,4.58 0.02,2.31 1.32,4.77 4.6,4.78 3.06,0.02 4.7,-2.18 4.74,-4.51 0.02,-2.09 -0.92,-4.72 -4.65,-4.85 z"
         fill="#e4bbab"
         id="path31" /><path
         d="m 69.1,63.22 1.6,-0.94 a 7.168,7.168 0 0 0 -3.35,-3.16 l -0.72,1.83 c 1.02,0.48 1.89,1.25 2.47,2.27 z"
         fill="#9f7cdc"
         id="path32" /><path
         d="m 69.64,67.75 1.64,0.64 c 0.17,-0.63 0.28,-1.3 0.3,-2.02 0.03,-0.8 -0.05,-1.55 -0.21,-2.24 l -1.73,0.47 c 0.13,0.55 0.2,1.14 0.18,1.79 -0.01,0.49 -0.08,0.94 -0.18,1.36 z"
         fill="#fccb7e"
         id="path33" /><path
         d="m 68.99,69.33 c -0.5,0.82 -1.21,1.45 -2.02,1.9 l 0.93,1.65 c 1.08,-0.63 2,-1.52 2.65,-2.67 z"
         fill="#9f7cdc"
         id="path34" /><path
         d="m 65.63,71.76 c -0.59,0.16 -1.22,0.25 -1.86,0.24 -0.45,0 -0.89,-0.06 -1.31,-0.15 l -0.48,1.96 a 8.48,8.48 0 0 0 4.25,-0.2 z"
         fill="#fccb7e"
         id="path35" /><path
         d="m 58.86,69.43 -1.75,1.19 a 7.516,7.516 0 0 0 3.07,2.59 l 0.98,-1.81 a 5.716,5.716 0 0 1 -2.3,-1.97 z"
         fill="#9f7cdc"
         id="path36" /><path
         d="m 58.09,64.64 -1.97,-0.42 c -0.18,0.68 -0.28,1.4 -0.29,2.15 -0.01,0.98 0.18,1.89 0.49,2.72 l 1.91,-0.9 c -0.2,-0.56 -0.32,-1.15 -0.35,-1.79 -0.01,-0.62 0.06,-1.21 0.21,-1.76 z"
         fill="#fccb7e"
         id="path37" /><path
         d="m 59.71,59.42 c -1.21,0.71 -2.2,1.72 -2.88,2.98 l 1.76,1 c 0.51,-0.94 1.28,-1.7 2.21,-2.22 z"
         fill="#9f7cdc"
         id="path38" /><path
         d="m 63.51,58.35 c -0.74,0.02 -1.45,0.14 -2.12,0.34 l 0.69,1.94 a 6.69,6.69 0 0 1 1.63,-0.26 c 0.51,-0.01 1.01,0.04 1.5,0.13 l 0.39,-1.95 a 8.57,8.57 0 0 0 -2.09,-0.2 z"
         fill="#fccb7e"
         id="path39" /></g></g><style
     type="text/css"
     id="style1">&#10;	.st0{fill-rule:evenodd;clip-rule:evenodd;}&#10;</style></svg>
