<?xml version="1.0" encoding="UTF-8" standalone="no"?>
<!-- Created with Inkscape (http://www.inkscape.org/) -->

<svg
   width="16"
   height="16"
   viewBox="0 0 4.2333333 4.2333333"
   version="1.1"
   id="svg1"
   inkscape:version="1.3 (0e150ed6c4, 2023-07-21)"
   sodipodi:docname="2d05_golf.svg"
   xml:space="preserve"
   inkscape:export-filename="..\icons_png\640b_military.png"
   inkscape:export-xdpi="300"
   inkscape:export-ydpi="300"
   xmlns:inkscape="http://www.inkscape.org/namespaces/inkscape"
   xmlns:sodipodi="http://sodipodi.sourceforge.net/DTD/sodipodi-0.dtd"
   xmlns="http://www.w3.org/2000/svg"
   xmlns:svg="http://www.w3.org/2000/svg"
   xmlns:rdf="http://www.w3.org/1999/02/22-rdf-syntax-ns#"
   xmlns:cc="http://creativecommons.org/ns#"
   xmlns:dc="http://purl.org/dc/elements/1.1/"><metadata
     id="metadata8"><rdf:RDF><cc:Work
         rdf:about=""><dc:format>image/svg+xml</dc:format><dc:type
           rdf:resource="http://purl.org/dc/dcmitype/StillImage" /></cc:Work></rdf:RDF></metadata><sodipodi:namedview
     id="namedview1"
     pagecolor="#ffffff"
     bordercolor="#666666"
     borderopacity="1.0"
     inkscape:showpageshadow="2"
     inkscape:pageopacity="0.0"
     inkscape:pagecheckerboard="0"
     inkscape:deskcolor="#d1d1d1"
     inkscape:document-units="mm"
     inkscape:zoom="36.460833"
     inkscape:cx="2.7700958"
     inkscape:cy="16.030901"
     inkscape:window-width="2880"
     inkscape:window-height="1514"
     inkscape:window-x="2871"
     inkscape:window-y="-11"
     inkscape:window-maximized="1"
     inkscape:current-layer="layer1"
     showgrid="false"
     units="px" /><defs
     id="defs1" /><g
     inkscape:label="Warstwa 1"
     inkscape:groupmode="layer"
     id="layer1"
     transform="translate(0,-292.76667)"><g
       style="fill:none"
       id="g8"
       transform="matrix(0.07605,0,0,0.07605,1.0848696,293.99865)"><ellipse
         opacity="0.5"
         cx="12"
         cy="18.5"
         rx="10"
         ry="3.5"
         fill="#1c274c"
         id="ellipse1" /><path
         d="m 12.0002,1.25 c 0.4142,0 0.75,0.33579 0.75,0.75 v 1.03647 l 5.0077,2.50385 0.054,0.02699 c 0.7345,0.36716 1.3605,0.68012 1.7961,0.98418 0.4418,0.30833 0.9062,0.75601 0.9062,1.44851 0,0.6925 -0.4644,1.14018 -0.9062,1.44851 -0.4356,0.30406 -1.0616,0.61699 -1.7961,0.98419 l -5.0617,2.5308 V 18 c 0,0.4142 -0.3358,0.75 -0.75,0.75 -0.4142,0 -0.75,-0.3358 -0.75,-0.75 v -5.4838 c -3e-4,-0.0104 -3e-4,-0.0209 0,-0.0313 V 3.51509 c -3e-4,-0.01043 -3e-4,-0.02088 0,-0.03134 V 2 c 0,-0.41421 0.3358,-0.75 0.75,-0.75 z"
         fill="#1c274c"
         id="path1" /></g></g><style
     type="text/css"
     id="style1">&#10;	.st0{fill-rule:evenodd;clip-rule:evenodd;}&#10;</style><style
     type="text/css"
     id="style1-9">&#10;<![CDATA[
	.st0{fill:#D1D1D1;}
	.st1{fill:#454545;}
]]>&#10;</style></svg>
