<?xml version="1.0" encoding="UTF-8" standalone="no"?>
<!-- Created with Inkscape (http://www.inkscape.org/) -->

<svg
   width="16"
   height="16"
   viewBox="0 0 4.2333333 4.2333333"
   version="1.1"
   id="svg1"
   inkscape:version="1.3 (0e150ed6c4, 2023-07-21)"
   sodipodi:docname="2d06_ski_resort.svg"
   xml:space="preserve"
   inkscape:export-filename="..\icons_png\640b_military.png"
   inkscape:export-xdpi="300"
   inkscape:export-ydpi="300"
   xmlns:inkscape="http://www.inkscape.org/namespaces/inkscape"
   xmlns:sodipodi="http://sodipodi.sourceforge.net/DTD/sodipodi-0.dtd"
   xmlns="http://www.w3.org/2000/svg"
   xmlns:svg="http://www.w3.org/2000/svg"
   xmlns:rdf="http://www.w3.org/1999/02/22-rdf-syntax-ns#"
   xmlns:cc="http://creativecommons.org/ns#"
   xmlns:dc="http://purl.org/dc/elements/1.1/"><metadata
     id="metadata8"><rdf:RDF><cc:Work
         rdf:about=""><dc:format>image/svg+xml</dc:format><dc:type
           rdf:resource="http://purl.org/dc/dcmitype/StillImage" /></cc:Work></rdf:RDF></metadata><sodipodi:namedview
     id="namedview1"
     pagecolor="#ffffff"
     bordercolor="#666666"
     borderopacity="1.0"
     inkscape:showpageshadow="2"
     inkscape:pageopacity="0.0"
     inkscape:pagecheckerboard="0"
     inkscape:deskcolor="#d1d1d1"
     inkscape:document-units="mm"
     inkscape:zoom="51.563404"
     inkscape:cx="5.8180798"
     inkscape:cy="15.990023"
     inkscape:window-width="2880"
     inkscape:window-height="1514"
     inkscape:window-x="2871"
     inkscape:window-y="-11"
     inkscape:window-maximized="1"
     inkscape:current-layer="layer1"
     showgrid="false"
     units="px" /><defs
     id="defs1" /><g
     inkscape:label="Warstwa 1"
     inkscape:groupmode="layer"
     id="layer1"
     transform="translate(0,-292.76667)"><g
       style="fill:#000000"
       id="g8"
       transform="matrix(0.0033317,0,0,0.0033317,1.1477605,293.96481)"><g
         id="g2">&#10;	<g
   id="g1">&#10;		<path
   d="m 433.661,7.852 c -41.809,-19.495 -91.427,-1.445 -110.929,40.375 -4.316,9.255 -6.773,18.908 -7.542,28.537 -9.085,-1.93 -18.525,-1.309 -27.43,1.933 -9.565,3.485 -48.36,36.092 -106.085,81.814 l -48.184,-22.468 7.055,-15.131 c 3.896,-8.356 0.28,-18.289 -8.075,-22.186 -8.355,-3.894 -18.289,-0.281 -22.186,8.076 l -7.055,15.13 -15.131,-7.055 c -8.355,-3.895 -18.289,-0.281 -22.186,8.074 -3.896,8.357 -0.282,18.29 8.075,22.187 l 15.131,7.055 -7.055,15.131 c -3.896,8.356 -0.28,18.289 8.075,22.186 8.362,3.899 18.291,0.278 22.186,-8.076 l 7.055,-15.13 32.96,15.37 c -17.63,17.884 -19.49,46.252 -3.589,66.033 l 73.551,92.902 -22.173,47.551 -146.26,-68.202 c -8.356,-3.895 -18.288,-0.282 -22.186,8.076 -3.896,8.356 -0.28,18.289 8.075,22.186 268.784,125.337 193.365,89.854 329.912,155.027 0.045,0.022 0.09,0.042 0.135,0.065 25.03,11.673 54.888,0.801 66.558,-24.225 3.896,-8.356 0.282,-18.289 -8.075,-22.187 -8.358,-3.893 -18.289,-0.282 -22.187,8.075 -3.88,8.324 -13.794,11.946 -22.127,8.103 l -93.13,-44.45 35.281,-75.662 c 0.021,-0.042 0.041,-0.086 0.061,-0.129 8.041,-17.245 5.688,-37.216 -6.139,-52.121 l -39.787,-50.135 8.888,-7.11 c 18.27,8.52 20.97,9.778 87.442,40.774 25.065,11.687 54.915,0.746 66.557,-24.226 11.666,-25.02 0.796,-54.89 -24.226,-66.556 l -41.543,-19.372 -5.63,-15.469 c 39.788,13.479 84.13,-4.9 102.288,-43.841 C 493.531,76.97 475.477,27.35 433.661,7.852 Z M 293.894,325.469 c 3.697,4.659 4.817,11.045 2.03,17.261 l -35.276,75.651 -30.26,-14.111 26.527,-56.89 c 2.669,-5.725 1.88,-12.465 -2.041,-17.417 -0.046,-0.058 -80.037,-101.096 -80.084,-101.153 -5.585,-6.921 -4.432,-17.318 2.989,-23.206 0.755,-0.599 3.693,-2.917 8.129,-6.276 33.038,15.406 39.246,18.3 69.474,32.396 l -8.964,7.17 c -7.181,5.744 -8.365,16.211 -2.649,23.414 z m 110.92,-97.745 c 8.28,3.861 11.951,13.874 8.075,22.185 v 0.001 c -3.866,8.294 -13.889,11.945 -22.186,8.075 l -60.52,-28.22 c -4.009,-1.87 -7.064,-5.188 -8.845,-9.605 l -3.63,-9.974 c -3.893,-10.694 -17.142,-14.45 -26.065,-7.368 l -7.123,5.653 c -5.366,-2.502 -33.481,-15.613 -69.04,-32.193 25.617,-20.47 75.196,-60.51 84.645,-66.515 3.915,-1.169 8.105,-0.851 11.904,0.922 4.106,1.915 7.205,5.271 8.726,9.45 l 27.616,75.875 c 1.515,4.16 4.619,7.549 8.633,9.421 z m 38.96,-123.056 v 10e-4 c -11.697,25.084 -41.469,35.925 -66.556,24.225 -25.029,-11.67 -35.896,-41.528 -24.226,-66.557 11.652,-24.985 41.365,-35.972 66.557,-24.225 25.089,11.7 35.925,41.467 24.225,66.556 z"
   id="path1" />&#10;	</g>&#10;</g></g></g><style
     type="text/css"
     id="style1">&#10;	.st0{fill-rule:evenodd;clip-rule:evenodd;}&#10;</style><style
     type="text/css"
     id="style1-9">&#10;<![CDATA[
	.st0{fill:#D1D1D1;}
	.st1{fill:#454545;}
]]>&#10;</style></svg>
