<?xml version="1.0" encoding="UTF-8" standalone="no"?>
<!-- Created with Inkscape (http://www.inkscape.org/) -->

<svg
   width="16"
   height="16"
   viewBox="0 0 4.2333333 4.2333333"
   version="1.1"
   id="svg1"
   inkscape:version="1.3 (0e150ed6c4, 2023-07-21)"
   sodipodi:docname="2d08_ice_skating.svg"
   xml:space="preserve"
   inkscape:export-filename="..\icons_png\640b_military.png"
   inkscape:export-xdpi="300"
   inkscape:export-ydpi="300"
   xmlns:inkscape="http://www.inkscape.org/namespaces/inkscape"
   xmlns:sodipodi="http://sodipodi.sourceforge.net/DTD/sodipodi-0.dtd"
   xmlns="http://www.w3.org/2000/svg"
   xmlns:svg="http://www.w3.org/2000/svg"
   xmlns:rdf="http://www.w3.org/1999/02/22-rdf-syntax-ns#"
   xmlns:cc="http://creativecommons.org/ns#"
   xmlns:dc="http://purl.org/dc/elements/1.1/"><metadata
     id="metadata8"><rdf:RDF><cc:Work
         rdf:about=""><dc:format>image/svg+xml</dc:format><dc:type
           rdf:resource="http://purl.org/dc/dcmitype/StillImage" /></cc:Work></rdf:RDF></metadata><sodipodi:namedview
     id="namedview1"
     pagecolor="#ffffff"
     bordercolor="#666666"
     borderopacity="1.0"
     inkscape:showpageshadow="2"
     inkscape:pageopacity="0.0"
     inkscape:pagecheckerboard="0"
     inkscape:deskcolor="#d1d1d1"
     inkscape:document-units="mm"
     inkscape:zoom="25.781702"
     inkscape:cx="16.911219"
     inkscape:cy="24.843201"
     inkscape:window-width="2880"
     inkscape:window-height="1514"
     inkscape:window-x="2871"
     inkscape:window-y="-11"
     inkscape:window-maximized="1"
     inkscape:current-layer="layer1"
     showgrid="false"
     units="px" /><defs
     id="defs1" /><g
     inkscape:label="Warstwa 1"
     inkscape:groupmode="layer"
     id="layer1"
     transform="translate(0,-292.76667)"><g
       style="overflow:inherit"
       id="g8"
       transform="matrix(0.03282237,0,0,0.03282237,1.2884995,293.87931)"><path
         d="M 43.633,9.803 C 46.05,9.803 48,7.828 48,5.401 48,2.969 46.05,1 43.633,1 c -2.404,0 -4.354,1.969 -4.354,4.401 -0.001,2.427 1.95,4.402 4.354,4.402 z M 31,48 h 12 c 0,0 1,-0.103 1,-1 v -1 h 1 c 0,0 0.411,2.709 -1.857,3 H 31 Z m -28,-9 8,8 c 0,0 0.659,0.248 1.291,-0.384 L 12.923,45.979 14,47 c 0,0 -1.795,2.62 -3.604,1.207 L 2,39.727 Z m 30.905,-3.248 0.014,7.968 c 0,1.498 1.056,2.711 2.54,2.711 C 37.82,46.431 39,44.846 39,43.72 V 32.632 c 0,-0.772 -0.174,-1.473 -0.688,-1.967 l -6.38,-6.488 8.586,-8.63 c 1.607,-2.024 0.778,-4.451 0.778,-4.451 C 40.413,8.404 37.394,8.311 37.394,8.311 L 15.365,8.305 c -1.171,0 -2.126,0.959 -2.126,2.147 0,1.195 0.958,2.148 2.13,2.148 l 15.212,0.024 -6.402,6.438 c -0.919,0.947 -1.385,2.012 -1.385,3.404 0,1.337 0.527,2.532 1.411,3.405 z M 22.842,27.086 C 22.634,26.888 22.449,26.672 22.279,26.442 L 9.567,39.3 c -0.962,0.78 -1.275,2.154 -0.698,3.299 0.662,1.312 2.263,1.833 3.562,1.158 0.178,-0.094 0.338,-0.205 0.491,-0.328 L 25.97,30.237 Z"
         fill="#231f20"
         id="path1" /></g></g><style
     type="text/css"
     id="style1">&#10;	.st0{fill-rule:evenodd;clip-rule:evenodd;}&#10;</style><style
     type="text/css"
     id="style1-9">&#10;<![CDATA[
	.st0{fill:#D1D1D1;}
	.st1{fill:#454545;}
]]>&#10;</style></svg>
