<?xml version="1.0" encoding="UTF-8" standalone="no"?>
<!-- Created with Inkscape (http://www.inkscape.org/) -->

<svg
   width="16"
   height="16"
   viewBox="0 0 4.2333333 4.2333333"
   version="1.1"
   id="svg1"
   inkscape:version="1.3 (0e150ed6c4, 2023-07-21)"
   sodipodi:docname="2d0b_public_sport_airport.svg"
   xml:space="preserve"
   inkscape:export-filename="..\icons_png\6513_swamp.png"
   inkscape:export-xdpi="300"
   inkscape:export-ydpi="300"
   xmlns:inkscape="http://www.inkscape.org/namespaces/inkscape"
   xmlns:sodipodi="http://sodipodi.sourceforge.net/DTD/sodipodi-0.dtd"
   xmlns="http://www.w3.org/2000/svg"
   xmlns:svg="http://www.w3.org/2000/svg"
   xmlns:rdf="http://www.w3.org/1999/02/22-rdf-syntax-ns#"
   xmlns:cc="http://creativecommons.org/ns#"
   xmlns:dc="http://purl.org/dc/elements/1.1/"><metadata
     id="metadata8"><rdf:RDF><cc:Work
         rdf:about=""><dc:format>image/svg+xml</dc:format><dc:type
           rdf:resource="http://purl.org/dc/dcmitype/StillImage" /></cc:Work></rdf:RDF></metadata><sodipodi:namedview
     id="namedview1"
     pagecolor="#ffffff"
     bordercolor="#666666"
     borderopacity="1.0"
     inkscape:showpageshadow="2"
     inkscape:pageopacity="0.0"
     inkscape:pagecheckerboard="0"
     inkscape:deskcolor="#d1d1d1"
     inkscape:document-units="mm"
     inkscape:zoom="25.781702"
     inkscape:cx="13.57552"
     inkscape:cy="15.456699"
     inkscape:window-width="2880"
     inkscape:window-height="1514"
     inkscape:window-x="2871"
     inkscape:window-y="-11"
     inkscape:window-maximized="1"
     inkscape:current-layer="layer1"
     showgrid="false"
     units="px" /><defs
     id="defs1" /><g
     inkscape:label="Warstwa 1"
     inkscape:groupmode="layer"
     id="layer1"
     transform="translate(0,-292.76667)"><g
       style="fill:#000000"
       id="g7"
       transform="matrix(0.0120824,0,0,0.0120824,1.3043771,294.19349)"><g
         id="g1">&#10;	<path
   class="st0"
   d="m 16.63,105.75 c 0.01,-4.03 2.3,-7.97 6.03,-12.38 L 1.09,79.73 c -1.36,-0.59 -1.33,-1.42 -0.54,-2.4 l 4.57,-3.9 C 5.95,72.92 6.83,72.7 7.78,72.96 L 34.4,77.46 56.58,53.44 4.8,18.41 C 3.49,17.64 3.38,16.77 4.73,15.76 L 12.2,9.8 79.7,28.77 99.64,7.45 c 6.69,-5.79 13.19,-8.38 18.18,-7.15 2.75,0.68 3.72,1.5 4.57,4.08 1.65,5.06 -0.91,11.86 -6.96,18.86 l -21.32,19.94 18.97,67.5 -5.96,7.47 c -1.01,1.34 -1.88,1.23 -2.65,-0.07 L 69.43,66.31 45.41,88.48 l 4.5,26.62 c 0.26,0.94 0.05,1.82 -0.47,2.66 l -3.9,4.57 c -0.97,0.79 -1.81,0.82 -2.4,-0.54 L 29.5,100.22 c -4.43,3.74 -8.37,6.03 -12.42,6.03 -0.37,-0.01 -0.45,-0.14 -0.45,-0.5 z"
   id="path1" />&#10;</g></g></g><style
     type="text/css"
     id="style1">&#10;	.st0{fill-rule:evenodd;clip-rule:evenodd;}&#10;</style></svg>
