<?xml version="1.0" encoding="UTF-8" standalone="no"?>
<!-- Created with Inkscape (http://www.inkscape.org/) -->

<svg
   width="16"
   height="16"
   viewBox="0 0 4.2333333 4.2333333"
   version="1.1"
   id="svg1"
   inkscape:version="1.3 (0e150ed6c4, 2023-07-21)"
   sodipodi:docname="2f07.svg"
   inkscape:export-filename="..\icons_png\2f07.png"
   inkscape:export-xdpi="300"
   inkscape:export-ydpi="300"
   xmlns:inkscape="http://www.inkscape.org/namespaces/inkscape"
   xmlns:sodipodi="http://sodipodi.sourceforge.net/DTD/sodipodi-0.dtd"
   xmlns="http://www.w3.org/2000/svg"
   xmlns:svg="http://www.w3.org/2000/svg"
   xmlns:rdf="http://www.w3.org/1999/02/22-rdf-syntax-ns#"
   xmlns:cc="http://creativecommons.org/ns#"
   xmlns:dc="http://purl.org/dc/elements/1.1/">
  <metadata
     id="metadata8">
    <rdf:RDF>
      <cc:Work
         rdf:about="">
        <dc:format>image/svg+xml</dc:format>
        <dc:type
           rdf:resource="http://purl.org/dc/dcmitype/StillImage" />
        <dc:title />
      </cc:Work>
    </rdf:RDF>
  </metadata>
  <sodipodi:namedview
     id="namedview1"
     pagecolor="#ffffff"
     bordercolor="#666666"
     borderopacity="1.0"
     inkscape:showpageshadow="2"
     inkscape:pageopacity="0.0"
     inkscape:pagecheckerboard="0"
     inkscape:deskcolor="#d1d1d1"
     inkscape:document-units="mm"
     inkscape:zoom="12.890851"
     inkscape:cx="-4.7320382"
     inkscape:cy="33.085481"
     inkscape:window-width="2880"
     inkscape:window-height="1514"
     inkscape:window-x="2871"
     inkscape:window-y="-11"
     inkscape:window-maximized="1"
     inkscape:current-layer="layer1"
     showgrid="false"
     units="px" />
  <defs
     id="defs1" />
  <g
     inkscape:label="Warstwa 1"
     inkscape:groupmode="layer"
     id="layer1"
     transform="translate(0,-292.76667)">
    <path
       d="m 2.8591382,294.5096 c -0.021966,-0.0173 -0.080872,-0.0312 -0.1249631,-0.0415 l -0.059672,-0.008 v -0.14424 l 0.030555,-5.2e-4 c 0.028638,0.0146 0.069889,0.0384 0.072028,0.0703 h 0.1150656 c -0.00214,-0.0639 -0.050637,-0.10415 -0.093802,-0.13613 -0.028639,-0.0212 -0.059991,-0.0326 -0.1238457,-0.0394 v -0.0799 h -0.063855 v 0.0774 c -0.063854,0.006 -0.084479,0.0221 -0.1133095,0.048 -0.037706,0.0339 -0.0545,0.0765 -0.0545,0.12781 0,0.0562 0.016059,0.0975 0.054659,0.12391 0.021583,0.015 0.049296,0.0289 0.1131501,0.0418 v 0.15629 c -0.031927,-0.006 -0.031991,-0.004 -0.043261,-0.0176 -0.010855,-0.013 -0.013825,-0.0468 -0.017528,-0.0468 H 2.4356875 c 0,0.0639 0.017273,0.0944 0.060502,0.12851 0.031161,0.0246 0.050605,0.0289 0.1144589,0.0353 v 0.0597 h 0.063854 v -0.0586 c 0.063855,-0.006 0.1180989,-0.0224 0.1492916,-0.049 0.040484,-0.0346 0.073592,-0.078 0.073592,-0.13033 -3.19e-5,-0.051 -0.00412,-0.09 -0.038248,-0.11696 z m -0.2798419,-0.089 c -0.018581,-0.0101 -0.025733,-0.0255 -0.025733,-0.0459 0,-0.0223 0.00616,-0.0397 0.024999,-0.0521 0.00993,-0.007 1.585e-4,-0.0113 0.032087,-0.0145 v 0.1258 c -0.031927,-0.005 -0.024328,-0.009 -0.031353,-0.0132 z m 0.1386598,0.2816 c -0.00537,0.002 -0.043453,0.003 -0.043453,0.005 v -0.13304 c 0.063855,0.006 0.058938,0.0115 0.069538,0.0178 0.016635,0.0103 0.024999,0.0251 0.024999,0.0439 0,0.0325 -0.017081,0.0547 -0.051083,0.0666 z m -0.1545596,0.38577 h -0.017656 l -0.196161,-0.35519 c -0.00846,-0.0154 -0.029788,-0.0279 -0.047348,-0.0279 H 1.7070766 c -0.01756,0 -0.038887,0.0125 -0.047348,0.0279 l -0.1961607,0.35519 h -0.017624 c -0.035152,0 -0.080457,0.0288 -0.080457,0.0639 v 0.31927 c 0,0.0352 0.045305,0.0639 0.080457,0.0639 h 0.047252 v 0.0958 c 0,0.0527 0.059704,0.0958 0.1123839,0.0958 h 0.031927 c 0.05268,0 0.07918,-0.0431 0.07918,-0.0958 v -0.0958 h 0.5427625 v 0.0958 c 0,0.0527 0.059672,0.0958 0.1123838,0.0958 h 0.031927 c 0.05268,0 0.079179,-0.0431 0.079179,-0.0958 v -0.0958 h 0.080457 c 0.035119,0 0.047252,-0.0287 0.047252,-0.0639 v -0.31927 c 0,-0.0352 -0.012164,-0.0639 -0.047252,-0.0639 z m -1.0057073,0.25542 c -0.044091,0 -0.079818,-0.0357 -0.079818,-0.0798 0,-0.0441 0.035727,-0.0798 0.079818,-0.0798 0.044091,0 0.079818,0.0357 0.079818,0.0798 0,0.0441 -0.035758,0.0798 -0.079818,0.0798 z m 0.063855,-0.25542 0.129401,-0.25877 c 0.00782,-0.0157 0.028639,-0.0285 0.046199,-0.0285 H 2.212198 c 0.01756,0 0.038344,0.0128 0.046199,0.0285 l 0.1294009,0.25877 z m 0.8301076,0.25542 c -0.044091,0 -0.079818,-0.0357 -0.079818,-0.0798 0,-0.0441 0.035727,-0.0798 0.079818,-0.0798 0.044091,0 0.079818,0.0357 0.079818,0.0798 0,0.0441 -0.035758,0.0798 -0.079818,0.0798 z"
       id="path1"
       style="stroke-width:0.0319271"
       inkscape:connector-curvature="0"
       inkscape:export-filename="..\icons_png\2f07.png"
       inkscape:export-xdpi="300"
       inkscape:export-ydpi="300" />
  </g>
</svg>
