<?xml version="1.0" encoding="UTF-8" standalone="no"?>
<!-- Created with Inkscape (http://www.inkscape.org/) -->

<svg
   xmlns:dc="http://purl.org/dc/elements/1.1/"
   xmlns:cc="http://creativecommons.org/ns#"
   xmlns:rdf="http://www.w3.org/1999/02/22-rdf-syntax-ns#"
   xmlns:svg="http://www.w3.org/2000/svg"
   xmlns="http://www.w3.org/2000/svg"
   xmlns:sodipodi="http://sodipodi.sourceforge.net/DTD/sodipodi-0.dtd"
   xmlns:inkscape="http://www.inkscape.org/namespaces/inkscape"
   width="16"
   height="16"
   viewBox="0 0 4.2333333 4.2333333"
   version="1.1"
   id="svg1"
   inkscape:version="0.92.5 (2060ec1f9f, 2020-04-08)"
   sodipodi:docname="2f07.svg">
  <metadata
     id="metadata8">
    <rdf:RDF>
      <cc:Work
         rdf:about="">
        <dc:format>image/svg+xml</dc:format>
        <dc:type
           rdf:resource="http://purl.org/dc/dcmitype/StillImage" />
        <dc:title></dc:title>
      </cc:Work>
    </rdf:RDF>
  </metadata>
  <sodipodi:namedview
     id="namedview1"
     pagecolor="#ffffff"
     bordercolor="#666666"
     borderopacity="1.0"
     inkscape:showpageshadow="2"
     inkscape:pageopacity="0.0"
     inkscape:pagecheckerboard="0"
     inkscape:deskcolor="#d1d1d1"
     inkscape:document-units="mm"
     inkscape:zoom="12.890851"
     inkscape:cx="-4.7638994"
     inkscape:cy="33.06119"
     inkscape:window-width="1920"
     inkscape:window-height="1055"
     inkscape:window-x="1366"
     inkscape:window-y="0"
     inkscape:window-maximized="1"
     inkscape:current-layer="layer1"
     showgrid="false"
     units="px" />
  <defs
     id="defs1" />
  <g
     inkscape:label="Warstwa 1"
     inkscape:groupmode="layer"
     id="layer1"
     transform="translate(0,-292.76667)">
    <path
       d="m 3.2524245,294.12617 c -0.03185,-0.0251 -0.1172631,-0.0452 -0.1811955,-0.0602 l -0.086524,-0.0116 v -0.20915 l 0.044304,-7.5e-4 c 0.041525,0.0211 0.1013381,0.0556 0.1044399,0.10189 h 0.1668442 c -0.0031,-0.0926 -0.073423,-0.15101 -0.1360124,-0.19739 -0.041526,-0.0308 -0.086987,-0.0472 -0.1795754,-0.0572 v -0.11578 h -0.092588 v 0.11221 c -0.092588,0.009 -0.1224945,0.032 -0.1642979,0.0696 -0.054674,0.0492 -0.079024,0.11097 -0.079024,0.18532 0,0.0815 0.023286,0.14133 0.079255,0.17967 0.031295,0.0217 0.071479,0.0419 0.1640667,0.0606 v 0.22662 c -0.046294,-0.008 -0.046386,-0.006 -0.062728,-0.0255 -0.01574,-0.0188 -0.020046,-0.0678 -0.025416,-0.0678 H 2.6384244 c 0,0.0926 0.025046,0.13694 0.087728,0.18634 0.045183,0.0356 0.073376,0.0419 0.1659645,0.0512 v 0.0865 h 0.092588 v -0.085 c 0.092589,-0.009 0.1712425,-0.0325 0.2164717,-0.0711 0.058701,-0.0501 0.1067082,-0.11315 0.1067082,-0.18898 -4.62e-5,-0.074 -0.00597,-0.13045 -0.05546,-0.16958 z M 2.8466559,293.9972 c -0.026943,-0.0146 -0.037313,-0.0369 -0.037313,-0.0666 0,-0.0323 0.00893,-0.0576 0.036248,-0.0756 0.014398,-0.01 2.299e-4,-0.0164 0.046526,-0.021 v 0.18241 c -0.046294,-0.007 -0.035276,-0.0134 -0.045461,-0.0192 z m 0.2010556,0.40831 c -0.00778,0.003 -0.063007,0.005 -0.063007,0.007 v -0.19291 c 0.092589,0.008 0.085459,0.0166 0.1008288,0.0258 0.02412,0.015 0.036249,0.0364 0.036249,0.0637 0,0.0471 -0.024767,0.0793 -0.07407,0.0966 z m -0.2241101,0.55937 h -0.025601 l -0.2844319,-0.51502 c -0.012268,-0.0223 -0.043192,-0.0405 -0.068654,-0.0405 H 1.5819443 c -0.025462,0 -0.056386,0.0182 -0.068654,0.0405 l -0.2844315,0.51502 h -0.025554 c -0.05097,0 -0.1166614,0.0417 -0.1166614,0.0926 v 0.46293 c 0,0.051 0.065692,0.0926 0.1166614,0.0926 h 0.068515 v 0.13888 c 0,0.0764 0.08657,0.13888 0.1629557,0.13888 h 0.046294 c 0.076385,0 0.1148097,-0.0625 0.1148097,-0.13888 v -0.13888 h 0.7870013 v 0.13888 c 0,0.0764 0.086524,0.13888 0.1629556,0.13888 h 0.046294 c 0.076385,0 0.1148093,-0.0625 0.1148093,-0.13888 v -0.13888 h 0.1166617 c 0.050923,0 0.068515,-0.0416 0.068515,-0.0926 v -0.46293 c 0,-0.051 -0.017638,-0.0926 -0.068515,-0.0926 z m -1.4582676,0.37036 c -0.063932,0 -0.1157355,-0.0518 -0.1157355,-0.11574 0,-0.0639 0.051804,-0.11573 0.1157355,-0.11573 0.063932,0 0.1157357,0.0518 0.1157357,0.11573 0,0.0639 -0.051849,0.11574 -0.1157357,0.11574 z m 0.092589,-0.37036 0.1876303,-0.37522 c 0.011343,-0.0228 0.041526,-0.0414 0.066988,-0.0414 h 0.6018247 c 0.025462,0 0.055599,0.0186 0.066988,0.0414 l 0.1876303,0.37522 z m 1.2036493,0.37036 c -0.063932,0 -0.1157355,-0.0518 -0.1157355,-0.11574 0,-0.0639 0.051804,-0.11573 0.1157355,-0.11573 0.063932,0 0.1157352,0.0518 0.1157352,0.11573 0,0.0639 -0.051849,0.11574 -0.1157352,0.11574 z"
       id="path1"
       style="stroke-width:0.04629406"
       inkscape:connector-curvature="0" />
  </g>
</svg>
