<?xml version="1.0" encoding="UTF-8" standalone="no"?>
<!-- Created with Inkscape (http://www.inkscape.org/) -->

<svg
   width="210mm"
   height="297mm"
   viewBox="0 0 210 297"
   version="1.1"
   id="svg1"
   inkscape:version="1.3 (0e150ed6c4, 2023-07-21)"
   sodipodi:docname="2f07.svg"
   xmlns:inkscape="http://www.inkscape.org/namespaces/inkscape"
   xmlns:sodipodi="http://sodipodi.sourceforge.net/DTD/sodipodi-0.dtd"
   xmlns="http://www.w3.org/2000/svg"
   xmlns:svg="http://www.w3.org/2000/svg">
  <sodipodi:namedview
     id="namedview1"
     pagecolor="#ffffff"
     bordercolor="#666666"
     borderopacity="1.0"
     inkscape:showpageshadow="2"
     inkscape:pageopacity="0.0"
     inkscape:pagecheckerboard="0"
     inkscape:deskcolor="#d1d1d1"
     inkscape:document-units="mm"
     inkscape:zoom="0.5697005"
     inkscape:cx="-48.270977"
     inkscape:cy="562.5763"
     inkscape:window-width="1903"
     inkscape:window-height="1266"
     inkscape:window-x="3102"
     inkscape:window-y="154"
     inkscape:window-maximized="0"
     inkscape:current-layer="layer1" />
  <defs
     id="defs1" />
  <g
     inkscape:label="Warstwa 1"
     inkscape:groupmode="layer"
     id="layer1">
    <rect
       style="fill:none;stroke:#000000;stroke-width:0.522789;stroke-linecap:square;stroke-dasharray:none"
       id="rect4"
       width="159.47722"
       height="159.47722"
       x="24.416059"
       y="30.235018" />
    <path
       d="m 149.74962,83.733907 c -1.3763,-1.08423 -5.0671,-1.95442 -7.82971,-2.60256 l -3.73882,-0.50012 V 71.59326 l 1.91442,-0.03001 c 1.79439,0.910199 4.37896,2.402528 4.51299,4.402963 h 7.20957 c -0.13403,-4.000876 -3.17269,-6.525425 -5.87728,-8.529863 -1.7944,-1.33029 -3.75882,-2.040444 -7.7597,-2.470539 v -5.00309 h -4.00087 v 4.849056 c -4.00087,0.384084 -5.29316,1.380302 -7.09954,3.006657 -2.36252,2.126464 -3.41475,4.79504 -3.41475,8.007745 0,3.520773 1.00622,6.107338 3.42474,7.763698 1.3523,0.9382 3.08868,1.81039 7.08955,2.61857 v 9.79214 c -2.00044,-0.35408 -2.00443,-0.26406 -2.71058,-1.10224 -0.68016,-0.81218 -0.86619,-2.92865 -1.09825,-2.92865 h -7.15356 c 0,4.00088 1.08224,5.9173 3.79083,8.051773 1.95243,1.53833 3.17069,1.81038 7.17156,2.21448 v 3.7368 h 4.00087 v -3.67279 c 4.00088,-0.38608 7.39962,-1.40431 9.35404,-3.072673 2.53655,-2.16647 4.61101,-4.88907 4.61101,-8.16579 -0.002,-3.19669 -0.25806,-5.63722 -2.39652,-7.32759 z M 132.2158,78.160695 c -1.16426,-0.634146 -1.61235,-1.59435 -1.61235,-2.876627 0,-1.396307 0.38608,-2.488543 1.56633,-3.268716 0.62214,-0.410089 0.01,-0.708154 2.01044,-0.906198 v 7.881722 c -2.00044,-0.304072 -1.52432,-0.580133 -1.96442,-0.830181 z m 8.68789,17.643842 c -0.33607,0.11602 -2.7226,0.20805 -2.7226,0.29006 v -8.33582 c 4.00088,0.34408 3.69281,0.71417 4.35695,1.11626 1.04223,0.64814 1.56634,1.57234 1.56634,2.75459 0,2.03245 -1.07023,3.42675 -3.20069,4.17491 z m -9.68411,24.171273 h -1.10624 L 117.82265,97.720957 c -0.53011,-0.96221 -1.8664,-1.75038 -2.96664,-1.75038 H 77.565869 c -1.100237,0 -2.436527,0.78817 -2.966653,1.75038 L 62.308543,119.97581 h -1.104238 c -2.202481,0 -5.041103,1.80039 -5.041103,4.00087 v 20.00436 c 0,2.20048 2.838622,4.00087 5.041103,4.00087 h 2.960643 v 6.00131 c 0,3.30072 3.740819,6.00131 7.041538,6.00131 h 2.00044 c 3.300712,0 4.961083,-2.70059 4.961083,-6.00131 v -6.00131 h 34.007411 v 6.00131 c 0,3.30072 3.73882,6.00131 7.04154,6.00131 h 2.00044 c 3.30072,0 4.96107,-2.70059 4.96107,-6.00131 v -6.00131 h 5.04111 c 2.20047,0 2.96064,-1.80039 2.96064,-4.00087 v -20.00436 c 0,-2.20048 -0.76216,-4.00087 -2.96064,-4.00087 z m -63.013749,16.00348 c -2.762604,0 -5.001094,-2.23848 -5.001094,-5.00109 0,-2.7626 2.23849,-5.00108 5.001094,-5.00108 2.762602,0 5.001095,2.23848 5.001095,5.00108 0,2.76261 -2.240494,5.00109 -5.001095,5.00109 z m 4.00087,-16.00348 8.107768,-16.21354 c 0.49011,-0.98621 1.79439,-1.79038 2.89464,-1.79038 h 26.005671 c 1.10024,0 2.40252,0.80417 2.89463,1.79038 l 8.10776,16.21354 z m 52.011349,16.00348 c -2.7626,0 -5.00109,-2.23848 -5.00109,-5.00109 0,-2.7626 2.23849,-5.00108 5.00109,-5.00108 2.7626,0 5.00108,2.23848 5.00108,5.00108 0,2.76261 -2.24048,5.00109 -5.00108,5.00109 z"
       id="path1"
       style="stroke-width:2.00043" />
  </g>
</svg>
