<?xml version="1.0" encoding="UTF-8" standalone="no"?>
<!-- Uploaded to: SVG Repo, www.svgrepo.com, Generator: SVG Repo Mixer Tools -->

<svg
   width="16"
   height="16"
   viewBox="0 0 0.4 0.4"
   version="1.1"
   id="svg1"
   sodipodi:docname="2f0a.svg"
   inkscape:version="1.3 (0e150ed6c4, 2023-07-21)"
   xmlns:inkscape="http://www.inkscape.org/namespaces/inkscape"
   xmlns:sodipodi="http://sodipodi.sourceforge.net/DTD/sodipodi-0.dtd"
   xmlns="http://www.w3.org/2000/svg"
   xmlns:svg="http://www.w3.org/2000/svg"
   xmlns:rdf="http://www.w3.org/1999/02/22-rdf-syntax-ns#"
   xmlns:cc="http://creativecommons.org/ns#"
   xmlns:dc="http://purl.org/dc/elements/1.1/">
  <sodipodi:namedview
     id="namedview1"
     pagecolor="#ffffff"
     bordercolor="#666666"
     borderopacity="1.0"
     inkscape:showpageshadow="2"
     inkscape:pageopacity="0.0"
     inkscape:pagecheckerboard="0"
     inkscape:deskcolor="#d1d1d1"
     inkscape:zoom="102.32"
     inkscape:cx="6.381939"
     inkscape:cy="6.9732213"
     inkscape:window-width="1920"
     inkscape:window-height="974"
     inkscape:window-x="-11"
     inkscape:window-y="1609"
     inkscape:window-maximized="1"
     inkscape:current-layer="svg1"
     showgrid="false" />
  <title
     id="title1">hospital [#1213]</title>
  <desc
     id="desc1">Created with Sketch.</desc>
  <defs
     id="defs1" />
  <path
     id="rect2"
     style="fill:#ffffff;stroke:#ffffff;stroke-width:0.0250393;stroke-linecap:square"
     d="m 0.1505082,0.13047302 0.0359167,-0.002932 -9.7733e-4,0.0295641 -0.0488663,-0.001955 z"
     sodipodi:nodetypes="ccccc" />
  <circle
     style="fill:#ffffff;stroke:#ffffff;stroke-width:0.0250393;stroke-linecap:square;fill-opacity:1;stroke-opacity:1"
     id="path2"
     cx="0.077819586"
     cy="0.22735047"
     r="0.016492378" />
  <circle
     style="fill:#ffffff;fill-opacity:1;stroke:#ffffff;stroke-width:0.0250393;stroke-linecap:square;stroke-opacity:1"
     id="path2-0"
     cx="0.30223328"
     cy="0.22721374"
     r="0.016492378" />
  <path
     style="stroke:#000000;stroke-width:0;stroke-linecap:round;stroke-linejoin:round"
     d="m 0.36362566,0.22126674 -0.0250992,-0.0263692 c -8.8326e-4,-9.3917e-4 -0.002104,-0.001461 -0.003384,-0.001461 h -0.0109152 c 0,-5.56e-6 8e-7,-1.043e-5 8e-7,-1.6e-5 v -0.006071 c 0,-0.002955 -0.002406,-0.005376 -0.005372,-0.005376 -0.00297,0 -0.005372,0.002399 -0.005372,0.005376 v 0.006071 c 0,5.57e-6 8e-7,1.044e-5 8e-7,1.6e-5 h -0.0705443 v -0.017401 l 0.0743464,-0.0743463 c 0.003649,-0.0036481 0.003649,-0.0095663 0,-0.01321411 -0.003648,-0.0036481 -0.009565,-0.0036481 -0.0132138,0 l -0.0752663,0.07528014 h -0.0120287 v 0.0296936 h -0.010057 v -0.0810848 c 0,-0.002574 -0.002094,-0.004674 -0.004672,-0.004674 h -0.005923 v -0.003025 c 0,-0.002955 -0.002406,-0.0053688 -0.005372,-0.0053688 -0.00297,0 -0.005372,0.0023991 -0.005372,0.0053688 v 0.003025 h -0.041411 c -0.001332,0 -0.002605,5.9116e-4 -0.003492,0.001565 L 0.09589299,0.15940589 H 0.07153405 c -4.2424e-4,-1.425e-5 -8.4154e-4,-1.808e-5 -0.0012552,-1.808e-5 -0.02308238,0 -0.03229021,0.0169072 -0.03401187,0.0261049 l -0.0013077,0.00444 h -0.0050822 c -0.0031469,0 -0.0056964,0.002539 -0.0056964,0.005696 v 0.0278297 c 0,0.002434 0.0015125,0.004482 0.0036427,0.005307 5.7726e-4,2.4724e-4 0.0012,3.8252e-4 0.0018463,3.8252e-4 h 2.0916e-4 0.01460478 c 0.0012801,0.0173627 0.01580897,0.031102 0.03349618,0.031102 0.01768543,0 0.0322133,-0.0137392 0.03349439,-0.031102 h 0.15734497 c 0.00128,0.0173627 0.0158083,0.031102 0.0334944,0.031102 0.0176871,0 0.0322147,-0.0137392 0.0334955,-0.031102 h 0.0244312 c 0.001871,0 0.003558,-0.001113 0.004293,-0.002817 7.3721e-4,-0.001704 3.7904e-4,-0.00371 -9.1068e-4,-0.005063 z m -0.28564397,0.0222589 c -0.0092972,0 -0.01686056,-0.007563 -0.01686056,-0.0168585 0,-0.009295 0.0075632,-0.0168585 0.01686056,-0.0168585 0.0092954,0 0.01685817,0.007563 0.01685817,0.0168585 0,0.009295 -0.0075623,0.0168585 -0.01685817,0.0168585 z m 0.10774423,-0.0872448 h -0.0557948 l 0.0272796,-0.0317696 h 0.0285151 z m 0.11658897,0.0872437 c -0.009296,0 -0.0168582,-0.007563 -0.0168582,-0.0168585 0,-0.009295 0.007562,-0.0168585 0.0168582,-0.0168585 0.009297,0 0.0168606,0.007563 0.0168606,0.0168585 0,0.009295 -0.007563,0.0168585 -0.0168606,0.0168585 z"
     id="path1" />
  <metadata
     id="metadata1">
    <rdf:RDF>
      <cc:Work
         rdf:about="">
        <dc:title>hospital [#1213]</dc:title>
      </cc:Work>
    </rdf:RDF>
  </metadata>
</svg>
