<?xml version="1.0" encoding="UTF-8" standalone="no"?>
<!-- Uploaded to: SVG Repo, www.svgrepo.com, Generator: SVG Repo Mixer Tools -->

<svg
   xmlns:dc="http://purl.org/dc/elements/1.1/"
   xmlns:cc="http://creativecommons.org/ns#"
   xmlns:rdf="http://www.w3.org/1999/02/22-rdf-syntax-ns#"
   xmlns:svg="http://www.w3.org/2000/svg"
   xmlns="http://www.w3.org/2000/svg"
   xmlns:sodipodi="http://sodipodi.sourceforge.net/DTD/sodipodi-0.dtd"
   xmlns:inkscape="http://www.inkscape.org/namespaces/inkscape"
   version="1.1"
   id="Layer_1"
   viewBox="0 0 16 16"
   enable-background="new 0 0 32 32"
   xml:space="preserve"
   sodipodi:docname="2f11_business_services.svg"
   width="16"
   height="16"
   inkscape:version="0.92.5 (2060ec1f9f, 2020-04-08)"><metadata
   id="metadata43"><rdf:RDF><cc:Work
       rdf:about=""><dc:format>image/svg+xml</dc:format><dc:type
         rdf:resource="http://purl.org/dc/dcmitype/StillImage" /><dc:title></dc:title></cc:Work></rdf:RDF></metadata><defs
   id="defs41" /><sodipodi:namedview
   pagecolor="#ffffff"
   bordercolor="#666666"
   borderopacity="1"
   objecttolerance="10"
   gridtolerance="10"
   guidetolerance="10"
   inkscape:pageopacity="0"
   inkscape:pageshadow="2"
   inkscape:window-width="1920"
   inkscape:window-height="1055"
   id="namedview39"
   showgrid="false"
   inkscape:zoom="41.7193"
   inkscape:cx="11.847139"
   inkscape:cy="5.7656786"
   inkscape:window-x="1366"
   inkscape:window-y="0"
   inkscape:window-maximized="1"
   inkscape:current-layer="Layer_1" />


















<path
   style="stroke-width:0.46379274"
   inkscape:connector-curvature="0"
   id="Path_109"
   data-name="Path 109"
   d="M 12.011362,11.207594 H 5.0544712 A 0.23189636,0.23189636 0 0 1 4.8225746,10.975698 V 4.0188068 A 0.23189636,0.23189636 0 0 1 5.0544712,3.7869101 h 1.8551712 a 0.23189636,0.23189636 0 0 1 0.2318954,0.2318967 v 3.7989256 l 2.446971,-1.2234855 a 0.23189636,0.23189636 0 0 1 0.225867,0.010206 0.23189636,0.23189636 0 0 1 0.109918,0.1971119 v 0.9818493 l 1.9678732,-1.180814 a 0.23189636,0.23189636 0 0 1 0.231897,-0.00283 0.23189636,0.23189636 0 0 1 0.119194,0.2017498 v 4.1741361 a 0.23189636,0.23189636 0 0 1 -0.231896,0.231931 z M 5.2863665,10.743801 H 11.779465 V 7.2110917 L 9.8115928,8.3919073 a 0.23189636,0.23189636 0 0 1 -0.231896,0.00283 0.23189636,0.23189636 0 0 1 -0.119195,-0.2017498 V 7.1768116 L 7.0135315,8.4002971 A 0.23189636,0.23189636 0 0 1 6.7876646,8.3900913 0.23189636,0.23189636 0 0 1 6.6777453,8.1929795 V 4.2507082 H 5.2863665 Z" /></svg>