<?xml version="1.0" encoding="UTF-8" standalone="no"?>
<!-- Uploaded to: SVG Repo, www.svgrepo.com, Generator: SVG Repo Mixer Tools -->

<svg
   xmlns:dc="http://purl.org/dc/elements/1.1/"
   xmlns:cc="http://creativecommons.org/ns#"
   xmlns:rdf="http://www.w3.org/1999/02/22-rdf-syntax-ns#"
   xmlns:svg="http://www.w3.org/2000/svg"
   xmlns="http://www.w3.org/2000/svg"
   xmlns:sodipodi="http://sodipodi.sourceforge.net/DTD/sodipodi-0.dtd"
   xmlns:inkscape="http://www.inkscape.org/namespaces/inkscape"
   version="1.1"
   id="Layer_1"
   viewBox="0 0 16 16"
   enable-background="new 0 0 32 32"
   xml:space="preserve"
   sodipodi:docname="2f13_repair_services.svg"
   width="16"
   height="16"
   inkscape:version="0.92.5 (2060ec1f9f, 2020-04-08)"><metadata
   id="metadata43"><rdf:RDF><cc:Work
       rdf:about=""><dc:format>image/svg+xml</dc:format><dc:type
         rdf:resource="http://purl.org/dc/dcmitype/StillImage" /><dc:title></dc:title></cc:Work></rdf:RDF></metadata><defs
   id="defs41" /><sodipodi:namedview
   pagecolor="#ffffff"
   bordercolor="#666666"
   borderopacity="1"
   objecttolerance="10"
   gridtolerance="10"
   guidetolerance="10"
   inkscape:pageopacity="0"
   inkscape:pageshadow="2"
   inkscape:window-width="1920"
   inkscape:window-height="1055"
   id="namedview39"
   showgrid="false"
   inkscape:zoom="14.75"
   inkscape:cx="25.149751"
   inkscape:cy="-5.7563923"
   inkscape:window-x="1366"
   inkscape:window-y="0"
   inkscape:window-maximized="1"
   inkscape:current-layer="Layer_1" />


















<g
   style="fill:#000000"
   id="g977"
   transform="matrix(0.0072272,0,0,0.0072272,4.0954157,4.1376107)"><path
     id="path957"
     d="m 187.698,120.105 c 41.846,-15.492 89.309,-5.554 121.432,26.561 44.941,44.941 44.941,117.826 -0.002,162.769 -44.953,44.953 -117.828,44.953 -162.781,0 -32.25,-32.25 -42.125,-79.975 -26.367,-121.934 3.977,-10.589 -1.383,-22.396 -11.972,-26.373 -10.589,-3.977 -22.396,1.383 -26.373,11.972 -21.357,56.869 -7.968,121.581 35.749,165.298 60.949,60.949 159.758,60.949 220.707,0 60.939,-60.939 60.939,-159.758 0,-220.697 C 294.55,74.171 230.193,60.696 173.477,81.693 c -10.607,3.927 -16.023,15.709 -12.096,26.316 3.927,10.607 15.709,16.023 26.316,12.096 z"
     inkscape:connector-curvature="0" /><path
     id="path959"
     d="m 161.408,118.082 52.879,52.869 c 4.331,4.334 4.331,11.381 -0.001,15.713 l -27.924,27.924 c -4.341,4.341 -11.373,4.341 -15.714,0 l -52.594,-52.584 c -7.999,-7.997 -20.966,-7.996 -28.963,0.003 -7.997,7.999 -7.996,20.966 0.003,28.963 l 52.593,52.582 c 20.336,20.336 53.302,20.336 73.639,-0.001 l 27.924,-27.924 c 20.326,-20.326 20.326,-53.297 0.006,-73.634 L 190.369,89.116 c -7.999,-7.997 -20.966,-7.996 -28.963,0.003 -7.997,7.999 -7.996,20.966 0.003,28.963 z M 836.42,904.635 c -41.846,15.492 -89.309,5.554 -121.432,-26.561 -44.941,-44.941 -44.941,-117.826 0.002,-162.769 44.953,-44.953 117.828,-44.953 162.781,0 32.25,32.25 42.125,79.975 26.367,121.934 -3.977,10.589 1.383,22.396 11.972,26.373 10.589,3.977 22.396,-1.383 26.373,-11.972 21.357,-56.869 7.968,-121.581 -35.749,-165.298 -60.949,-60.949 -159.758,-60.949 -220.707,0 -60.939,60.939 -60.939,159.758 0,220.697 43.541,43.53 107.898,57.005 164.614,36.008 10.607,-3.927 16.023,-15.709 12.096,-26.316 -3.927,-10.607 -15.709,-16.023 -26.316,-12.096 z"
     inkscape:connector-curvature="0" /><path
     id="path961"
     d="M 862.712,906.659 809.843,853.79 c -4.34,-4.34 -4.34,-11.377 -0.006,-15.708 l 27.923,-27.933 c 4.339,-4.339 11.37,-4.339 15.711,0.003 l 52.594,52.584 c 7.999,7.997 20.966,7.996 28.963,-0.003 7.997,-7.999 7.996,-20.966 -0.003,-28.963 l -52.593,-52.582 c -20.336,-20.336 -53.302,-20.336 -73.639,10e-4 l -27.917,27.927 c -20.335,20.319 -20.335,53.299 0.003,73.638 l 52.869,52.869 c 7.998,7.998 20.965,7.998 28.963,0 7.998,-7.998 7.998,-20.965 0,-28.963 z M 674.469,738.186 283.209,346.926 c -7.998,-7.998 -20.965,-7.998 -28.963,0 -7.998,7.998 -7.998,20.965 0,28.963 l 391.26,391.26 c 7.998,7.998 20.965,7.998 28.963,0 7.998,-7.998 7.998,-20.965 0,-28.963 z M 343.768,279.258 744.142,679.632 c 7.998,7.998 20.965,7.998 28.963,0 7.998,-7.998 7.998,-20.965 0,-28.963 L 372.731,250.295 c -7.998,-7.998 -20.965,-7.998 -28.963,0 -7.998,7.998 -7.998,20.965 0,28.963 z m 255.917,112.52 176.732,-176.732 c 7.998,-7.998 7.998,-20.965 0,-28.963 -7.998,-7.998 -20.965,-7.998 -28.963,0 L 570.722,362.815 c -7.998,7.998 -7.998,20.965 0,28.963 7.998,7.998 20.965,7.998 28.963,0 z M 814.078,241.864 631.53,422.641 c -8.037,7.959 -8.1,20.926 -0.141,28.963 7.959,8.037 20.926,8.1 28.963,0.141 L 842.9,270.968 c 8.037,-7.959 8.1,-20.926 0.141,-28.963 -7.959,-8.037 -20.926,-8.1 -28.963,-0.141 z"
     inkscape:connector-curvature="0" /><path
     id="path963"
     d="m 945.721,131.005 a 20.48,20.48 0 0 1 4.873,21.176 l -28.201,81.531 a 20.481,20.481 0 0 1 -12.659,12.66 l -81.541,28.211 a 20.48,20.48 0 0 1 -21.179,-4.874 l -53.32,-53.33 a 20.48,20.48 0 0 1 -4.872,-21.175 l 28.201,-81.531 a 20.478,20.478 0 0 1 12.658,-12.659 l 81.531,-28.211 a 20.478,20.478 0 0 1 21.178,4.873 l 53.33,53.33 z m -73.228,-15.302 -60.012,20.765 -20.758,60.014 35.194,35.201 60.021,-20.766 20.758,-60.012 -35.202,-35.202 z M 451.328,660.273 208.763,902.838 c -7.497,7.497 -16.502,8.466 -19.734,5.237 l -74.541,-74.541 c -3.223,-3.226 -2.254,-12.226 5.248,-19.733 L 361.825,571.722 c 7.998,-7.998 7.998,-20.965 0.001,-28.963 -7.997,-7.998 -20.965,-7.998 -28.963,-10e-4 L 90.769,784.842 c -22.28,22.295 -26.003,56.877 -5.249,77.648 l 74.553,74.553 c 20.778,20.76 55.375,17.036 77.654,-5.243 L 480.292,689.235 c 7.998,-7.998 7.998,-20.965 0,-28.963 -7.998,-7.998 -20.965,-7.998 -28.963,0 z"
     inkscape:connector-curvature="0" /></g></svg>