<?xml version="1.0" encoding="UTF-8" standalone="no"?>
<!-- Uploaded to: SVG Repo, www.svgrepo.com, Generator: SVG Repo Mixer Tools -->

<svg
   xmlns:dc="http://purl.org/dc/elements/1.1/"
   xmlns:cc="http://creativecommons.org/ns#"
   xmlns:rdf="http://www.w3.org/1999/02/22-rdf-syntax-ns#"
   xmlns:svg="http://www.w3.org/2000/svg"
   xmlns="http://www.w3.org/2000/svg"
   xmlns:sodipodi="http://sodipodi.sourceforge.net/DTD/sodipodi-0.dtd"
   xmlns:inkscape="http://www.inkscape.org/namespaces/inkscape"
   version="1.1"
   id="Layer_1"
   viewBox="0 0 16 16"
   enable-background="new 0 0 32 32"
   xml:space="preserve"
   sodipodi:docname="2f14_social_services.svg"
   width="16"
   height="16"
   inkscape:version="0.92.5 (2060ec1f9f, 2020-04-08)"
   inkscape:export-filename="/home/piotr/projects/pwMapedit/icons/icons_png/2f13_repair_services.png"
   inkscape:export-xdpi="300"
   inkscape:export-ydpi="300"><metadata
   id="metadata43"><rdf:RDF><cc:Work
       rdf:about=""><dc:format>image/svg+xml</dc:format><dc:type
         rdf:resource="http://purl.org/dc/dcmitype/StillImage" /><dc:title></dc:title></cc:Work></rdf:RDF></metadata><defs
   id="defs41" /><sodipodi:namedview
   pagecolor="#ffffff"
   bordercolor="#666666"
   borderopacity="1"
   objecttolerance="10"
   gridtolerance="10"
   guidetolerance="10"
   inkscape:pageopacity="0"
   inkscape:pageshadow="2"
   inkscape:window-width="1920"
   inkscape:window-height="1055"
   id="namedview39"
   showgrid="false"
   inkscape:zoom="41.7193"
   inkscape:cx="12.466598"
   inkscape:cy="6.2781472"
   inkscape:window-x="1366"
   inkscape:window-y="0"
   inkscape:window-maximized="1"
   inkscape:current-layer="Layer_1" />


















<g
   style="fill:#000000"
   id="g1012"
   transform="matrix(0.00576537,0,0,0.00576537,4.8493523,4.9558362)"><path
     id="path998"
     fill=""
     d="m 192,997.6 c -68.8,0 -124.8,-56 -124.8,-124.8 V 151.2 C 67.2,82.4 123.2,26.4 192,26.4 h 640 c 68.8,0 124.8,56 124.8,124.8 v 721.6 c 0,68.8 -56,124.8 -124.8,124.8 z M 115.2,872.8 c 0,42.4 34.4,76.8 76.8,76.8 h 640 c 42.4,0 76.8,-34.4 76.8,-76.8 V 253.6 H 115.2 Z M 908.8,205.6 V 151.2 C 908.8,108.8 874.4,74.4 832,74.4 H 192 c -42.4,0 -76.8,34.4 -76.8,76.8 v 54.4 z"
     inkscape:connector-curvature="0" /><path
     id="path1000"
     fill=""
     d="M 512.8,900 C 348.8,900 216,766.4 216,602.4 c 0,-164 133.6,-297.6 297.6,-297.6 164,0 297.6,133.6 297.6,297.6 C 810.4,766.4 676.8,900 512.8,900 Z M 274.4,672.8 c 31.2,105.6 129.6,178.4 239.2,178.4 132,0 240.8,-102.4 248.8,-233.6 -33.6,32 -85.6,68.8 -149.6,68.8 -55.2,0 -93.6,-28 -127.2,-52.8 -28.8,-20.8 -52.8,-39.2 -84.8,-39.2 -60.8,0.8 -115.2,64 -126.4,78.4 z M 400,547.2 c 48,0 80.8,24.8 113.6,48.8 30.4,22.4 58.4,43.2 98.4,43.2 40.8,0 76.8,-22.4 99.2,-40.8 24.8,-20 39.2,-39.2 40.8,-41.6 1.6,-1.6 2.4,-3.2 4.8,-4.8 C 732.8,436.8 630.4,352.8 512.8,352.8 376,352.8 264,464.8 264,602.4 v 10.4 c 31.2,-30.4 80,-65.6 136,-65.6 z M 232.8,178.4 c -19.2,0 -35.2,-16 -35.2,-35.2 0,-19.2 16,-35.2 35.2,-35.2 19.2,0 35.2,16 35.2,35.2 0,19.2 -15.2,35.2 -35.2,35.2 z m 112,0 c -19.2,0 -35.2,-16 -35.2,-35.2 0,-19.2 16,-35.2 35.2,-35.2 19.2,0 35.2,16 35.2,35.2 0,19.2 -15.2,35.2 -35.2,35.2 z"
     inkscape:connector-curvature="0" /></g></svg>