<?xml version="1.0" encoding="UTF-8" standalone="no"?>
<!-- Uploaded to: SVG Repo, www.svgrepo.com, Generator: SVG Repo Mixer Tools -->

<svg
   xmlns:dc="http://purl.org/dc/elements/1.1/"
   xmlns:cc="http://creativecommons.org/ns#"
   xmlns:rdf="http://www.w3.org/1999/02/22-rdf-syntax-ns#"
   xmlns:svg="http://www.w3.org/2000/svg"
   xmlns="http://www.w3.org/2000/svg"
   xmlns:sodipodi="http://sodipodi.sourceforge.net/DTD/sodipodi-0.dtd"
   xmlns:inkscape="http://www.inkscape.org/namespaces/inkscape"
   version="1.1"
   id="Layer_1"
   viewBox="0 0 16 16"
   enable-background="new 0 0 32 32"
   xml:space="preserve"
   sodipodi:docname="2f15_public_utilities.svg"
   width="16"
   height="16"
   inkscape:version="0.92.5 (2060ec1f9f, 2020-04-08)"
   inkscape:export-filename="/home/piotr/projects/pwMapedit/icons/icons_png/2f13_repair_services.png"
   inkscape:export-xdpi="300"
   inkscape:export-ydpi="300"><metadata
   id="metadata43"><rdf:RDF><cc:Work
       rdf:about=""><dc:format>image/svg+xml</dc:format><dc:type
         rdf:resource="http://purl.org/dc/dcmitype/StillImage" /><dc:title></dc:title></cc:Work></rdf:RDF></metadata><defs
   id="defs41" /><sodipodi:namedview
   pagecolor="#ffffff"
   bordercolor="#666666"
   borderopacity="1"
   objecttolerance="10"
   gridtolerance="10"
   guidetolerance="10"
   inkscape:pageopacity="0"
   inkscape:pageshadow="2"
   inkscape:window-width="1920"
   inkscape:window-height="1055"
   id="namedview39"
   showgrid="false"
   inkscape:zoom="14.75"
   inkscape:cx="21.529324"
   inkscape:cy="1.9909747"
   inkscape:window-x="1366"
   inkscape:window-y="0"
   inkscape:window-maximized="1"
   inkscape:current-layer="Layer_1" />


















<g
   style="fill:#000000"
   id="g1044"
   transform="matrix(0.10322702,0,0,0.10322702,5.6892099,5.506914)"><path
     id="path1033"
     d="M 9,0 C 7.355469,0 6,1.355469 6,3 V 50 H 44 V 3 C 44,1.355469 42.644531,0 41,0 Z m 0,2 h 32 c 0.554688,0 1,0.445313 1,1 V 48 H 38 V 36 H 27 V 48 H 8 V 3 C 8,2.445313 8.445313,2 9,2 Z m 3,4 v 8 H 23 V 6 Z m 15,0 v 8 H 38 V 6 Z M 14,8 h 7 v 4 h -7 z m 15,0 h 7 v 4 h -7 z m -17,8 v 8 h 11 v -8 z m 15,0 v 8 h 11 v -8 z m -13,2 h 7 v 4 h -7 z m 15,0 h 7 v 4 h -7 z m -17,8 v 8 h 11 v -8 z m 15,0 v 8 h 11 v -8 z m -13,2 h 7 v 4 h -7 z m 15,0 h 7 v 4 h -7 z m -17,8 v 8 h 11 v -8 z m 2,2 h 7 v 4 h -7 z m 15,0 h 7 v 10 h -7 z"
     inkscape:connector-curvature="0" /></g></svg>