<?xml version="1.0" encoding="UTF-8" standalone="no"?>
<!-- Created with Inkscape (http://www.inkscape.org/) -->

<svg
   xmlns:dc="http://purl.org/dc/elements/1.1/"
   xmlns:cc="http://creativecommons.org/ns#"
   xmlns:rdf="http://www.w3.org/1999/02/22-rdf-syntax-ns#"
   xmlns:svg="http://www.w3.org/2000/svg"
   xmlns="http://www.w3.org/2000/svg"
   xmlns:sodipodi="http://sodipodi.sourceforge.net/DTD/sodipodi-0.dtd"
   xmlns:inkscape="http://www.inkscape.org/namespaces/inkscape"
   width="16"
   height="16"
   viewBox="0 0 4.2333333 4.2333333"
   version="1.1"
   id="svg1"
   inkscape:version="0.92.5 (2060ec1f9f, 2020-04-08)"
   sodipodi:docname="2f16.svg">
  <metadata
     id="metadata8">
    <rdf:RDF>
      <cc:Work
         rdf:about="">
        <dc:format>image/svg+xml</dc:format>
        <dc:type
           rdf:resource="http://purl.org/dc/dcmitype/StillImage" />
        <dc:title></dc:title>
      </cc:Work>
    </rdf:RDF>
  </metadata>
  <sodipodi:namedview
     id="namedview1"
     pagecolor="#ffffff"
     bordercolor="#666666"
     borderopacity="1.0"
     inkscape:showpageshadow="2"
     inkscape:pageopacity="0.0"
     inkscape:pagecheckerboard="0"
     inkscape:deskcolor="#d1d1d1"
     inkscape:document-units="mm"
     inkscape:zoom="9.115208"
     inkscape:cx="-30.339378"
     inkscape:cy="9.1885393"
     inkscape:window-width="1920"
     inkscape:window-height="1055"
     inkscape:window-x="1366"
     inkscape:window-y="0"
     inkscape:window-maximized="1"
     inkscape:current-layer="layer1"
     showgrid="false"
     units="px" />
  <defs
     id="defs1" />
  <g
     inkscape:label="Warstwa 1"
     inkscape:groupmode="layer"
     id="layer1"
     transform="translate(0,-292.76667)">
    <path
       d="m 1.2806695,294.16226 c -0.063036,0 -0.1141544,0.0513 -0.1141544,0.11416 v 1.04997 c 0,0.0629 0.057391,0.12042 0.1204266,0.12042 h 0.164332 c 0.019129,0.11384 0.1179174,0.20071 0.2370895,0.20071 0.1191719,0 0.2179594,-0.0869 0.2370896,-0.20071 h 0.3713149 c 0.062879,0 0.1141541,-0.0513 0.1141541,-0.11415 v -1.05374 c 0,-0.0643 -0.050648,-0.11666 -0.1128996,-0.11666 z m 1.2105367,0.281 v 1.00355 c 0.019287,0.11368 0.1216809,0.20071 0.240853,0.20071 0.1191719,0 0.2179594,-0.087 0.2370896,-0.20071 h 0.084048 c 0.063036,0 0.1204266,-0.0574 0.1204266,-0.12042 v -0.38637 c 0,-0.0808 -0.058175,-0.16324 -0.065231,-0.17312 l -0.1668409,-0.22329 c -0.038261,-0.0461 -0.098317,-0.10035 -0.1693497,-0.10035 z m 0.2007107,0.20071 h 0.224545 l 0.1279535,0.1706 c 0.013641,0.0193 0.048923,0.0784 0.048923,0.12545 v 0.0251 H 2.6919169 c -0.040142,0 -0.080284,-0.0401 -0.080284,-0.0803 v -0.16057 c 0,-0.0444 0.040142,-0.0803 0.080284,-0.0803 z m -1.0035537,0.60213 c 0.088595,0 0.1605687,0.072 0.1605687,0.16057 0,0.0886 -0.071974,0.16057 -0.1605687,0.16057 -0.088595,0 -0.1605687,-0.072 -0.1605687,-0.16057 0,-0.0886 0.071974,-0.16057 0.1605687,-0.16057 z m 1.043696,0 c 0.088595,0 0.1605685,0.072 0.1605685,0.16057 0,0.0886 -0.071974,0.16057 -0.1605685,0.16057 -0.088595,0 -0.1605687,-0.072 -0.1605687,-0.16057 0,-0.0886 0.071974,-0.16057 0.1605687,-0.16057 z"
       id="path1"
       style="stroke-width:0.04014218"
       inkscape:connector-curvature="0" />
  </g>
</svg>
