<?xml version="1.0" encoding="UTF-8" standalone="no"?>
<!-- Uploaded to: SVG Repo, www.svgrepo.com, Generator: SVG Repo Mixer Tools -->

<svg
   version="1.1"
   id="Layer_1"
   viewBox="0 0 16 16"
   enable-background="new 0 0 32 32"
   xml:space="preserve"
   sodipodi:docname="2f17_transit_services.svg"
   width="16"
   height="16"
   inkscape:version="1.3 (0e150ed6c4, 2023-07-21)"
   inkscape:export-filename="..\icons_png\2f17_transit_services.png"
   inkscape:export-xdpi="300"
   inkscape:export-ydpi="300"
   xmlns:inkscape="http://www.inkscape.org/namespaces/inkscape"
   xmlns:sodipodi="http://sodipodi.sourceforge.net/DTD/sodipodi-0.dtd"
   xmlns="http://www.w3.org/2000/svg"
   xmlns:svg="http://www.w3.org/2000/svg"
   xmlns:rdf="http://www.w3.org/1999/02/22-rdf-syntax-ns#"
   xmlns:cc="http://creativecommons.org/ns#"
   xmlns:dc="http://purl.org/dc/elements/1.1/"><metadata
   id="metadata43"><rdf:RDF><cc:Work
       rdf:about=""><dc:format>image/svg+xml</dc:format><dc:type
         rdf:resource="http://purl.org/dc/dcmitype/StillImage" /><dc:title /></cc:Work></rdf:RDF></metadata><defs
   id="defs41" /><sodipodi:namedview
   pagecolor="#ffffff"
   bordercolor="#666666"
   borderopacity="1"
   objecttolerance="10"
   gridtolerance="10"
   guidetolerance="10"
   inkscape:pageopacity="0"
   inkscape:pageshadow="2"
   inkscape:window-width="2880"
   inkscape:window-height="1514"
   id="namedview39"
   showgrid="false"
   inkscape:zoom="10.429825"
   inkscape:cx="21.189234"
   inkscape:cy="6.0883092"
   inkscape:window-x="2871"
   inkscape:window-y="-11"
   inkscape:window-maximized="1"
   inkscape:current-layer="Layer_1"
   inkscape:showpageshadow="2"
   inkscape:pagecheckerboard="0"
   inkscape:deskcolor="#d1d1d1" />&#10;&#10;&#10;&#10;&#10;&#10;&#10;&#10;&#10;&#10;&#10;&#10;&#10;&#10;&#10;&#10;&#10;&#10;&#10;<path
   id="path1065"
   d="m 6.4516666,9.8971317 c 0.2638736,0 0.4778019,0.2139143 0.4778019,0.4777903 0,0.263889 -0.2139156,0.477804 -0.4778019,0.477804 -0.2638763,0 -0.4777919,-0.213915 -0.4777919,-0.477804 0,-0.263876 0.2139156,-0.4777903 0.4777919,-0.4777903 z m 3.2490083,0 c 0.2638788,0 0.4777931,0.2139143 0.4777931,0.4777903 0,0.263889 -0.2139143,0.477804 -0.4777931,0.477804 -0.2638865,0 -0.4778005,-0.213915 -0.4778005,-0.477804 0,-0.263876 0.213914,-0.4777903 0.4778005,-0.4777903 z M 11.134063,10.279373 H 10.36281 C 10.316448,9.9552034 10.037664,9.7060168 9.7006749,9.7060168 c -0.3369855,0 -0.6157674,0.2491866 -0.6621419,0.5733562 H 7.1138107 C 7.0674389,9.9552034 6.7886536,9.7060168 6.4516666,9.7060168 c -0.336988,0 -0.6157715,0.2491866 -0.6621341,0.5733562 H 5.4005192 V 8.17707 c 0,-0.2111042 0.1711392,-0.3822417 0.3822415,-0.3822417 h 4.8735123 c 0.2111,0 0.382228,0.1711375 0.382228,0.3822417 z m -0.2389,-2.102303 h -0.334455 v 1.3378221 h 0.382228 z M 10.178468,8.9415378 V 8.17707 H 9.2228847 V 8.9415378 Z M 9.0317579,8.17707 H 8.0761778 v 0.7644678 h 0.9555801 z m -1.1467068,0 H 6.9294685 v 0.7644678 h 0.9555826 z m -1.1467077,0 H 5.7827607 V 8.9415378 H 6.7383434 Z M 9.3184356,6.2658918 8.7450827,5.6925379 H 9.5095514 L 10.178468,6.2871236 V 5.6925379 h 0.38224 v 1.5289366 h -0.38224 V 6.626888 L 9.5095514,7.2214745 H 8.7450827 L 9.3184356,6.6481206 H 7.4787297 c -0.084852,0.3297213 -0.384171,0.5733539 -0.7403863,0.5733539 -0.4222075,0 -0.7644687,-0.3422629 -0.7644687,-0.7644679 0,-0.4222066 0.3422612,-0.7644687 0.7644687,-0.7644687 0.3562153,0 0.6555307,0.2436334 0.7403863,0.5733539 z"
   inkscape:connector-curvature="0"
   style="fill:#000000;fill-opacity:1;stroke-width:0.0241413;stroke-linejoin:round"
   inkscape:export-filename="..\icons_png\2f17_transit_services.png"
   inkscape:export-xdpi="300"
   inkscape:export-ydpi="300" /></svg>
