<?xml version="1.0" encoding="UTF-8" standalone="no"?>
<!-- Uploaded to: SVG Repo, www.svgrepo.com, Generator: SVG Repo Mixer Tools -->

<svg
   xmlns:dc="http://purl.org/dc/elements/1.1/"
   xmlns:cc="http://creativecommons.org/ns#"
   xmlns:rdf="http://www.w3.org/1999/02/22-rdf-syntax-ns#"
   xmlns:svg="http://www.w3.org/2000/svg"
   xmlns="http://www.w3.org/2000/svg"
   xmlns:sodipodi="http://sodipodi.sourceforge.net/DTD/sodipodi-0.dtd"
   xmlns:inkscape="http://www.inkscape.org/namespaces/inkscape"
   version="1.1"
   id="Layer_1"
   viewBox="0 0 16 16"
   enable-background="new 0 0 32 32"
   xml:space="preserve"
   sodipodi:docname="2f17_transit_services.svg"
   width="16"
   height="16"
   inkscape:version="0.92.5 (2060ec1f9f, 2020-04-08)"
   inkscape:export-filename="/home/piotr/projects/pwMapedit/icons/icons_png/2f13_repair_services.png"
   inkscape:export-xdpi="300"
   inkscape:export-ydpi="300"><metadata
   id="metadata43"><rdf:RDF><cc:Work
       rdf:about=""><dc:format>image/svg+xml</dc:format><dc:type
         rdf:resource="http://purl.org/dc/dcmitype/StillImage" /><dc:title></dc:title></cc:Work></rdf:RDF></metadata><defs
   id="defs41" /><sodipodi:namedview
   pagecolor="#ffffff"
   bordercolor="#666666"
   borderopacity="1"
   objecttolerance="10"
   gridtolerance="10"
   guidetolerance="10"
   inkscape:pageopacity="0"
   inkscape:pageshadow="2"
   inkscape:window-width="1920"
   inkscape:window-height="1055"
   id="namedview39"
   showgrid="false"
   inkscape:zoom="10.429825"
   inkscape:cx="21.154969"
   inkscape:cy="6.0198652"
   inkscape:window-x="1366"
   inkscape:window-y="0"
   inkscape:window-maximized="1"
   inkscape:current-layer="Layer_1" />


















<path
   id="path1065"
   d="m 6.3826902,9.621226 c 0.2465583,0 0.4464486,0.1998772 0.4464486,0.446438 0,0.246572 -0.1998784,0.44645 -0.4464486,0.44645 -0.2465606,0 -0.446439,-0.199878 -0.446439,-0.44645 0,-0.2465608 0.1998784,-0.446438 0.446439,-0.446438 z m 3.0358086,0 c 0.246563,0 0.44644,0.1998772 0.44644,0.446438 0,0.246572 -0.199877,0.44645 -0.44644,0.44645 -0.2465704,0 -0.4464473,-0.199878 -0.4464473,-0.44645 0,-0.2465608 0.1998769,-0.446438 0.4464473,-0.446438 z M 10.757827,9.9783842 H 10.037184 C 9.9938641,9.675487 9.7333738,9.442652 9.4184988,9.442652 c -0.3148726,0 -0.5753608,0.232835 -0.6186922,0.5357322 H 7.0013846 C 6.9580556,9.675487 6.6975642,9.442652 6.3826902,9.442652 c -0.3148747,0 -0.5753645,0.232835 -0.6186848,0.5357322 H 5.4005192 V 8.0140348 c 0,-0.1972515 0.159909,-0.3571589 0.3571589,-0.3571589 H 10.31139 c 0.197249,0 0.357146,0.1599074 0.357146,0.3571589 z M 10.534604,8.0140348 H 10.222096 V 9.264069 h 0.357146 z M 9.8649388,8.7283382 V 8.0140348 H 8.9720611 V 8.7283382 Z M 8.7934761,8.0140348 h -0.892875 v 0.7143034 h 0.892875 z m -1.07146,0 H 6.8291388 v 0.7143034 h 0.8928773 z m -1.0714607,0 H 5.7576781 V 8.7283382 H 6.6505554 Z M 9.061342,6.2282683 8.5256125,5.6925379 H 9.2399167 L 9.8649388,6.2481068 V 5.6925379 H 10.222096 V 7.1211456 H 9.8649388 V 6.5655759 L 9.2399167,7.1211456 H 8.5256125 L 9.061342,6.5854152 H 7.3423576 c -0.079284,0.308085 -0.3589618,0.5357304 -0.6918022,0.5357304 -0.3945022,0 -0.7143042,-0.3198036 -0.7143042,-0.7143035 0,-0.3945014 0.319802,-0.7143042 0.7143042,-0.7143042 0.3328404,0 0.6125148,0.2276462 0.6918022,0.5357304 z"
   inkscape:connector-curvature="0"
   style="fill:#000000;fill-opacity:1;stroke-width:0.02255709;stroke-linejoin:round" /></svg>