<?xml version="1.0" encoding="UTF-8" standalone="no"?>
<!-- Uploaded to: SVG Repo, www.svgrepo.com, Generator: SVG Repo Mixer Tools -->

<svg
   xmlns:dc="http://purl.org/dc/elements/1.1/"
   xmlns:cc="http://creativecommons.org/ns#"
   xmlns:rdf="http://www.w3.org/1999/02/22-rdf-syntax-ns#"
   xmlns:svg="http://www.w3.org/2000/svg"
   xmlns="http://www.w3.org/2000/svg"
   xmlns:sodipodi="http://sodipodi.sourceforge.net/DTD/sodipodi-0.dtd"
   xmlns:inkscape="http://www.inkscape.org/namespaces/inkscape"
   version="1.1"
   id="Layer_1"
   viewBox="0 0 16 16"
   enable-background="new 0 0 32 32"
   xml:space="preserve"
   sodipodi:docname="2f18_ticket_machine.svg"
   width="16"
   height="16"
   inkscape:version="0.92.5 (2060ec1f9f, 2020-04-08)"
   inkscape:export-filename="/home/piotr/projects/pwMapedit/icons/icons_png/2f13_repair_services.png"
   inkscape:export-xdpi="300"
   inkscape:export-ydpi="300"><metadata
   id="metadata43"><rdf:RDF><cc:Work
       rdf:about=""><dc:format>image/svg+xml</dc:format><dc:type
         rdf:resource="http://purl.org/dc/dcmitype/StillImage" /><dc:title></dc:title></cc:Work></rdf:RDF></metadata><defs
   id="defs41" /><sodipodi:namedview
   pagecolor="#ffffff"
   bordercolor="#666666"
   borderopacity="1"
   objecttolerance="10"
   gridtolerance="10"
   guidetolerance="10"
   inkscape:pageopacity="0"
   inkscape:pageshadow="2"
   inkscape:window-width="1920"
   inkscape:window-height="1055"
   id="namedview39"
   showgrid="false"
   inkscape:zoom="14.75"
   inkscape:cx="25.13656"
   inkscape:cy="-9.1562146"
   inkscape:window-x="1366"
   inkscape:window-y="0"
   inkscape:window-maximized="1"
   inkscape:current-layer="Layer_1" />


















<path
   style="fill:#000000;stroke-width:0.01429176"
   d="m 6.2308744,11.480934 c -0.08325,-0.03103 -0.147544,-0.08765 -0.184301,-0.162293 l -0.03362,-0.06827 -0.0071,-2.350994 -0.0071,-2.3509943 -0.03938,-0.00453 c -0.02398,-0.00276 -0.042385,0.00329 -0.047058,0.015469 -0.00422,0.010999 -0.012224,0.492727 -0.017784,1.0705058 l -0.0101,1.0505015 -0.040898,0.058998 C 5.7263727,8.9081906 5.4656282,8.8895749 5.3767657,8.7060097 l -0.032251,-0.066623 0.00746,-1.0740881 c 0.00712,-1.0250695 0.00877,-1.0781634 0.036159,-1.163385 0.075778,-0.2357889 0.2728582,-0.4078125 0.5121001,-0.4469918 0.1096936,-0.017964 1.5592136,-0.017964 1.6689076,0 0.170889,0.027986 0.344032,0.1405056 0.435469,0.2829977 0.08252,0.1285984 0.0911,0.1706108 0.102185,0.5002214 0.0056,0.1672538 0.01371,0.3075798 0.01796,0.3118359 0.0043,0.00426 0.103226,-0.052197 0.219934,-0.1254506 l 0.212196,-0.1331886 h 0.102288 c 0.09273,0 0.107421,0.0041 0.15721,0.043891 0.07421,0.059308 0.104892,0.1242518 0.104919,0.2220846 2.9e-5,0.084973 -0.04069,0.1669639 -0.105563,0.2125905 -0.09871,0.069427 -0.812571,0.508977 -0.864816,0.5325017 -0.123127,0.055441 -0.268229,0.00845 -0.337168,-0.1091812 l -0.03535,-0.06032 -0.0093,-0.5351176 c -0.0055,-0.3151208 -0.01514,-0.5424616 -0.02344,-0.5529818 -0.01953,-0.024744 -0.04697,-0.022324 -0.076,0.0067 -0.02307,0.023072 -0.02422,0.1666107 -0.01888,2.3617131 0.0055,2.2724211 0.0049,2.3386601 -0.02144,2.3917481 -0.08213,0.165366 -0.259893,0.235757 -0.420691,0.166584 -0.08664,-0.03727 -0.161742,-0.117158 -0.185881,-0.197724 -0.01207,-0.04029 -0.01659,-0.417609 -0.01659,-1.3864087 V 8.5563698 h -0.07146 -0.07146 l -6.27e-4,1.3327065 c -6.77e-4,1.4385257 0.002,1.3862957 -0.07713,1.4900767 -0.07405,0.09709 -0.239664,0.144625 -0.354596,0.101781 z m 1.447069,-1.442252 V 9.2200211 l 1.187352,4.573e-4 1.1873506,4.573e-4 0.04073,-0.045541 c 0.02543,-0.028436 0.04406,-0.068696 0.04959,-0.1071881 0.0049,-0.033906 0.0069,-0.5761501 0.0046,-1.2049875 -0.0046,-1.2414258 -3.13e-4,-1.1780421 -0.08391,-1.2274264 -0.03421,-0.02021 -0.1088096,-0.023102 -0.5960376,-0.023102 -0.546684,0 -0.558212,-5.889e-4 -0.626632,-0.032037 -0.05397,-0.024807 -0.0955,-0.031985 -0.184037,-0.031808 -0.09874,1.972e-4 -0.127709,0.00652 -0.212408,0.046329 -0.05394,0.025355 -0.100568,0.0461 -0.103615,0.0461 -0.003,0 -0.0056,-0.027333 -0.0057,-0.06074 -2.34e-4,-0.1205772 -0.03011,-0.2480297 -0.08546,-0.3644403 l -0.05605,-0.117907 0.896149,-8.061e-4 c 0.655763,-5.903e-4 0.909208,-0.00538 0.9448316,-0.017865 0.02677,-0.00938 0.06215,-0.035216 0.0786,-0.057408 0.02904,-0.039168 0.02992,-0.05518 0.02992,-0.546385 V 4.9696887 l -0.04672,-0.046723 -0.04672,-0.046724 -1.1037676,-0.00432 c -0.75824,-0.00297 -1.120306,4.929e-4 -1.156597,0.011063 -0.02906,0.00846 -0.06604,0.032177 -0.08218,0.052699 -0.02796,0.035544 -0.02935,0.055595 -0.02935,0.4229297 v 0.385617 l -0.03216,-0.0087 c -0.01769,-0.00479 -0.09377,-0.012862 -0.169084,-0.017949 l -0.136929,-0.00925 0.05657,-0.084718 c 0.08149,-0.1220114 0.124481,-0.2685603 0.124049,-0.4227783 -4.35e-4,-0.1547503 -0.0161,-0.2245144 -0.08055,-0.3587339 -0.06153,-0.128138 -0.201508,-0.2745315 -0.322808,-0.3376063 -0.07918,-0.041174 -0.08214,-0.044775 -0.08216,-0.099881 -1.6e-5,-0.075193 0.0384,-0.1489128 0.09853,-0.189081 l 0.04856,-0.032441 h 1.766714 c 1.6837506,0 1.7690006,0.00123 1.8154086,0.026115 0.02678,0.014363 0.06044,0.048027 0.07481,0.074809 0.02507,0.046742 0.02611,0.1763527 0.02611,3.2338192 0,3.5447029 0.0089,3.2479949 -0.09893,3.3085849 l -0.05502,0.03092 H 9.1944974 7.6779434 Z m 1.64346,-1.2669974 c -0.155945,-0.047436 -0.254263,-0.1865193 -0.238668,-0.3376258 0.01801,-0.1744731 0.145457,-0.29215 0.316411,-0.29215 0.190667,0 0.321891,0.1281782 0.321891,0.3144187 0,0.2142648 -0.203654,0.3749715 -0.399634,0.3153571 z M 7.6779434,8.4563275 V 8.1990759 h 0.557379 0.557379 v 0.2572516 0.2572517 h -0.557379 -0.557379 z m 0.421607,-0.46205 c 0.03144,-0.018124 0.110155,-0.066281 0.174918,-0.1070159 l 0.117751,-0.074063 h 0.200241 0.200241 v 0.107188 0.1071882 l -0.375159,-1.715e-4 -0.375159,-1.715e-4 0.057167,-0.032953 z m 1.036153,-0.5240813 v -0.414461 h 0.114334 0.114334 v 0.414461 0.414461 h -0.114334 -0.114334 z m 0.343002,0 v -0.414461 h 0.114334 0.114334 v 0.414461 0.414461 h -0.114334 -0.114334 z m -0.812182,0.1730207 c 0.129211,-0.081943 0.126178,-0.081551 0.126178,-0.016314 v 0.05767 h -0.09569 -0.09569 z M 6.5498904,5.7270614 c -0.147637,-0.054651 -0.253899,-0.1522958 -0.326533,-0.300054 -0.03486,-0.070919 -0.0389,-0.094753 -0.0389,-0.2295014 0,-0.1406768 0.003,-0.1564261 0.04632,-0.2444605 0.137894,-0.2801043 0.480958,-0.3980805 0.756643,-0.2602018 0.348994,0.1745426 0.416504,0.6458436 0.130794,0.9130918 -0.106547,0.099662 -0.206554,0.1397934 -0.362091,0.1453005 -0.101757,0.0036 -0.144837,-0.00145 -0.206235,-0.024175 z m 2.067213,-0.054808 c -0.0219,-0.00265 -0.06127,-0.026261 -0.08748,-0.052469 -0.08395,-0.08395 -0.08044,-0.211431 0.0079,-0.285739 0.06106,-0.051375 0.178978,-0.051687 0.236539,-6.253e-4 l 0.0401,0.035572 -0.03513,0.02747 c -0.03094,0.024194 -0.03856,0.025065 -0.06392,0.0073 -0.06571,-0.046026 -0.142213,-0.00157 -0.139858,0.081269 0.0024,0.083611 0.07489,0.123989 0.140335,0.078148 0.02579,-0.01806 0.03383,-0.017512 0.06754,0.00461 l 0.03827,0.025108 -0.0344,0.032316 c -0.03753,0.03526 -0.107387,0.054602 -0.169884,0.04704 z M 8.0638214,5.526517 V 5.3835994 h -0.05717 c -0.05399,0 -0.05717,-0.00238 -0.05717,-0.042875 v -0.042875 h 0.164355 0.164355 v 0.042875 c 0,0.040493 -0.0032,0.042875 -0.05717,0.042875 h -0.05717 V 5.526517 5.6694346 h -0.05002 -0.05002 z m 0.257252,-0.042875 V 5.2978489 h 0.05002 0.05002 v 0.1857928 0.1857929 h -0.05002 -0.05002 z m 0.543086,0 V 5.2978489 h 0.04924 c 0.0485,0 0.0493,0.00101 0.05359,0.066971 l 0.0044,0.066971 0.05002,-0.066529 c 0.04587,-0.061005 0.05516,-0.066566 0.111867,-0.066971 l 0.06184,-4.419e-4 -0.06542,0.076573 c -0.03598,0.042115 -0.06542,0.081494 -0.06542,0.087509 0,0.00601 0.02894,0.051493 0.06431,0.1010625 0.03537,0.04957 0.06431,0.093797 0.06431,0.098284 0,0.00449 -0.02514,0.00816 -0.05586,0.00816 -0.05065,0 -0.05964,-0.00599 -0.09647,-0.064285 -0.02234,-0.035357 -0.04705,-0.06219 -0.05491,-0.059629 -0.0079,0.00256 -0.01627,0.031489 -0.01869,0.064285 -0.0042,0.057579 -0.0061,0.059629 -0.05359,0.059629 h -0.04921 z m 0.371586,0 V 5.2978489 h 0.128626 0.128626 v 0.042875 c 0,0.042442 -7.95e-4,0.042875 -0.0786,0.042875 -0.06908,0 -0.0786,0.00346 -0.0786,0.028584 0,0.024822 0.0095,0.028584 0.07241,0.028584 0.07056,0 0.07229,0.001 0.06789,0.039302 -0.0041,0.035992 -0.01024,0.039669 -0.07241,0.043658 -0.05623,0.00361 -0.06789,0.00913 -0.06789,0.032156 0,0.024451 0.01033,0.0278 0.08575,0.0278 h 0.08575 v 0.042875 0.042875 h -0.135771 -0.135772 z m 0.400169,0.042875 V 5.3835994 h -0.05717 c -0.05399,0 -0.05717,-0.00238 -0.05717,-0.042875 v -0.042875 h 0.164356 0.164355 v 0.042875 c 0,0.040493 -0.0032,0.042875 -0.05717,0.042875 h -0.05717 V 5.526517 5.6694346 h -0.05002 -0.05002 z"
   id="path1106"
   inkscape:connector-curvature="0" /></svg>