<?xml version="1.0" encoding="UTF-8" standalone="no"?>
<!-- Uploaded to: SVG Repo, www.svgrepo.com, Generator: SVG Repo Mixer Tools -->

<svg
   xmlns:dc="http://purl.org/dc/elements/1.1/"
   xmlns:cc="http://creativecommons.org/ns#"
   xmlns:rdf="http://www.w3.org/1999/02/22-rdf-syntax-ns#"
   xmlns:svg="http://www.w3.org/2000/svg"
   xmlns="http://www.w3.org/2000/svg"
   xmlns:sodipodi="http://sodipodi.sourceforge.net/DTD/sodipodi-0.dtd"
   xmlns:inkscape="http://www.inkscape.org/namespaces/inkscape"
   version="1.1"
   id="Layer_1"
   viewBox="0 0 16 16"
   enable-background="new 0 0 32 32"
   xml:space="preserve"
   sodipodi:docname="2f1b_bussines_enterprise.svg"
   width="16"
   height="16"
   inkscape:version="0.92.5 (2060ec1f9f, 2020-04-08)"
   inkscape:export-filename="/home/piotr/projects/pwMapedit/icons/icons_png/2f13_repair_services.png"
   inkscape:export-xdpi="300"
   inkscape:export-ydpi="300"><metadata
   id="metadata43"><rdf:RDF><cc:Work
       rdf:about=""><dc:format>image/svg+xml</dc:format><dc:type
         rdf:resource="http://purl.org/dc/dcmitype/StillImage" /><dc:title></dc:title></cc:Work></rdf:RDF></metadata><defs
   id="defs41" /><sodipodi:namedview
   pagecolor="#ffffff"
   bordercolor="#666666"
   borderopacity="1"
   objecttolerance="10"
   gridtolerance="10"
   guidetolerance="10"
   inkscape:pageopacity="0"
   inkscape:pageshadow="2"
   inkscape:window-width="1920"
   inkscape:window-height="1055"
   id="namedview39"
   showgrid="false"
   inkscape:zoom="20.85965"
   inkscape:cx="8.7514428"
   inkscape:cy="4.7596578"
   inkscape:window-x="1366"
   inkscape:window-y="0"
   inkscape:window-maximized="1"
   inkscape:current-layer="Layer_1" />


















<g
   style="fill:#000000"
   id="g1138"
   transform="matrix(0.31233177,0,0,0.31233177,4.1879248,4.3252759)"><path
     id="path1127"
     d="M 22,1 H 18 A 1,1 0 0 0 17,2 V 9 H 15 V 7 A 1,1 0 0 0 13.553,6.105 L 9,8.382 V 7 A 1,1 0 0 0 7.553,6.105 l -6,3 A 1,1 0 0 0 1,10 v 12 a 1,1 0 0 0 1,1 h 20 a 1,1 0 0 0 1,-1 V 2 A 1,1 0 0 0 22,1 Z M 21,3 V 5 H 19 V 3 Z M 3,21 V 10.618 l 4,-2 V 10 a 1,1 0 0 0 1.447,0.895 L 13,8.618 V 10 a 1,1 0 0 0 1,1 h 4 a 1,1 0 0 0 1,-1 V 7 h 2 v 14 z m 2,-8 h 3 v 2 H 5 Z m 5,0 h 4 v 2 h -4 z m 6,0 h 3 v 2 H 16 Z M 5,17 h 3 v 2 H 5 Z m 5,0 h 4 v 2 h -4 z m 6,0 h 3 v 2 h -3 z"
     inkscape:connector-curvature="0" /></g></svg>