<?xml version="1.0" encoding="UTF-8" standalone="no"?>
<!-- Created with Inkscape (http://www.inkscape.org/) -->

<svg
   width="210mm"
   height="297mm"
   viewBox="0 0 210 297"
   version="1.1"
   id="svg1"
   inkscape:version="1.3 (0e150ed6c4, 2023-07-21)"
   sodipodi:docname="4000.svg"
   xmlns:inkscape="http://www.inkscape.org/namespaces/inkscape"
   xmlns:sodipodi="http://sodipodi.sourceforge.net/DTD/sodipodi-0.dtd"
   xmlns="http://www.w3.org/2000/svg"
   xmlns:svg="http://www.w3.org/2000/svg">
  <sodipodi:namedview
     id="namedview1"
     pagecolor="#ffffff"
     bordercolor="#666666"
     borderopacity="1.0"
     inkscape:showpageshadow="2"
     inkscape:pageopacity="0.0"
     inkscape:pagecheckerboard="0"
     inkscape:deskcolor="#d1d1d1"
     inkscape:document-units="mm"
     inkscape:zoom="0.5697005"
     inkscape:cx="-48.270977"
     inkscape:cy="562.5763"
     inkscape:window-width="1903"
     inkscape:window-height="1266"
     inkscape:window-x="3102"
     inkscape:window-y="154"
     inkscape:window-maximized="0"
     inkscape:current-layer="layer1" />
  <defs
     id="defs1" />
  <g
     inkscape:label="Warstwa 1"
     inkscape:groupmode="layer"
     id="layer1">
    <rect
       style="fill:none;stroke:#000000;stroke-width:0.522789;stroke-linecap:square;stroke-dasharray:none"
       id="rect4"
       width="159.47722"
       height="159.47722"
       x="24.416059"
       y="30.235018" />
    <ellipse
       opacity="0.5"
       cx="96.723175"
       cy="137.64832"
       rx="38.036507"
       ry="13.312778"
       fill="#1c274c"
       id="ellipse1"
       style="stroke-width:3.80365" />
    <path
       d="m 96.723943,72.035318 c 1.57547,0 2.85273,1.277228 2.85273,2.852738 v 3.942371 l 19.047537,9.523774 0.2054,0.102656 c 2.79378,1.39655 5.17488,2.58694 6.83174,3.74348 1.68046,1.17278 3.44687,2.8756 3.44687,5.50962 0,2.634043 -1.76641,4.336853 -3.44687,5.509633 -1.65686,1.15654 -4.03796,2.34682 -6.83174,3.74352 l -19.252937,9.62628 v 19.15709 c 0,1.57547 -1.27726,2.85274 -2.85273,2.85274 -1.57548,0 -2.85275,-1.27727 -2.85275,-2.85274 v -20.85846 c -0.001,-0.0395 -0.001,-0.0795 0,-0.11906 V 80.65093 c -0.001,-0.03969 -0.001,-0.07942 0,-0.119204 v -5.64367 c 0,-1.57551 1.27727,-2.852738 2.85275,-2.852738 z"
       fill="#1c274c"
       id="path1"
       style="stroke-width:3.80365" />
  </g>
</svg>
