<?xml version="1.0" encoding="UTF-8" standalone="no"?>
<!-- Created with Inkscape (http://www.inkscape.org/) -->

<svg
   width="210mm"
   height="297mm"
   viewBox="0 0 210 297"
   version="1.1"
   id="svg1"
   inkscape:version="1.3 (0e150ed6c4, 2023-07-21)"
   sodipodi:docname="4100.svg"
   xmlns:inkscape="http://www.inkscape.org/namespaces/inkscape"
   xmlns:sodipodi="http://sodipodi.sourceforge.net/DTD/sodipodi-0.dtd"
   xmlns="http://www.w3.org/2000/svg"
   xmlns:svg="http://www.w3.org/2000/svg">
  <sodipodi:namedview
     id="namedview1"
     pagecolor="#ffffff"
     bordercolor="#666666"
     borderopacity="1.0"
     inkscape:showpageshadow="2"
     inkscape:pageopacity="0.0"
     inkscape:pagecheckerboard="0"
     inkscape:deskcolor="#d1d1d1"
     inkscape:document-units="mm"
     inkscape:zoom="0.5697005"
     inkscape:cx="-48.270977"
     inkscape:cy="562.5763"
     inkscape:window-width="1903"
     inkscape:window-height="1266"
     inkscape:window-x="3102"
     inkscape:window-y="154"
     inkscape:window-maximized="0"
     inkscape:current-layer="layer1" />
  <defs
     id="defs1" />
  <g
     inkscape:label="Warstwa 1"
     inkscape:groupmode="layer"
     id="layer1">
    <rect
       style="fill:none;stroke:#000000;stroke-width:0.522789;stroke-linecap:square;stroke-dasharray:none"
       id="rect4"
       width="159.47722"
       height="159.47722"
       x="24.416059"
       y="30.235018" />
    <g
       id="g2"
       transform="matrix(0.1697264,0,0,0.1697264,66.142489,64.323312)">&#10;	<path
   class="st0"
   d="m 473.472,266.477 38.172,-98.609 c 0.844,-2.203 0.141,-4.688 -1.719,-6.109 -1.875,-1.438 -4.453,-1.453 -6.344,-0.063 l -99.094,73.094 c -21.328,-2.516 -44.391,-53.469 -145.922,-78.75 l 29.672,-4.234 c 4.734,-0.672 8.891,-3.438 11.359,-7.547 2.453,-4.094 2.922,-9.078 1.297,-13.563 L 285.971,89.665 c -1.828,-5.016 -6.047,-8.781 -11.234,-10.016 -5.187,-1.235 -10.641,0.219 -14.531,3.875 l -67.922,63.938 C 82.394,149.867 0.003,238.32 0.003,266.477 c 3.734,23.609 48.891,77.875 117.25,104.25 7.141,-9.969 12.906,-19.594 17.516,-28.766 13.453,-26.828 17.234,-49.875 17.234,-65.734 0,-6.391 -0.625,-11.609 -1.422,-15.266 -1.281,-6.047 2.563,-11.984 8.609,-13.266 6.047,-1.297 11.984,2.563 13.281,8.594 1.156,5.453 1.891,12.109 1.891,19.938 0,19.344 -4.578,45.813 -19.609,75.766 -4.219,8.422 -9.313,17.125 -15.328,26.016 23.5,6.406 49.203,9.297 76.484,6.703 l 20.25,39.453 c 2.047,4 5.688,6.938 10.031,8.094 4.344,1.141 8.969,0.406 12.75,-2.063 l 15.453,-10.109 c 4.266,-2.781 6.906,-7.422 7.172,-12.484 0.234,-5.063 -1.938,-9.953 -5.891,-13.141 L 254.971,377.79 c 104.594,-24.938 127.953,-77.078 149.516,-79.625 l 99.094,73.094 c 1.891,1.391 4.469,1.375 6.344,-0.047 1.859,-1.422 2.563,-3.922 1.719,-6.109 z m -397.047,7.468 c -9.266,0 -16.781,-7.531 -16.781,-16.781 0,-9.266 7.516,-16.781 16.781,-16.781 9.265,0 16.781,7.516 16.781,16.781 0,9.25 -7.516,16.781 -16.781,16.781 z"
   id="path1"
   style="fill:#000000" />
&#10;</g>
  </g>
</svg>
