<?xml version="1.0" encoding="UTF-8" standalone="no"?>
<!-- Created with Inkscape (http://www.inkscape.org/) -->

<svg
   width="16"
   height="16"
   viewBox="0 0 4.2333333 4.2333333"
   version="1.1"
   id="svg1"
   inkscape:version="1.3 (0e150ed6c4, 2023-07-21)"
   sodipodi:docname="4201.svg"
   xmlns:inkscape="http://www.inkscape.org/namespaces/inkscape"
   xmlns:sodipodi="http://sodipodi.sourceforge.net/DTD/sodipodi-0.dtd"
   xmlns="http://www.w3.org/2000/svg"
   xmlns:svg="http://www.w3.org/2000/svg"
   xmlns:rdf="http://www.w3.org/1999/02/22-rdf-syntax-ns#"
   xmlns:cc="http://creativecommons.org/ns#"
   xmlns:dc="http://purl.org/dc/elements/1.1/">
  <metadata
     id="metadata26">
    <rdf:RDF>
      <cc:Work
         rdf:about="">
        <dc:format>image/svg+xml</dc:format>
        <dc:type
           rdf:resource="http://purl.org/dc/dcmitype/StillImage" />
      </cc:Work>
    </rdf:RDF>
  </metadata>
  <sodipodi:namedview
     id="namedview1"
     pagecolor="#ffffff"
     bordercolor="#666666"
     borderopacity="1.0"
     inkscape:showpageshadow="2"
     inkscape:pageopacity="0.0"
     inkscape:pagecheckerboard="0"
     inkscape:deskcolor="#d1d1d1"
     inkscape:document-units="mm"
     inkscape:zoom="72.921664"
     inkscape:cx="5.3619182"
     inkscape:cy="9.9627458"
     inkscape:window-width="2880"
     inkscape:window-height="1514"
     inkscape:window-x="-9"
     inkscape:window-y="-11"
     inkscape:window-maximized="1"
     inkscape:current-layer="layer1"
     showgrid="false"
     units="px" />
  <defs
     id="defs1" />
  <g
     inkscape:label="Warstwa 1"
     inkscape:groupmode="layer"
     id="layer1"
     transform="translate(0,-292.76667)">
    <g
       id="g1"
       transform="matrix(0.88349077,0,0,0.88349077,0.1378565,34.30607)"
       inkscape:export-filename="..\icons_png\4200.png"
       inkscape:export-xdpi="1200"
       inkscape:export-ydpi="1200">
      <g
         id="Group_230"
         data-name="Group 230"
         transform="matrix(0.03490625,0,0,0.03490625,-9.1468608,263.86655)">
        <path
           id="Path_346"
           data-name="Path 346"
           d="m 329.1,902.414 -7.521,3.438 a 5,5 0 0 1 -4.182,0.043 l -2.919,-1.307 a 2,2 0 0 1 -1.008,-2.643 l 2.451,-5.476"
           inkscape:connector-curvature="0"
           style="fill:#29abe2" />
        <path
           id="Path_347"
           data-name="Path 347"
           d="m 319.442,907.333 a 6,6 0 0 1 -2.455,-0.525 l -2.921,-1.307 a 3.005,3.005 0 0 1 -1.511,-3.964 l 2.451,-5.476 a 1.0000165,1.0000165 0 0 1 1.826,0.816 l -2.451,5.476 a 1,1 0 0 0 0.5,1.321 l 2.921,1.308 a 4,4 0 0 0 3.345,-0.034 l 7.533,-3.443 a 1.0001231,1.0001231 0 0 1 0.832,1.819 l -7.522,3.437 a 5.964,5.964 0 0 1 -2.548,0.572 z"
           inkscape:connector-curvature="0" />
      </g>
      <g
         id="Group_231"
         data-name="Group 231"
         transform="matrix(0.03490625,0,0,0.03490625,-9.1468608,263.86655)">
        <path
           id="Path_348"
           data-name="Path 348"
           d="m 306.314,881.213 a 5,5 0 0 0 -6.606,2.521 l -2.043,4.563 39.446,17.659 a 4.781,4.781 0 0 0 6.318,-2.411 l 0.179,-0.4 a 4.782,4.782 0 0 0 -2.411,-6.317 l -26.212,-11.735 z"
           inkscape:connector-curvature="0"
           style="fill:#29abe2" />
        <path
           id="Path_349"
           data-name="Path 349"
           d="m 339.062,907.375 v 0 a 5.745,5.745 0 0 1 -2.359,-0.506 L 297.257,889.21 a 1,1 0 0 1 -0.5,-1.321 l 2.043,-4.563 a 6,6 0 0 1 7.929,-3.026 l 34.881,15.616 a 5.778,5.778 0 0 1 2.916,7.638 l -0.179,0.4 a 5.793,5.793 0 0 1 -5.285,3.421 z m -40.076,-19.582 38.534,17.25 a 3.775,3.775 0 0 0 5,-1.906 l 0.178,-0.4 a 3.78,3.78 0 0 0 -1.9,-5 l -34.883,-15.615 a 3.948,3.948 0 0 0 -1.633,-0.351 4.007,4.007 0 0 0 -3.652,2.366 z"
           inkscape:connector-curvature="0" />
      </g>
      <g
         id="Group_232"
         data-name="Group 232"
         transform="matrix(0.03490625,0,0,0.03490625,-9.1468608,263.86655)">
        <circle
           id="Ellipse_58"
           data-name="Ellipse 58"
           cx="3.9749999"
           cy="3.9749999"
           r="3.9749999"
           transform="translate(332.426,889.583)"
           style="fill:#29abe2" />
        <path
           id="Path_350"
           data-name="Path 350"
           d="m 336.4,889.582 a 3.976,3.976 0 1 1 -3.63,2.352 3.964,3.964 0 0 1 3.63,-2.352 m 0,-2 a 5.975,5.975 0 0 0 -2.443,11.429 5.922,5.922 0 0 0 2.438,0.523 5.9760005,5.9760005 0 0 0 0.005,-11.952 z"
           inkscape:connector-curvature="0" />
      </g>
      <g
         id="Group_233"
         data-name="Group 233"
         transform="matrix(0.03490625,0,0,0.03490625,-9.1468608,263.86655)">
        <circle
           id="Ellipse_59"
           data-name="Ellipse 59"
           cx="3.9749999"
           cy="3.9749999"
           r="3.9749999"
           transform="translate(306.87,878.143)"
           style="fill:#29abe2" />
        <path
           id="Path_351"
           data-name="Path 351"
           d="m 310.847,878.142 a 3.975,3.975 0 1 1 -3.63,2.352 3.957,3.957 0 0 1 3.63,-2.352 m 0,-2 v 0 a 5.976,5.976 0 1 0 2.439,0.522 5.985,5.985 0 0 0 -2.439,-0.522 z"
           inkscape:connector-curvature="0" />
      </g>
      <g
         id="Group_234"
         data-name="Group 234"
         transform="matrix(0.03490625,0,0,0.03490625,-9.1468608,263.86655)">
        <line
           id="Line_125"
           data-name="Line 125"
           x1="2.7379999"
           y1="1.226"
           transform="translate(320.292,894.044)"
           x2="0"
           y2="0"
           style="fill:#29abe2" />
        <path
           id="Path_352"
           data-name="Path 352"
           d="m 323.028,896.269 a 1,1 0 0 1 -0.407,-0.087 l -2.737,-1.225 a 1.000473,1.000473 0 0 1 0.816,-1.827 l 2.737,1.226 a 1,1 0 0 1 -0.409,1.913 z"
           inkscape:connector-curvature="0" />
      </g>
      <g
         id="Group_235"
         data-name="Group 235"
         transform="matrix(0.02666499,0,0,0.03490625,-6.4962933,263.86655)">
        <line
           id="Line_126"
           data-name="Line 126"
           x1="62"
           transform="translate(289,907.409)"
           y1="0"
           x2="0"
           y2="0"
           style="fill:#29abe2" />
        <path
           id="Path_353"
           data-name="Path 353"
           d="m 351,908.409 h -62 a 1,1 0 0 1 0,-2 h 62 a 1,1 0 0 1 0,2 z"
           inkscape:connector-curvature="0" />
      </g>
    </g>
  </g>
</svg>
