<?xml version="1.0" encoding="UTF-8" standalone="no"?>
<!-- Created with Inkscape (http://www.inkscape.org/) -->

<svg
   width="210mm"
   height="297mm"
   viewBox="0 0 210 297"
   version="1.1"
   id="svg1"
   inkscape:version="1.3 (0e150ed6c4, 2023-07-21)"
   sodipodi:docname="4301.svg"
   xmlns:inkscape="http://www.inkscape.org/namespaces/inkscape"
   xmlns:sodipodi="http://sodipodi.sourceforge.net/DTD/sodipodi-0.dtd"
   xmlns="http://www.w3.org/2000/svg"
   xmlns:svg="http://www.w3.org/2000/svg">
  <sodipodi:namedview
     id="namedview1"
     pagecolor="#ffffff"
     bordercolor="#666666"
     borderopacity="1.0"
     inkscape:showpageshadow="2"
     inkscape:pageopacity="0.0"
     inkscape:pagecheckerboard="0"
     inkscape:deskcolor="#d1d1d1"
     inkscape:document-units="mm"
     inkscape:zoom="0.5697005"
     inkscape:cx="-48.270977"
     inkscape:cy="562.5763"
     inkscape:window-width="1903"
     inkscape:window-height="1266"
     inkscape:window-x="3102"
     inkscape:window-y="154"
     inkscape:window-maximized="0"
     inkscape:current-layer="layer1" />
  <defs
     id="defs1" />
  <g
     inkscape:label="Warstwa 1"
     inkscape:groupmode="layer"
     id="layer1">
    <rect
       style="fill:none;stroke:#000000;stroke-width:0.522789;stroke-linecap:square;stroke-dasharray:none"
       id="rect4"
       width="159.47722"
       height="159.47722"
       x="24.416059"
       y="30.235018" />
    <path
       fill="#231f20"
       d="m 99.318931,86.239588 c -2.1276,0 -3.8816,-1.76266 -3.8816,-3.92343 0,-2.175199 1.754,-3.921987 3.8816,-3.921987 2.165099,0 3.901789,1.746788 3.901789,3.921987 0,2.16077 -1.73669,3.92343 -3.901789,3.92343 z m 31.497059,34.338652 -2.07855,-13.02088 c -0.23656,-1.21742 -1.29531,-2.14346 -2.55455,-2.14346 -0.76594,0 -1.44821,0.32599 -1.94297,0.85825 l -9.57635,9.02966 c -0.15001,0.13703 -0.30435,0.28993 -0.44282,0.48033 -0.90009,1.23185 -0.64333,2.98008 0.58275,3.90612 0.23367,0.16877 0.49331,0.28993 0.74862,0.39378 l 2.39877,0.80633 c -2.31078,6.57607 -8.96619,12.52468 -15.91585,13.91087 V 91.526112 c 3.40559,-1.45686 6.77224,-5.267773 6.77224,-9.209954 0,-5.276438 -4.24365,-9.541725 -9.488349,-9.541725 -5.22595,0 -9.48547,4.265287 -9.48547,9.541725 0,3.942181 3.04066,7.753094 6.43039,9.209954 v 43.273128 c -7.10257,-1.28521 -13.567571,-7.21219 -15.936054,-13.91231 l 2.420411,-0.80632 c 0.255312,-0.10386 0.50918,-0.22503 0.748625,-0.39379 1.224629,-0.92605 1.49725,-2.67428 0.57986,-3.90612 -0.138474,-0.1904 -0.272621,-0.3433 -0.444271,-0.48033 l -9.574899,-9.02966 c -0.477448,-0.53226 -1.175587,-0.85825 -1.925653,-0.85825 -1.276557,0 -2.351176,0.92604 -2.571868,2.14346 L 67.48145,120.5768 c -0.0476,0.20627 -0.06491,0.4284 -0.06491,0.65343 0,1.53763 1.243379,2.79256 2.778134,2.79256 0.288488,0 0.561109,-0.0361 0.816421,-0.12261 l 2.248757,-0.73564 c 3.577246,10.93079 13.811339,18.84688 25.890319,18.84688 12.077519,0 22.315939,-7.91609 25.893179,-18.8642 l 2.25021,0.75152 c 0.25242,0.0865 0.52937,0.12261 0.81497,0.12261 1.53331,0 2.7767,-1.25349 2.7767,-2.79257 -0.002,-0.22358 -0.0173,-0.44571 -0.0692,-0.65054 z"
       id="path1"
       style="stroke-width:1.44243" />
  </g>
</svg>
