<?xml version="1.0" encoding="UTF-8" standalone="no"?>
<!-- Created with Inkscape (http://www.inkscape.org/) -->

<svg
   width="16"
   height="16"
   viewBox="0 0 4.2333333 4.2333333"
   version="1.1"
   id="svg1"
   inkscape:version="1.3 (0e150ed6c4, 2023-07-21)"
   sodipodi:docname="4301.svg"
   xmlns:inkscape="http://www.inkscape.org/namespaces/inkscape"
   xmlns:sodipodi="http://sodipodi.sourceforge.net/DTD/sodipodi-0.dtd"
   xmlns="http://www.w3.org/2000/svg"
   xmlns:svg="http://www.w3.org/2000/svg"
   xmlns:rdf="http://www.w3.org/1999/02/22-rdf-syntax-ns#"
   xmlns:cc="http://creativecommons.org/ns#"
   xmlns:dc="http://purl.org/dc/elements/1.1/">
  <metadata
     id="metadata8">
    <rdf:RDF>
      <cc:Work
         rdf:about="">
        <dc:format>image/svg+xml</dc:format>
        <dc:type
           rdf:resource="http://purl.org/dc/dcmitype/StillImage" />
        <dc:title />
      </cc:Work>
    </rdf:RDF>
  </metadata>
  <sodipodi:namedview
     id="namedview1"
     pagecolor="#ffffff"
     bordercolor="#666666"
     borderopacity="1.0"
     inkscape:showpageshadow="2"
     inkscape:pageopacity="0.0"
     inkscape:pagecheckerboard="0"
     inkscape:deskcolor="#d1d1d1"
     inkscape:document-units="mm"
     inkscape:zoom="12.890851"
     inkscape:cx="-3.8011455"
     inkscape:cy="17.803324"
     inkscape:window-width="2880"
     inkscape:window-height="1514"
     inkscape:window-x="2871"
     inkscape:window-y="-11"
     inkscape:window-maximized="1"
     inkscape:current-layer="layer1"
     showgrid="false"
     units="px" />
  <defs
     id="defs1" />
  <g
     inkscape:label="Warstwa 1"
     inkscape:groupmode="layer"
     id="layer1"
     transform="translate(0,-292.76667)">
    <path
       d="m 2.1650034,294.42954 c -0.04672,0 -0.085235,-0.0387 -0.085235,-0.0862 0,-0.0477 0.038516,-0.0862 0.085235,-0.0862 0.047543,0 0.085678,0.0383 0.085678,0.0862 0,0.0475 -0.038137,0.0862 -0.085678,0.0862 z m 0.6916368,0.75403 -0.045643,-0.28592 c -0.00519,-0.0268 -0.028443,-0.0471 -0.056094,-0.0471 -0.01682,0 -0.031801,0.007 -0.042665,0.0188 l -0.2102846,0.19828 c -0.00328,0.003 -0.00668,0.006 -0.00972,0.0107 -0.019767,0.027 -0.014126,0.0655 0.012798,0.0858 0.00514,0.003 0.010834,0.006 0.01644,0.009 l 0.052674,0.0177 c -0.050743,0.1444 -0.1968868,0.27503 -0.3494928,0.30546 v -0.95021 c 0.074782,-0.032 0.1487102,-0.11567 0.1487102,-0.20225 0,-0.11586 -0.093185,-0.20952 -0.2083525,-0.20952 -0.1147555,0 -0.2082894,0.0937 -0.2082894,0.20952 0,0.0866 0.066769,0.17025 0.1412037,0.20225 v 0.95021 c -0.1559637,-0.0281 -0.2979273,-0.15837 -0.3499364,-0.30549 l 0.053149,-0.0177 c 0.00561,-0.002 0.011183,-0.005 0.016439,-0.009 0.026893,-0.0203 0.03288,-0.0588 0.012733,-0.0857 -0.00305,-0.004 -0.00598,-0.007 -0.00975,-0.0107 l -0.2102578,-0.19823 c -0.01048,-0.0118 -0.025815,-0.0188 -0.042285,-0.0188 -0.028033,0 -0.051628,0.0203 -0.056475,0.0471 l -0.045643,0.28593 c -0.00104,0.005 -0.00143,0.01 -0.00143,0.0143 0,0.0337 0.027304,0.0613 0.061004,0.0613 0.00634,0 0.012323,-8.1e-4 0.017929,-0.002 l 0.04938,-0.0162 c 0.078552,0.24002 0.3032801,0.41385 0.5685194,0.41385 0.2652075,0 0.4900307,-0.17383 0.5685824,-0.41424 l 0.049412,0.0165 c 0.00555,0.001 0.011624,0.002 0.017898,0.002 0.03367,0 0.060973,-0.0275 0.060973,-0.0613 -4.41e-5,-0.005 -3.759e-4,-0.01 -0.00153,-0.0143 z"
       id="path1"
       style="fill:#231f20;stroke-width:0.031674"
       inkscape:connector-curvature="0" />
  </g>
</svg>
