<?xml version="1.0" encoding="UTF-8" standalone="no"?>
<!-- Created with Inkscape (http://www.inkscape.org/) -->

<svg
   xmlns:dc="http://purl.org/dc/elements/1.1/"
   xmlns:cc="http://creativecommons.org/ns#"
   xmlns:rdf="http://www.w3.org/1999/02/22-rdf-syntax-ns#"
   xmlns:svg="http://www.w3.org/2000/svg"
   xmlns="http://www.w3.org/2000/svg"
   xmlns:sodipodi="http://sodipodi.sourceforge.net/DTD/sodipodi-0.dtd"
   xmlns:inkscape="http://www.inkscape.org/namespaces/inkscape"
   width="16"
   height="16"
   viewBox="0 0 4.2333333 4.2333333"
   version="1.1"
   id="svg1"
   inkscape:version="0.92.5 (2060ec1f9f, 2020-04-08)"
   sodipodi:docname="4301.svg">
  <metadata
     id="metadata8">
    <rdf:RDF>
      <cc:Work
         rdf:about="">
        <dc:format>image/svg+xml</dc:format>
        <dc:type
           rdf:resource="http://purl.org/dc/dcmitype/StillImage" />
        <dc:title></dc:title>
      </cc:Work>
    </rdf:RDF>
  </metadata>
  <sodipodi:namedview
     id="namedview1"
     pagecolor="#ffffff"
     bordercolor="#666666"
     borderopacity="1.0"
     inkscape:showpageshadow="2"
     inkscape:pageopacity="0.0"
     inkscape:pagecheckerboard="0"
     inkscape:deskcolor="#d1d1d1"
     inkscape:document-units="mm"
     inkscape:zoom="12.890851"
     inkscape:cx="-3.7673845"
     inkscape:cy="17.755168"
     inkscape:window-width="1920"
     inkscape:window-height="1055"
     inkscape:window-x="1366"
     inkscape:window-y="0"
     inkscape:window-maximized="1"
     inkscape:current-layer="layer1"
     showgrid="false"
     units="px" />
  <defs
     id="defs1" />
  <g
     inkscape:label="Warstwa 1"
     inkscape:groupmode="layer"
     id="layer1"
     transform="translate(0,-292.76667)">
    <path
       d="m 2.1188533,294.41006 c -0.043642,0 -0.07962,-0.0362 -0.07962,-0.0805 0,-0.0446 0.035979,-0.0805 0.07962,-0.0805 0.044411,0 0.080034,0.0358 0.080034,0.0805 0,0.0444 -0.035625,0.0805 -0.080034,0.0805 z m 0.6460734,0.70436 -0.042636,-0.26709 c -0.00485,-0.025 -0.026569,-0.044 -0.052399,-0.044 -0.015712,0 -0.029706,0.007 -0.039854,0.0176 l -0.1964315,0.18522 c -0.00306,0.003 -0.00624,0.006 -0.00908,0.01 -0.018465,0.0252 -0.013195,0.0612 0.011955,0.0801 0.0048,0.003 0.01012,0.006 0.015357,0.008 l 0.049204,0.0165 c -0.0474,0.13489 -0.1839164,0.25691 -0.326469,0.28534 v -0.88762 c 0.069856,-0.0299 0.1389135,-0.10805 0.1389135,-0.18892 0,-0.10823 -0.087046,-0.19572 -0.1946267,-0.19572 -0.1071957,0 -0.1945678,0.0875 -0.1945678,0.19572 0,0.0809 0.06237,0.15903 0.1319015,0.18892 v 0.88762 c -0.1456892,-0.0263 -0.2783005,-0.14794 -0.3268834,-0.28537 l 0.049648,-0.0165 c 0.00524,-0.002 0.010446,-0.005 0.015356,-0.008 0.025121,-0.019 0.030714,-0.0549 0.011894,-0.0801 -0.00285,-0.004 -0.00559,-0.007 -0.00911,-0.01 l -0.1964065,-0.18517 c -0.00979,-0.011 -0.024114,-0.0176 -0.039499,-0.0176 -0.026186,0 -0.048227,0.019 -0.052755,0.044 l -0.042636,0.26709 c -9.758e-4,0.005 -0.00134,0.009 -0.00134,0.0134 0,0.0315 0.025505,0.0573 0.056985,0.0573 0.00592,0 0.011511,-7.6e-4 0.016748,-0.002 l 0.046127,-0.0151 c 0.073377,0.22421 0.2833007,0.38659 0.5310667,0.38659 0.2477362,0 0.4577486,-0.16238 0.5311255,-0.38695 l 0.046157,0.0154 c 0.00518,10e-4 0.010858,0.002 0.016719,0.002 0.031452,0 0.056956,-0.0257 0.056956,-0.0573 -4.12e-5,-0.005 -3.512e-4,-0.009 -0.00143,-0.0134 z"
       id="path1"
       style="fill:#231f20;stroke-width:0.02958738"
       inkscape:connector-curvature="0" />
  </g>
</svg>
