<?xml version="1.0" encoding="UTF-8" standalone="no"?>
<!-- Created with Inkscape (http://www.inkscape.org/) -->

<svg
   width="16"
   height="16"
   viewBox="0 0 4.2333333 4.2333333"
   version="1.1"
   id="svg1"
   inkscape:version="1.3 (0e150ed6c4, 2023-07-21)"
   sodipodi:docname="4400.svg"
   xmlns:inkscape="http://www.inkscape.org/namespaces/inkscape"
   xmlns:sodipodi="http://sodipodi.sourceforge.net/DTD/sodipodi-0.dtd"
   xmlns="http://www.w3.org/2000/svg"
   xmlns:svg="http://www.w3.org/2000/svg">
  <sodipodi:namedview
     id="namedview1"
     pagecolor="#ffffff"
     bordercolor="#666666"
     borderopacity="1.0"
     inkscape:showpageshadow="2"
     inkscape:pageopacity="0.0"
     inkscape:pagecheckerboard="0"
     inkscape:deskcolor="#d1d1d1"
     inkscape:document-units="mm"
     inkscape:zoom="12.890851"
     inkscape:cx="6.5550367"
     inkscape:cy="28.818889"
     inkscape:window-width="1903"
     inkscape:window-height="1266"
     inkscape:window-x="705"
     inkscape:window-y="199"
     inkscape:window-maximized="0"
     inkscape:current-layer="layer1" />
  <defs
     id="defs1" />
  <g
     inkscape:label="Warstwa 1"
     inkscape:groupmode="layer"
     id="layer1">
    <g
       id="g1"
       transform="matrix(0.25659491,0,0,0.25659491,0.50494582,-0.40963062)">
      <g
         id="g6"
         transform="matrix(0.27081327,0,0,0.27081327,3.4926058,6.3417583)">
        <rect
           class="cls-1"
           x="1.48"
           y="1.5"
           width="13.36"
           height="8.5900002"
           id="rect1"
           style="fill:none;stroke:#020202;stroke-width:1.91px;stroke-miterlimit:10" />
        <rect
           class="cls-1"
           x="2.4300001"
           y="10.09"
           width="11.45"
           height="12.41"
           id="rect2"
           style="fill:none;stroke:#020202;stroke-width:1.91px;stroke-miterlimit:10" />
        <line
           class="cls-1"
           x1="15.8"
           y1="22.5"
           x2="0.51999998"
           y2="22.5"
           id="line2"
           style="fill:none;stroke:#020202;stroke-width:1.91px;stroke-miterlimit:10" />
        <path
           class="cls-1"
           d="m 10.24,17.56 a 2.08,2.08 0 0 1 -4.16,0 c 0,-1.78 2.08,-3.86 2.08,-3.86 0,0 2.08,2.08 2.08,3.86 z"
           id="path2"
           style="fill:none;stroke:#020202;stroke-width:1.91px;stroke-miterlimit:10" />
        <line
           class="cls-1"
           x1="5.3000002"
           y1="4.3600001"
           x2="5.3000002"
           y2="7.23"
           id="line3"
           style="fill:none;stroke:#020202;stroke-width:1.91px;stroke-miterlimit:10" />
        <line
           class="cls-1"
           x1="8.1599998"
           y1="4.3600001"
           x2="8.1599998"
           y2="7.23"
           id="line4"
           style="fill:none;stroke:#020202;stroke-width:1.91px;stroke-miterlimit:10" />
        <line
           class="cls-1"
           x1="11.02"
           y1="4.3600001"
           x2="11.02"
           y2="7.23"
           id="line5"
           style="fill:none;stroke:#020202;stroke-width:1.91px;stroke-miterlimit:10" />
        <path
           class="cls-1"
           d="m 13.89,10.09 h 2.86 A 1.92,1.92 0 0 1 18.66,12 v 7.64 a 1.91,1.91 0 0 0 1.91,1.91 v 0 a 1.92,1.92 0 0 0 1.91,-1.91 V 6.27 L 18.66,2.45"
           id="path5"
           style="fill:none;stroke:#020202;stroke-width:1.91px;stroke-miterlimit:10" />
        <path
           class="cls-1"
           d="m 21.13,4.93 a 1.87,1.87 0 0 0 -0.56,1.34 1.92,1.92 0 0 0 1.91,1.91"
           id="path6"
           style="fill:none;stroke:#020202;stroke-width:1.91px;stroke-miterlimit:10" />
      </g>
    </g>
  </g>
</svg>
