<?xml version="1.0" encoding="UTF-8" standalone="no"?>
<!-- Created with Inkscape (http://www.inkscape.org/) -->

<svg
   xmlns:dc="http://purl.org/dc/elements/1.1/"
   xmlns:cc="http://creativecommons.org/ns#"
   xmlns:rdf="http://www.w3.org/1999/02/22-rdf-syntax-ns#"
   xmlns:svg="http://www.w3.org/2000/svg"
   xmlns="http://www.w3.org/2000/svg"
   xmlns:sodipodi="http://sodipodi.sourceforge.net/DTD/sodipodi-0.dtd"
   xmlns:inkscape="http://www.inkscape.org/namespaces/inkscape"
   width="16"
   height="16"
   viewBox="0 0 4.2333333 4.2333333"
   version="1.1"
   id="svg1"
   inkscape:version="0.92.5 (2060ec1f9f, 2020-04-08)"
   sodipodi:docname="4500.svg">
  <metadata
     id="metadata12">
    <rdf:RDF>
      <cc:Work
         rdf:about="">
        <dc:format>image/svg+xml</dc:format>
        <dc:type
           rdf:resource="http://purl.org/dc/dcmitype/StillImage" />
        <dc:title></dc:title>
      </cc:Work>
    </rdf:RDF>
  </metadata>
  <sodipodi:namedview
     id="namedview1"
     pagecolor="#ffffff"
     bordercolor="#666666"
     borderopacity="1.0"
     inkscape:showpageshadow="2"
     inkscape:pageopacity="0.0"
     inkscape:pagecheckerboard="0"
     inkscape:deskcolor="#d1d1d1"
     inkscape:document-units="mm"
     inkscape:zoom="18.230416"
     inkscape:cx="5.5757118"
     inkscape:cy="0.016792389"
     inkscape:window-width="1366"
     inkscape:window-height="768"
     inkscape:window-x="1920"
     inkscape:window-y="154"
     inkscape:window-maximized="0"
     inkscape:current-layer="layer1"
     showgrid="false"
     units="px" />
  <defs
     id="defs1" />
  <g
     inkscape:label="Warstwa 1"
     inkscape:groupmode="layer"
     id="layer1"
     transform="translate(0,-292.76667)">
    <g
       id="g1"
       transform="matrix(0.01452053,0,0,0.01452053,0.5572179,293.23258)">
      <g
         id="g3"
         transform="matrix(2.1909559,0,0,2.1909559,40.307152,44.090998)">
        <path
           d="m 7.7786277,56.039253 c -1.7775,0 -3.2175,-1.44125 -3.2175,-3.21625 V 7.7792527 c 0,-1.7775 1.44,-3.2175 3.2175,-3.2175 H 52.822378 c 1.77625,0 3.2175,1.44 3.2175,3.2175 V 52.823003 c 0,1.775 -1.44125,3.21625 -3.2175,3.21625 z"
           style="fill:#ffffff;fill-opacity:1;stroke:#000000;stroke-width:0.60624999;stroke-linecap:butt;stroke-linejoin:miter;stroke-miterlimit:4;stroke-dasharray:none;stroke-opacity:1"
           id="path1"
           inkscape:connector-curvature="0" />
        <path
           d="m 38.44738,9.7692497 c -2.71,0 -4.9075,2.1962503 -4.9075,4.9075003 V 31.2255 c 0,1.86125 1.03875,3.4825 2.5675,4.31375 V 50.7055 h 3.195 V 9.8504997 c -0.27625,-0.0475 -0.565,-0.08125 -0.855,-0.08125"
           style="fill:#000000;fill-opacity:1;fill-rule:nonzero;stroke:none"
           id="path2"
           inkscape:connector-curvature="0" />
        <path
           d="m 28.542379,19.743001 c 0,-0.23625 -0.01,-0.4725 -0.03,-0.70125 l -0.7675,-9.1925003 h -1.295 v 9.9937503 h -1.13625 V 9.8505007 h -1.28625 v 9.9925003 h -1.13625 V 9.8505007 h -1.28625 v 9.9925003 h -1.135 V 9.8492507 h -1.29625 l -0.78875,9.0712503 c -0.02625,0.27 -0.04,0.545 -0.04,0.8225 0,2.7575 1.395,5.19375 3.51375,6.6425 v 24.32 h 3.225 l -0.01,-24.35875 c 2.09375,-1.45 3.46875,-3.8675 3.46875,-6.60375"
           style="fill:#000000;fill-opacity:1;fill-rule:nonzero;stroke:none"
           id="path3"
           inkscape:connector-curvature="0" />
      </g>
    </g>
  </g>
</svg>
