<?xml version="1.0" encoding="UTF-8" standalone="no"?>
<!-- Created with Inkscape (http://www.inkscape.org/) -->

<svg
   width="210mm"
   height="297mm"
   viewBox="0 0 210 297"
   version="1.1"
   id="svg1"
   inkscape:version="1.3 (0e150ed6c4, 2023-07-21)"
   sodipodi:docname="4600.svg"
   xmlns:inkscape="http://www.inkscape.org/namespaces/inkscape"
   xmlns:sodipodi="http://sodipodi.sourceforge.net/DTD/sodipodi-0.dtd"
   xmlns="http://www.w3.org/2000/svg"
   xmlns:svg="http://www.w3.org/2000/svg">
  <sodipodi:namedview
     id="namedview1"
     pagecolor="#ffffff"
     bordercolor="#666666"
     borderopacity="1.0"
     inkscape:showpageshadow="2"
     inkscape:pageopacity="0.0"
     inkscape:pagecheckerboard="0"
     inkscape:deskcolor="#d1d1d1"
     inkscape:document-units="mm"
     inkscape:zoom="0.5697005"
     inkscape:cx="-48.270977"
     inkscape:cy="562.5763"
     inkscape:window-width="1903"
     inkscape:window-height="1266"
     inkscape:window-x="3102"
     inkscape:window-y="154"
     inkscape:window-maximized="0"
     inkscape:current-layer="layer1" />
  <defs
     id="defs1" />
  <g
     inkscape:label="Warstwa 1"
     inkscape:groupmode="layer"
     id="layer1">
    <rect
       style="fill:none;stroke:#000000;stroke-width:0.522789;stroke-linecap:square;stroke-dasharray:none"
       id="rect4"
       width="159.47722"
       height="159.47722"
       x="24.416059"
       y="30.235018" />
    <path
       fill-rule="evenodd"
       clip-rule="evenodd"
       d="m 74.33025,72.622531 c 1.39549,-2.48786 3.946828,-4.07695 6.790946,-4.07695 2.884452,0 5.521348,1.6259 6.896232,4.07695 h 7.188793 c 1.374883,-2.45099 4.011999,-4.07695 6.896399,-4.07695 2.92451,0 5.6468,1.66157 7.00135,4.07695 h 7.18929 c 1.39521,-2.48786 3.94661,-4.07695 6.79089,-4.07695 4.22686,0 7.86794,3.56992 7.86794,8.24271 0,4.67279 -3.64108,8.2427 -7.86794,8.2427 -2.84428,0 -5.39568,-1.58908 -6.79089,-4.07695 h -7.18929 c -1.35455,2.41539 -4.07684,4.07695 -7.00135,4.07695 -2.8844,0 -5.521516,-1.62595 -6.896399,-4.07695 h -7.188793 c -1.374884,2.45105 -4.01178,4.07695 -6.896232,4.07695 -2.844118,0 -5.395456,-1.58908 -6.790946,-4.07695 -0.681177,-1.21432 -1.077101,-2.63299 -1.077101,-4.16575 0,-1.53276 0.395924,-2.95144 1.077101,-4.16576 z m 6.790946,-12.31965 c -6.031408,0 -11.229423,3.38374 -13.979903,8.2871 -1.35911,2.42286 -2.130852,5.22703 -2.130852,8.19831 0,2.97127 0.771742,5.77544 2.130852,8.1983 1.442091,2.57079 3.556891,4.7239 6.111856,6.19055 v 57.717229 l 6.612902,6.19962 h 44.473189 l 6.61285,-6.19962 v -10.28579 c 6.82825,0 12.36405,-5.5358 12.36405,-12.36406 v -16.48541 c 0,-6.82826 -5.5358,-12.364059 -12.36405,-12.364059 v -6.21258 c 4.95002,-2.8411 8.2427,-8.27348 8.2427,-14.39418 0,-8.98417 -7.09422,-16.48541 -16.11064,-16.48541 -3.99222,0 -7.61901,1.48225 -10.41274,3.90627 -2.8789,-2.44292 -6.61284,-3.90627 -10.56879,-3.90627 -3.974085,0 -7.654179,1.47275 -10.490769,3.90638 -2.836315,-2.43363 -6.516518,-3.90638 -10.490655,-3.90638 z m 41.588184,32.96648 c -3.84385,-0.0896 -7.33161,-1.55397 -10.03797,-3.90193 -2.8789,2.44291 -6.61284,3.90627 -10.56879,3.90627 -3.974085,0 -7.654179,-1.47275 -10.490769,-3.90639 -2.746964,2.35698 -6.285502,3.81264 -10.115997,3.90205 v 52.054279 l 1.629802,1.52764 h 37.953864 l 1.62986,-1.52764 z m 12.36406,16.489749 v 16.48541 c 0,2.27609 -1.84527,4.12135 -4.12135,4.12135 v -24.72811 c 2.27608,0 4.12135,1.84526 4.12135,4.12135 z m -45.334881,24.72811 v -32.97081 h 8.242706 v 32.97081 z m 16.485411,-32.97081 v 32.97081 h 8.24271 v -32.97081 z"
       fill="#080341"
       id="path1"
       style="stroke-width:5.49513" />
  </g>
</svg>
