<?xml version="1.0" encoding="UTF-8" standalone="no"?>
<!-- Created with Inkscape (http://www.inkscape.org/) -->

<svg
   width="16"
   height="16"
   viewBox="0 0 4.2333333 4.2333333"
   version="1.1"
   id="svg1"
   inkscape:version="1.3 (0e150ed6c4, 2023-07-21)"
   sodipodi:docname="4600.svg"
   xmlns:inkscape="http://www.inkscape.org/namespaces/inkscape"
   xmlns:sodipodi="http://sodipodi.sourceforge.net/DTD/sodipodi-0.dtd"
   xmlns="http://www.w3.org/2000/svg"
   xmlns:svg="http://www.w3.org/2000/svg"
   xmlns:rdf="http://www.w3.org/1999/02/22-rdf-syntax-ns#"
   xmlns:cc="http://creativecommons.org/ns#"
   xmlns:dc="http://purl.org/dc/elements/1.1/">
  <metadata
     id="metadata8">
    <rdf:RDF>
      <cc:Work
         rdf:about="">
        <dc:format>image/svg+xml</dc:format>
        <dc:type
           rdf:resource="http://purl.org/dc/dcmitype/StillImage" />
        <dc:title />
      </cc:Work>
    </rdf:RDF>
  </metadata>
  <sodipodi:namedview
     id="namedview1"
     pagecolor="#ffffff"
     bordercolor="#666666"
     borderopacity="1.0"
     inkscape:showpageshadow="2"
     inkscape:pageopacity="0.0"
     inkscape:pagecheckerboard="0"
     inkscape:deskcolor="#d1d1d1"
     inkscape:document-units="mm"
     inkscape:zoom="12.890851"
     inkscape:cx="21.177811"
     inkscape:cy="26.103785"
     inkscape:window-width="2880"
     inkscape:window-height="1514"
     inkscape:window-x="2871"
     inkscape:window-y="-11"
     inkscape:window-maximized="1"
     inkscape:current-layer="layer1"
     showgrid="false"
     units="px" />
  <defs
     id="defs1" />
  <g
     inkscape:label="Warstwa 1"
     inkscape:groupmode="layer"
     id="layer1"
     transform="translate(0,-292.76667)">
    <path
       d="m 1.6930132,294.41049 c 0.022557,-0.0401 0.063786,-0.0659 0.1097518,-0.0659 0.046622,0 0.089234,0.0262 0.1114551,0.0659 h 0.1161826 c 0.02222,-0.0397 0.064837,-0.0659 0.1114574,-0.0659 0.047264,0 0.091261,0.0269 0.1131528,0.0659 h 0.1161907 c 0.022548,-0.0401 0.063786,-0.0659 0.1097518,-0.0659 0.068312,0 0.1271582,0.0578 0.1271582,0.13321 0,0.0754 -0.058842,0.13322 -0.1271582,0.13322 -0.045972,0 -0.087204,-0.0257 -0.1097518,-0.0659 H 2.2550128 c -0.02189,0.0389 -0.065888,0.0659 -0.1131528,0.0659 -0.046614,0 -0.089236,-0.0263 -0.1114574,-0.0659 H 1.9142205 c -0.02222,0.0397 -0.064837,0.0659 -0.1114551,0.0659 -0.045964,0 -0.087198,-0.0257 -0.1097518,-0.0659 -0.011007,-0.0197 -0.017405,-0.0426 -0.017405,-0.0673 0,-0.0247 0.00642,-0.0476 0.017405,-0.0673 z m 0.1097518,-0.19911 c -0.097477,0 -0.1814855,0.0548 -0.2259373,0.13394 -0.021963,0.0393 -0.034441,0.0844 -0.034441,0.1325 0,0.0479 0.01247,0.0933 0.034441,0.1325 0.023303,0.0415 0.057486,0.0764 0.098778,0.0999 v 0.93282 l 0.1068737,0.10025 H 2.501237 l 0.1068737,-0.10025 v -0.16624 c 0.1103556,0 0.1998228,-0.0894 0.1998228,-0.19983 v -0.26644 c 0,-0.11029 -0.089467,-0.19981 -0.1998228,-0.19981 v -0.10036 c 0.080002,-0.0459 0.1332149,-0.1337 0.1332149,-0.23262 0,-0.1452 -0.1146536,-0.26645 -0.2603731,-0.26645 -0.064525,0 -0.1231353,0.0241 -0.168287,0.0631 -0.046525,-0.0395 -0.1068737,-0.0631 -0.1708084,-0.0631 -0.064227,0 -0.1237036,0.024 -0.1695476,0.0631 -0.045835,-0.0394 -0.1053181,-0.0631 -0.1695457,-0.0631 z m 0.6721324,0.53279 c -0.062124,-10e-4 -0.1184916,-0.025 -0.1622303,-0.063 -0.046525,0.0395 -0.1068737,0.0631 -0.1708083,0.0631 -0.064227,0 -0.1237037,-0.024 -0.1695477,-0.0631 -0.044398,0.0382 -0.1015831,0.0616 -0.1634909,0.063 v 0.84129 l 0.026344,0.0247 h 0.6133946 l 0.026344,-0.0247 z m 0.1998227,0.26651 v 0.26642 c 0,0.0367 -0.02982,0.0667 -0.06661,0.0667 v -0.39964 c 0.036784,0 0.06661,0.0299 0.06661,0.0666 z m -0.7326841,0.39965 v -0.53287 h 0.133215 v 0.53287 z m 0.2664306,-0.53287 v 0.53287 h 0.1332149 v -0.53287 z"
       id="path1"
       style="clip-rule:evenodd;fill:#080341;fill-rule:evenodd;stroke-width:0.0888101"
       inkscape:connector-curvature="0" />
  </g>
</svg>
