<?xml version="1.0" encoding="UTF-8" standalone="no"?>
<!-- Created with Inkscape (http://www.inkscape.org/) -->

<svg
   xmlns:dc="http://purl.org/dc/elements/1.1/"
   xmlns:cc="http://creativecommons.org/ns#"
   xmlns:rdf="http://www.w3.org/1999/02/22-rdf-syntax-ns#"
   xmlns:svg="http://www.w3.org/2000/svg"
   xmlns="http://www.w3.org/2000/svg"
   xmlns:sodipodi="http://sodipodi.sourceforge.net/DTD/sodipodi-0.dtd"
   xmlns:inkscape="http://www.inkscape.org/namespaces/inkscape"
   width="16"
   height="16"
   viewBox="0 0 4.2333333 4.2333333"
   version="1.1"
   id="svg1"
   inkscape:version="0.92.5 (2060ec1f9f, 2020-04-08)"
   sodipodi:docname="4600.svg">
  <metadata
     id="metadata8">
    <rdf:RDF>
      <cc:Work
         rdf:about="">
        <dc:format>image/svg+xml</dc:format>
        <dc:type
           rdf:resource="http://purl.org/dc/dcmitype/StillImage" />
        <dc:title></dc:title>
      </cc:Work>
    </rdf:RDF>
  </metadata>
  <sodipodi:namedview
     id="namedview1"
     pagecolor="#ffffff"
     bordercolor="#666666"
     borderopacity="1.0"
     inkscape:showpageshadow="2"
     inkscape:pageopacity="0.0"
     inkscape:pagecheckerboard="0"
     inkscape:deskcolor="#d1d1d1"
     inkscape:document-units="mm"
     inkscape:zoom="12.890851"
     inkscape:cx="21.190113"
     inkscape:cy="26.047412"
     inkscape:window-width="1920"
     inkscape:window-height="1055"
     inkscape:window-x="1366"
     inkscape:window-y="0"
     inkscape:window-maximized="1"
     inkscape:current-layer="layer1"
     showgrid="false"
     units="px" />
  <defs
     id="defs1" />
  <g
     inkscape:label="Warstwa 1"
     inkscape:groupmode="layer"
     id="layer1"
     transform="translate(0,-292.76667)">
    <path
       d="m 1.6635029,294.37147 c 0.018137,-0.0323 0.051289,-0.053 0.08825,-0.053 0.037488,0 0.071752,0.0211 0.089619,0.053 h 0.09342 c 0.017866,-0.0319 0.052134,-0.053 0.089621,-0.053 0.038004,0 0.073381,0.0216 0.090984,0.053 h 0.093427 c 0.018131,-0.0323 0.051289,-0.053 0.088249,-0.053 0.054928,0 0.1022457,0.0464 0.1022457,0.10711 0,0.0607 -0.047314,0.10712 -0.1022457,0.10712 -0.036965,0 -0.070119,-0.0206 -0.088249,-0.053 h -0.093427 c -0.017602,0.0314 -0.052979,0.053 -0.090984,0.053 -0.037481,0 -0.071754,-0.0212 -0.089621,-0.053 h -0.09342 c -0.017866,0.0319 -0.052134,0.053 -0.089619,0.053 -0.036959,0 -0.070115,-0.0206 -0.08825,-0.053 -0.00885,-0.0158 -0.013995,-0.0342 -0.013995,-0.0541 0,-0.0199 0.00516,-0.0383 0.013995,-0.0541 z m 0.08825,-0.1601 c -0.078379,0 -0.1459293,0.044 -0.1816722,0.1077 -0.01766,0.0315 -0.027693,0.0679 -0.027693,0.10654 0,0.0386 0.010027,0.075 0.027693,0.10654 0.018737,0.0334 0.046224,0.0614 0.079425,0.0804 v 0.75006 l 0.085936,0.0806 h 0.5779406 l 0.085936,-0.0806 v -0.13367 c 0.088735,0 0.160674,-0.0719 0.160674,-0.16068 v -0.21423 c 0,-0.0887 -0.071939,-0.16067 -0.160674,-0.16067 v -0.0807 c 0.064329,-0.0369 0.1071158,-0.10751 0.1071158,-0.18705 0,-0.11675 -0.092191,-0.21424 -0.2093615,-0.21424 -0.051883,0 -0.099011,0.0193 -0.1353166,0.0508 -0.03741,-0.0317 -0.085936,-0.0508 -0.137344,-0.0508 -0.051644,0 -0.099468,0.0192 -0.1363303,0.0508 -0.036855,-0.0316 -0.084684,-0.0508 -0.1363288,-0.0508 z m 0.5404499,0.42841 c -0.049953,-10e-4 -0.095277,-0.0202 -0.1304465,-0.0507 -0.03741,0.0317 -0.085936,0.0508 -0.137344,0.0508 -0.051644,0 -0.099468,-0.0192 -0.1363303,-0.0508 -0.0357,0.0307 -0.081682,0.0496 -0.1314602,0.0507 v 0.67646 l 0.021183,0.0199 h 0.4932199 l 0.021183,-0.0199 z m 0.160674,0.21429 v 0.21423 c 0,0.0295 -0.023977,0.0536 -0.05356,0.0536 v -0.32135 c 0.029577,0 0.05356,0.024 0.05356,0.0535 z m -0.5891385,0.32135 v -0.42847 h 0.1071158 v 0.42847 z m 0.2142322,-0.42847 v 0.42847 h 0.1071158 v -0.42847 z"
       id="path1"
       style="clip-rule:evenodd;fill:#080341;fill-rule:evenodd;stroke-width:0.07141064"
       inkscape:connector-curvature="0" />
  </g>
</svg>
