<?xml version="1.0" encoding="UTF-8" standalone="no"?>
<!-- Created with Inkscape (http://www.inkscape.org/) -->

<svg
   xmlns:dc="http://purl.org/dc/elements/1.1/"
   xmlns:cc="http://creativecommons.org/ns#"
   xmlns:rdf="http://www.w3.org/1999/02/22-rdf-syntax-ns#"
   xmlns:svg="http://www.w3.org/2000/svg"
   xmlns="http://www.w3.org/2000/svg"
   xmlns:sodipodi="http://sodipodi.sourceforge.net/DTD/sodipodi-0.dtd"
   xmlns:inkscape="http://www.inkscape.org/namespaces/inkscape"
   width="16"
   height="16"
   viewBox="0 0 4.2333333 4.2333333"
   version="1.1"
   id="svg1"
   inkscape:version="0.92.5 (2060ec1f9f, 2020-04-08)"
   sodipodi:docname="4b01.svg">
  <metadata
     id="metadata11">
    <rdf:RDF>
      <cc:Work
         rdf:about="">
        <dc:format>image/svg+xml</dc:format>
        <dc:type
           rdf:resource="http://purl.org/dc/dcmitype/StillImage" />
        <dc:title></dc:title>
      </cc:Work>
    </rdf:RDF>
  </metadata>
  <sodipodi:namedview
     id="namedview1"
     pagecolor="#ffffff"
     bordercolor="#666666"
     borderopacity="1.0"
     inkscape:showpageshadow="2"
     inkscape:pageopacity="0.0"
     inkscape:pagecheckerboard="0"
     inkscape:deskcolor="#d1d1d1"
     inkscape:document-units="mm"
     inkscape:zoom="18.230416"
     inkscape:cx="21.157451"
     inkscape:cy="2.4715801"
     inkscape:window-width="1920"
     inkscape:window-height="1055"
     inkscape:window-x="1366"
     inkscape:window-y="0"
     inkscape:window-maximized="1"
     inkscape:current-layer="layer1"
     showgrid="false"
     units="px" />
  <defs
     id="defs1" />
  <g
     inkscape:label="Warstwa 1"
     inkscape:groupmode="layer"
     id="layer1"
     transform="translate(0,-292.76667)">
    <path
       d="m 3.1457076,294.57126 c 0.143629,0.14354 0.143629,0.37637 0,0.51992 l -0.7341847,0.73426 c -0.1436289,0.14355 -0.3763681,0.14355 -0.5199971,0 l -0.7341847,-0.73426 c -0.1436291,-0.14355 -0.1436291,-0.37638 0,-0.51992 L 1.8915258,293.837 c 0.143629,-0.14364 0.3763682,-0.14364 0.5199971,0 z m -0.3904637,0.46832 v -0.38432 h -0.406179 v -0.40617 h -0.384307 v 0.40617 H 1.5586597 v 0.38432 h 0.4060982 v 0.40609 h 0.384307 v -0.40609 z"
       id="path1"
       style="fill:#42bc90;stroke-width:0.002534"
       inkscape:connector-curvature="0" />
    <path
       d="m 2.7552439,294.65526 v 0.38432 h -0.406179 v 0.40609 h -0.384307 v -0.40609 H 1.5586597 v -0.38432 h 0.4060982 v -0.40617 h 0.384307 v 0.40617 z"
       id="path2"
       style="fill:#ff4893;stroke-width:0.002534"
       inkscape:connector-curvature="0" />
    <path
       d="m 2.1515244,295.98981 c -0.1133398,0 -0.2199071,-0.0441 -0.3000818,-0.12427 l -0.7342012,-0.73428 c -0.080166,-0.0801 -0.12432439,-0.18669 -0.12432439,-0.30005 0,-0.11337 0.0441581,-0.21993 0.12434079,-0.30007 l 0.7341685,-0.73425 c 0.080175,-0.0802 0.1867583,-0.12433 0.3000981,-0.12433 0.1133476,0 0.2199232,0.0442 0.3000897,0.12433 l 0.734193,0.73428 c 0.080167,0.0801 0.1243326,0.18668 0.1243326,0.30005 0,0.11336 -0.044158,0.21992 -0.1243488,0.30006 l -0.7341688,0.73425 c -0.080191,0.0801 -0.1867581,0.12428 -0.3000977,0.12428 z m 0,-2.20383 c -0.083051,0 -0.1611434,0.0324 -0.2198992,0.0911 l -0.7341765,0.73427 c -0.058764,0.0587 -0.091119,0.13681 -0.091119,0.21986 0,0.0831 0.032355,0.16114 0.091103,0.21986 l 0.7342008,0.73428 c 0.05874,0.0587 0.1368407,0.091 0.2198991,0.091 0.083059,0 0.1611512,-0.0323 0.2199153,-0.0911 L 3.1056163,295.051 c 0.058764,-0.0587 0.091119,-0.13681 0.091119,-0.21987 0,-0.0831 -0.032355,-0.16113 -0.091103,-0.21984 L 2.3714315,293.877 c -0.058764,-0.0587 -0.136857,-0.0911 -0.2199072,-0.0911 z"
       id="path3"
       style="fill:#4f46a3;stroke-width:0.002534"
       inkscape:connector-curvature="0" />
    <path
       d="m 2.3490649,295.50238 h -0.384307 a 0.05670632,0.05670632 0 0 1 -0.056706,-0.0567 v -0.3494 H 1.5586597 a 0.05670632,0.05670632 0 0 1 -0.056706,-0.0567 v -0.38432 a 0.05670632,0.05670632 0 0 1 0.056706,-0.0567 h 0.3493919 v -0.34947 a 0.05670632,0.05670632 0 0 1 0.056706,-0.0567 h 0.384307 a 0.05670632,0.05670632 0 0 1 0.056706,0.0567 v 0.34947 h 0.3494728 a 0.05670632,0.05670632 0 0 1 0.056706,0.0567 v 0.38432 a 0.05670632,0.05670632 0 0 1 -0.056706,0.0567 H 2.4057711 v 0.34939 a 0.05670632,0.05670632 0 0 1 -0.056706,0.0567 z m -0.3276008,-0.11342 h 0.2708943 v -0.34938 a 0.05670632,0.05670632 0 0 1 0.056707,-0.0567 h 0.3494723 v -0.2709 H 2.3490649 a 0.05670632,0.05670632 0 0 1 -0.056707,-0.0567 v -0.34947 H 2.0214641 v 0.34947 a 0.05670632,0.05670632 0 0 1 -0.056706,0.0567 H 1.615366 v 0.2709 h 0.3493919 a 0.05670632,0.05670632 0 0 1 0.056706,0.0567 z"
       id="path4"
       style="fill:#4f46a3;stroke-width:0.002534"
       inkscape:connector-curvature="0" />
  </g>
</svg>
