<?xml version="1.0" encoding="UTF-8" standalone="no"?>
<!-- Created with Inkscape (http://www.inkscape.org/) -->

<svg
   width="210mm"
   height="297mm"
   viewBox="0 0 210 297"
   version="1.1"
   id="svg1"
   inkscape:version="1.3 (0e150ed6c4, 2023-07-21)"
   sodipodi:docname="4b01.svg"
   xmlns:inkscape="http://www.inkscape.org/namespaces/inkscape"
   xmlns:sodipodi="http://sodipodi.sourceforge.net/DTD/sodipodi-0.dtd"
   xmlns="http://www.w3.org/2000/svg"
   xmlns:svg="http://www.w3.org/2000/svg">
  <sodipodi:namedview
     id="namedview1"
     pagecolor="#ffffff"
     bordercolor="#666666"
     borderopacity="1.0"
     inkscape:showpageshadow="2"
     inkscape:pageopacity="0.0"
     inkscape:pagecheckerboard="0"
     inkscape:deskcolor="#d1d1d1"
     inkscape:document-units="mm"
     inkscape:zoom="0.5697005"
     inkscape:cx="443.21534"
     inkscape:cy="906.61672"
     inkscape:window-width="1903"
     inkscape:window-height="1266"
     inkscape:window-x="3103"
     inkscape:window-y="155"
     inkscape:window-maximized="0"
     inkscape:current-layer="layer1" />
  <defs
     id="defs1" />
  <g
     inkscape:label="Warstwa 1"
     inkscape:groupmode="layer"
     id="layer1">
    <rect
       style="fill:none;stroke:#000000;stroke-width:0.522789;stroke-linecap:square;stroke-dasharray:none"
       id="rect4"
       width="159.47722"
       height="159.47722"
       x="24.416059"
       y="30.235018" />
    <path
       d="m 146.71288,95.467485 c 6.01656,6.013175 6.01656,15.765895 0,21.779075 l -30.7547,30.75809 c -6.01656,6.01317 -15.76591,6.01317 -21.782475,0 L 63.421006,117.24656 c -6.016561,-6.01318 -6.016561,-15.7659 0,-21.779075 L 94.175705,64.709389 c 6.016565,-6.016562 15.765915,-6.016562 21.782475,0 z M 130.35651,115.08494 V 98.986475 H 113.34184 V 81.971796 H 97.243376 V 98.986475 H 80.232081 v 16.098465 h 17.011295 v 17.01128 h 16.098464 v -17.01128 z"
       fill="#42bc90"
       id="path1"
       style="stroke-width:0.106148" />
    <path
       d="m 130.35651,98.986475 v 16.098465 h -17.01467 v 17.01128 H 97.243376 V 115.08494 H 80.232081 V 98.986475 H 97.243376 V 81.971796 h 16.098464 v 17.014679 z"
       fill="#ff4893"
       id="path2"
       style="stroke-width:0.106148" />
    <path
       d="m 105.06694,154.88993 c -4.74775,0 -9.211814,-1.84875 -12.5703,-5.20553 L 61.741251,118.92562 c -3.358139,-3.35645 -5.207902,-7.82017 -5.207902,-12.56894 0,-4.74878 1.849763,-9.212505 5.208583,-12.569635 L 92.495958,63.029634 c 3.358488,-3.358484 7.823232,-5.208239 12.570982,-5.208239 4.74809,0 9.2125,1.849755 12.57064,5.208239 l 30.75505,30.758441 c 3.35814,3.3561 5.20824,7.820165 5.20824,12.568935 0,4.74878 -1.84976,9.2125 -5.20892,12.56963 l -30.75403,30.75741 c -3.35915,3.35713 -7.82322,5.20588 -12.57098,5.20588 z m 0,-92.31739 c -3.47895,0 -6.750224,1.355332 -9.211484,3.816595 l -30.754358,30.7581 c -2.461599,2.46025 -3.816941,5.730825 -3.816941,9.210125 0,3.47928 1.355342,6.74988 3.816259,9.20944 l 30.75538,30.75878 c 2.46058,2.45922 5.732194,3.81421 9.211484,3.81421 3.47929,0 6.75056,-1.35499 9.21216,-3.81489 l 30.75403,-30.75742 c 2.4616,-2.46024 3.81693,-5.73084 3.81693,-9.21012 0,-3.4793 -1.35533,-6.749875 -3.81625,-9.209445 l -30.75538,-30.75878 c -2.46161,-2.461263 -5.73288,-3.816595 -9.21183,-3.816595 z"
       fill="#4f46a3"
       id="path3"
       style="stroke-width:0.106148" />
    <path
       d="M 113.34184,134.47163 H 97.243376 a 2.3754047,2.3754047 0 0 1 -2.37541,-2.37541 V 117.46034 H 80.232081 a 2.3754047,2.3754047 0 0 1 -2.3754,-2.3754 V 98.986475 a 2.3754047,2.3754047 0 0 1 2.3754,-2.3754 H 94.867966 V 81.971796 a 2.3754047,2.3754047 0 0 1 2.37541,-2.375409 h 16.098464 a 2.3754047,2.3754047 0 0 1 2.3754,2.375409 v 14.639279 h 14.63927 a 2.3754047,2.3754047 0 0 1 2.37541,2.3754 v 16.098465 a 2.3754047,2.3754047 0 0 1 -2.37541,2.3754 h -14.63927 v 14.63588 a 2.3754047,2.3754047 0 0 1 -2.3754,2.37541 z m -13.723064,-4.75081 h 11.347654 v -14.63588 a 2.3754047,2.3754047 0 0 1 2.37541,-2.37541 h 14.63927 v -11.34765 h -14.63927 a 2.3754047,2.3754047 0 0 1 -2.37541,-2.375405 V 84.347196 H 99.618776 v 14.639279 a 2.3754047,2.3754047 0 0 1 -2.3754,2.375405 H 82.60749 v 11.34765 h 14.635886 a 2.3754047,2.3754047 0 0 1 2.3754,2.37541 z"
       fill="#4f46a3"
       id="path4"
       style="stroke-width:0.106148" />
  </g>
</svg>
