<?xml version="1.0" encoding="UTF-8" standalone="no"?>
<!-- Created with Inkscape (http://www.inkscape.org/) -->

<svg
   width="16"
   height="16"
   viewBox="0 0 4.2333333 4.2333333"
   version="1.1"
   id="svg1"
   inkscape:version="1.3 (0e150ed6c4, 2023-07-21)"
   sodipodi:docname="4b01.svg"
   xmlns:inkscape="http://www.inkscape.org/namespaces/inkscape"
   xmlns:sodipodi="http://sodipodi.sourceforge.net/DTD/sodipodi-0.dtd"
   xmlns="http://www.w3.org/2000/svg"
   xmlns:svg="http://www.w3.org/2000/svg"
   xmlns:rdf="http://www.w3.org/1999/02/22-rdf-syntax-ns#"
   xmlns:cc="http://creativecommons.org/ns#"
   xmlns:dc="http://purl.org/dc/elements/1.1/">
  <metadata
     id="metadata11">
    <rdf:RDF>
      <cc:Work
         rdf:about="">
        <dc:format>image/svg+xml</dc:format>
        <dc:type
           rdf:resource="http://purl.org/dc/dcmitype/StillImage" />
        <dc:title />
      </cc:Work>
    </rdf:RDF>
  </metadata>
  <sodipodi:namedview
     id="namedview1"
     pagecolor="#ffffff"
     bordercolor="#666666"
     borderopacity="1.0"
     inkscape:showpageshadow="2"
     inkscape:pageopacity="0.0"
     inkscape:pagecheckerboard="0"
     inkscape:deskcolor="#d1d1d1"
     inkscape:document-units="mm"
     inkscape:zoom="18.230416"
     inkscape:cx="21.173406"
     inkscape:cy="2.4958289"
     inkscape:window-width="2880"
     inkscape:window-height="1514"
     inkscape:window-x="2871"
     inkscape:window-y="-11"
     inkscape:window-maximized="1"
     inkscape:current-layer="layer1"
     showgrid="false"
     units="px" />
  <defs
     id="defs1" />
  <g
     inkscape:label="Warstwa 1"
     inkscape:groupmode="layer"
     id="layer1"
     transform="translate(0,-292.76667)">
    <path
       d="m 2.7215622,294.66729 c 0.094029,0.094 0.094029,0.24637 0,0.34036 l -0.4806439,0.48069 c -0.094029,0.094 -0.2463942,0.094 -0.340423,0 L 1.419852,295.00765 c -0.094029,-0.094 -0.094029,-0.24641 0,-0.34036 l 0.4806433,-0.48072 c 0.094029,-0.094 0.2463944,-0.094 0.340423,0 z m -0.255622,0.30659 v -0.25162 H 2.2000296 v -0.2659 H 1.948438 v 0.2659 H 1.6825801 v 0.25162 H 1.948438 v 0.26583 h 0.2515916 v -0.26583 z"
       id="path1"
       style="fill:#42bc90;stroke-width:0.00165892"
       inkscape:connector-curvature="0" />
    <path
       d="m 2.4659402,294.72226 v 0.25162 H 2.2000296 v 0.26583 H 1.948438 v -0.26583 H 1.6825801 v -0.25162 H 1.948438 v -0.2659 h 0.2515916 v 0.2659 z"
       id="path2"
       style="fill:#ff4893;stroke-width:0.00165892"
       inkscape:connector-curvature="0" />
    <path
       d="m 2.0707071,295.59595 c -0.074201,0 -0.1439651,-0.0289 -0.1964528,-0.0813 l -0.4806541,-0.48073 c -0.052481,-0.0523 -0.081391,-0.12221 -0.081391,-0.19642 0,-0.0742 0.028909,-0.14399 0.081402,-0.19644 l 0.4806327,-0.48071 c 0.052486,-0.0524 0.1222641,-0.0813 0.1964635,-0.0813 0.074205,0 0.1439758,0.029 0.1964579,0.0813 l 0.4806489,0.48072 c 0.052481,0.0522 0.081396,0.1222 0.081396,0.19644 0,0.0742 -0.028906,0.14397 -0.081408,0.19643 l -0.4806332,0.48067 c -0.052496,0.0524 -0.1222637,0.0813 -0.1964625,0.0813 z m 0,-1.44276 c -0.054372,0 -0.105495,0.0212 -0.1439601,0.0598 l -0.4806383,0.4807 c -0.038469,0.0387 -0.059656,0.0896 -0.059656,0.14394 0,0.0543 0.021186,0.10549 0.059642,0.14393 l 0.4806542,0.48071 c 0.038453,0.0387 0.089585,0.0598 0.1439598,0.0598 0.054377,0 0.1054997,-0.0211 0.1439705,-0.0599 l 0.4806343,-0.48067 c 0.038469,-0.0386 0.059656,-0.0896 0.059656,-0.14394 0,-0.0543 -0.021185,-0.1055 -0.059641,-0.14392 L 2.2146733,294.2129 c -0.038469,-0.0385 -0.089596,-0.0598 -0.1439652,-0.0598 z"
       id="path3"
       style="fill:#4f46a3;stroke-width:0.00165892"
       inkscape:connector-curvature="0" />
    <path
       d="M 2.2000296,295.27684 H 1.948438 a 0.03712351,0.03712353 0 0 1 -0.037125,-0.0371 v -0.22875 H 1.6825799 a 0.03712351,0.03712353 0 0 1 -0.037125,-0.0372 v -0.2516 a 0.03712351,0.03712353 0 0 1 0.037125,-0.0371 h 0.2287343 v -0.22878 a 0.03712351,0.03712353 0 0 1 0.037125,-0.0372 h 0.2515915 a 0.03712351,0.03712353 0 0 1 0.037125,0.0372 v 0.22878 h 0.2287866 a 0.03712351,0.03712353 0 0 1 0.037125,0.0371 v 0.2516 a 0.03712351,0.03712353 0 0 1 -0.037125,0.0372 H 2.2371535 v 0.22873 a 0.03712351,0.03712353 0 0 1 -0.037125,0.037 z m -0.2144685,-0.0742 h 0.1773451 v -0.22873 a 0.03712351,0.03712353 0 0 1 0.037127,-0.0371 h 0.2287862 v -0.17734 H 2.2000305 a 0.03712351,0.03712353 0 0 1 -0.037127,-0.0371 v -0.22878 H 1.985561 v 0.22878 a 0.03712351,0.03712353 0 0 1 -0.037125,0.0371 H 1.7197034 v 0.17735 h 0.2287342 a 0.03712351,0.03712353 0 0 1 0.037125,0.0371 z"
       id="path4"
       style="fill:#4f46a3;stroke-width:0.00165892"
       inkscape:connector-curvature="0" />
  </g>
</svg>
