<?xml version="1.0" encoding="UTF-8" standalone="no"?>
<!-- Created with Inkscape (http://www.inkscape.org/) -->

<svg
   xmlns:dc="http://purl.org/dc/elements/1.1/"
   xmlns:cc="http://creativecommons.org/ns#"
   xmlns:rdf="http://www.w3.org/1999/02/22-rdf-syntax-ns#"
   xmlns:svg="http://www.w3.org/2000/svg"
   xmlns="http://www.w3.org/2000/svg"
   xmlns:sodipodi="http://sodipodi.sourceforge.net/DTD/sodipodi-0.dtd"
   xmlns:inkscape="http://www.inkscape.org/namespaces/inkscape"
   width="16"
   height="16"
   viewBox="0 0 4.2333333 4.2333333"
   version="1.1"
   id="svg1"
   inkscape:version="0.92.5 (2060ec1f9f, 2020-04-08)"
   sodipodi:docname="0x4f00_shower.svg">
  <metadata
     id="metadata9">
    <rdf:RDF>
      <cc:Work
         rdf:about="">
        <dc:format>image/svg+xml</dc:format>
        <dc:type
           rdf:resource="http://purl.org/dc/dcmitype/StillImage" />
        <dc:title></dc:title>
      </cc:Work>
    </rdf:RDF>
  </metadata>
  <sodipodi:namedview
     id="namedview1"
     pagecolor="#ffffff"
     bordercolor="#666666"
     borderopacity="1.0"
     inkscape:showpageshadow="2"
     inkscape:pageopacity="0.0"
     inkscape:pagecheckerboard="0"
     inkscape:deskcolor="#d1d1d1"
     inkscape:document-units="mm"
     inkscape:zoom="12.890851"
     inkscape:cx="5.1069647"
     inkscape:cy="2.7227129"
     inkscape:window-width="1920"
     inkscape:window-height="1055"
     inkscape:window-x="1366"
     inkscape:window-y="0"
     inkscape:window-maximized="1"
     inkscape:current-layer="layer1"
     showgrid="false"
     units="px" />
  <defs
     id="defs1" />
  <g
     inkscape:label="Warstwa 1"
     inkscape:groupmode="layer"
     id="layer1"
     transform="translate(0,-292.76667)">
    <g
       id="g1527"
       transform="matrix(0.00297852,0,0,0.00297852,1.2904316,294.16596)">
	<path
   id="path1479"
   d="m 236.282,177.535 c -4.51,3.428 -5.41,9.772 -2.04,14.199 3.362,4.452 9.73,5.286 14.24,1.868 4.502,-3.428 5.427,-9.797 2.057,-14.224 -3.361,-4.445 -9.771,-5.263 -14.257,-1.843 z"
   class="st0"
   inkscape:connector-curvature="0"
   style="fill:#000000" />

	<path
   id="path1481"
   d="m 212.23,208.477 c -3.362,-4.444 -9.755,-5.261 -14.257,-1.842 -4.51,3.403 -5.41,9.78 -2.048,14.207 3.37,4.443 9.738,5.261 14.24,1.858 4.51,-3.427 5.427,-9.795 2.065,-14.223 z"
   class="st0"
   inkscape:connector-curvature="0"
   style="fill:#000000" />

	<path
   id="path1483"
   d="m 173.92,237.56 c -3.37,-4.427 -9.755,-5.245 -14.265,-1.842 -4.502,3.428 -5.402,9.789 -2.04,14.24 3.362,4.428 9.73,5.246 14.24,1.826 4.502,-3.411 5.427,-9.78 2.065,-14.224 z"
   class="st0"
   inkscape:connector-curvature="0"
   style="fill:#000000" />

	<path
   id="path1485"
   d="m 121.362,264.835 c -4.526,3.404 -5.427,9.78 -2.056,14.224 3.362,4.427 9.746,5.245 14.24,1.817 4.501,-3.402 5.443,-9.788 2.056,-14.216 -3.361,-4.427 -9.755,-5.269 -14.24,-1.825 z"
   class="st0"
   inkscape:connector-curvature="0"
   style="fill:#000000" />

	<path
   id="path1487"
   d="m 83.036,293.918 c -4.494,3.428 -5.41,9.788 -2.048,14.216 3.37,4.452 9.755,5.27 14.24,1.85 4.51,-3.411 5.427,-9.779 2.065,-14.223 -3.362,-4.445 -9.755,-5.246 -14.257,-1.843 z"
   class="st0"
   inkscape:connector-curvature="0"
   style="fill:#000000" />

	<path
   id="path1489"
   d="m 222.224,162.437 c 4.891,-2.024 7.153,-7.831 5.023,-12.977 -2.123,-5.146 -7.831,-7.69 -12.738,-5.666 -4.906,2.04 -7.144,7.846 -5.022,12.992 2.124,5.146 7.831,7.674 12.737,5.651 z"
   class="st0"
   inkscape:connector-curvature="0"
   style="fill:#000000" />

	<path
   id="path1491"
   d="m 180.462,179.683 c 4.915,-2.023 7.178,-7.855 5.055,-12.976 -2.131,-5.154 -7.839,-7.674 -12.745,-5.65 -4.882,2.024 -7.146,7.83 -5.022,12.976 2.139,5.146 7.83,7.674 12.712,5.65 z"
   class="st0"
   inkscape:connector-curvature="0"
   style="fill:#000000" />

	<path
   id="path1493"
   d="m 131.035,178.304 c -4.907,2.015 -7.145,7.83 -5.022,12.993 2.14,5.129 7.83,7.673 12.737,5.625 4.89,-2.016 7.153,-7.831 5.03,-12.977 -2.124,-5.145 -7.839,-7.674 -12.745,-5.641 z"
   class="st0"
   inkscape:connector-curvature="0"
   style="fill:#000000" />

	<path
   id="path1495"
   d="m 89.305,195.542 c -4.89,2.024 -7.153,7.83 -5.03,12.976 2.122,5.172 7.83,7.69 12.736,5.666 4.907,-2.04 7.153,-7.847 5.031,-12.993 -2.122,-5.145 -7.83,-7.689 -12.737,-5.649 z"
   class="st0"
   inkscape:connector-curvature="0"
   style="fill:#000000" />

	<path
   id="path1497"
   d="m 47.559,212.789 c -4.906,2.024 -7.145,7.846 -5.022,12.976 2.139,5.17 7.83,7.69 12.737,5.666 4.906,-2.04 7.169,-7.846 5.03,-13.001 -2.122,-5.145 -7.83,-7.665 -12.745,-5.641 z"
   class="st0"
   inkscape:connector-curvature="0"
   style="fill:#000000" />

	<path
   id="path1499"
   d="m 5.847,230.027 c -4.923,2.023 -7.17,7.855 -5.047,12.984 2.14,5.163 7.831,7.682 12.737,5.667 4.907,-2.024 7.153,-7.83 5.03,-13.001 -2.123,-5.146 -7.831,-7.69 -12.72,-5.65 z"
   class="st0"
   inkscape:connector-curvature="0"
   style="fill:#000000" />

	<path
   id="path1501"
   d="m 280.788,222.041 c 3.42,-4.51 2.602,-10.895 -1.826,-14.24 -4.443,-3.387 -10.812,-2.462 -14.24,2.04 -3.403,4.51 -2.585,10.878 1.842,14.256 4.444,3.37 10.812,2.445 14.224,-2.056 z"
   class="st0"
   inkscape:connector-curvature="0"
   style="fill:#000000" />

	<path
   id="path1503"
   d="m 235.639,248.15 c -3.42,4.51 -2.602,10.878 1.85,14.24 4.419,3.387 10.787,2.47 14.198,-2.04 3.42,-4.486 2.603,-10.895 -1.825,-14.257 -4.444,-3.362 -10.812,-2.445 -14.223,2.057 z"
   class="st0"
   inkscape:connector-curvature="0"
   style="fill:#000000" />

	<path
   id="path1505"
   d="m 222.605,298.643 c 3.403,-4.486 2.585,-10.854 -1.842,-14.24 -4.444,-3.362 -10.812,-2.437 -14.224,2.065 -3.42,4.485 -2.602,10.879 1.842,14.257 4.427,3.369 10.796,2.445 14.224,-2.082 z"
   class="st0"
   inkscape:connector-curvature="0"
   style="fill:#000000" />

	<path
   id="path1507"
   d="m 177.439,324.761 c -3.42,4.526 -2.602,10.895 1.842,14.256 4.427,3.362 10.796,2.446 14.207,-2.04 3.444,-4.51 2.618,-10.878 -1.825,-14.256 -4.428,-3.371 -10.796,-2.446 -14.224,2.04 z"
   class="st0"
   inkscape:connector-curvature="0"
   style="fill:#000000" />

	<path
   id="path1509"
   d="m 148.339,363.095 c -3.42,4.486 -2.577,10.854 1.842,14.24 4.427,3.386 10.795,2.445 14.223,-2.065 3.428,-4.485 2.602,-10.854 -1.842,-14.24 -4.426,-3.37 -10.794,-2.445 -14.223,2.065 z"
   class="st0"
   inkscape:connector-curvature="0"
   style="fill:#000000" />

	<path
   id="path1511"
   d="m 308.863,231.068 c -5.146,-2.122 -10.953,0.14 -12.977,5.056 -2.048,4.881 0.496,10.573 5.65,12.712 5.146,2.123 10.953,-0.123 12.977,-5.03 2.023,-4.907 -0.504,-10.591 -5.65,-12.738 z"
   class="st0"
   inkscape:connector-curvature="0"
   style="fill:#000000" />

	<path
   id="path1513"
   d="m 291.616,272.806 c -5.146,-2.123 -10.952,0.124 -12.976,5.047 -2.041,4.89 0.503,10.573 5.649,12.72 5.146,2.123 10.952,-0.14 12.976,-5.022 2.025,-4.906 -0.503,-10.622 -5.649,-12.745 z"
   class="st0"
   inkscape:connector-curvature="0"
   style="fill:#000000" />

	<path
   id="path1515"
   d="m 274.378,314.543 c -5.146,-2.123 -10.961,0.124 -13.002,5.047 -2.023,4.89 0.521,10.597 5.65,12.72 5.163,2.122 10.978,-0.124 12.992,-5.031 2.025,-4.905 -0.495,-10.612 -5.64,-12.736 z"
   class="st0"
   inkscape:connector-curvature="0"
   style="fill:#000000" />

	<path
   id="path1517"
   d="m 257.131,356.28 c -5.146,-2.122 -10.953,0.124 -13.001,5.031 -2.016,4.906 0.529,10.614 5.675,12.736 5.146,2.123 10.952,-0.14 12.976,-5.022 2.023,-4.914 -0.504,-10.622 -5.65,-12.745 z"
   class="st0"
   inkscape:connector-curvature="0"
   style="fill:#000000" />

	<path
   id="path1519"
   d="m 239.884,398.018 c -5.146,-2.123 -10.969,0.124 -12.992,5.03 -2.024,4.907 0.495,10.598 5.65,12.713 5.146,2.148 10.968,-0.116 12.992,-5.006 2.024,-4.906 -0.496,-10.614 -5.65,-12.737 z"
   class="st0"
   inkscape:connector-curvature="0"
   style="fill:#000000" />

	<path
   id="path1521"
   d="m 222.621,439.756 c -5.122,-2.123 -10.952,0.124 -12.976,5.03 -2.023,4.907 0.504,10.59 5.65,12.72 5.146,2.14 10.978,-0.124 13.001,-5.014 2.015,-4.905 -0.505,-10.613 -5.675,-12.736 z"
   class="st0"
   inkscape:connector-curvature="0"
   style="fill:#000000" />

	<path
   id="path1523"
   d="M 419.258,53.686 C 393.8,53.678 370.574,64.011 353.848,80.679 l -0.008,-0.008 -18.875,18.362 23.929,23.912 18.585,-18.064 0.124,-0.124 c 10.688,-10.672 25.341,-17.23 41.655,-17.238 16.321,0.008 30.942,6.566 41.655,17.254 10.688,10.705 17.246,25.325 17.255,41.655 V 448.346 H 512 V 146.429 C 511.992,95.192 470.486,53.694 419.258,53.686 Z"
   class="st0"
   inkscape:connector-curvature="0"
   style="fill:#000000" />

	<polygon
   id="polygon1525"
   points="354.383,132.791 351.559,129.975 327.786,106.202 325.466,103.881 240.867,103.799 222.043,122.623 335.642,236.222 354.442,217.39 "
   class="st0"
   style="fill:#000000" />

</g>
  </g>
  <style
     id="style1477"
     type="text/css">
	.st0{fill:#000000;}
</style>
</svg>
