<?xml version="1.0" encoding="UTF-8" standalone="no"?>
<!-- Created with Inkscape (http://www.inkscape.org/) -->

<svg
   width="16"
   height="16"
   viewBox="0 0 4.2333333 4.2333333"
   version="1.1"
   id="svg1"
   inkscape:version="1.3 (0e150ed6c4, 2023-07-21)"
   sodipodi:docname="5100_telephone.svg"
   xml:space="preserve"
   inkscape:export-filename="..\icons_png\640b_military.png"
   inkscape:export-xdpi="300"
   inkscape:export-ydpi="300"
   xmlns:inkscape="http://www.inkscape.org/namespaces/inkscape"
   xmlns:sodipodi="http://sodipodi.sourceforge.net/DTD/sodipodi-0.dtd"
   xmlns="http://www.w3.org/2000/svg"
   xmlns:svg="http://www.w3.org/2000/svg"
   xmlns:rdf="http://www.w3.org/1999/02/22-rdf-syntax-ns#"
   xmlns:cc="http://creativecommons.org/ns#"
   xmlns:dc="http://purl.org/dc/elements/1.1/"><metadata
     id="metadata8"><rdf:RDF><cc:Work
         rdf:about=""><dc:format>image/svg+xml</dc:format><dc:type
           rdf:resource="http://purl.org/dc/dcmitype/StillImage" /></cc:Work></rdf:RDF></metadata><sodipodi:namedview
     id="namedview1"
     pagecolor="#ffffff"
     bordercolor="#666666"
     borderopacity="1.0"
     inkscape:showpageshadow="2"
     inkscape:pageopacity="0.0"
     inkscape:pagecheckerboard="0"
     inkscape:deskcolor="#d1d1d1"
     inkscape:document-units="mm"
     inkscape:zoom="25.781702"
     inkscape:cx="-0.3490848"
     inkscape:cy="17.24091"
     inkscape:window-width="1903"
     inkscape:window-height="1266"
     inkscape:window-x="307"
     inkscape:window-y="227"
     inkscape:window-maximized="0"
     inkscape:current-layer="layer1"
     showgrid="false"
     units="px" /><defs
     id="defs1" /><g
     inkscape:label="Warstwa 1"
     inkscape:groupmode="layer"
     id="layer1"
     transform="translate(0,-292.76667)"><g
       style="fill:#000000"
       id="g2"
       transform="matrix(0.05525,0,0,0.05525,1.2263023,293.91673)"><g
         id="g1">&#10;	<path
   d="m 29,17 h -5.4 c -1.8,0 -3.2,-1.5 -3.2,-3.3 0,-0.3 0,-0.7 -1.1,-0.7 h -6.6 c -1.1,0 -1.1,0.4 -1.1,0.7 0,1.8 -1.4,3.3 -3.2,3.3 H 3 C 2.4,17 2,16.6 2,16 2,11 5.9,7 10.6,7 h 10.8 c 4.7,0 8.6,4 8.6,9 0,0.6 -0.4,1 -1,1 z"
   id="path1" />&#10;</g><path
         d="m 23.6,19 c -2.4,0 -4.5,-1.7 -5.1,-4 h -5.2 c -0.6,2.3 -2.6,4 -5.1,4 h -1 C 6.1,21.4 5,24.4 5,27 c 0,0.6 0.4,1 1,1 h 20 c 0.6,0 1,-0.4 1,-1 0,-2.6 -1.1,-5.6 -2.3,-8 z M 16,25 c -2.2,0 -4,-1.8 -4,-4 0,-2.2 1.8,-4 4,-4 2.2,0 4,1.8 4,4 0,2.2 -1.8,4 -4,4 z"
         id="path2" /><path
         d="m 23,30 c -0.6,0 -1,-0.4 -1,-1 v -2 c 0,-0.6 0.4,-1 1,-1 0.6,0 1,0.4 1,1 v 2 c 0,0.6 -0.4,1 -1,1 z"
         id="path3" /><path
         d="M 9,30 C 8.4,30 8,29.6 8,29 v -2 c 0,-0.6 0.4,-1 1,-1 0.6,0 1,0.4 1,1 v 2 c 0,0.6 -0.4,1 -1,1 z"
         id="path4" /></g></g><style
     type="text/css"
     id="style1">&#10;	.st0{fill-rule:evenodd;clip-rule:evenodd;}&#10;</style><style
     type="text/css"
     id="style1-9">&#10;<![CDATA[
	.st0{fill:#D1D1D1;}
	.st1{fill:#454545;}
]]>&#10;</style></svg>
