<?xml version="1.0" encoding="UTF-8" standalone="no"?>
<!-- Created with Inkscape (http://www.inkscape.org/) -->

<svg
   width="16"
   height="16"
   viewBox="0 0 4.2333333 4.2333333"
   version="1.1"
   id="svg1"
   inkscape:version="1.3 (0e150ed6c4, 2023-07-21)"
   sodipodi:docname="6407_dam.svg"
   xml:space="preserve"
   inkscape:export-filename="..\icons_png\640b_military.png"
   inkscape:export-xdpi="300"
   inkscape:export-ydpi="300"
   xmlns:inkscape="http://www.inkscape.org/namespaces/inkscape"
   xmlns:sodipodi="http://sodipodi.sourceforge.net/DTD/sodipodi-0.dtd"
   xmlns="http://www.w3.org/2000/svg"
   xmlns:svg="http://www.w3.org/2000/svg"
   xmlns:rdf="http://www.w3.org/1999/02/22-rdf-syntax-ns#"
   xmlns:cc="http://creativecommons.org/ns#"
   xmlns:dc="http://purl.org/dc/elements/1.1/"><metadata
     id="metadata8"><rdf:RDF><cc:Work
         rdf:about=""><dc:format>image/svg+xml</dc:format><dc:type
           rdf:resource="http://purl.org/dc/dcmitype/StillImage" /></cc:Work></rdf:RDF></metadata><sodipodi:namedview
     id="namedview1"
     pagecolor="#ffffff"
     bordercolor="#666666"
     borderopacity="1.0"
     inkscape:showpageshadow="2"
     inkscape:pageopacity="0.0"
     inkscape:pagecheckerboard="0"
     inkscape:deskcolor="#d1d1d1"
     inkscape:document-units="mm"
     inkscape:zoom="18.230416"
     inkscape:cx="10.312436"
     inkscape:cy="26.35705"
     inkscape:window-width="2880"
     inkscape:window-height="1514"
     inkscape:window-x="2871"
     inkscape:window-y="-11"
     inkscape:window-maximized="1"
     inkscape:current-layer="layer1"
     showgrid="false"
     units="px" /><defs
     id="defs1" /><g
     inkscape:label="Warstwa 1"
     inkscape:groupmode="layer"
     id="layer1"
     transform="translate(0,-292.76667)"><g
       id="g8"
       transform="matrix(0.00196135,0,0,0.00196135,1.1457084,293.86834)"><path
         d="M 512,597.33333 H 896 V 896 H 512 Z m -384,-384 H 384 V 896 H 128 Z"
         fill="#81d4fa"
         id="path1" /><path
         d="m 341.33333,170.66667 h -42.66666 c 0,23.46666 -19.2,42.66666 -42.66667,42.66666 -23.46667,0 -42.66667,-19.2 -42.66667,-42.66666 h -42.66666 c 0,23.46666 -19.2,42.66666 -42.66667,42.66666 V 256 c 25.6,0 49.06667,-10.66667 64,-29.86667 C 206.93333,243.2 230.4,256 256,256 c 25.6,0 49.06667,-10.66667 64,-29.86667 C 334.93333,243.2 358.4,256 384,256 v -42.66667 c -23.46667,0 -42.66667,-19.2 -42.66667,-42.66666 z m 0,128 h -42.66666 c 0,23.46666 -19.2,42.66666 -42.66667,42.66666 -23.46667,0 -42.66667,-19.2 -42.66667,-42.66666 h -42.66666 c 0,23.46666 -19.2,42.66666 -42.66667,42.66666 V 384 c 25.6,0 49.06667,-10.66667 64,-29.86667 C 206.93333,371.2 230.4,384 256,384 c 25.6,0 49.06667,-10.66667 64,-29.86667 C 334.93333,371.2 358.4,384 384,384 v -42.66667 c -23.46667,0 -42.66667,-19.2 -42.66667,-42.66666 z m 0,128 h -42.66666 c 0,23.46666 -19.2,42.66666 -42.66667,42.66666 -23.46667,0 -42.66667,-19.2 -42.66667,-42.66666 h -42.66666 c 0,23.46666 -19.2,42.66666 -42.66667,42.66666 V 512 c 25.6,0 49.06667,-10.66667 64,-29.86667 C 206.93333,499.2 230.4,512 256,512 c 25.6,0 49.06667,-10.66667 64,-29.86667 C 334.93333,499.2 358.4,512 384,512 v -42.66667 c -23.46667,0 -42.66667,-19.2 -42.66667,-42.66666 z m 0,128 h -42.66666 c 0,23.46666 -19.2,42.66666 -42.66667,42.66666 -23.46667,0 -42.66667,-19.2 -42.66667,-42.66666 h -42.66666 c 0,23.46666 -19.2,42.66666 -42.66667,42.66666 V 640 c 25.6,0 49.06667,-10.66667 64,-29.86667 C 206.93333,627.2 230.4,640 256,640 c 25.6,0 49.06667,-10.66667 64,-29.86667 C 334.93333,627.2 358.4,640 384,640 v -42.66667 c -23.46667,0 -42.66667,-19.2 -42.66667,-42.66666 z m 0,128 h -42.66666 c 0,23.46666 -19.2,42.66666 -42.66667,42.66666 -23.46667,0 -42.66667,-19.2 -42.66667,-42.66666 h -42.66666 c 0,23.46666 -19.2,42.66666 -42.66667,42.66666 V 768 c 25.6,0 49.06667,-10.66667 64,-29.86667 C 206.93333,755.2 230.4,768 256,768 c 25.6,0 49.06667,-10.66667 64,-29.86667 C 334.93333,755.2 358.4,768 384,768 v -42.66667 c -23.46667,0 -42.66667,-19.2 -42.66667,-42.66666 z m 0,128 h -42.66666 c 0,23.46666 -19.2,42.66666 -42.66667,42.66666 -23.46667,0 -42.66667,-19.2 -42.66667,-42.66666 h -42.66666 c 0,23.46666 -19.2,42.66666 -42.66667,42.66666 V 896 c 25.6,0 49.06667,-10.66667 64,-29.86667 C 206.93333,883.2 230.4,896 256,896 c 25.6,0 49.06667,-10.66667 64,-29.86667 C 334.93333,883.2 358.4,896 384,896 v -42.66667 c -23.46667,0 -42.66667,-19.2 -42.66667,-42.66666 z m 512,-128 h -42.66666 c 0,23.46666 -19.2,42.66666 -42.66667,42.66666 -23.46667,0 -42.66667,-19.2 -42.66667,-42.66666 h -42.66666 c 0,23.46666 -19.2,42.66666 -42.66667,42.66666 -23.46667,0 -42.66667,-19.2 -42.66667,-42.66666 h -42.66666 c 0,23.46666 -19.2,42.66666 -42.66667,42.66666 V 768 c 25.6,0 49.06667,-10.66667 64,-29.86667 C 590.93333,755.2 614.4,768 640,768 c 25.6,0 49.06667,-10.66667 64,-29.86667 C 718.93333,755.2 742.4,768 768,768 c 25.6,0 49.06667,-10.66667 64,-29.86667 C 846.93333,755.2 870.4,768 896,768 v -42.66667 c -23.46667,0 -42.66667,-19.2 -42.66667,-42.66666 z m 0,-128 h -42.66666 c 0,23.46666 -19.2,42.66666 -42.66667,42.66666 -23.46667,0 -42.66667,-19.2 -42.66667,-42.66666 h -42.66666 c 0,23.46666 -19.2,42.66666 -42.66667,42.66666 -23.46667,0 -42.66667,-19.2 -42.66667,-42.66666 h -42.66666 c 0,23.46666 -19.2,42.66666 -42.66667,42.66666 V 640 c 25.6,0 49.06667,-10.66667 64,-29.86667 C 590.93333,627.2 614.4,640 640,640 c 25.6,0 49.06667,-10.66667 64,-29.86667 C 718.93333,627.2 742.4,640 768,640 c 25.6,0 49.06667,-10.66667 64,-29.86667 C 846.93333,627.2 870.4,640 896,640 v -42.66667 c -23.46667,0 -42.66667,-19.2 -42.66667,-42.66666 z m 0,256 h -42.66666 c 0,23.46666 -19.2,42.66666 -42.66667,42.66666 -23.46667,0 -42.66667,-19.2 -42.66667,-42.66666 h -42.66666 c 0,23.46666 -19.2,42.66666 -42.66667,42.66666 V 896 c 25.6,0 49.06667,-10.66667 64,-29.86667 C 718.93333,883.2 742.4,896 768,896 c 25.6,0 49.06667,-10.66667 64,-29.86667 C 846.93333,883.2 870.4,896 896,896 v -42.66667 c -23.46667,0 -42.66667,-19.2 -42.66667,-42.66666 z"
         fill="#1976d2"
         id="path2" /><path
         d="M 535.46667,196.26667 672,896 H 384 V 128 h 68.26667 c 40.53333,0 76.8,29.86667 83.2,68.26667 z"
         fill="#455a64"
         id="path3" /></g></g><style
     type="text/css"
     id="style1">&#10;	.st0{fill-rule:evenodd;clip-rule:evenodd;}&#10;</style><style
     type="text/css"
     id="style1-9">&#10;<![CDATA[
	.st0{fill:#D1D1D1;}
	.st1{fill:#454545;}
]]>&#10;</style></svg>
