<?xml version="1.0" encoding="UTF-8" standalone="no"?>
<!-- Created with Inkscape (http://www.inkscape.org/) -->

<svg
   width="16"
   height="16"
   viewBox="0 0 4.2333333 4.2333333"
   version="1.1"
   id="svg1"
   inkscape:version="1.3 (0e150ed6c4, 2023-07-21)"
   sodipodi:docname="5100_telephone.svg"
   xml:space="preserve"
   inkscape:export-filename="..\icons_png\640b_military.png"
   inkscape:export-xdpi="300"
   inkscape:export-ydpi="300"
   xmlns:inkscape="http://www.inkscape.org/namespaces/inkscape"
   xmlns:sodipodi="http://sodipodi.sourceforge.net/DTD/sodipodi-0.dtd"
   xmlns="http://www.w3.org/2000/svg"
   xmlns:svg="http://www.w3.org/2000/svg"
   xmlns:rdf="http://www.w3.org/1999/02/22-rdf-syntax-ns#"
   xmlns:cc="http://creativecommons.org/ns#"
   xmlns:dc="http://purl.org/dc/elements/1.1/"><metadata
     id="metadata8"><rdf:RDF><cc:Work
         rdf:about=""><dc:format>image/svg+xml</dc:format><dc:type
           rdf:resource="http://purl.org/dc/dcmitype/StillImage" /></cc:Work></rdf:RDF></metadata><sodipodi:namedview
     id="namedview1"
     pagecolor="#ffffff"
     bordercolor="#666666"
     borderopacity="1.0"
     inkscape:showpageshadow="2"
     inkscape:pageopacity="0.0"
     inkscape:pagecheckerboard="0"
     inkscape:deskcolor="#d1d1d1"
     inkscape:document-units="mm"
     inkscape:zoom="4.557604"
     inkscape:cx="-67.359955"
     inkscape:cy="26.000504"
     inkscape:window-width="1903"
     inkscape:window-height="1266"
     inkscape:window-x="307"
     inkscape:window-y="227"
     inkscape:window-maximized="0"
     inkscape:current-layer="layer1"
     showgrid="false"
     units="px" /><defs
     id="defs1" /><g
     inkscape:label="Warstwa 1"
     inkscape:groupmode="layer"
     id="layer1"
     transform="translate(0,-292.76667)"><path
       d="m 2.6044283,294.38934 c 0.2616171,0 0.4737,0.21208 0.4737,0.4737 0,0.26162 -0.2120829,0.47369 -0.4737,0.47369 h -0.6316 c -0.2616172,0 -0.4737,-0.21207 -0.4737,-0.47369 0,-0.26162 0.2120828,-0.4737 0.4737,-0.4737 z m 0,0.1579 h -0.6316 c -0.1744115,0 -0.3158,0.14137 -0.3158,0.3158 0,0.16912 0.1329492,0.30721 0.3000384,0.31542 l 0.01576,2.5e-4 h 0.6316 c 0.1744114,0 0.3158,-0.14138 0.3158,-0.3158 0,-0.16913 -0.1329491,-0.30719 -0.3000383,-0.3154 z m -0.3158002,0.0789 c 0.1308089,0 0.2368503,0.10601 0.2368503,0.23684 0,0.1308 -0.1060417,0.23686 -0.2368503,0.23686 -0.1308085,0 -0.2368497,-0.10602 -0.2368497,-0.23686 0,-0.13081 0.1060407,-0.23684 0.2368497,-0.23684 z m 0,0.15789 c -0.043602,0 -0.07895,0.0352 -0.07895,0.0789 0,0.0437 0.035348,0.0789 0.07895,0.0789 0.043602,0 0.07895,-0.0352 0.07895,-0.0789 0,-0.0437 -0.035348,-0.0789 -0.07895,-0.0789 z m 0.4737003,0.6316 v 0.15791 H 1.8149282 v -0.15791 z"
       id="Combined-Shape"
       style="fill:#000000;fill-rule:evenodd;stroke:none;stroke-width:0.00370076" /></g><style
     type="text/css"
     id="style1">&#10;	.st0{fill-rule:evenodd;clip-rule:evenodd;}&#10;</style><style
     type="text/css"
     id="style1-9">&#10;<![CDATA[
	.st0{fill:#D1D1D1;}
	.st1{fill:#454545;}
]]>&#10;</style></svg>
