<?xml version="1.0" encoding="UTF-8" standalone="no"?>
<!-- Created with Inkscape (http://www.inkscape.org/) -->

<svg
   width="16"
   height="16"
   viewBox="0 0 4.2333333 4.2333333"
   version="1.1"
   id="svg1"
   inkscape:version="1.3 (0e150ed6c4, 2023-07-21)"
   sodipodi:docname="640b_military.svg"
   xml:space="preserve"
   inkscape:export-filename="..\icons_png\6614_rock.png"
   inkscape:export-xdpi="300"
   inkscape:export-ydpi="300"
   xmlns:inkscape="http://www.inkscape.org/namespaces/inkscape"
   xmlns:sodipodi="http://sodipodi.sourceforge.net/DTD/sodipodi-0.dtd"
   xmlns="http://www.w3.org/2000/svg"
   xmlns:svg="http://www.w3.org/2000/svg"
   xmlns:rdf="http://www.w3.org/1999/02/22-rdf-syntax-ns#"
   xmlns:cc="http://creativecommons.org/ns#"
   xmlns:dc="http://purl.org/dc/elements/1.1/"><metadata
     id="metadata8"><rdf:RDF><cc:Work
         rdf:about=""><dc:format>image/svg+xml</dc:format><dc:type
           rdf:resource="http://purl.org/dc/dcmitype/StillImage" /></cc:Work></rdf:RDF></metadata><sodipodi:namedview
     id="namedview1"
     pagecolor="#ffffff"
     bordercolor="#666666"
     borderopacity="1.0"
     inkscape:showpageshadow="2"
     inkscape:pageopacity="0.0"
     inkscape:pagecheckerboard="0"
     inkscape:deskcolor="#d1d1d1"
     inkscape:document-units="mm"
     inkscape:zoom="25.781702"
     inkscape:cx="3.1029759"
     inkscape:cy="24.843201"
     inkscape:window-width="2880"
     inkscape:window-height="1514"
     inkscape:window-x="2871"
     inkscape:window-y="-11"
     inkscape:window-maximized="1"
     inkscape:current-layer="layer1"
     showgrid="false"
     units="px" /><defs
     id="defs1" /><g
     inkscape:label="Warstwa 1"
     inkscape:groupmode="layer"
     id="layer1"
     transform="translate(0,-292.76667)"><g
       style="fill:#000000"
       id="g7"
       transform="matrix(0.02764671,0,0,0.02764671,1.1033949,294.06507)"><path
         d="M 39.18,21.67 A 6.47,6.47 0 0 0 39,20 h 25.08 v -3 h -27 A 6.37,6.37 0 0 0 33.8,15.41 v -1.49 c 0,0 0.06,0 0.06,-0.07 A 3.19,3.19 0 0 0 30.66,10.7 H 17.38 V 16 A 6.32,6.32 0 0 0 14,21.67 c 0,0 0,0 0,0.07 a 9.71,9.71 0 0 1 1.21,-0.07 z"
         id="path1" /><path
         d="m 57.84,39.2 v -0.05 a 7.22,7.22 0 0 0 6,-7.1 V 32 A 7.23,7.23 0 0 0 56.65,24.7 H 15.23 A 7.34,7.34 0 0 0 7.92,32 v 0.06 A 7.22,7.22 0 0 0 14,39.15 v 0.05 a 6.17,6.17 0 0 0 6.16,6.1 H 51.8 a 6,6 0 0 0 6,-6.1 z m -16.75,2.93 a 3.07,3.07 0 1 1 3.08,-3.07 3.06,3.06 0 0 1 -3.08,3.07 z M 27.62,39.06 a 3.08,3.08 0 1 1 3.07,3.07 3.07,3.07 0 0 1 -3.07,-3.07 z m -10.4,0 a 3.08,3.08 0 1 1 3.07,3.07 3.07,3.07 0 0 1 -3.07,-3.07 z m 34.27,3.07 a 3.07,3.07 0 1 1 3.08,-3.07 3.06,3.06 0 0 1 -3.08,3.07 z"
         id="path2" /></g></g><style
     type="text/css"
     id="style1">&#10;	.st0{fill-rule:evenodd;clip-rule:evenodd;}&#10;</style></svg>
