<?xml version="1.0" encoding="UTF-8" standalone="no"?>
<!-- Created with Inkscape (http://www.inkscape.org/) -->

<svg
   width="16"
   height="16"
   viewBox="0 0 4.2333333 4.2333333"
   version="1.1"
   id="svg1"
   inkscape:version="1.3 (0e150ed6c4, 2023-07-21)"
   sodipodi:docname="640f_post_office.svg"
   xml:space="preserve"
   inkscape:export-filename="..\icons_png\640b_military.png"
   inkscape:export-xdpi="300"
   inkscape:export-ydpi="300"
   xmlns:inkscape="http://www.inkscape.org/namespaces/inkscape"
   xmlns:sodipodi="http://sodipodi.sourceforge.net/DTD/sodipodi-0.dtd"
   xmlns="http://www.w3.org/2000/svg"
   xmlns:svg="http://www.w3.org/2000/svg"
   xmlns:rdf="http://www.w3.org/1999/02/22-rdf-syntax-ns#"
   xmlns:cc="http://creativecommons.org/ns#"
   xmlns:dc="http://purl.org/dc/elements/1.1/"><metadata
     id="metadata8"><rdf:RDF><cc:Work
         rdf:about=""><dc:format>image/svg+xml</dc:format><dc:type
           rdf:resource="http://purl.org/dc/dcmitype/StillImage" /></cc:Work></rdf:RDF></metadata><sodipodi:namedview
     id="namedview1"
     pagecolor="#ffffff"
     bordercolor="#666666"
     borderopacity="1.0"
     inkscape:showpageshadow="2"
     inkscape:pageopacity="0.0"
     inkscape:pagecheckerboard="0"
     inkscape:deskcolor="#d1d1d1"
     inkscape:document-units="mm"
     inkscape:zoom="72.921665"
     inkscape:cx="5.5676183"
     inkscape:cy="9.0302381"
     inkscape:window-width="2880"
     inkscape:window-height="1514"
     inkscape:window-x="2871"
     inkscape:window-y="-11"
     inkscape:window-maximized="1"
     inkscape:current-layer="layer1"
     showgrid="false"
     units="px" /><defs
     id="defs1" /><g
     inkscape:label="Warstwa 1"
     inkscape:groupmode="layer"
     id="layer1"
     transform="translate(0,-292.76667)"><g
       id="g8"
       transform="matrix(0.00632776,0,0,0.00632776,1.3090449,293.96093)"><path
         class="st0"
         d="m 249.543,195.132 c 0,8.373 -7.114,15.225 -15.806,15.225 H 20.683 c -8.693,0 -15.807,-6.852 -15.807,-15.225 V 70.35 c 0,-8.374 7.113,-15.225 15.807,-15.225 h 213.055 c 8.691,0 15.806,6.851 15.806,15.225 v 124.782 z"
         id="path1-5" /><g
         id="g6">&#10;	<g
   id="g2">&#10;		<path
   class="st1"
   d="m 215.118,199.697 c 5.299,0 6.47,-2.964 2.604,-6.587 l -49.189,-46.092 c -3.866,-3.623 -10.382,-3.837 -14.479,-0.477 l -13.285,10.899 c -4.097,3.36 -9.224,7.095 -11.393,8.297 0,0 0,0 -2.166,0 -2.168,0 -2.168,0 -2.168,0 -2.168,-1.202 -7.294,-4.937 -11.391,-8.297 L 99.805,146.081 c -4.097,-3.36 -10.612,-3.146 -14.478,0.477 L 35.649,193.11 c -3.866,3.623 -2.694,6.587 2.604,6.587 z"
   id="path2-8" />&#10;	</g>&#10;	<g
   id="g3">&#10;		<path
   class="st1"
   d="m 40.761,65.785 c -5.298,0 -6.282,2.75 -2.186,6.11 l 81.187,66.6 c 4.097,3.36 10.8,3.36 14.896,0 l 81.185,-66.6 c 4.097,-3.361 3.113,-6.11 -2.186,-6.11 z"
   id="path3" />&#10;	</g>&#10;	<g
   id="g4">&#10;		<path
   class="st1"
   d="m 15.938,178.182 c 0,5.299 3.164,6.67 7.03,3.047 l 48.837,-45.761 c 3.867,-3.623 3.679,-9.336 -0.418,-12.697 L 23.386,83.394 c -4.097,-3.361 -7.448,-1.775 -7.448,3.523 z"
   id="path4" />&#10;	</g>&#10;	<g
   id="g5">&#10;		<path
   class="st1"
   d="m 238.481,86.917 c 0,-5.298 -3.352,-6.884 -7.448,-3.523 l -48.561,39.836 c -4.097,3.361 -4.285,9.074 -0.418,12.697 l 49.396,46.285 c 3.867,3.623 7.03,2.252 7.03,-3.047 V 86.917 Z"
   id="path5" />&#10;	</g>&#10;</g></g></g><style
     type="text/css"
     id="style1">&#10;	.st0{fill-rule:evenodd;clip-rule:evenodd;}&#10;</style><style
     type="text/css"
     id="style1-9">&#10;<![CDATA[
	.st0{fill:#D1D1D1;}
	.st1{fill:#454545;}
]]>&#10;</style></svg>
