<?xml version="1.0" encoding="UTF-8" standalone="no"?>
<!-- Created with Inkscape (http://www.inkscape.org/) -->

<svg
   width="16"
   height="16"
   viewBox="0 0 4.2333333 4.2333333"
   version="1.1"
   id="svg1"
   xml:space="preserve"
   inkscape:version="1.3 (0e150ed6c4, 2023-07-21)"
   sodipodi:docname="6505_canal.svg"
   xmlns:inkscape="http://www.inkscape.org/namespaces/inkscape"
   xmlns:sodipodi="http://sodipodi.sourceforge.net/DTD/sodipodi-0.dtd"
   xmlns="http://www.w3.org/2000/svg"
   xmlns:svg="http://www.w3.org/2000/svg"><sodipodi:namedview
     id="namedview1"
     pagecolor="#ffffff"
     bordercolor="#666666"
     borderopacity="1.0"
     inkscape:showpageshadow="2"
     inkscape:pageopacity="0.0"
     inkscape:pagecheckerboard="0"
     inkscape:deskcolor="#d1d1d1"
     inkscape:document-units="mm"
     inkscape:zoom="72.921661"
     inkscape:cx="11.128381"
     inkscape:cy="13.075676"
     inkscape:window-width="2880"
     inkscape:window-height="1514"
     inkscape:window-x="2871"
     inkscape:window-y="-11"
     inkscape:window-maximized="1"
     inkscape:current-layer="layer1" /><defs
     id="defs1" /><g
     inkscape:label="Warstwa 1"
     inkscape:groupmode="layer"
     id="layer1"><path
       style="fill:#000000;stroke-width:1.34227"
       d="M 1.617497,2.590362 V 2.1053445 H 1.683404 1.74931 l 0.010126,0.03156 c 0.00555,0.017358 0.037395,0.1182653 0.070723,0.2242376 0.033328,0.1059732 0.072156,0.2285561 0.086279,0.2724069 0.014125,0.043851 0.050009,0.1574647 0.079741,0.252475 0.029732,0.09501 0.055262,0.1764832 0.056734,0.1810511 0.00209,0.00655 -0.044137,0.00831 -0.2163707,0.00831 H 1.617497 Z m 1.1325852,0.4767125 c 0.00146,-0.00456 0.027002,-0.086041 0.056733,-0.1810511 0.029732,-0.09501 0.065617,-0.2086238 0.079741,-0.252475 0.014125,-0.043851 0.052951,-0.1664338 0.086279,-0.272407 0.033329,-0.1059722 0.065153,-0.2068798 0.070723,-0.2242376 l 0.010126,-0.03156 h 0.065906 0.065906 V 2.5903617 3.0753792 H 2.9664527 c -0.172234,0 -0.2184742,-0.00176 -0.2163705,-0.00831 z m -0.3751607,-0.00487 c -0.012792,-0.00236 -0.044164,-0.012712 -0.069721,-0.022997 -0.053907,-0.021687 -0.098917,-0.023829 -0.1416318,-0.00674 -0.015612,0.00625 -0.029242,0.010233 -0.03029,0.00884 -0.00105,-0.00138 -0.00881,-0.026412 -0.017276,-0.055646 -0.00846,-0.029233 -0.016491,-0.056181 -0.017858,-0.059882 -0.00138,-0.00372 0.020629,-0.015555 0.048881,-0.026342 0.066269,-0.025303 0.1020362,-0.024785 0.1692047,0.00247 0.034211,0.013872 0.06221,0.020653 0.085267,0.020653 0.023056,0 0.051056,-0.00677 0.085267,-0.020653 0.06717,-0.027235 0.1029366,-0.027753 0.1692047,-0.00247 0.028254,0.010798 0.050197,0.022669 0.048764,0.026403 -0.00143,0.00374 -0.00971,0.03158 -0.018377,0.061878 -0.014032,0.049011 -0.017237,0.054625 -0.029059,0.050889 -0.078228,-0.024709 -0.102489,-0.023861 -0.1750069,0.00612 -0.044293,0.018313 -0.075373,0.023362 -0.1073673,0.017441 z M 2.0408572,2.7481595 c -0.0062,-0.022838 -0.015518,-0.055261 -0.020692,-0.072049 l -0.00941,-0.030524 0.031038,0.00298 c 0.024649,0.00236 0.04401,-0.00206 0.094049,-0.021561 0.05474,-0.021323 0.068243,-0.024115 0.1028747,-0.021283 0.023692,0.00192 0.056037,0.010786 0.07973,0.02178 0.055798,0.025923 0.1110042,0.025773 0.1661018,-4.555e-4 C 2.5434647,2.599 2.5988998,2.599651 2.673827,2.629257 2.717994,2.64671 2.736948,2.650897 2.761232,2.648563 L 2.792241,2.645583 2.782831,2.676107 C 2.777651,2.692896 2.768345,2.725317 2.762138,2.748156 2.74851,2.798313 2.744141,2.799267 2.669094,2.768502 2.598982,2.73976 2.5509415,2.739842 2.4801191,2.7688324 2.4158301,2.7951454 2.3882551,2.7950624 2.3198928,2.7683387 2.2467598,2.7397517 2.2043729,2.7398047 2.1339,2.7685843 2.058811,2.7992473 2.054481,2.7982963 2.040856,2.7481553 Z m -0.035144,-0.2413396 -0.040327,-0.00987 -0.022292,-0.074552 c -0.012255,-0.041004 -0.023602,-0.07834 -0.025205,-0.082969 -0.00185,-0.00533 0.017023,-0.00107 0.051445,0.011623 0.069616,0.025668 0.1036715,0.025689 0.173046,1.104e-4 0.069869,-0.025761 0.1071071,-0.025717 0.1727459,2.044e-4 0.065215,0.025756 0.1024602,0.025712 0.172746,-2.044e-4 0.069869,-0.025761 0.1071071,-0.025717 0.172746,2.044e-4 0.065294,0.025787 0.10244,0.025719 0.1730459,-3.148e-4 0.034424,-0.012699 0.053291,-0.016958 0.051445,-0.011623 -0.00159,0.00464 -0.012939,0.041932 -0.025183,0.082898 l -0.022269,0.074481 -0.046335,0.010532 c -0.052069,0.011835 -0.066402,0.010008 -0.1358581,-0.017467 -0.064245,-0.025406 -0.099655,-0.024995 -0.165756,0.00191 -0.036367,0.014811 -0.062484,0.02104 -0.088207,0.02104 -0.025721,0 -0.05184,-0.00624 -0.088207,-0.02104 -0.066654,-0.027142 -0.1014263,-0.02739 -0.1673756,-0.0012 -0.063767,0.025329 -0.090322,0.028399 -0.1402026,0.016203 z"
       id="path16" /></g></svg>
