<?xml version="1.0" encoding="UTF-8" standalone="no"?>
<!-- Created with Inkscape (http://www.inkscape.org/) -->

<svg
   width="16"
   height="16"
   viewBox="0 0 4.2333333 4.2333333"
   version="1.1"
   id="svg1"
   xml:space="preserve"
   inkscape:version="1.3 (0e150ed6c4, 2023-07-21)"
   sodipodi:docname="6507_cove.svg"
   xmlns:inkscape="http://www.inkscape.org/namespaces/inkscape"
   xmlns:sodipodi="http://sodipodi.sourceforge.net/DTD/sodipodi-0.dtd"
   xmlns="http://www.w3.org/2000/svg"
   xmlns:svg="http://www.w3.org/2000/svg"><sodipodi:namedview
     id="namedview1"
     pagecolor="#ffffff"
     bordercolor="#666666"
     borderopacity="1.0"
     inkscape:showpageshadow="2"
     inkscape:pageopacity="0.0"
     inkscape:pagecheckerboard="0"
     inkscape:deskcolor="#d1d1d1"
     inkscape:document-units="mm"
     inkscape:zoom="51.563401"
     inkscape:cx="11.490708"
     inkscape:cy="15.388822"
     inkscape:window-width="2880"
     inkscape:window-height="1514"
     inkscape:window-x="2871"
     inkscape:window-y="-11"
     inkscape:window-maximized="1"
     inkscape:current-layer="layer1" /><defs
     id="defs1" /><g
     inkscape:label="Warstwa 1"
     inkscape:groupmode="layer"
     id="layer1"><g
       id="g16"
       style="fill:#ffcc00"
       inkscape:export-filename="..\icons_png\6503_bay.png"
       inkscape:export-xdpi="1200"
       inkscape:export-ydpi="1200"
       transform="matrix(0.93854535,0,0,0.93854535,0.07572967,0.0853066)"><path
         style="fill:#ffcc00;stroke-width:0.0299875"
         d="m 2.0148733,1.5462308 c -0.018991,-0.014937 -0.020904,-0.02148 -0.020904,-0.071408 0,-0.063319 0.01498,-0.0867 0.055539,-0.0867 0.04056,0 0.055539,0.023381 0.055539,0.0867 0,0.049928 -0.00193,0.05647 -0.020904,0.071408 -0.011497,0.00904 -0.027081,0.016444 -0.034636,0.016444 -0.00755,0 -0.023135,-0.0074 -0.034631,-0.016444 z"
         id="path16" /><path
         style="fill:#ffcc00;stroke-width:0.0299875"
         d="m 2.2344958,1.6419614 c -0.021247,-0.00856 -0.034237,-0.03144 -0.034237,-0.060289 0,-0.031055 0.062832,-0.090405 0.09571,-0.090405 0.028579,0 0.062973,0.030798 0.062973,0.056386 0,0.019683 -0.078185,0.1025995 -0.095986,0.1017948 -0.00612,-2.733e-4 -0.018927,-0.00365 -0.028459,-0.00749 z"
         id="path15" /><path
         style="fill:#ffcc00;stroke-width:0.0299875"
         d="m 1.7834337,1.6084504 c -0.048571,-0.048572 -0.053374,-0.068219 -0.023886,-0.097708 0.030337,-0.030338 0.060751,-0.025963 0.1033658,0.014869 0.027214,0.026075 0.035845,0.040191 0.035845,0.058627 0,0.029808 -0.020445,0.055366 -0.049866,0.062337 -0.019248,0.00456 -0.027691,-3.561e-4 -0.065457,-0.038126 z"
         id="path14" /><path
         style="fill:#ffcc00;stroke-width:0.0299875"
         d="M 2.308438,1.8397981 C 2.28143,1.8185541 2.279722,1.7768611 2.304878,1.7534071 2.318164,1.7410291 2.33292,1.7372291 2.367703,1.7372291 c 0.057501,0 0.068293,0.00434 0.08338,0.033513 0.01522,0.029435 0.00395,0.063052 -0.025632,0.076536 -0.03292,0.014998 -0.093368,0.011135 -0.1170335,-0.00748 z"
         id="path13" /><path
         style="fill:#ffcc00;stroke-width:0.0299875"
         d="m 1.6712142,1.8468081 c -0.02422,-0.01171 -0.037042,-0.045757 -0.02709,-0.071936 0.010892,-0.028648 0.031444,-0.037645 0.085996,-0.037645 0.057012,0 0.08136,0.017728 0.08136,0.05924 0,0.038804 -0.029398,0.059937 -0.082395,0.059236 -0.02232,-2.9e-4 -0.048363,-0.0043 -0.057871,-0.00889 z"
         id="path12" /><path
         style="fill:#ffcc00;stroke-width:0.0299875"
         d="m 1.9735708,1.9523005 c -0.055983,-0.025427 -0.098694,-0.093232 -0.098572,-0.1564877 9.14e-5,-0.048093 0.017138,-0.086091 0.055159,-0.122981 0.072629,-0.070464 0.1660687,-0.070464 0.2386974,0 0.068635,0.066589 0.073879,0.1616877 0.012989,0.2355584 -0.031513,0.038231 -0.077483,0.05858 -0.1323369,0.05858 -0.025511,0 -0.057053,-0.00609 -0.075937,-0.01467 z"
         id="path11" /><path
         style="fill:#ffcc00;stroke-width:0.0299875"
         d="m 2.2395877,2.0654104 c -0.047459,-0.044392 -0.05333,-0.077994 -0.018426,-0.10545 0.028158,-0.022148 0.041461,-0.020796 0.08092,0.00822 0.057387,0.042203 0.070335,0.094317 0.030385,0.1222993 -0.02854,0.019989 -0.051261,0.013855 -0.092878,-0.025073 z"
         id="path10" /><path
         style="fill:#ffcc00;stroke-width:0.0299875"
         d="m 1.7736269,2.0968894 c -0.00555,-0.00223 -0.015645,-0.014813 -0.022444,-0.027958 -0.016859,-0.032603 -0.00378,-0.062636 0.042791,-0.098189 0.041358,-0.031579 0.055179,-0.033356 0.083877,-0.010782 0.034906,0.027456 0.029033,0.061058 -0.018425,0.10545 -0.03718,0.034777 -0.058323,0.042534 -0.085799,0.031479 z"
         id="path9" /></g><path
       style="fill:#0000ff;stroke-width:0.0281446"
       d="m 1.4560122,2.2391345 c -0.046526,-0.026575 -0.050903,-0.02756 -0.1359005,-0.030591 l -0.087826,-0.00313 v -0.019765 c 0,-0.078692 0.1526478,-0.1120817 0.2387452,-0.052222 0.036529,0.025397 0.054063,0.024813 0.1119957,-0.00373 0.07523,-0.037062 0.124418,-0.037227 0.1970108,-6.603e-4 0.028433,0.014322 0.05584,0.02605 0.060901,0.026063 0.00506,1.26e-5 0.031307,-0.011706 0.05833,-0.02604 0.04232,-0.022452 0.05618,-0.026063 0.1000175,-0.026063 0.043837,0 0.057698,0.00361 0.1000174,0.026063 0.02702,0.014334 0.053269,0.026053 0.05833,0.02604 0.00506,-1.26e-5 0.032467,-0.011741 0.0609,-0.026063 0.072593,-0.036564 0.1217805,-0.036399 0.1970109,6.603e-4 0.057933,0.02854 0.075467,0.029124 0.1119957,0.00373 0.086097,-0.05986 0.2387451,-0.026471 0.2387451,0.052222 v 0.019765 l -0.087857,0.00313 c -0.085103,0.00304 -0.089471,0.00402 -0.1393284,0.031424 -0.060321,0.033157 -0.082364,0.032798 -0.1352004,-0.0022 -0.059641,-0.039504 -0.1221207,-0.037963 -0.1834294,0.00452 -0.042253,0.029282 -0.086011,0.028269 -0.1342664,-0.00311 -0.06185,-0.040217 -0.1201563,-0.039185 -0.1808398,0.0032 -0.039617,0.027671 -0.086367,0.028055 -0.1263887,0.00104 -0.064567,-0.043587 -0.1244196,-0.045315 -0.184781,-0.00533 -0.0512,0.033913 -0.080255,0.034134 -0.1381803,0.00104 z"
       id="path8" /><path
       style="fill:#0000ff;stroke-width:0.0281446"
       d="M 1.7806024,2.4084669 C 1.7207934,2.3700557 1.6419463,2.366577 1.5962856,2.400335 L 1.5766221,2.4148731 1.56152,2.3688102 C 1.545423,2.3197152 1.548053,2.3252382 1.548053,2.3252382 c 0,0 0.047255,-0.023929 0.067732,-0.036077 0.049184,-0.029174 0.07623,-0.028278 0.1430503,0.00474 0.048461,0.023945 0.059392,0.026605 0.094471,0.022984 0.024483,-0.00252 0.055259,-0.012893 0.080395,-0.027078 0.022961,-0.012957 0.051569,-0.022984 0.065584,-0.022984 0.014015,0 0.042624,0.010026 0.065584,0.022984 0.025135,0.014185 0.055912,0.024552 0.080395,0.027078 0.03508,0.00362 0.04601,9.573e-4 0.094471,-0.022984 0.066821,-0.033016 0.093867,-0.033913 0.1430499,-0.00474 0.020477,0.012148 0.07091,0.032033 0.07091,0.032033 0,0 -5.637e-4,-0.00147 -0.016644,0.047616 L 2.4219479,2.414874 2.4022845,2.400336 C 2.3772585,2.381834 2.3245045,2.372457 2.2853427,2.37955 2.2686107,2.38258 2.2376917,2.395769 2.2166377,2.408858 2.1696687,2.438055 2.1402847,2.436325 2.0836529,2.401028 2.0511379,2.380762 2.0380209,2.377031 1.9992859,2.377031 c -0.038804,0 -0.051791,0.00371 -0.084367,0.024092 -0.055304,0.034607 -0.088996,0.036449 -0.1343155,0.00734 z"
       id="path7" /><path
       style="fill:#0000ff;stroke-width:0.0281446"
       d="M 1.7982269,2.583804 C 1.7450639,2.55158 1.7183359,2.542666 1.674408,2.542509 1.624823,2.542338 1.619106,2.538679 1.601174,2.495765 L 1.589965,2.468943 1.617766,2.451657 c 0.041096,-0.025552 0.092591,-0.023713 0.1347845,0.00481 0.025091,0.016964 0.042944,0.022639 0.078189,0.024853 0.041006,0.00258 0.050819,1.399e-4 0.096044,-0.023904 0.027704,-0.014725 0.060328,-0.026773 0.072497,-0.026773 0.012171,0 0.044793,0.012047 0.072497,0.026773 0.045225,0.024037 0.055038,0.026479 0.096045,0.023904 0.035245,-0.00222 0.053097,-0.00788 0.078189,-0.024853 0.042193,-0.028527 0.093688,-0.030366 0.1347846,-0.00481 l 0.027801,0.017286 -0.011205,0.026822 c -0.017933,0.042918 -0.023649,0.046567 -0.073234,0.046744 -0.043928,1.709e-4 -0.070656,0.00908 -0.1238189,0.041295 -0.026593,0.016118 -0.072888,0.0094 -0.1115435,-0.016177 -0.028803,-0.01906 -0.039175,-0.021559 -0.089515,-0.021559 -0.050339,0 -0.060712,0.0025 -0.089515,0.021559 -0.038655,0.02558 -0.084951,0.032295 -0.1115431,0.016177 z"
       id="path6" /><path
       style="fill:#0000ff;stroke-width:0.0281446"
       d="m 1.8990218,2.6984058 c -0.080702,-0.012704 -0.1627479,-0.045963 -0.2087709,-0.084631 -0.021604,-0.018152 -0.021773,-0.018778 -0.00517,-0.019036 0.00944,-1.399e-4 0.039267,0.011461 0.06628,0.025795 0.038655,0.020514 0.057683,0.026063 0.089359,0.026063 0.031678,0 0.050704,-0.00555 0.08936,-0.026063 0.027011,-0.014334 0.058156,-0.026063 0.069208,-0.026063 0.011051,0 0.042873,0.012088 0.070712,0.026861 0.045734,0.02427 0.055097,0.026576 0.09706,0.023904 0.035064,-0.00223 0.054131,-0.00804 0.077823,-0.023724 0.01726,-0.011421 0.04362,-0.022409 0.058579,-0.024416 l 0.027196,-0.00365 -0.022341,0.01981 c -0.029097,0.025802 -0.100139,0.059529 -0.1563788,0.074239 -0.05498,0.014381 -0.193037,0.020336 -0.2529181,0.01091 z"
       id="path5" /><path
       style="fill:#008000;stroke-width:0.0281446"
       d="M 1.2477188,2.9025008 C 1.2326691,2.8833677 1.2322866,2.8752075 1.2322866,2.5742097 V 2.2655396 l 0.083775,0.0025 c 0.1341782,0.00401 0.1700207,0.031938 0.2025621,0.1578426 0.024322,0.094105 0.056162,0.1536437 0.1120565,0.2095473 0.088144,0.088158 0.1822617,0.1184819 0.3686065,0.1187657 0.1308357,1.98e-4 0.1959991,-0.011602 0.2704846,-0.049 0.1101098,-0.055283 0.187836,-0.1627881 0.2139763,-0.2959579 0.011072,-0.056406 0.041442,-0.1002989 0.085204,-0.1231431 0.023867,-0.012459 0.046433,-0.016046 0.1135606,-0.018051 l 0.083774,-0.0025 v 0.3086703 c 0,0.3009979 -3.809e-4,0.3091582 -0.015433,0.3282911 l -0.015432,0.01962 H 1.9992889 1.2631568 Z"
       id="path4" /><circle
       id="path2"
       style="fill:#000000;stroke:#000080;stroke-width:0.00744658"
       cx="1.4324369"
       cy="2.9208095"
       r="1.1541755e-05" /></g></svg>
