<?xml version="1.0" encoding="UTF-8" standalone="no"?>
<!-- Created with Inkscape (http://www.inkscape.org/) -->

<svg
   width="16"
   height="16"
   viewBox="0 0 4.2333333 4.2333333"
   version="1.1"
   id="svg1"
   xml:space="preserve"
   inkscape:version="1.3 (0e150ed6c4, 2023-07-21)"
   sodipodi:docname="650a_glacier.svg"
   xmlns:inkscape="http://www.inkscape.org/namespaces/inkscape"
   xmlns:sodipodi="http://sodipodi.sourceforge.net/DTD/sodipodi-0.dtd"
   xmlns="http://www.w3.org/2000/svg"
   xmlns:svg="http://www.w3.org/2000/svg"><sodipodi:namedview
     id="namedview1"
     pagecolor="#ffffff"
     bordercolor="#666666"
     borderopacity="1.0"
     inkscape:showpageshadow="2"
     inkscape:pageopacity="0.0"
     inkscape:pagecheckerboard="0"
     inkscape:deskcolor="#d1d1d1"
     inkscape:document-units="mm"
     inkscape:zoom="45.254834"
     inkscape:cx="13.04833"
     inkscape:cy="14.374155"
     inkscape:window-width="2880"
     inkscape:window-height="1514"
     inkscape:window-x="2871"
     inkscape:window-y="-11"
     inkscape:window-maximized="1"
     inkscape:current-layer="layer1" /><defs
     id="defs1" /><g
     inkscape:label="Warstwa 1"
     inkscape:groupmode="layer"
     id="layer1"><g
       id="g30"
       transform="matrix(0.00302539,0,0,0.00302539,1.3092276,1.2188787)"><path
         style="fill:#a7d9ff"
         d="M 256,0 C 114.615,0 0,114.615 0,256 H 512 C 512,114.615 397.385,0 256,0 Z"
         id="path1" /><path
         style="fill:#98a3bb"
         d="M 327.667,232.333 C 324.667,229.666 287.334,211 281.5,211 c -4.5,0 -18.333,4.667 -21.5,4.667 -8.11,0 -26.667,-15.833 -32,-15.167 -5.333,0.666 -31,7 -31,7 l 2.333,35.167 H 316 Z"
         id="path2" /><path
         style="fill:#00c0d2"
         d="M 256,512 C 397.385,512 512,397.385 512,256 H 0 c 0,141.385 114.615,256 256,256 z"
         id="path3" /><path
         style="fill:#53ccdf"
         d="M 9.013,323.337 C 47.502,340.074 147.129,352 264,352 c 101.887,0 190.635,-9.068 237.231,-22.481 3.907,-13.05 6.771,-26.541 8.562,-40.375 C 466.137,274.279 372.502,264 264,264 140.443,264 36.196,277.331 3.056,295.583 c 1.465,9.438 3.491,18.687 5.957,27.754 z"
         id="path4" /><path
         style="fill:#896e78"
         d="m 406,185 c -7,0 -58.878,37.248 -69,32 -13.5,-7 -38,11.5 -74,26 l 1,69 H 505.781 C 509.807,293.968 512,275.245 512,256 512,220.539 504.783,186.766 491.75,156.059 472,168 443.34,192 440,192 c -8,0 -27,-7 -34,-7 z"
         id="path5" /><path
         style="fill:#7d6469"
         d="M 504.69,195.302 C 483.447,204.866 422.592,232 416,232 c -8,0 13,-23 13,-23 0,0 -8,-1 -13,-1 -8,0 -96,40 -96,40 v 64 h 185.781 c 4.026,-18.032 6.219,-36.755 6.219,-56 0,-20.922 -2.572,-41.234 -7.31,-60.698 z"
         id="path6" /><path
         style="fill:#6b5255"
         d="m 505.781,312 c 4.026,-18.032 6.219,-36.755 6.219,-56 0,-11.271 -0.804,-22.346 -2.232,-33.225 -16.436,3.511 -31.328,16.53 -41.768,26.225 -13.023,12.094 -38.066,10.307 -56,5.978 V 312 Z"
         id="path7" /><path
         style="fill:#7d6469"
         d="M 152,144 C 127,143.833 112,112 96,112 81.851,112 42.716,143.232 22.777,150.47 8.189,182.657 0,218.362 0,256 c 0,19.245 2.192,37.968 6.218,56 H 232 c 0,0 20.33,-54.064 6.5,-65.5 C 186.5,203.5 160,144.053 152,144 Z"
         id="path8" /><path
         style="fill:#6b5255"
         d="M 21,237 C 12.992,237 6.337,238.382 0.407,241.648 0.143,246.399 0,251.182 0,256 c 0,19.245 2.192,37.968 6.218,56 H 77.385 L 81,252 C 59,257 38.263,237 21,237 Z"
         id="path9" /><path
         style="fill:#896e78"
         d="m 152,144 c -17.167,-0.333 -40,-32 -56,-32 -14.149,0 -53.284,31.232 -73.223,38.47 -0.661,1.458 -1.345,2.904 -1.979,4.376 19.073,9.508 39.722,22.086 47.201,27.82 10,7.667 19.333,-6 28,-6.667 15.953,-1.227 195.588,96.467 160,71 C 201.5,208 159.998,144.155 152,144 Z"
         id="path10" /><path
         style="fill:#7d6469"
         d="m 85,143 c 19.529,5.326 9.576,-18.14 9.355,-30.78 C 83.17,113.702 60.371,129.704 41.341,140.993 57,137.5 74,140 85,143 Z"
         id="path11" /><path
         style="fill:#c8e6fa"
         d="m 48,312 h 384 c 0,0 -4,-60 -27,-67 -8.174,-2.488 -20.758,3.032 -28.5,2 -7.5,-1 -20.5,-8 -32.5,-7 -12,1 -19,4 -28,4 -9,0 -21,-7 -33,-6 -12,1 -34.5,-1.833 -44.5,-3.5 -9.715,-1.619 -19.5,0.5 -35.5,2.5 -16,2 -23.333,-6.5 -43,-3 -12.668,2.254 -23,5.333 -29.333,3.667 -8.406,-2.212 -14,-4 -23.667,-2.667 -8.464,1.167 -16.5,3.5 -25.333,3.667 -11.043,0.208 -12.333,-1 -17.667,9.333 -7.159,13.87 -16,64 -16,64 z"
         id="path12" /><path
         style="fill:#a5d7eb"
         d="M 59.272,261.108 C 53.46,281.099 48,312 48,312 h 384 c 0,0 -1.83,-26.934 -9.945,-46.82 -5.232,-2.132 -10.69,-3.847 -14.721,-3.847 -10.668,0 -6,40 -11.334,40.667 -5.334,0.667 -6.916,-35.25 -12.25,-35.25 -5.334,0 -9.084,27.25 -11.084,29.917 -2,2.667 -6.666,-24.167 -8.666,-26 -3.345,-3.066 -12.25,-1.667 -14.667,0 -2.196,1.514 -5.333,20.667 -10,22.667 -4.667,2 -3.333,-26 -6,-29.333 -2.667,-3.333 -22.5,0.333 -30.667,1.333 -11.929,1.46 -15,21.667 -21,24.334 -6,2.667 -5.833,-23.167 -7.167,-27.167 -1.334,-4 -7.171,-7.231 -17.167,-6.5 C 250.5,256.5 246,290.667 242,292.667 c -4,2 -8.667,-25.333 -12.667,-26.667 -4,-1.333 -6,23.333 -10,24 -4,0.667 -0.667,-18 -2.667,-20.667 -2,-2.667 -30.667,-10.667 -37.333,-12 -6.666,-1.333 -12.666,37.334 -14.666,38.667 -2,1.333 -8.667,-14.667 -12,-18 -3.333,-3.333 -30,-8.667 -35.333,-8.667 -5.333,0 -7.333,27.333 -12.667,28 -5.333,0.667 -3.333,-30.667 -8.667,-36 -5.064,-5.064 -28.131,-1.717 -36.728,-0.225 z"
         id="path13" /><path
         style="fill:#00c0d2"
         d="m 48,312 h 384 c 0,0 -0.084,-1.196 -0.279,-3.193 -6.848,-3.368 -14.835,-7.084 -16.221,-6.807 -2.5,0.5 -18.41,5.627 -24.25,5.25 C 383.5,306.75 338,303.5 332,303 c -6,-0.5 -11.5,-19 -17,-20.5 -5.5,-1.5 -6.75,19.75 -11.25,21 -4.088,1.136 -31.5,-0.75 -52.25,-2 -12.724,-0.767 -27,4.5 -38.5,6.5 -11.5,2 -66.5,-8.667 -76.667,-10 -10.352,-1.358 -21.333,8.167 -26.5,8.5 -4.503,0.291 -26.5,-10.833 -30.167,-13.833 -1.504,-1.231 -21.597,0.528 -28.411,2.378 C 49.282,304.758 48,312 48,312 Z"
         id="path14" /><path
         style="fill:#ffffff"
         d="M 66.633,243.447 C 79,247.667 102.667,242.833 105,246 c 1.681,2.281 2.5,6.833 11,9.167 8.5,2.334 14.167,3.167 16,1.833 1.833,-1.333 11.667,-9.5 14.667,-8.5 3,1 19,8.333 20.667,7.167 1.667,-1.167 6.167,-10.667 10.5,-9.833 4.333,0.833 40.167,11.167 43.167,9 1.282,-0.926 1.393,-11.312 4,-12.833 2,-1.167 12.833,-0.333 13.5,1.5 0.667,1.833 1.812,7.5 4.5,7.5 3,0 3.833,-5.986 7,-7.833 2,-1.167 32.626,3.459 34,4.833 2,2 0.833,16.667 3,16.667 2.167,0 4.667,-8 8.333,-7.833 3.667,0.167 0.833,-12 7.167,-10.167 6.334,1.833 34,6.083 37.25,5.083 3.25,-1 5,-8 7.25,-8 2.25,0 -1.25,16.75 3,16.5 4.25,-0.25 9.5,-13 13.75,-12 4.25,1 4,8.25 7.5,8.5 3.5,0.25 17.749,-2.501 18.749,-0.751 1,1.75 7.25,4.25 9.5,0.5 1.471,-2.451 9.929,-3.396 15.654,-3.764 -2.894,-3.722 -6.229,-6.541 -10.154,-7.736 -8.174,-2.488 -20.758,3.032 -28.5,2 -7.5,-1 -20.5,-8 -32.5,-7 -12,1 -19,4 -28,4 -9,0 -21,-7 -33,-6 -12,1 -34.5,-1.833 -44.5,-3.5 -9.715,-1.619 -19.5,0.5 -35.5,2.5 -16,2 -23.333,-6.5 -43,-3 -12.668,2.254 -23,5.333 -29.333,3.667 -8.406,-2.212 -14,-4 -23.667,-2.667 -8.464,1.167 -16.5,3.5 -25.333,3.667 -8.985,0.169 -11.531,-0.492 -15.034,4.78 z"
         id="path15" /><g
         id="g17">&#10;	<path
   style="fill:#c8e6fa"
   d="M 376.333,320 H 331.5 c 0,0 6.21,-16.567 15.167,-17 10.333,-0.5 22.596,1.591 26.584,6.632 1.457,1.842 3.082,10.368 3.082,10.368 z"
   id="path16" />&#10;	<path
   style="fill:#c8e6fa"
   d="m 326.75,320 h -26.312 c 0,0 0.426,-6.296 5.312,-8.25 5.221,-2.088 15.213,-2.141 18.076,0.315 1.674,1.435 2.924,7.935 2.924,7.935 z"
   id="path17" />&#10;</g><path
         style="fill:#ffffff"
         d="m 362.353,326.5 h -23.915 c 0,0 0.426,-5.921 5.312,-7.875 5.221,-2.088 12.692,-1.459 15.75,0.75 2.25,1.625 2.853,7.125 2.853,7.125 z"
         id="path18" /><path
         style="fill:#c8e6fa"
         d="m 102.333,308.333 c -3.317,0 -6.99,0.43 -10.178,1.285 C 87.98,305.879 79.294,304 72,304 c -8,0 -16,16 -16,16 h 59.333 c 0,0 -6.5,-11.667 -13,-11.667 z"
         id="path19" /><path
         style="fill:#ffffff"
         d="M 129.603,326.5 H 99.188 c 0,0 0.542,-5.921 6.756,-7.875 6.64,-2.088 16.141,-1.459 20.031,0.75 2.861,1.625 3.628,7.125 3.628,7.125 z"
         id="path20" /><g
         style="opacity:0.5"
         id="g21">&#10;	<path
   style="fill:#ffffff"
   d="m 315.211,105.318 c 0,-7.598 6.16,-13.758 13.758,-13.758 1.147,0 2.243,0.181 3.308,0.446 3.59,-3.877 8.68,-6.342 14.381,-6.342 10.855,0 19.655,8.8 19.655,19.655 z"
   id="path21" />&#10;</g><g
         id="g23">&#10;	<path
   style="fill:#ffffff"
   d="m 308.147,72.484 c 0,-8.354 -6.772,-15.126 -15.125,-15.126 -1.261,0 -2.467,0.199 -3.637,0.49 -3.947,-4.262 -9.543,-6.972 -15.81,-6.972 -0.906,0 -1.767,0.158 -2.644,0.267 -2.151,-3.36 -5.739,-5.717 -10.025,-5.717 -1.009,0 -1.974,0.16 -2.911,0.393 -3.159,-3.412 -7.638,-5.581 -12.655,-5.581 -9.551,0 -17.295,7.744 -17.295,17.295 h 29.98 c -3.735,3.884 -6.058,9.137 -6.058,14.951 0,0 56.18,0 56.18,0 z"
   id="path22" />&#10;	<path
   style="fill:#ffffff"
   d="m 280.109,113.116 c -1.552,0 -3.019,0.306 -4.425,0.749 -4.454,-6.402 -11.842,-10.612 -20.232,-10.612 -8.39,0 -15.778,4.209 -20.232,10.612 -1.406,-0.443 -2.873,-0.749 -4.425,-0.749 -8.171,0 -14.794,6.624 -14.794,14.794 h 78.903 c -10e-4,-8.17 -6.624,-14.794 -14.795,-14.794 z"
   id="path23" />&#10;</g><g
         style="opacity:0.5"
         id="g24">&#10;	<path
   style="fill:#ffffff"
   d="m 297.665,163.605 c -0.818,0 -1.591,0.161 -2.331,0.395 -2.346,-3.373 -6.239,-5.591 -10.659,-5.591 -4.42,0 -8.313,2.218 -10.659,5.591 -0.741,-0.234 -1.514,-0.395 -2.331,-0.395 -4.305,0 -7.794,3.49 -7.794,7.794 h 41.57 c -0.002,-4.304 -3.492,-7.794 -7.796,-7.794 z"
   id="path24" />&#10;</g><g
         style="opacity:0.5"
         id="g25">&#10;	<path
   style="fill:#ffffff"
   d="m 196.313,92.984 c 0,-9.687 -7.853,-17.54 -17.539,-17.54 -3.356,0 -6.429,1.026 -9.083,2.671 -0.932,-0.285 -1.865,-0.583 -2.89,-0.583 -1.054,0 -2.05,0.208 -3.004,0.508 -3.023,-4.347 -8.04,-7.205 -13.736,-7.205 -5.697,0 -10.712,2.858 -13.736,7.205 -0.955,-0.301 -1.951,-0.508 -3.004,-0.508 -5.547,0 -10.044,4.497 -10.044,10.044 h 28.741 c -0.81,1.638 -1.306,3.457 -1.306,5.407 h 45.601 z"
   id="path25" />&#10;</g><g
         style="opacity:0.5"
         id="g26">&#10;	<path
   style="fill:#ffffff"
   d="m 394.938,138.484 h 18.376 c 0,-8.094 -6.562,-14.655 -14.655,-14.655 -4.25,0 -8.045,1.838 -10.722,4.729 -0.794,-0.197 -1.612,-0.333 -2.467,-0.333 -2.983,0 -5.612,1.318 -7.487,3.35 -0.531,-0.062 -1.039,-0.198 -1.588,-0.198 -4.775,0 -8.979,2.396 -11.514,6.039 -0.8,-0.252 -1.635,-0.426 -2.519,-0.426 -4.65,0 -8.419,3.769 -8.419,8.419 h 44.903 c 0,-2.951 -1.61,-5.422 -3.908,-6.925 z"
   id="path26" />&#10;</g></g></g></svg>
