<?xml version="1.0" encoding="UTF-8" standalone="no"?>
<!-- Created with Inkscape (http://www.inkscape.org/) -->

<svg
   width="16"
   height="16"
   viewBox="0 0 4.2333333 4.2333333"
   version="1.1"
   id="svg1"
   xml:space="preserve"
   inkscape:version="1.3 (0e150ed6c4, 2023-07-21)"
   sodipodi:docname="650b_harbour.svg"
   inkscape:export-filename="..\icons_png\650b_harbour.svg"
   inkscape:export-xdpi="300"
   inkscape:export-ydpi="300"
   xmlns:inkscape="http://www.inkscape.org/namespaces/inkscape"
   xmlns:sodipodi="http://sodipodi.sourceforge.net/DTD/sodipodi-0.dtd"
   xmlns="http://www.w3.org/2000/svg"
   xmlns:svg="http://www.w3.org/2000/svg"><sodipodi:namedview
     id="namedview1"
     pagecolor="#ffffff"
     bordercolor="#666666"
     borderopacity="1.0"
     inkscape:showpageshadow="2"
     inkscape:pageopacity="0.0"
     inkscape:pagecheckerboard="0"
     inkscape:deskcolor="#d1d1d1"
     inkscape:document-units="mm"
     inkscape:zoom="128"
     inkscape:cx="6.3242187"
     inkscape:cy="8.7304687"
     inkscape:window-width="2880"
     inkscape:window-height="1514"
     inkscape:window-x="-32000"
     inkscape:window-y="-30380"
     inkscape:window-maximized="0"
     inkscape:current-layer="layer1" /><defs
     id="defs1" /><g
     inkscape:label="Warstwa 1"
     inkscape:groupmode="layer"
     id="layer1"><path
       style="fill:#000000;stroke-width:0.635176"
       d="m 1.3142906,2.6626714 c -0.015638,-0.00444 -0.042627,-0.015685 -0.059975,-0.025032 -0.017348,-0.00935 -0.040602,-0.017 -0.051676,-0.017 -0.018971,0 -0.039992,-0.013283 -0.039992,-0.025273 0,-0.00298 0.00447,-0.00988 0.00993,-0.015347 0.014339,-0.014341 0.053691,-0.00729 0.1056894,0.01895 0.05983,0.030186 0.095887,0.029875 0.1578094,-0.00133 0.038211,-0.019264 0.052434,-0.023084 0.087269,-0.023418 0.035623,-3.454e-4 0.048535,0.00297 0.089648,0.023017 0.065043,0.031717 0.095762,0.031717 0.1608051,0 0.041108,-0.020049 0.054026,-0.023363 0.089648,-0.023017 0.034838,3.375e-4 0.049054,0.00415 0.087269,0.023418 0.063052,0.03179 0.099075,0.031785 0.1598011,-2.62e-5 0.038557,-0.020199 0.049508,-0.023041 0.08871,-0.023041 0.039178,0 0.05019,0.00288 0.088836,0.023041 0.060758,0.031739 0.096062,0.031741 0.1589659,2.62e-5 0.03821,-0.019264 0.052434,-0.023084 0.087268,-0.023418 0.035624,-3.454e-4 0.048535,0.00297 0.089648,0.023017 0.026416,0.012882 0.056532,0.023419 0.066925,0.023419 0.017937,0 0.038752,0.013576 0.038752,0.025273 0,0.00298 -0.00447,0.00988 -0.00993,0.015348 -0.014299,0.014299 -0.053612,0.00718 -0.1052087,-0.019031 -0.059378,-0.030175 -0.096266,-0.029842 -0.1582901,0.00144 -0.03821,0.019265 -0.052434,0.023084 -0.087269,0.023419 -0.035624,3.454e-4 -0.048535,-0.00297 -0.089648,-0.023017 -0.036335,-0.017716 -0.055915,-0.023419 -0.080403,-0.023419 -0.024488,0 -0.044069,0.00572 -0.080403,0.023419 -0.041109,0.020049 -0.054026,0.023363 -0.089648,0.023017 -0.034838,-3.434e-4 -0.049055,-0.00415 -0.087269,-0.023426 -0.062903,-0.031718 -0.098208,-0.03171 -0.1589658,2.62e-5 -0.038647,0.020189 -0.049661,0.023042 -0.088836,0.023042 -0.039198,0 -0.05015,-0.00286 -0.08871,-0.023042 -0.059692,-0.031268 -0.096974,-0.031674 -0.1566419,-0.00168 -0.050007,0.025122 -0.094264,0.031948 -0.1341081,0.020691 z m 0,-0.1010949 c -0.015638,-0.00444 -0.042627,-0.015685 -0.059975,-0.025032 -0.017348,-0.00935 -0.040602,-0.017 -0.051676,-0.017 -0.018971,0 -0.039992,-0.013283 -0.039992,-0.025273 0,-0.00298 0.00447,-0.00988 0.00993,-0.015349 0.014339,-0.014341 0.053691,-0.00729 0.1056894,0.01895 0.05983,0.030185 0.095887,0.029875 0.1578094,-0.00133 0.038211,-0.019266 0.052434,-0.023085 0.087269,-0.023418 0.035623,-3.455e-4 0.048535,0.00297 0.089648,0.023017 0.065043,0.031717 0.095762,0.031717 0.1608051,0 0.041108,-0.020048 0.054026,-0.023363 0.089648,-0.023017 0.034838,3.375e-4 0.049054,0.00415 0.087269,0.023418 0.063052,0.03179 0.099075,0.031785 0.1598011,-2.62e-5 0.038557,-0.020199 0.049508,-0.023042 0.08871,-0.023042 0.039178,0 0.05019,0.00288 0.088836,0.023042 0.060758,0.031737 0.096062,0.031741 0.1589659,2.62e-5 0.03821,-0.019266 0.052434,-0.023085 0.087268,-0.023418 0.035624,-3.455e-4 0.048535,0.00297 0.089648,0.023017 0.026416,0.012882 0.056532,0.023418 0.066925,0.023418 0.017937,0 0.038752,0.013576 0.038752,0.025273 0,0.00298 -0.00447,0.00988 -0.00993,0.015347 -0.014299,0.014299 -0.053612,0.00718 -0.1052087,-0.01903 -0.059378,-0.030175 -0.096266,-0.029842 -0.1582901,0.00144 -0.03821,0.019265 -0.052434,0.023084 -0.087269,0.023418 -0.035624,3.455e-4 -0.048535,-0.00297 -0.089648,-0.023017 -0.065043,-0.031717 -0.095762,-0.031717 -0.1608046,0 -0.041109,0.020048 -0.054026,0.023363 -0.089648,0.023017 -0.034838,-3.375e-4 -0.049054,-0.00415 -0.087269,-0.023418 -0.062904,-0.031718 -0.098208,-0.031709 -0.1589658,2.62e-5 -0.038648,0.020189 -0.049661,0.023043 -0.088836,0.023043 -0.039198,0 -0.05015,-0.00286 -0.08871,-0.023043 -0.059691,-0.031283 -0.096975,-0.031689 -0.1566428,-0.00171 -0.050005,0.025122 -0.094264,0.031948 -0.1341082,0.02069 z m 0.111024,-0.1277856 c -0.00545,-0.00545 -0.00993,-0.012368 -0.00993,-0.015347 0,-0.00298 0.00446,-0.00988 0.00993,-0.015347 0.00845,-0.00845 0.031522,-0.00993 0.1548015,-0.00993 0.079681,0 0.1448728,-0.00227 0.1448728,-0.00508 0,-0.018907 -0.018062,-0.02022 -0.2788235,-0.02022 -0.2312656,0 -0.2648791,-0.0012 -0.2735882,-0.00993 -0.01247,-0.012468 -0.01247,-0.018217 0,-0.030689 0.00604,-0.00603 0.020897,-0.00993 0.03791,-0.00993 h 0.027981 l 9.69e-5,-0.3174997 c 5.32e-5,-0.1746255 0.00219,-0.3207151 0.00474,-0.3246432 0.00255,-0.00393 0.099182,-0.054406 0.21473,-0.1121708 l 0.2100885,-0.1050133 0.210088,0.1050287 c 0.1155484,0.057765 0.2121767,0.1082426 0.21473,0.1121707 0.00258,0.00393 0.00468,0.098838 0.00476,0.2109116 l 9.4e-5,0.2037708 h 0.063187 0.063185 V 1.9860848 c 0,-0.1193023 0.00166,-0.1236606 0.04784,-0.1236606 h 0.02798 v -0.027979 c 0,-0.039377 0.010696,-0.04784 0.060474,-0.04784 h 0.040621 v -0.065895 c 0,-0.05148 0.00216,-0.068063 0.00993,-0.075821 0.00545,-0.00545 0.012368,-0.00993 0.015347,-0.00993 0.012371,0 0.025273,0.021308 0.025273,0.041744 0,0.019656 0.00124,0.021223 0.012182,0.015365 0.014111,-0.00756 0.029562,-0.00321 0.034524,0.00972 0.00559,0.014613 -0.00165,0.025216 -0.024863,0.036282 -0.017777,0.00848 -0.021835,0.013956 -0.021835,0.029469 0,0.015966 0.00248,0.01906 0.015347,0.01906 0.023352,0 0.035201,0.016107 0.035201,0.04784 0,0.025415 0.00141,0.027979 0.015347,0.027979 0.032066,0 0.035201,0.011024 0.035201,0.1236607 v 0.1038026 h 0.065894 c 0.05148,0 0.068063,0.00216 0.075821,0.00993 0.00545,0.00545 0.00993,0.010536 0.00993,0.011274 0,7.302e-4 -0.015432,0.047452 -0.034293,0.1038028 L 2.635785,2.3173506 h 0.037002 c 0.035154,0 0.05686,0.00965 0.05686,0.025273 0,0.016993 -0.02164,0.025273 -0.066056,0.025273 -0.040888,0 -0.046578,0.00148 -0.049506,0.012638 -0.00305,0.011572 -1.939e-4,0.012637 0.033563,0.012637 0.048899,0 0.069517,0.017897 0.046796,0.040621 -0.00889,0.00889 -0.075139,0.00993 -0.6345513,0.00993 -0.5594137,0 -0.6256587,-0.00102 -0.6345511,-0.00993 z M 2.6043835,2.2668037 2.6463908,2.1404352 H 2.1414609 c -0.2777115,0 -0.5049301,0.00124 -0.5049301,0.00274 0,0.0028 0.1197673,0.2096644 0.1364987,0.235755 l 0.00912,0.014219 h 0.3901161 0.390115 z M 2.234074,2.2316011 c -0.00545,-0.00545 -0.00993,-0.012368 -0.00993,-0.015347 0,-0.011493 0.020671,-0.025273 0.037911,-0.025273 0.017243,0 0.037912,0.013782 0.037912,0.025273 0,0.011494 -0.020671,0.025273 -0.037912,0.025273 -0.00993,0 -0.022523,-0.00446 -0.027979,-0.00993 z m 0.101095,0 c -0.00545,-0.00545 -0.00993,-0.012368 -0.00993,-0.015347 0,-0.00298 0.00447,-0.00988 0.00993,-0.015347 0.014713,-0.014713 0.2181664,-0.014713 0.2328794,0 0.00545,0.00545 0.00993,0.012368 0.00993,0.015347 0,0.00298 -0.00447,0.00988 -0.00993,0.015347 -0.00823,0.00823 -0.028039,0.00993 -0.1164397,0.00993 -0.088403,0 -0.1081987,-0.00167 -0.1164397,-0.00993 z M 1.3395643,2.0998167 c 0,-0.1893343 0.00129,-0.2188218 0.00993,-0.2274637 0.00875,-0.00875 0.046418,-0.00993 0.3186296,-0.00993 0.2722122,0 0.3098741,0.00117 0.3186295,0.00993 0.00823,0.00823 0.00993,0.027789 0.00993,0.1137318 v 0.103803 h 0.025273 0.025273 V 1.8940367 1.6981856 L 1.857676,1.6033682 1.6681229,1.5085512 1.47857,1.6033682 1.2890169,1.6981856 v 0.309583 0.3095826 h 0.025274 0.025274 z m 0.1615713,-0.297869 c -0.00753,-0.00753 -0.00993,-0.023441 -0.00993,-0.065894 0,-0.042453 0.00242,-0.05836 0.00993,-0.065894 0.014886,-0.014886 0.3190884,-0.014886 0.3339745,0 0.014224,0.014224 0.014224,0.1175588 0,0.1317845 -0.014886,0.014886 -0.3190882,0.014886 -0.3339745,3.5e-6 z m 0.1417136,-0.065893 v -0.025273 h -0.050547 -0.050546 v 0.025273 0.025273 h 0.050546 0.050546 z m 0.1516425,0 v -0.025273 h -0.050546 -0.050546 v 0.025273 0.025273 h 0.050546 0.050547 z m -0.1137319,0.57843 c 0,-0.00158 -0.024298,-0.044336 -0.054002,-0.095024 -0.0647,-0.1104173 -0.06302,-0.1064263 -0.050165,-0.1192809 0.00903,-0.00903 0.032355,-0.010291 0.1899164,-0.010291 h 0.179625 V 2.0393403 1.9887931 H 1.6681229 1.3901117 v 0.1642794 0.1642793 h 0.145324 c 0.079928,0 0.1453241,-0.00131 0.1453241,-0.00289 z M 2.5021562,2.0014295 V 1.9129718 H 2.3884245 c -0.1095197,0 -0.113732,4.679e-4 -0.113732,0.012637 0,0.012055 0.0042,0.012637 0.091166,0.012637 0.110518,0 0.1110239,2.879e-4 0.1110239,0.063186 0,0.062896 -5.059e-4,0.063185 -0.1110239,0.063185 -0.086954,0 -0.091166,5.84e-4 -0.091166,0.012636 0,0.012167 0.0042,0.012637 0.113732,0.012637 h 0.1137317 z m -0.075821,0 c 0,-0.011933 -0.0042,-0.012638 -0.075821,-0.012638 -0.071609,0 -0.075821,7.051e-4 -0.075821,0.012638 0,0.011932 0.0042,0.012637 0.075821,0.012637 0.071609,0 0.075821,-7.05e-4 0.075821,-0.012637 z m -0.480201,-0.075821 c 0,-0.012448 -0.0042,-0.012638 -0.2780112,-0.012638 -0.2737988,0 -0.2780112,1.915e-4 -0.2780112,0.012638 0,0.012448 0.0042,0.012636 0.2780112,0.012636 0.2737989,0 0.2780112,-1.916e-4 0.2780112,-0.012636 z m 0.5054746,-0.075821 c 0,-0.011586 -0.0042,-0.012638 -0.050546,-0.012638 -0.046336,0 -0.050546,0.00103 -0.050546,0.012638 0,0.011586 0.0042,0.012637 0.050546,0.012637 0.046336,0 0.050546,-0.00103 0.050546,-0.012637 z m -0.31512,-0.3757183 c -0.030639,-0.00979 -0.05991,-0.034528 -0.075048,-0.063412 -0.012939,-0.024689 -0.012809,-0.08292 2.413e-4,-0.108055 0.014503,-0.027933 0.051136,-0.058077 0.076328,-0.062802 0.017151,-0.00322 0.023759,-0.00894 0.032383,-0.028074 0.014846,-0.032924 0.056871,-0.072512 0.094674,-0.089184 0.064205,-0.028318 0.1479477,-0.013677 0.199178,0.034824 0.016452,0.015576 0.031767,0.022792 0.059807,0.028183 0.066088,0.012707 0.1092299,0.053325 0.1230988,0.1159029 0.014172,0.063953 -0.018539,0.131678 -0.07852,0.1625677 -0.031317,0.016131 -0.031478,0.016144 -0.2179278,0.01751 -0.1454322,0.00106 -0.1926786,-5.764e-4 -0.2142151,-0.00745 z m 0.4138047,-0.051556 c 0.030715,-0.014576 0.048419,-0.042505 0.051653,-0.081488 0.00541,-0.064887 -0.029589,-0.1046359 -0.096216,-0.1093695 -0.035479,-0.00252 -0.039939,-0.0046 -0.060083,-0.02803 -0.027994,-0.032556 -0.06355,-0.048587 -0.1077661,-0.048587 -0.061807,0 -0.1026164,0.027726 -0.1326871,0.090144 -0.014823,0.030768 -0.017511,0.033017 -0.043667,0.036507 -0.040729,0.00543 -0.063747,0.032875 -0.063747,0.075993 0,0.028108 0.0027,0.034809 0.021483,0.053608 l 0.021483,0.021483 H 2.334715 c 0.1658752,0 0.1970994,-0.00149 0.2155815,-0.010256 z"
       id="path30"
       inkscape:export-filename="..\icons_png\650b_harbour.png"
       inkscape:export-xdpi="300"
       inkscape:export-ydpi="300" /></g></svg>
