<?xml version="1.0" encoding="UTF-8" standalone="no"?>
<!-- Created with Inkscape (http://www.inkscape.org/) -->

<svg
   width="16"
   height="16"
   viewBox="0 0 4.2333333 4.2333333"
   version="1.1"
   id="svg1"
   inkscape:version="1.3 (0e150ed6c4, 2023-07-21)"
   sodipodi:docname="650c_island.svg"
   xml:space="preserve"
   inkscape:export-filename="..\icons_png\640b_military.png"
   inkscape:export-xdpi="300"
   inkscape:export-ydpi="300"
   xmlns:inkscape="http://www.inkscape.org/namespaces/inkscape"
   xmlns:sodipodi="http://sodipodi.sourceforge.net/DTD/sodipodi-0.dtd"
   xmlns="http://www.w3.org/2000/svg"
   xmlns:svg="http://www.w3.org/2000/svg"
   xmlns:rdf="http://www.w3.org/1999/02/22-rdf-syntax-ns#"
   xmlns:cc="http://creativecommons.org/ns#"
   xmlns:dc="http://purl.org/dc/elements/1.1/"><metadata
     id="metadata8"><rdf:RDF><cc:Work
         rdf:about=""><dc:format>image/svg+xml</dc:format><dc:type
           rdf:resource="http://purl.org/dc/dcmitype/StillImage" /></cc:Work></rdf:RDF></metadata><sodipodi:namedview
     id="namedview1"
     pagecolor="#ffffff"
     bordercolor="#666666"
     borderopacity="1.0"
     inkscape:showpageshadow="2"
     inkscape:pageopacity="0.0"
     inkscape:pagecheckerboard="0"
     inkscape:deskcolor="#d1d1d1"
     inkscape:document-units="mm"
     inkscape:zoom="36.460833"
     inkscape:cx="21.008846"
     inkscape:cy="4.5116907"
     inkscape:window-width="2880"
     inkscape:window-height="1514"
     inkscape:window-x="2871"
     inkscape:window-y="-11"
     inkscape:window-maximized="1"
     inkscape:current-layer="layer1"
     showgrid="false"
     units="px" /><defs
     id="defs1" /><g
     inkscape:label="Warstwa 1"
     inkscape:groupmode="layer"
     id="layer1"
     transform="translate(0,-292.76667)"><g
       style="fill:#000000"
       id="g8"
       transform="matrix(0.07056955,0,0,0.07056955,1.3185382,293.897)"><path
         d="M 1.258,4.956 1.098,6.118 2.228,5.802 2.669,6.89 3.489,6.052 4.415,6.772 4.707,5.637 5.869,5.797 5.553,4.667 6.641,4.227 5.803,3.407 6.523,2.481 5.388,2.189 5.548,1.027 4.418,1.343 3.977,0.255 3.152,1.093 2.226,0.373 1.934,1.508 0.772,1.348 1.088,2.478 0,2.919 0.838,3.739 0.118,4.665 Z M 2.687,1.73 C 2.874,1.664 3.09,1.626 3.315,1.626 c 1.075,0 1.946,0.871 1.946,1.946 0,1.075 -0.871,1.946 -1.946,1.946 -0.849,0 -1.572,-0.544 -1.837,-1.303 L 1.474,4.201 C 1.408,4.013 1.369,3.797 1.369,3.572 1.369,2.723 1.914,2.001 2.673,1.736 L 2.687,1.732 Z"
         id="path1" /><path
         d="m 4.691,20.582 c 0.111,0 0.212,-0.046 0.284,-0.119 l 0.246,-0.254 c 0.434,-0.447 1.04,-0.724 1.711,-0.724 0.671,0 1.277,0.277 1.711,0.724 l 10e-4,0.001 0.252,0.258 c 0.072,0.073 0.173,0.119 0.284,0.119 h 10e-4 c 0.11,0 0.21,-0.046 0.28,-0.119 l 0.266,-0.27 c 0.434,-0.441 1.037,-0.714 1.703,-0.714 0.673,0 1.282,0.279 1.716,0.727 l 10e-4,0.001 0.24,0.246 c 0.072,0.075 0.172,0.121 0.284,0.122 0.111,-0.002 0.211,-0.047 0.284,-0.119 l 0.244,-0.252 c 0.434,-0.447 1.04,-0.724 1.711,-0.724 0.671,0 1.277,0.277 1.711,0.724 l 0.001,0.001 0.25,0.254 c 0.072,0.075 0.172,0.121 0.284,0.122 0.112,0 0.213,-0.047 0.284,-0.122 l 0.246,-0.254 c 0.162,-0.164 0.346,-0.305 0.548,-0.418 l 0.012,-0.006 C 18.013,18.652 16.55,17.746 14.937,17.149 L 14.846,17.12 c -0.674,-2.876 -0.08,-6.654 0.846,-9.511 0.021,-0.022 0.04,-0.042 0.058,-0.064 1.512,0.375 2.615,1.72 2.615,3.323 0,0.858 -0.316,1.642 -0.838,2.242 l 0.004,-0.004 c 0.022,0 0.047,10e-4 0.073,10e-4 1.888,0 3.418,-1.53 3.418,-3.418 0,-1.888 -1.53,-3.418 -3.418,-3.418 -0.037,0 -0.074,0.001 -0.111,0.002 h 0.005 c 0.261,-0.075 0.563,-0.127 0.875,-0.145 h 0.011 c 0.088,-0.007 0.191,-0.012 0.294,-0.012 1.28,0 2.408,0.65 3.072,1.638 l 0.008,0.013 C 21.933,7.411 22.035,6.993 22.035,6.55 22.035,6.5 22.034,6.45 22.031,6.4 V 6.407 C 21.81,4.711 20.375,3.415 18.636,3.415 c -0.14,0 -0.278,0.008 -0.413,0.025 L 18.239,3.438 C 18.005,3.45 17.786,3.481 17.573,3.53 L 17.599,3.525 C 17.6,3.499 17.6,3.469 17.6,3.439 17.6,3.195 17.576,2.957 17.531,2.727 L 17.535,2.75 C 17.334,1.21 16.031,0.033 14.452,0.033 c -0.128,0 -0.255,0.008 -0.379,0.023 l 0.015,-0.001 c -0.44,0.088 -0.827,0.277 -1.148,0.542 l 0.004,-0.003 c 0.959,0.341 1.698,1.089 2.02,2.031 l 0.007,0.023 C 14.694,2.419 14.381,2.215 14.046,2.05 L 14.018,2.037 C 11.991,1.053 9.683,1.62 8.863,3.308 8.68,3.68 8.572,4.117 8.572,4.579 c 0,0.07 0.002,0.139 0.007,0.208 L 8.578,4.778 c 0.628,-0.394 1.392,-0.627 2.21,-0.627 0.718,0 1.395,0.18 1.986,0.497 L 12.751,4.637 c 0.325,0.16 0.604,0.337 0.863,0.539 L 13.603,5.168 C 13.186,4.994 12.702,4.892 12.195,4.892 c -2.063,0 -3.736,1.673 -3.736,3.736 0,0.998 0.391,1.904 1.028,2.574 L 9.485,11.2 c 0.369,0.388 0.82,0.696 1.325,0.895 l 0.025,0.009 c -0.12,-0.351 -0.19,-0.755 -0.19,-1.176 0,-2.063 1.672,-3.735 3.735,-3.735 0.14,0 0.278,0.008 0.414,0.023 L 14.777,7.214 c -2.038,3.902 -3.261,6.946 -3.465,9.291 h -0.05 c -1.026,0.002 -2.017,0.148 -2.956,0.419 L 8.382,16.905 C 7.265,15.752 6.405,14.343 5.898,12.776 L 5.877,12.701 c 0,-0.016 0,-0.032 0.006,-0.045 0.21,-0.091 0.454,-0.144 0.711,-0.144 1.006,0 1.822,0.816 1.822,1.822 0,0.049 -0.002,0.098 -0.006,0.146 v -0.006 c 0.459,-0.335 0.754,-0.871 0.754,-1.476 0,-1.006 -0.816,-1.822 -1.822,-1.822 -0.422,0 -0.81,0.143 -1.119,0.384 l 0.004,-0.003 c 0.1,-0.127 0.209,-0.24 0.328,-0.34 l 0.004,-0.003 c 0.344,-0.302 0.799,-0.486 1.296,-0.486 0.24,0 0.471,0.043 0.684,0.122 L 8.525,10.846 C 8.474,10.587 8.363,10.36 8.207,10.172 l 0.002,0.002 C 7.877,9.827 7.41,9.612 6.893,9.612 c -0.484,0 -0.924,0.189 -1.25,0.497 L 5.644,10.108 C 5.555,10.183 5.474,10.262 5.4,10.346 L 5.398,10.348 C 5.314,10.233 5.224,10.131 5.126,10.039 L 5.125,10.038 C 4.823,9.723 4.399,9.528 3.929,9.528 3.49,9.528 3.09,9.699 2.794,9.978 L 2.795,9.977 C 2.645,10.14 2.534,10.34 2.477,10.562 l -0.002,0.009 c 0.154,-0.05 0.332,-0.078 0.516,-0.078 0.376,0 0.724,0.119 1.009,0.322 L 3.995,10.811 c -0.039,-0.002 -0.084,-0.003 -0.13,-0.003 -0.167,0 -0.33,0.017 -0.488,0.049 l 0.016,-0.003 c -1.022,0.108 -1.811,0.965 -1.811,2.007 0,0.061 0.003,0.122 0.008,0.181 L 1.589,13.034 c 0.054,0.278 0.175,0.522 0.347,0.722 L 1.934,13.754 c 0.297,-0.73 0.946,-1.26 1.731,-1.383 l 0.013,-0.002 c 0.138,-0.028 0.296,-0.044 0.458,-0.044 0.026,0 0.053,0 0.079,0.001 H 4.211 c -0.873,0.224 -1.508,1.004 -1.508,1.932 0,1.1 0.891,1.991 1.991,1.991 0.191,0 0.375,-0.027 0.55,-0.077 L 5.23,16.175 C 4.716,15.809 4.384,15.216 4.384,14.544 c 0,-0.12 0.011,-0.238 0.031,-0.353 L 4.413,14.203 C 4.517,13.614 4.87,13.124 5.357,12.837 l 0.009,-0.005 c 0.204,1.754 0.653,3.354 1.315,4.837 L 6.639,17.564 c -1.279,0.611 -2.38,1.358 -3.351,2.243 l 0.011,-0.01 c 0.429,0.146 0.794,0.381 1.09,0.684 l 10e-4,10e-4 c 0.081,0.063 0.185,0.102 0.297,0.102 z"
         id="path2" /><path
         d="m 1.202,21.61 c 0.116,-10e-4 0.221,-0.048 0.297,-0.125 0.241,-0.247 0.578,-0.401 0.95,-0.401 0.372,0 0.709,0.153 0.95,0.4 0.329,0.337 0.787,0.546 1.295,0.546 0.508,0 0.966,-0.209 1.294,-0.546 l 0.246,-0.252 c 0.178,-0.184 0.427,-0.297 0.703,-0.297 0.276,0 0.525,0.114 0.703,0.297 l 0.252,0.258 c 0.328,0.338 0.786,0.547 1.294,0.547 0.504,0 0.961,-0.207 1.288,-0.541 l 0.268,-0.27 c 0.177,-0.182 0.424,-0.294 0.698,-0.294 0.276,0 0.525,0.115 0.703,0.299 l 0.24,0.246 c 0.326,0.34 0.785,0.552 1.293,0.552 h 0.002 10e-4 c 0.508,0 0.966,-0.211 1.293,-0.549 l 0.001,-0.001 0.244,-0.25 c 0.178,-0.183 0.428,-0.297 0.703,-0.297 0.275,0 0.525,0.114 0.703,0.297 l 0.246,0.252 c 0.328,0.337 0.786,0.546 1.293,0.546 0.507,0 0.965,-0.209 1.293,-0.546 l 0.247,-0.255 c 0.178,-0.184 0.427,-0.297 0.703,-0.297 0.276,0 0.525,0.114 0.703,0.297 0.075,0.078 0.18,0.126 0.296,0.126 0.116,0 0.221,-0.048 0.296,-0.126 0.076,-0.079 0.123,-0.187 0.123,-0.305 0,-0.118 -0.047,-0.226 -0.123,-0.305 -0.329,-0.337 -0.787,-0.547 -1.295,-0.547 -0.508,0 -0.966,0.209 -1.294,0.546 l -0.246,0.254 c -0.178,0.184 -0.427,0.297 -0.703,0.297 -0.276,0 -0.525,-0.114 -0.703,-0.297 l -0.246,-0.254 c -0.329,-0.337 -0.787,-0.547 -1.295,-0.547 -0.508,0 -0.966,0.209 -1.294,0.546 l -0.244,0.25 c -0.179,0.182 -0.428,0.295 -0.703,0.297 -0.276,-0.001 -0.525,-0.116 -0.703,-0.3 l -0.24,-0.246 c -0.328,-0.34 -0.788,-0.552 -1.297,-0.552 -0.504,0 -0.96,0.207 -1.287,0.541 l -0.266,0.27 c -0.178,0.18 -0.425,0.292 -0.698,0.292 -0.276,0 -0.525,-0.114 -0.703,-0.297 L 8.231,20.611 C 7.902,20.274 7.444,20.065 6.936,20.065 c -0.508,0 -0.966,0.209 -1.294,0.546 L 5.396,20.863 C 5.218,21.046 4.97,21.16 4.695,21.16 c -0.001,0 -0.001,0 -0.002,0 -10e-4,0 -0.002,0 -0.003,0 -0.274,0 -0.521,-0.114 -0.697,-0.296 -0.391,-0.403 -0.937,-0.653 -1.542,-0.653 -0.605,0 -1.151,0.25 -1.541,0.652 l -0.001,0.001 c -0.076,0.079 -0.122,0.187 -0.122,0.305 0,0.118 0.047,0.226 0.123,0.305 0.073,0.081 0.178,0.132 0.295,0.133 z"
         id="path3" /><path
         d="m 21.696,22.584 c -0.329,-0.337 -0.787,-0.547 -1.295,-0.547 -0.508,0 -0.966,0.209 -1.294,0.546 l -0.246,0.254 c -0.178,0.183 -0.428,0.297 -0.703,0.297 -0.275,0 -0.525,-0.114 -0.703,-0.297 l -0.247,-0.255 c -0.329,-0.337 -0.787,-0.547 -1.295,-0.547 -0.508,0 -0.966,0.209 -1.294,0.546 l -0.244,0.25 c -0.179,0.182 -0.428,0.295 -0.703,0.297 -0.276,-0.001 -0.525,-0.116 -0.703,-0.3 l -0.24,-0.246 c -0.328,-0.34 -0.788,-0.552 -1.297,-0.552 -0.504,0 -0.96,0.207 -1.287,0.541 l -0.266,0.27 c -0.178,0.18 -0.425,0.292 -0.698,0.292 -0.276,0 -0.525,-0.114 -0.703,-0.297 L 8.226,22.578 C 7.897,22.241 7.439,22.031 6.931,22.031 c -0.508,0 -0.966,0.209 -1.294,0.546 l -0.246,0.254 c -0.178,0.184 -0.427,0.297 -0.703,0.297 -0.276,0 -0.525,-0.114 -0.703,-0.297 -0.391,-0.403 -0.937,-0.653 -1.542,-0.653 -0.605,0 -1.151,0.25 -1.541,0.652 l -0.001,0.001 c -0.076,0.079 -0.122,0.187 -0.122,0.305 0,0.118 0.047,0.226 0.123,0.305 0.075,0.078 0.18,0.127 0.297,0.127 0.116,-0.001 0.221,-0.048 0.297,-0.125 0.241,-0.247 0.578,-0.401 0.95,-0.401 0.372,0 0.709,0.153 0.95,0.4 0.329,0.337 0.787,0.546 1.295,0.546 0.508,0 0.966,-0.209 1.294,-0.546 L 6.231,23.19 c 0.178,-0.183 0.428,-0.297 0.703,-0.297 0.275,0 0.525,0.114 0.703,0.297 l 0.252,0.258 c 0.328,0.337 0.786,0.547 1.294,0.547 0.504,0 0.961,-0.207 1.288,-0.541 l 0.268,-0.27 c 0.177,-0.182 0.424,-0.294 0.698,-0.294 0.276,0 0.525,0.115 0.703,0.299 l 0.24,0.246 c 0.326,0.34 0.785,0.552 1.293,0.552 h 10e-4 0.002 c 0.507,0 0.965,-0.21 1.292,-0.548 v -0.001 l 0.244,-0.25 c 0.178,-0.184 0.427,-0.297 0.703,-0.297 0.276,0 0.525,0.114 0.703,0.297 l 0.246,0.252 c 0.328,0.337 0.786,0.546 1.293,0.546 0.507,0 0.965,-0.209 1.293,-0.546 l 0.246,-0.252 c 0.178,-0.184 0.427,-0.297 0.703,-0.297 0.276,0 0.525,0.114 0.703,0.297 0.075,0.078 0.18,0.126 0.296,0.126 0.116,0 0.221,-0.048 0.296,-0.126 0.078,-0.078 0.127,-0.187 0.127,-0.306 0,-0.119 -0.048,-0.226 -0.125,-0.304 z"
         id="path4" /></g></g><style
     type="text/css"
     id="style1">&#10;	.st0{fill-rule:evenodd;clip-rule:evenodd;}&#10;</style><style
     type="text/css"
     id="style1-9">&#10;<![CDATA[
	.st0{fill:#D1D1D1;}
	.st1{fill:#454545;}
]]>&#10;</style></svg>
