<?xml version="1.0" encoding="UTF-8" standalone="no"?>
<!-- Created with Inkscape (http://www.inkscape.org/) -->

<svg
   width="16"
   height="16"
   viewBox="0 0 4.2333333 4.2333333"
   version="1.1"
   id="svg1"
   inkscape:version="1.3 (0e150ed6c4, 2023-07-21)"
   sodipodi:docname="650d_lake.svg"
   xml:space="preserve"
   xmlns:inkscape="http://www.inkscape.org/namespaces/inkscape"
   xmlns:sodipodi="http://sodipodi.sourceforge.net/DTD/sodipodi-0.dtd"
   xmlns="http://www.w3.org/2000/svg"
   xmlns:svg="http://www.w3.org/2000/svg"
   xmlns:rdf="http://www.w3.org/1999/02/22-rdf-syntax-ns#"
   xmlns:cc="http://creativecommons.org/ns#"
   xmlns:dc="http://purl.org/dc/elements/1.1/"><metadata
     id="metadata8"><rdf:RDF><cc:Work
         rdf:about=""><dc:format>image/svg+xml</dc:format><dc:type
           rdf:resource="http://purl.org/dc/dcmitype/StillImage" /></cc:Work></rdf:RDF></metadata><sodipodi:namedview
     id="namedview1"
     pagecolor="#ffffff"
     bordercolor="#666666"
     borderopacity="1.0"
     inkscape:showpageshadow="2"
     inkscape:pageopacity="0.0"
     inkscape:pagecheckerboard="0"
     inkscape:deskcolor="#d1d1d1"
     inkscape:document-units="mm"
     inkscape:zoom="72.921665"
     inkscape:cx="8.488561"
     inkscape:cy="10.319293"
     inkscape:window-width="2880"
     inkscape:window-height="1514"
     inkscape:window-x="2871"
     inkscape:window-y="-11"
     inkscape:window-maximized="1"
     inkscape:current-layer="layer1"
     showgrid="false"
     units="px" /><defs
     id="defs1" /><g
     inkscape:label="Warstwa 1"
     inkscape:groupmode="layer"
     id="layer1"
     transform="translate(0,-292.76667)"><path
       style="fill:#0000ff;stroke:#000000;stroke-width:0.01;stroke-linecap:butt;stroke-linejoin:miter;stroke-opacity:1;stroke-dasharray:none"
       d="m 1.8831589,294.27782 -0.2796517,0.0898 -0.1128869,0.12572 0.1026245,0.16163 0.3155702,0.0872 0.00257,0.15137 -0.1359774,0.26683 0.056444,0.2309 c 0,0 0.2719548,0.17703 0.2822172,0.17959 0.010262,0.003 0.3951042,-0.018 0.3951042,-0.018 l 0.2873486,-0.17189 0.053878,-0.21808 -0.1051899,-0.21551 -0.2309051,-0.11545 -0.2822173,-0.0539 c 0,0 -0.074403,0.003 -0.094928,-0.0282 -0.020525,-0.0308 -0.010262,-0.11802 -0.010262,-0.11802 l 0.094928,-0.16163 c 0,0 -0.1154525,-0.13342 -0.1282806,-0.14624 -0.012828,-0.0128 -0.2103801,-0.0462 -0.2103801,-0.0462 z"
       id="path7" /><g
       style="fill:#000000"
       id="g2"
       transform="matrix(0.00267622,0,0,0.0028559,3.6074005,294.6008)"><path
         style="fill:#008000;stroke:#008000;stroke-width:0.5155"
         d="m -432.99198,-0.82996768 -30.60835,-72.65126032 -27.12221,72.65126032 h 19.38296 V 22.108862 h 18.96463 V -0.82996768 Z"
         id="path6" /><path
         style="fill:#008000;stroke:#0000ff;stroke-width:0.5155"
         d="m -698.35731,322.26591 -37.4412,-88.75724 -33.04865,88.75724 h 23.63607 v 27.88911 h 23.21772 v -27.88911 z"
         id="path5" /><path
         style="fill:#008000;stroke:#0000ff;stroke-width:0.5155"
         d="M -734.40405,182.88985 -780.49088,73.564352 -821.27877,182.88985 h 29.14417 v 34.51283 h 28.58638 v -34.51283 z"
         id="path4" /><path
         style="fill:#008000;stroke:#0000ff;stroke-width:0.5155"
         d="m -290.75732,29.220592 -46.1565,-109.39521 -40.71819,109.39521 h 29.07445 v 34.44311 h 28.65614 v -34.44311 z"
         id="path3" /><path
         style="fill:#008000;stroke:#0000ff;stroke-width:0.5155"
         d="m -369.82304,-85.822178 -33.53672,-79.553822 -29.63222,79.553822 h 21.19575 v 25.03052 h 20.84715 v -25.03052 z"
         id="path2" /><path
         style="fill:#000080;stroke:#000080;stroke-width:0.5155"
         d="m -478.17242,362.49602 c -78.08964,0 -149.76477,-27.05248 -191.80767,-72.44208 -26.21581,-28.3075 -38.76593,-61.14698 -36.18619,-95.03231 2.57975,-33.88532 21.75355,-58.49751 46.50517,-86.59583 17.15183,-19.382968 20.91687,-32.421148 18.96463,-38.138418 -2.57975,-6.97229 -16.4546,-12.61985 -24.12412,-13.94458 -53.8958,-0.41834 -100.61014,-17.70961 -125.50121,-46.5051697 a 67.561484,67.561484 0 0 1 -17.08211,-55.3599803 c 7.80897,-50.2702 74.25488,-88.199452 154.50593,-88.199452 81.85468,0 144.18695,39.184262 145.02362,91.058092 a 72.163193,72.163193 0 0 1 -19.24352,50.4096603 c -15.12987,16.5940397 -17.50045,27.8891497 -16.24544,30.4688997 0,0 5.64756,12.06206 54.94165,13.45652 118.94725,3.41642 214.18876,63.168938 226.39026,142.025528 a 117.76196,117.76196 0 0 1 -29.6323,96.56621 c -38.7659,45.11071 -108.5585,72.23291 -186.5087,72.23291 z M -652.47965,-92.166958 c -61.91393,0 -109.32549,27.88916 -113.16026,52.78023 a 26.355253,26.355253 0 0 0 7.46036,21.75354 c 16.38488,19.3829603 53.82607,31.93308 94.89285,31.93308 h 3.27698 c 4.74116,0.76696 46.36572,8.22731 58.35806,41.83374 8.36675,23.28745 -0.69723,50.200478 -26.98276,79.972158 -20.91687,23.56634 -34.86145,40.64844 -36.18618,62.05337 a 85.131652,85.131652 0 0 0 25.16997,63.37811 c 34.30366,36.95313 94.54423,59.05529 161.1296,59.05529 66.58536,0 123.89758,-21.68382 154.99401,-57.93972 a 78.019917,78.019917 0 0 0 20.0802,-62.7506 c -8.9943,-58.00945 -89.03617,-103.817388 -186.2996,-106.606308 -51.59494,-1.46418 -81.78495,-13.94458 -92.24338,-38.97509 -9.1337,-21.47466 -0.76696,-47.9693497 23.49661,-74.53377 a 30.538627,30.538627 0 0 0 8.64564,-21.96272 c -0.0697,-23.70578 -42.53097,-49.99131 -102.84127,-49.99131 z m 191.38934,390.727088 a 17.430725,17.430725 0 1 1 0,-34.86145 c 52.84995,0 99.21567,-25.65802 99.21567,-54.87192 a 33.74588,33.74588 0 0 0 -8.22729,-20.91686 17.438566,17.438566 0 1 1 27.26161,-21.75355 68.607325,68.607325 0 0 1 15.8271,42.87958 c -0.07,50.06104 -58.91581,89.5242 -134.07709,89.5242 z"
         id="path1" /></g></g></svg>
