<?xml version="1.0" encoding="UTF-8" standalone="no"?>
<!-- Created with Inkscape (http://www.inkscape.org/) -->

<svg
   width="16"
   height="16"
   viewBox="0 0 4.2333333 4.2333333"
   version="1.1"
   id="svg1"
   inkscape:version="1.3 (0e150ed6c4, 2023-07-21)"
   sodipodi:docname="6512_stream.svg"
   xml:space="preserve"
   inkscape:export-filename="..\icons_png\6607_cliff.png"
   inkscape:export-xdpi="300"
   inkscape:export-ydpi="300"
   xmlns:inkscape="http://www.inkscape.org/namespaces/inkscape"
   xmlns:sodipodi="http://sodipodi.sourceforge.net/DTD/sodipodi-0.dtd"
   xmlns="http://www.w3.org/2000/svg"
   xmlns:svg="http://www.w3.org/2000/svg"
   xmlns:rdf="http://www.w3.org/1999/02/22-rdf-syntax-ns#"
   xmlns:cc="http://creativecommons.org/ns#"
   xmlns:dc="http://purl.org/dc/elements/1.1/"><metadata
     id="metadata8"><rdf:RDF><cc:Work
         rdf:about=""><dc:format>image/svg+xml</dc:format><dc:type
           rdf:resource="http://purl.org/dc/dcmitype/StillImage" /></cc:Work></rdf:RDF></metadata><sodipodi:namedview
     id="namedview1"
     pagecolor="#ffffff"
     bordercolor="#666666"
     borderopacity="1.0"
     inkscape:showpageshadow="2"
     inkscape:pageopacity="0.0"
     inkscape:pagecheckerboard="0"
     inkscape:deskcolor="#d1d1d1"
     inkscape:document-units="mm"
     inkscape:zoom="51.563404"
     inkscape:cx="4.8483999"
     inkscape:cy="12.4216"
     inkscape:window-width="2880"
     inkscape:window-height="1514"
     inkscape:window-x="2871"
     inkscape:window-y="-11"
     inkscape:window-maximized="1"
     inkscape:current-layer="layer1"
     showgrid="false"
     units="px" /><defs
     id="defs1" /><g
     inkscape:label="Warstwa 1"
     inkscape:groupmode="layer"
     id="layer1"
     transform="translate(0,-292.76667)"><g
       id="g9"
       transform="matrix(0.10600654,0,0,0.10600654,1.7141042,263.70798)"><g
         id="g4"
         transform="matrix(0.02763689,0,0,0.02763689,-3.1318772,287.8236)">&#10;	<path
   class="st0"
   d="m 253.2,162.198 h 0.095 v 28.111 h 30.914 v -28.174 c 30.672,-0.59 44.659,-17.897 32.643,-63.578 -9.518,-36.216 -12.237,-88.148 -48.959,-88.148 -36.732,0 -39.441,51.931 -48.97,88.148 -12.237,46.503 2.457,63.641 34.277,63.641 z"
   id="path1" />&#10;	<path
   class="st0"
   d="m 373.99,252.59 h 0.116 v 34.856 h 38.334 v -34.93 c 38.03,-0.749 55.389,-22.198 40.485,-78.852 -11.806,-44.902 -15.178,-109.291 -60.722,-109.291 -45.533,0 -48.906,64.39 -60.711,109.291 -15.167,57.677 3.046,78.926 42.498,78.926 z"
   id="path2" />&#10;	<path
   class="st0"
   d="M 328.604,277.981 C 220.968,231.004 168.12,213.401 130.945,168.375 92.884,122.293 172.02,52.896 218.997,21.624 H 141.949 C 57.48,52.391 -55.985,160.068 31.594,250.64 c 12.184,-22.208 30.63,-38.503 60.711,-38.503 60.026,0 73.739,64.833 83.762,112.168 2.171,10.298 4.237,20.027 6.588,28.954 3.9,14.841 6.04,28.153 6.577,40.148 21.228,36.637 15.041,69.776 -21.112,108.184 h 338.581 c 27.405,-90.54 -54.408,-169.644 -178.097,-223.61 z"
   id="path3" />&#10;	<path
   class="st0"
   d="m 92.305,233.723 c -52.09,0 -55.947,73.645 -69.45,125.028 -17.36,65.982 3.479,90.298 48.611,90.298 h 0.137 v 39.874 h 43.858 v -39.958 c 43.509,-0.854 63.367,-25.402 46.313,-90.213 -13.511,-51.384 -17.37,-125.029 -69.469,-125.029 z"
   id="path4" />&#10;</g></g></g><style
     type="text/css"
     id="style1">&#10;	.st0{fill-rule:evenodd;clip-rule:evenodd;}&#10;</style><style
     type="text/css"
     id="style1-9">&#10;<![CDATA[
	.st0{fill:#D1D1D1;}
	.st1{fill:#454545;}
]]>&#10;</style><style
     type="text/css"
     id="style1-6">&#10;	.st0{fill:#000000;}&#10;</style></svg>
