<?xml version="1.0" encoding="UTF-8" standalone="no"?>
<!-- Created with Inkscape (http://www.inkscape.org/) -->

<svg
   width="16"
   height="16"
   viewBox="0 0 4.2333333 4.2333333"
   version="1.1"
   id="svg1"
   inkscape:version="1.3 (0e150ed6c4, 2023-07-21)"
   sodipodi:docname="6513_swamp.svg"
   xml:space="preserve"
   xmlns:inkscape="http://www.inkscape.org/namespaces/inkscape"
   xmlns:sodipodi="http://sodipodi.sourceforge.net/DTD/sodipodi-0.dtd"
   xmlns="http://www.w3.org/2000/svg"
   xmlns:svg="http://www.w3.org/2000/svg"
   xmlns:rdf="http://www.w3.org/1999/02/22-rdf-syntax-ns#"
   xmlns:cc="http://creativecommons.org/ns#"
   xmlns:dc="http://purl.org/dc/elements/1.1/"><metadata
     id="metadata8"><rdf:RDF><cc:Work
         rdf:about=""><dc:format>image/svg+xml</dc:format><dc:type
           rdf:resource="http://purl.org/dc/dcmitype/StillImage" /></cc:Work></rdf:RDF></metadata><sodipodi:namedview
     id="namedview1"
     pagecolor="#ffffff"
     bordercolor="#666666"
     borderopacity="1.0"
     inkscape:showpageshadow="2"
     inkscape:pageopacity="0.0"
     inkscape:pagecheckerboard="0"
     inkscape:deskcolor="#d1d1d1"
     inkscape:document-units="mm"
     inkscape:zoom="72.921665"
     inkscape:cx="7.3229266"
     inkscape:cy="10.154732"
     inkscape:window-width="2880"
     inkscape:window-height="1514"
     inkscape:window-x="2871"
     inkscape:window-y="-11"
     inkscape:window-maximized="1"
     inkscape:current-layer="layer1"
     showgrid="false"
     units="px" /><defs
     id="defs1" /><g
     inkscape:label="Warstwa 1"
     inkscape:groupmode="layer"
     id="layer1"
     transform="translate(0,-292.76667)"><path
       fill="#000000"
       d="m 1.9541542,294.07325 a 0.03073937,0.03073937 0 0 0 -0.0272,0.0156 c -0.011934,0.0205 -0.023579,0.0411 -0.035085,0.062 -0.020515,-0.003 -0.040752,-8.1e-4 -0.053082,0.0115 -0.078043,0.0776 -0.1931785,0.32724 -0.1466108,0.3614 0.00632,0.004 0.01322,0.009 0.020419,0.0118 -0.053843,0.13861 -0.097669,0.27922 -0.1298301,0.41599 -0.00621,-0.21035 -0.046387,-0.41147 -0.2013267,-0.52722 0.1426534,0.18854 0.1581624,0.50434 0.1355026,0.76494 -0.037827,0.002 -0.075526,0.005 -0.1131534,0.009 l 0.00461,0.0613 c 0.034067,-0.002 0.068241,-0.005 0.1024256,-0.007 -0.017483,0.15497 -0.046826,0.28315 -0.067041,0.34127 l 0.091509,-0.0252 0.064213,0.0127 c 0.010284,-0.10919 0.024854,-0.22189 0.053296,-0.33793 0.3389612,-0.0206 0.6861669,-0.0289 1.0520108,-0.002 0.029803,0.065 0.024811,0.12376 0.00825,0.20758 -0.00225,-0.099 -0.1057465,-0.19144 -0.4117464,-0.18676 -0.1206438,0.002 -0.3234842,0.0807 -0.3020382,0.1993 0.032481,0.17952 0.3039473,0.20625 0.5334895,0.12215 l -0.106068,-0.14146 0.2474262,0.12215 c 0.022797,-0.033 0.037409,-0.0698 0.038834,-0.10627 0.047104,0.006 0.094241,0.0117 0.1411579,0.019 0.066655,-0.11908 0.081707,-0.49947 -0.2847434,-1.01753 0.1281676,0.28508 0.2325836,0.61602 0.2043584,0.72551 -0.00728,-6e-4 -0.014569,-10e-4 -0.021844,-0.002 -0.09197,-0.12307 -0.3050806,-0.26149 -0.4135708,-0.31568 0.1709622,0.14353 0.2713791,0.2352 0.3271117,0.30952 -0.1253618,-0.009 -0.2485361,-0.0123 -0.3698849,-0.0134 -0.213655,-0.002 -0.4216472,0.005 -0.6261127,0.0177 0.046097,-0.16005 0.1214827,-0.32627 0.2515774,-0.4982 -0.1661285,0.12411 -0.2507943,0.27666 -0.3087069,0.4359 0.031592,-0.18115 0.086667,-0.37555 0.1607828,-0.56595 0.00568,8.1e-4 0.011227,0.001 0.016776,0.002 0.074636,0.008 0.1586285,-0.2205 0.1704833,-0.34086 0.00118,-0.0123 -0.00429,-0.024 -0.013552,-0.0337 0.010906,-0.0198 0.021972,-0.0394 0.033263,-0.0587 a 0.03073937,0.03073937 0 0 0 -0.025882,-0.0466 z"
       id="path1"
       style="stroke-width:0.00323572" /></g></svg>
