<?xml version="1.0" encoding="UTF-8" standalone="no"?>
<!-- Created with Inkscape (http://www.inkscape.org/) -->

<svg
   xmlns:dc="http://purl.org/dc/elements/1.1/"
   xmlns:cc="http://creativecommons.org/ns#"
   xmlns:rdf="http://www.w3.org/1999/02/22-rdf-syntax-ns#"
   xmlns:svg="http://www.w3.org/2000/svg"
   xmlns="http://www.w3.org/2000/svg"
   xmlns:sodipodi="http://sodipodi.sourceforge.net/DTD/sodipodi-0.dtd"
   xmlns:inkscape="http://www.inkscape.org/namespaces/inkscape"
   width="16"
   height="16"
   viewBox="0 0 4.2333333 4.2333333"
   version="1.1"
   id="svg1"
   inkscape:version="0.92.5 (2060ec1f9f, 2020-04-08)"
   sodipodi:docname="6600_land_feature.svg">
  <metadata
     id="metadata12">
    <rdf:RDF>
      <cc:Work
         rdf:about="">
        <dc:format>image/svg+xml</dc:format>
        <dc:type
           rdf:resource="http://purl.org/dc/dcmitype/StillImage" />
        <dc:title></dc:title>
      </cc:Work>
    </rdf:RDF>
  </metadata>
  <sodipodi:namedview
     id="namedview1"
     pagecolor="#ffffff"
     bordercolor="#666666"
     borderopacity="1.0"
     inkscape:showpageshadow="2"
     inkscape:pageopacity="0.0"
     inkscape:pagecheckerboard="0"
     inkscape:deskcolor="#d1d1d1"
     inkscape:document-units="mm"
     inkscape:zoom="12.890851"
     inkscape:cx="27.613525"
     inkscape:cy="10.979418"
     inkscape:window-width="1920"
     inkscape:window-height="1055"
     inkscape:window-x="1366"
     inkscape:window-y="0"
     inkscape:window-maximized="1"
     inkscape:current-layer="layer1"
     showgrid="false"
     units="px" />
  <defs
     id="defs1" />
  <g
     inkscape:label="Warstwa 1"
     inkscape:groupmode="layer"
     id="layer1"
     transform="translate(0,-292.76667)">
    <path
       style="fill:#00ff00;stroke:#008000;stroke-width:0.01283843;stroke-linecap:butt;stroke-linejoin:miter;stroke-miterlimit:4;stroke-dasharray:none;stroke-opacity:1"
       d="m 1.3169175,295.41414 c 0,0 0.067722,-0.2121 0.134104,-0.3907 0.033196,-0.0896 0.074081,-0.1926 0.1090003,-0.26812 0.03492,-0.0752 0.066194,-0.13578 0.066194,-0.13578 l 0.061245,-4e-5 c 0,0 0.1069409,-0.19216 0.1550325,-0.22015 0.049101,-0.0285 0.1269405,-0.0494 0.1937948,-0.0526 0.078945,-5e-5 0.1670745,-4e-5 0.2341035,0.0376 0.081754,0.051 0.1666634,0.23643 0.1666634,0.23643 l 0.064348,4e-5 c 0,0 0.088665,0.18014 0.125302,0.27359 0.067217,0.1713 0.1728044,0.52425 0.1728044,0.52425 z"
       id="path828"
       inkscape:connector-curvature="0"
       sodipodi:nodetypes="cssccsaaccacc" />
  </g>
</svg>
