<?xml version="1.0" encoding="UTF-8" standalone="no"?>
<!-- Created with Inkscape (http://www.inkscape.org/) -->

<svg
   xmlns:dc="http://purl.org/dc/elements/1.1/"
   xmlns:cc="http://creativecommons.org/ns#"
   xmlns:rdf="http://www.w3.org/1999/02/22-rdf-syntax-ns#"
   xmlns:svg="http://www.w3.org/2000/svg"
   xmlns="http://www.w3.org/2000/svg"
   xmlns:sodipodi="http://sodipodi.sourceforge.net/DTD/sodipodi-0.dtd"
   xmlns:inkscape="http://www.inkscape.org/namespaces/inkscape"
   width="16"
   height="16"
   viewBox="0 0 4.2333333 4.2333333"
   version="1.1"
   id="svg1"
   inkscape:version="0.92.5 (2060ec1f9f, 2020-04-08)"
   sodipodi:docname="6606_cape.svg">
  <metadata
     id="metadata9">
    <rdf:RDF>
      <cc:Work
         rdf:about="">
        <dc:format>image/svg+xml</dc:format>
        <dc:type
           rdf:resource="http://purl.org/dc/dcmitype/StillImage" />
        <dc:title></dc:title>
      </cc:Work>
    </rdf:RDF>
  </metadata>
  <sodipodi:namedview
     id="namedview1"
     pagecolor="#ffffff"
     bordercolor="#666666"
     borderopacity="1.0"
     inkscape:showpageshadow="2"
     inkscape:pageopacity="0.0"
     inkscape:pagecheckerboard="0"
     inkscape:deskcolor="#d1d1d1"
     inkscape:document-units="mm"
     inkscape:zoom="18.230416"
     inkscape:cx="18.377999"
     inkscape:cy="-1.3204982"
     inkscape:window-width="1920"
     inkscape:window-height="1055"
     inkscape:window-x="1366"
     inkscape:window-y="0"
     inkscape:window-maximized="1"
     inkscape:current-layer="layer1"
     showgrid="false"
     units="px" />
  <defs
     id="defs1" />
  <g
     inkscape:label="Warstwa 1"
     inkscape:groupmode="layer"
     id="layer1"
     transform="translate(0,-292.76667)">
    <g
       style="fill:#000000"
       id="g1456"
       transform="matrix(0.00323974,0,0,0.00323974,1.3198154,294.13691)">
      <g
         id="g1438">
        <path
           id="path1424"
           d="m 455.5,292.001 h -73.838 l 24.09,-36.357 c 0.519,-0.782 0.885,-1.654 1.082,-2.571 l 13.714,-63.999 c 0.867,-4.05 -1.712,-8.037 -5.763,-8.905 -4.04,-0.867 -8.036,1.711 -8.905,5.762 L 392.464,248.541 363.669,292 H 198.33 l 45.69,-34.516 c 0.922,-0.696 1.671,-1.597 2.188,-2.63 l 46.524,-93.049 41.418,-11.834 -13.749,82.492 -22.901,30.538 c -2.485,3.313 -1.813,8.015 1.5,10.5 1.35,1.012 2.929,1.5 4.494,1.5 2.28,0 4.532,-1.036 6.006,-3 l 24,-32 c 0.721,-0.961 1.2,-2.082 1.398,-3.267 l 15.528,-93.169 36.062,-28.849 69.84,-7.76 c 4.117,-0.458 7.083,-4.166 6.626,-8.282 -0.457,-4.116 -4.16,-7.083 -8.282,-6.626 l -72,8 c -1.411,0.157 -2.748,0.711 -3.857,1.598 l -38.823,31.059 -54.552,15.586 c -2.021,0.578 -3.707,1.977 -4.647,3.857 l -17.943,35.886 c -0.032,0.003 -0.063,0.001 -0.095,0.005 l -80,8 c -2.561,0.256 -4.812,1.807 -5.962,4.109 l -14.683,29.365 -61.243,22.966 c -1.594,0.598 -2.937,1.72 -3.808,3.182 L 75.392,292.002 H 7.5 c -4.143,0 -7.5,3.358 -7.5,7.5 0,4.142 3.357,7.5 7.5,7.5 h 448 c 4.143,0 7.5,-3.358 7.5,-7.5 0,-4.142 -3.357,-7.501 -7.5,-7.501 z m -267.141,-81.449 66.557,-6.656 -21.34,42.679 L 173.444,292 h -35.838 l 19.197,-19.197 c 0.569,-0.57 1.044,-1.228 1.404,-1.949 z m -79.763,55.048 43.655,-16.37 -6.915,13.829 -28.943,28.942 H 92.854 Z"
           inkscape:connector-curvature="0" />
        <path
           id="path1426"
           d="m 311.5,324.001 h -144 c -4.143,0 -7.5,3.358 -7.5,7.5 0,4.142 3.357,7.5 7.5,7.5 h 144 c 4.143,0 7.5,-3.358 7.5,-7.5 0,-4.142 -3.357,-7.5 -7.5,-7.5 z"
           inkscape:connector-curvature="0" />
        <path
           id="path1428"
           d="m 135.5,324.001 h -64 c -4.143,0 -7.5,3.358 -7.5,7.5 0,4.142 3.357,7.5 7.5,7.5 h 64 c 4.143,0 7.5,-3.358 7.5,-7.5 0,-4.142 -3.357,-7.5 -7.5,-7.5 z"
           inkscape:connector-curvature="0" />
        <path
           id="path1430"
           d="m 359.5,324.001 h -16 c -4.143,0 -7.5,3.358 -7.5,7.5 0,4.142 3.357,7.5 7.5,7.5 h 16 c 4.143,0 7.5,-3.358 7.5,-7.5 0,-4.142 -3.357,-7.5 -7.5,-7.5 z"
           inkscape:connector-curvature="0" />
        <path
           id="path1432"
           d="m 295.5,356.001 h -79.998 c -4.143,0 -7.5,3.358 -7.5,7.5 0,4.142 3.357,7.5 7.5,7.5 H 295.5 c 4.143,0 7.5,-3.358 7.5,-7.5 0,-4.142 -3.357,-7.5 -7.5,-7.5 z"
           inkscape:connector-curvature="0" />
        <path
           id="path1434"
           d="M 183.501,356.001 H 167.5 c -4.143,0 -7.5,3.358 -7.5,7.5 0,4.142 3.357,7.5 7.5,7.5 h 16.001 c 4.143,0 7.5,-3.358 7.5,-7.5 0,-4.142 -3.357,-7.5 -7.5,-7.5 z"
           inkscape:connector-curvature="0" />
        <path
           id="path1436"
           d="m 416.166,137.929 -3.429,16.002 c -0.867,4.05 1.713,8.037 5.763,8.905 0.529,0.114 1.058,0.168 1.579,0.168 3.46,0 6.571,-2.41 7.326,-5.93 l 3.429,-16.002 c 0.867,-4.05 -1.713,-8.037 -5.763,-8.905 -4.037,-0.867 -8.036,1.711 -8.905,5.762 z"
           inkscape:connector-curvature="0" />
      </g>
    </g>
  </g>
</svg>
